P3
16 16
255
86 106 105 101 74 53 82 78 67 87 81 65 82 88 76 72 74 60 85 70 63 73 71 58 75 79 56 77 71 59 87 80 70 82 75 67 95 97 75 87 90 73 103 70 53 83 106 114 
120 92 71 192 98 60 176 97 66 185 95 58 183 94 62 177 93 56 188 102 67 166 93 50 183 106 64 176 96 61 173 93 58 184 93 64 195 102 61 181 97 61 197 101 61 95 77 57 
85 81 70 177 96 66 133 74 42 152 85 42 154 78 42 150 77 36 163 88 48 155 78 36 165 85 48 163 87 53 158 89 50 159 87 49 155 81 34 142 78 40 188 112 76 74 75 61 
87 78 63 190 98 61 144 77 34 184 114 54 198 110 64 185 102 52 183 101 53 191 96 50 181 97 50 184 92 51 189 101 55 183 97 48 180 104 44 152 90 41 183 100 58 88 72 57 
65 68 57 183 94 62 151 75 39 185 97 51 187 87 55 174 90 54 164 92 54 174 96 58 171 104 61 167 87 50 177 87 50 180 82 47 192 100 53 156 83 48 167 86 56 79 74 70 
71 72 58 184 99 62 163 90 49 185 103 53 173 89 53 157 84 49 151 81 47 158 84 45 156 81 41 153 81 41 154 90 44 173 96 54 189 101 55 161 81 46 179 94 63 79 82 71 
86 71 64 173 87 52 151 78 37 174 94 45 159 90 51 150 82 47 172 89 57 178 95 53 184 91 57 170 92 56 149 86 43 160 91 49 175 94 47 158 78 45 184 93 62 91 82 73 
76 74 61 169 96 53 164 87 45 191 99 52 170 95 56 152 80 40 175 92 50 159 88 32 160 87 42 169 91 52 166 89 47 175 92 52 184 102 52 158 89 47 173 94 51 102 101 80 
104 101 82 173 90 50 160 85 45 185 102 52 171 94 52 153 85 40 168 93 51 161 84 38 161 80 35 169 91 52 153 82 38 168 90 51 185 103 55 152 79 38 173 94 51 101 105 82 
99 102 95 173 94 63 158 83 51 187 103 57 170 88 50 156 81 39 175 93 53 180 97 53 171 93 54 170 94 58 165 91 52 175 93 56 184 97 52 153 77 43 171 87 51 84 82 69 
89 81 62 177 90 47 159 82 40 187 101 50 169 90 51 153 85 48 145 78 49 138 73 41 152 81 39 158 84 45 160 89 47 168 86 46 183 99 52 163 89 54 177 94 62 78 75 66 
76 73 68 176 93 63 160 86 51 187 99 51 181 91 54 173 90 50 176 92 56 180 98 60 171 92 53 180 98 61 174 92 52 177 89 51 189 101 55 155 79 45 172 89 57 81 76 70 
81 77 65 175 95 58 160 91 49 185 100 45 190 102 54 178 92 41 181 93 45 185 100 46 180 96 49 188 101 56 185 99 52 195 107 61 191 106 51 148 77 31 173 92 49 79 74 55 
82 70 58 180 98 61 154 90 52 156 84 36 159 85 50 151 81 45 157 84 51 148 80 41 157 82 42 161 82 49 152 76 42 155 79 45 150 79 33 143 85 47 179 105 66 70 68 53 
82 55 46 192 99 66 175 102 69 176 97 54 174 88 55 175 90 53 184 95 55 181 95 48 175 94 51 186 100 65 180 97 65 178 93 62 177 96 53 178 104 65 195 97 58 104 73 55 
64 90 89 129 94 72 74 69 50 83 78 56 81 76 70 81 80 75 89 86 79 96 98 84 101 100 79 104 100 88 86 83 74 79 74 68 83 78 59 73 70 55 94 63 45 80 111 114 
