P3
16 16
255
255 255 251 246 255 246 248 251 255 255 255 243 253 251 254 251 255 255 247 255 250 255 255 248 251 255 254 255 249 255 255 253 255 252 255 248 250 255 243 255 253 255 255 254 255 249 255 249 
255 251 255 248 255 255 254 255 255 255 252 245 254 249 255 249 255 244 247 247 255 255 254 255 255 250 250 255 255 255 249 255 253 248 255 248 255 250 255 250 248 235 255 255 250 251 253 255 
255 252 237 251 251 255 247 251 252 255 255 246 255 252 250 251 252 255 219 171 247 171 119 243 157 105 215 255 255 241 240 255 248 252 253 255 255 255 243 255 254 253 254 255 250 254 254 254 
255 253 255 254 255 248 254 255 255 255 248 255 251 252 247 214 161 253 228 212 251 216 162 237 184 112 246 119 79 176 255 255 241 252 252 255 255 252 255 255 255 239 252 253 248 255 255 255 
244 255 255 255 252 253 250 252 249 252 255 246 212 167 250 235 210 252 194 171 249 230 212 252 166 94 220 222 162 250 118 79 162 252 249 255 250 255 254 249 248 253 255 255 253 255 253 255 
249 255 255 255 248 255 251 255 255 245 255 255 180 118 251 203 165 238 188 120 231 215 160 244 190 121 246 158 89 208 127 84 156 255 254 255 248 255 253 254 255 255 255 254 255 252 253 255 
255 253 248 253 255 240 255 253 255 255 248 255 244 255 249 178 91 221 207 166 245 187 115 251 157 91 225 175 126 233 255 250 253 251 253 252 250 255 248 255 255 253 253 251 252 255 255 250 
254 255 255 248 255 253 255 247 255 255 254 242 255 255 239 251 255 255 111 86 151 75 144 35 182 123 231 255 250 255 248 255 255 251 255 255 255 252 255 255 255 251 254 255 251 255 254 255 
254 255 253 255 255 253 255 250 255 249 255 249 255 254 255 254 255 255 255 254 255 72 144 36 255 255 255 255 255 255 255 255 255 255 255 255 255 255 255 255 255 255 255 255 255 255 255 255 
251 253 250 255 255 253 255 253 255 251 255 251 255 254 255 252 253 255 255 253 254 80 153 45 255 255 255 255 255 255 255 255 255 255 255 255 255 255 255 255 255 255 255 255 255 255 255 255 
254 255 255 255 254 255 255 253 255 249 255 249 255 254 255 253 254 255 255 255 253 93 167 56 255 255 255 255 255 255 255 255 255 255 255 255 255 255 255 255 255 255 255 255 255 255 255 255 
254 255 255 254 252 253 255 253 255 248 253 247 255 254 255 254 255 255 254 254 252 90 167 53 255 255 255 255 255 255 255 255 255 255 255 255 255 255 255 255 255 255 255 255 255 255 255 255 
254 255 255 253 251 252 255 253 255 251 255 250 255 254 255 254 255 255 249 251 248 79 158 43 255 255 255 255 255 255 255 255 255 255 255 255 255 255 255 255 255 255 255 255 255 255 255 255 
252 255 255 254 252 253 255 253 255 252 255 251 255 253 254 254 255 255 254 255 253 77 157 44 255 255 255 255 255 255 255 255 255 255 255 255 255 255 255 255 255 255 255 255 255 255 255 255 
252 255 253 255 255 253 255 253 255 251 255 250 255 251 252 252 255 255 252 255 255 66 146 35 255 255 255 255 255 255 255 255 255 255 255 255 255 255 255 255 255 255 255 255 255 255 255 255 
252 255 253 255 255 253 255 253 255 252 255 251 255 253 254 252 255 255 247 251 250 37 119 8 255 255 255 255 255 255 255 255 255 255 255 255 255 255 255 255 255 255 255 255 255 255 255 255 
