P3
16 16
255
127 127 125 119 119 119 110 110 110 157 157 157 140 140 140 137 137 137 125 125 125 115 115 117 104 105 100 154 154 152 162 162 162 121 121 123 141 141 143 128 128 130 126 126 126 117 117 115 
121 121 119 159 159 157 170 170 170 139 139 139 125 125 125 139 139 139 161 161 163 157 157 159 173 174 169 136 136 134 138 138 138 107 107 109 116 116 118 126 126 128 128 128 128 155 155 153 
118 118 116 114 114 112 137 137 135 139 139 139 153 153 153 158 158 160 110 110 112 103 103 105 114 115 110 130 130 128 123 123 123 154 154 156 158 158 160 138 138 140 129 129 129 129 129 127 
151 151 149 162 162 160 120 120 118 98 98 98 118 118 118 139 139 141 138 138 140 161 161 163 156 156 154 168 168 168 162 162 162 136 136 138 141 141 143 127 127 129 138 138 138 113 113 113 
124 124 122 138 138 136 166 166 166 156 156 156 160 160 160 129 129 129 125 125 127 120 120 122 136 136 134 139 139 139 134 134 134 135 135 137 130 130 132 117 117 119 112 112 114 158 158 158 
140 140 140 139 139 139 135 135 135 129 129 129 136 136 136 121 121 121 165 165 165 138 138 138 129 129 129 121 121 121 105 105 105 102 102 104 112 112 114 137 137 139 160 160 162 133 133 135 
130 129 134 132 132 134 132 132 134 152 152 152 173 173 173 155 155 153 120 120 118 120 121 116 102 102 102 149 149 149 171 171 171 160 160 162 135 135 137 141 141 143 137 137 139 140 140 142 
156 155 160 129 128 133 134 134 136 143 143 143 111 111 111 107 107 105 120 121 116 165 166 161 157 157 159 142 142 144 137 137 139 123 123 125 142 142 144 134 134 136 136 136 138 158 157 162 
142 141 146 131 130 135 122 122 124 111 111 113 159 159 159 117 117 117 153 153 153 140 140 138 137 137 139 153 153 155 140 140 140 128 128 126 126 126 124 156 156 156 172 172 172 135 135 137 
135 134 139 118 117 122 152 152 154 140 140 142 138 138 140 154 154 154 127 127 127 125 125 125 126 126 128 121 121 121 117 117 117 166 166 164 159 159 157 139 139 139 131 131 133 141 141 143 
143 142 147 135 134 139 127 127 129 144 144 146 125 125 127 113 113 113 126 126 126 100 100 100 117 117 117 167 167 167 155 155 153 154 154 152 134 134 134 142 142 142 129 129 131 127 127 129 
100 100 102 110 110 112 142 142 144 137 137 139 116 116 118 124 124 124 167 167 167 156 156 156 155 155 153 129 129 127 129 129 127 140 140 140 143 143 143 121 121 123 138 138 140 136 136 138 
140 140 142 166 166 168 148 148 150 140 140 142 156 156 158 154 154 156 137 137 137 128 128 128 139 139 137 137 137 135 122 122 122 119 119 119 124 124 124 138 138 140 139 139 141 119 119 121 
165 165 167 152 152 154 144 144 146 136 136 138 136 136 138 142 142 144 140 140 142 135 135 137 158 158 158 165 165 165 142 142 142 137 137 139 112 112 114 122 122 122 120 120 120 130 130 128 
138 138 140 141 141 143 136 136 138 106 106 108 117 117 119 126 126 128 153 153 155 155 155 157 141 141 141 123 123 125 137 137 139 130 130 132 128 128 130 138 138 138 170 170 168 153 154 149 
117 117 119 136 136 138 125 125 127 115 115 117 139 139 141 125 125 127 128 128 130 140 140 142 127 127 129 139 139 141 131 131 133 136 136 138 155 155 157 157 157 155 136 137 132 128 129 123 
