P3
16 16
255
59 59 59 61 61 61 67 67 67 65 65 65 73 73 73 78 78 78 88 88 88 90 90 90 88 88 88 90 90 90 86 86 86 79 79 79 73 73 73 66 66 66 61 61 61 62 62 62 
61 61 61 68 68 68 74 74 74 79 79 79 81 81 81 87 87 87 90 90 90 92 92 92 85 85 85 81 81 81 81 81 81 85 85 85 83 83 83 73 73 73 64 64 64 59 59 59 
59 59 59 66 66 66 69 69 69 79 79 79 78 78 78 84 84 84 80 80 80 81 81 81 77 77 77 84 84 84 89 89 89 84 84 84 77 77 77 80 80 80 76 76 76 62 62 62 
61 61 61 63 63 63 65 65 65 73 73 73 77 77 77 84 84 84 83 83 83 84 84 84 95 95 95 88 88 88 90 90 90 91 91 91 79 79 79 70 70 70 69 69 69 65 65 65 
69 69 69 69 69 69 73 73 73 72 72 72 75 75 75 74 74 74 80 80 80 82 82 82 78 78 78 80 80 80 82 82 82 77 77 77 74 74 74 84 84 84 82 82 82 62 62 62 
53 53 53 58 58 58 70 70 70 68 68 68 70 70 70 66 66 66 77 77 77 83 83 83 85 85 85 74 74 74 72 72 72 74 74 74 69 69 69 62 62 62 59 59 59 55 55 55 
64 64 64 69 69 69 75 75 75 74 74 74 69 69 69 61 61 61 61 61 61 63 63 63 72 72 72 75 75 75 74 74 74 67 67 67 63 63 63 63 63 63 60 60 60 54 54 54 
61 61 61 63 63 63 65 65 65 75 75 75 73 73 73 74 74 74 67 67 67 66 66 66 73 73 73 72 72 72 72 72 72 78 78 78 81 81 81 73 73 73 61 61 61 56 56 56 
61 61 61 63 63 63 65 65 65 68 68 68 71 71 71 72 72 72 68 68 68 63 63 63 65 65 65 75 75 75 83 83 83 83 83 83 83 83 83 81 81 81 73 73 73 63 63 63 
56 56 56 61 61 61 67 67 67 73 73 73 77 77 77 77 77 77 74 74 74 69 69 69 60 60 60 71 71 71 79 79 79 78 78 78 72 72 72 67 67 67 63 63 63 59 59 59 
54 54 54 59 59 59 64 64 64 65 65 65 65 65 65 63 63 63 60 60 60 58 58 58 65 65 65 72 72 72 76 76 76 74 74 74 68 68 68 64 64 64 64 64 64 64 64 64 
59 59 59 62 62 62 64 64 64 64 64 64 63 63 63 63 63 63 66 66 66 68 68 68 74 74 74 71 71 71 67 67 67 64 64 64 62 62 62 58 58 58 56 56 56 55 55 55 
52 52 52 55 55 55 59 59 59 60 60 60 58 58 58 58 58 58 61 61 61 64 64 64 67 67 67 62 62 62 59 59 59 60 60 60 61 61 61 59 59 59 57 57 57 55 55 55 
57 57 57 60 60 60 65 65 65 68 68 68 65 65 65 60 60 60 57 57 57 56 56 56 58 58 58 60 60 60 63 63 63 66 66 66 66 66 66 64 64 64 63 63 63 63 63 63 
54 54 54 57 57 57 61 61 61 66 66 66 67 67 67 64 64 64 62 62 62 61 61 61 61 61 61 64 64 64 67 67 67 64 64 64 60 60 60 57 57 57 55 55 55 54 54 54 
57 57 57 56 56 56 56 56 56 60 60 60 63 63 63 64 64 64 66 66 66 68 68 68 60 60 60 61 61 61 60 60 60 57 57 57 56 56 56 56 56 56 57 57 57 56 56 56 
