P3
16 16
255
254 254 254 255 255 255 255 255 255 251 251 251 254 254 254 254 254 254 255 255 255 255 255 255 254 254 254 255 255 255 255 255 255 254 254 254 255 255 255 250 250 250 255 255 255 255 255 255 
253 253 253 255 255 255 253 253 253 255 255 255 255 255 255 255 255 255 255 255 255 250 250 250 255 255 255 254 254 254 254 254 254 252 252 252 255 255 255 255 255 255 252 252 252 255 255 255 
255 255 255 253 253 253 255 255 255 252 252 252 253 253 253 254 254 254 255 255 255 255 255 255 250 250 250 253 253 253 255 255 255 255 255 255 250 250 250 255 255 255 255 255 255 252 252 252 
255 255 255 251 251 251 255 255 255 255 255 255 255 255 255 255 255 255 255 255 255 254 254 254 255 255 255 255 255 255 252 252 252 255 255 255 255 255 255 249 249 249 255 255 255 255 255 255 
255 255 255 252 252 252 255 255 255 252 252 252 252 252 252 255 255 255 254 254 254 254 254 254 250 250 250 255 255 255 255 255 255 249 249 249 255 255 255 254 254 254 255 255 255 255 255 255 
255 255 255 255 255 255 255 255 255 255 255 255 255 255 255 255 255 255 252 252 252 255 255 255 255 255 255 251 251 251 255 255 255 252 252 252 252 252 252 255 255 255 255 255 255 253 253 253 
194 194 194 199 199 199 78 78 78 255 255 255 255 255 255 253 253 253 254 254 254 255 255 255 252 252 252 255 255 255 251 251 251 255 255 255 253 253 253 255 255 255 255 255 255 255 255 255 
141 141 141 140 140 140 145 145 145 136 136 136 197 197 197 255 255 255 255 255 255 254 254 254 133 133 133 255 255 255 253 253 253 255 255 255 255 255 255 255 255 255 252 252 252 255 255 255 
255 255 255 255 255 255 252 252 252 255 255 255 140 140 140 79 79 79 85 85 85 132 132 132 85 85 85 255 255 255 252 252 252 255 255 255 254 254 254 254 254 254 255 255 255 255 255 255 
254 254 254 248 248 248 255 255 255 255 255 255 149 149 149 139 139 139 144 144 144 83 83 83 255 255 255 255 255 255 255 255 255 245 245 245 255 255 255 255 255 255 255 255 255 255 255 255 
254 254 254 255 255 255 252 252 252 181 181 181 82 82 82 255 255 255 137 137 137 141 141 141 111 111 111 251 251 251 255 255 255 255 255 255 252 252 252 249 249 249 255 255 255 255 255 255 
255 255 255 249 249 249 255 255 255 253 253 253 252 252 252 255 255 255 255 255 255 215 215 215 115 115 115 255 255 255 251 251 251 255 255 255 255 255 255 255 255 255 255 255 255 252 252 252 
255 255 255 255 255 255 250 250 250 255 255 255 255 255 255 255 255 255 255 255 255 201 201 201 145 145 145 251 251 251 255 255 255 255 255 255 255 255 255 252 252 252 255 255 255 255 255 255 
255 255 255 255 255 255 255 255 255 253 253 253 250 250 250 255 255 255 255 255 255 179 179 179 120 120 120 255 255 255 255 255 255 252 252 252 252 252 252 255 255 255 255 255 255 253 253 253 
255 255 255 249 249 249 255 255 255 255 255 255 255 255 255 253 253 253 249 249 249 183 183 183 121 121 121 252 252 252 255 255 255 254 254 254 255 255 255 255 255 255 253 253 253 254 254 254 
252 252 252 255 255 255 251 251 251 254 254 254 255 255 255 255 255 255 255 255 255 177 177 177 70 70 70 255 255 255 255 255 255 254 254 254 255 255 255 255 255 255 254 254 254 255 255 255 
