P3
16 16
255
255 255 255 255 255 255 253 253 253 255 255 255 255 255 255 255 255 255 252 252 252 255 255 255 255 255 255 253 253 253 255 255 255 255 255 255 253 253 253 253 253 253 253 253 253 255 255 255 
249 249 249 255 255 255 255 255 255 255 255 255 254 254 254 255 255 255 255 255 255 254 254 254 255 255 255 255 255 255 254 254 254 250 250 250 255 255 255 255 255 255 255 255 255 252 252 252 
255 255 255 252 252 252 255 255 255 250 250 250 252 252 252 255 255 255 255 255 255 253 253 253 252 252 252 252 252 252 255 255 255 255 255 255 255 255 255 249 249 249 255 255 255 253 253 253 
255 255 255 252 252 252 255 255 255 255 255 255 255 255 255 254 254 254 253 253 253 255 255 255 255 255 255 254 254 254 255 255 255 253 253 253 255 255 255 252 252 252 255 255 255 254 254 254 
255 255 255 251 251 251 255 255 255 255 255 255 253 253 253 255 255 255 253 253 253 255 255 255 249 249 249 254 254 254 255 255 255 248 248 248 255 255 255 255 255 255 252 252 252 255 255 255 
255 255 255 255 255 255 255 255 255 253 253 253 255 255 255 255 255 255 253 253 253 253 253 253 255 255 255 252 252 252 255 255 255 255 255 255 252 252 252 255 255 255 255 255 255 255 255 255 
193 193 193 205 205 205 90 90 90 255 255 255 255 255 255 251 251 251 255 255 255 255 255 255 251 251 251 255 255 255 251 251 251 255 255 255 251 251 251 255 255 255 255 255 255 253 253 253 
141 141 141 137 137 137 146 146 146 135 135 135 200 200 200 255 255 255 255 255 255 254 254 254 139 139 139 255 255 255 255 255 255 252 252 252 255 255 255 255 255 255 250 250 250 255 255 255 
253 251 254 255 254 255 255 255 255 255 255 255 141 141 141 98 98 98 92 94 91 140 142 139 99 99 99 255 255 255 251 251 251 255 255 255 254 254 254 255 255 255 254 254 254 255 255 255 
255 254 255 254 252 255 255 255 255 255 255 255 134 134 134 145 145 145 142 144 141 93 95 92 254 254 254 254 254 254 255 255 255 255 255 255 255 255 255 255 255 255 251 251 251 255 255 255 
255 255 255 251 251 251 255 255 255 176 176 176 99 99 99 249 249 249 140 140 140 138 138 138 94 94 94 250 250 250 255 255 255 249 249 249 255 255 255 255 255 255 255 255 255 251 251 251 
253 253 253 255 255 255 255 255 255 255 255 255 253 253 253 255 255 255 255 255 255 200 200 200 102 102 102 251 251 251 251 251 251 255 255 255 251 251 251 255 255 255 255 255 255 254 254 254 
254 254 254 255 255 255 251 251 251 254 254 254 255 255 255 247 247 247 255 255 255 196 196 196 135 135 135 255 255 255 255 255 255 250 250 250 255 255 255 255 255 255 253 253 253 255 255 255 
251 251 251 253 253 253 254 254 254 255 255 255 253 253 253 255 255 255 255 255 255 180 180 180 142 142 142 255 255 255 253 253 253 251 251 251 255 255 255 251 251 251 255 255 255 251 251 251 
254 255 253 254 255 253 255 255 255 254 254 254 249 249 249 255 255 255 254 252 255 177 175 178 137 137 137 255 255 255 255 255 255 255 255 255 255 255 255 255 255 255 252 252 252 255 255 255 
250 252 249 254 255 253 250 250 250 255 255 255 255 255 255 250 250 250 254 252 255 183 181 184 98 98 98 252 252 252 255 255 255 253 253 253 255 255 255 253 253 253 255 255 255 254 254 254 
