P3
16 16
255
74 110 46 254 254 255 68 82 29 81 99 51 71 107 43 120 125 59 118 138 39 82 106 44 71 111 38 254 251 255 64 75 45 56 74 32 60 70 43 252 255 250 72 107 41 100 132 56 
106 124 48 255 251 253 249 246 237 60 79 49 44 85 51 104 146 36 114 153 46 73 106 49 87 100 46 255 255 253 97 126 44 108 137 47 103 146 38 255 250 255 255 255 248 107 127 38 
61 81 30 247 255 255 85 102 50 85 114 48 79 96 54 84 105 28 255 255 239 249 249 255 107 143 47 108 128 57 93 130 53 195 101 211 211 122 230 199 85 207 255 250 255 57 71 38 
115 147 48 92 127 43 84 105 38 108 145 42 113 130 52 73 102 46 66 84 34 244 255 255 114 148 38 121 142 47 70 111 32 210 123 227 57 76 46 202 124 234 255 255 243 59 83 35 
112 145 40 111 144 53 248 250 249 116 149 44 123 144 49 51 79 30 63 64 48 255 249 255 49 78 24 88 105 60 75 107 34 190 85 204 204 129 224 162 81 122 252 255 255 254 253 255 
255 252 248 255 255 255 248 255 255 71 108 39 80 105 37 59 74 43 252 255 246 65 85 36 61 82 43 52 73 40 255 253 255 254 255 253 106 148 62 108 147 38 108 128 41 97 129 44 
107 143 56 82 99 45 60 76 39 245 255 255 239 255 255 255 253 255 108 131 51 103 144 38 111 138 43 123 148 44 86 100 51 50 80 26 255 250 255 85 102 48 108 119 76 118 131 43 
114 147 43 177 108 188 220 112 231 162 79 135 255 251 255 254 255 248 74 100 35 117 148 45 102 154 54 115 140 36 106 127 50 54 80 41 56 77 36 88 108 37 73 102 46 107 150 42 
60 73 47 205 124 229 48 75 34 191 97 209 109 128 36 73 111 54 102 125 43 78 106 57 84 106 44 114 137 47 105 155 44 82 106 32 59 74 31 50 81 47 79 97 57 72 112 41 
92 100 40 155 82 135 180 106 205 159 80 137 116 139 57 72 108 47 121 153 52 115 117 44 70 112 46 118 142 54 111 126 43 116 127 59 112 151 45 255 250 248 111 131 46 117 127 41 
96 134 47 69 104 36 84 105 49 110 152 50 76 100 38 255 252 249 111 135 47 114 156 30 122 123 53 248 255 241 250 255 254 106 140 45 117 143 44 255 253 255 108 125 54 105 125 40 
114 127 48 255 250 255 255 251 255 58 74 35 58 79 22 84 114 62 102 126 48 76 106 42 241 255 255 162 83 140 192 98 218 144 85 139 87 101 50 72 109 40 255 252 255 105 139 45 
250 255 254 61 75 22 76 112 38 83 100 46 63 76 50 75 100 43 88 101 45 252 255 253 87 101 50 179 95 206 70 73 30 184 106 216 98 124 51 91 111 62 63 76 23 47 68 35 
253 250 255 111 132 55 95 133 46 122 138 63 101 131 33 107 134 41 50 74 38 251 255 255 73 112 33 166 84 132 184 96 209 159 77 115 105 138 47 74 102 44 50 76 29 63 83 46 
88 102 53 107 134 53 99 140 38 100 126 63 113 150 37 104 126 41 57 82 43 57 77 42 246 255 252 247 255 255 89 100 40 83 100 45 66 76 24 107 125 51 111 122 46 255 248 255 
73 114 38 82 98 51 82 104 29 119 151 50 111 142 48 247 255 244 255 252 255 64 71 37 255 251 251 248 251 255 252 255 251 52 78 49 54 77 33 101 131 59 104 132 47 84 105 38 
