P3
16 16
255
74 91 46 109 130 65 105 129 43 81 102 43 120 147 50 105 129 55 80 101 44 75 94 49 118 143 52 95 117 44 83 105 41 70 91 48 71 93 46 81 106 40 84 105 48 115 142 45 
107 134 41 80 104 28 117 143 52 97 119 55 100 122 57 95 118 46 109 134 51 71 93 28 95 118 40 77 96 41 72 92 43 67 90 36 102 130 45 78 101 45 90 112 50 99 123 45 
80 104 52 64 89 23 118 147 55 105 132 55 120 149 39 88 111 39 108 136 34 86 107 48 104 124 63 95 116 47 74 95 36 84 110 36 113 143 47 69 92 38 102 125 53 117 142 59 
80 104 54 83 108 51 78 105 36 108 137 44 78 102 44 102 128 39 121 147 56 94 117 49 103 127 41 122 147 56 78 100 38 94 118 60 117 147 47 94 122 35 114 141 46 72 94 29 
79 106 39 114 147 42 81 108 41 99 123 63 80 104 42 97 120 52 86 108 44 115 140 59 100 122 47 115 143 30 96 115 69 106 136 38 62 84 37 116 149 36 76 97 40 84 107 37 
72 98 37 112 141 49 79 105 31 114 144 44 97 117 66 117 145 43 80 102 40 104 129 46 85 103 55 102 125 43 112 138 49 109 137 53 83 108 40 69 90 47 80 99 53 93 116 46 
73 94 38 86 106 53 116 143 48 78 99 43 79 101 39 114 142 39 98 120 56 116 145 35 94 114 51 107 130 52 89 111 47 76 99 45 103 131 44 81 103 54 104 128 54 76 96 43 
70 87 42 102 124 52 78 97 42 79 102 34 98 119 62 66 84 46 116 145 35 106 129 59 96 118 43 120 147 40 77 97 48 65 86 45 104 131 54 80 106 35 119 149 37 92 114 50 
254 255 255 84 108 34 111 148 53 73 103 39 104 131 36 84 97 53 70 87 43 110 143 39 103 133 45 110 140 42 71 92 27 249 255 255 118 141 50 94 116 44 120 146 57 92 116 54 
254 255 251 83 102 47 108 140 55 103 135 50 120 143 52 252 255 253 249 255 255 81 107 34 117 141 57 83 97 62 251 255 255 252 255 237 252 255 255 119 140 39 75 89 36 249 255 255 
255 254 249 246 251 254 87 108 49 115 143 43 89 105 42 245 245 255 252 254 255 247 255 251 251 255 247 254 255 255 255 255 241 255 254 250 255 248 255 255 255 248 254 255 243 252 254 253 
255 255 244 253 255 254 251 255 251 246 255 238 254 255 243 255 255 253 252 252 250 252 255 253 255 254 255 251 253 239 253 250 255 255 251 255 254 254 244 253 252 250 255 255 251 255 253 255 
252 249 255 255 255 253 253 254 255 254 254 255 255 255 250 255 255 239 252 252 250 254 252 255 254 255 255 255 255 243 255 255 255 255 255 255 255 255 250 249 249 247 254 255 250 243 244 248 
255 255 251 253 252 247 251 249 254 255 255 255 253 250 255 252 251 255 255 255 255 253 252 250 254 255 253 253 253 255 250 254 239 250 250 255 254 255 248 254 255 255 253 254 255 254 255 255 
251 251 255 255 255 243 255 254 255 255 255 248 255 255 248 251 253 250 253 249 255 255 255 253 255 253 255 255 255 255 252 252 250 255 255 255 252 251 255 249 251 246 254 253 255 251 254 247 
254 255 250 254 254 255 255 252 255 255 255 253 254 254 255 252 255 241 255 255 248 253 252 250 255 254 245 255 253 255 255 252 255 252 251 246 255 255 253 255 255 253 252 254 243 254 253 255 
