P3
16 16
255
74 91 46 109 130 65 105 129 43 81 102 43 120 147 50 105 129 55 80 101 44 75 94 49 118 143 52 95 117 44 83 105 41 70 91 48 71 93 46 81 106 40 84 105 48 115 142 45 
107 134 41 80 104 28 117 143 52 97 119 55 100 122 57 95 118 46 109 134 51 71 93 28 95 118 40 77 96 41 72 92 43 67 90 36 102 130 45 78 101 45 90 112 50 99 123 45 
80 104 52 64 89 23 118 147 55 105 132 55 120 149 39 88 111 39 108 136 34 86 107 48 104 124 63 95 116 47 74 95 36 84 110 36 113 143 47 69 92 38 102 125 53 117 142 59 
80 104 54 83 108 51 78 105 36 108 137 44 78 102 44 102 128 39 121 147 56 94 117 49 103 127 41 122 147 56 78 100 38 94 118 60 117 147 47 94 122 35 114 141 46 72 94 29 
79 106 39 114 147 42 81 108 41 99 123 63 80 104 42 97 120 52 86 108 44 115 140 59 100 122 47 115 143 30 96 115 69 106 136 38 62 84 37 116 149 36 76 97 40 84 107 37 
72 98 37 112 141 49 79 105 31 114 144 44 97 117 66 117 145 43 80 102 40 104 129 46 85 103 55 102 125 43 112 138 49 109 137 53 83 108 40 69 90 47 80 99 53 93 116 46 
73 94 38 86 106 53 116 143 48 78 99 43 79 101 39 114 142 39 98 120 56 116 145 35 94 114 51 107 130 52 89 111 47 76 99 45 103 131 44 81 103 54 104 128 54 76 96 43 
70 87 42 102 124 52 78 97 42 79 102 34 98 119 62 66 84 46 116 145 35 106 129 59 96 118 43 120 147 40 77 97 48 65 86 45 104 131 54 80 106 35 119 149 37 92 114 50 
69 96 43 83 96 40 114 147 43 82 109 38 105 130 49 85 102 47 71 81 47 105 151 43 108 132 56 108 142 47 66 80 45 74 103 37 113 143 45 100 113 44 119 148 42 97 119 47 
252 255 248 86 108 59 112 140 38 91 128 51 121 146 54 56 50 14 78 95 25 80 108 47 100 147 31 95 102 51 70 47 16 82 95 49 62 102 40 114 145 42 77 94 42 101 105 55 
255 250 254 100 125 41 83 105 56 111 148 53 86 101 36 69 54 15 251 244 252 100 110 58 103 119 48 57 51 15 71 51 16 101 115 54 59 85 38 254 251 255 250 254 253 254 255 251 
255 255 244 255 252 255 73 102 38 67 86 30 255 250 255 53 52 0 72 50 36 68 60 14 71 41 15 57 56 10 255 248 255 255 254 255 255 255 243 255 251 255 245 254 253 252 255 255 
247 250 255 255 249 249 252 255 243 254 252 255 253 253 253 254 255 255 74 56 18 95 67 27 83 54 22 255 248 255 73 60 28 66 63 10 255 252 255 254 255 253 247 255 243 255 252 251 
254 255 253 252 255 255 255 246 255 255 253 255 251 255 251 251 252 255 255 246 255 115 78 36 87 74 22 71 58 23 75 56 16 255 253 255 249 254 255 254 253 255 252 255 248 255 250 255 
251 247 255 251 255 255 255 250 255 255 250 255 250 255 242 252 255 255 255 255 248 108 81 34 103 81 44 255 250 255 255 252 253 249 255 241 254 253 255 255 255 246 244 246 255 255 254 255 
255 255 230 255 253 255 247 255 255 255 252 255 254 252 240 245 255 255 255 249 255 83 72 16 105 82 30 252 255 255 248 253 247 255 255 248 255 250 255 249 252 255 245 255 246 255 251 251 
