P3
16 16
255
88 139 0 83 132 7 82 128 19 67 112 9 81 127 18 67 115 0 81 130 4 80 131 2 67 113 5 90 137 21 101 152 21 89 143 6 88 148 0 135 190 71 159 213 101 138 196 76 
93 146 6 87 138 7 81 133 0 85 137 3 87 137 2 88 138 5 144 192 80 159 206 102 144 191 79 80 129 3 98 152 2 74 127 0 86 144 0 163 218 91 110 164 50 152 208 85 
84 138 0 94 147 15 86 142 0 86 141 0 95 147 10 93 144 13 66 110 21 58 99 21 57 100 11 82 131 6 79 129 4 87 137 26 84 137 7 139 192 78 154 211 82 145 199 85 
89 143 3 80 135 7 86 144 0 90 147 8 85 140 0 90 147 0 74 125 0 85 134 6 67 112 7 148 193 88 158 208 83 135 183 81 97 151 14 85 143 0 87 142 12 82 140 2 
80 133 3 82 132 17 80 134 12 82 135 17 97 152 24 91 145 5 93 144 17 80 131 2 82 129 17 64 109 4 55 98 19 62 107 16 89 143 6 141 191 76 143 197 73 141 193 83 
143 192 75 155 204 87 138 189 70 86 141 11 99 156 13 85 140 0 93 146 2 89 141 5 87 141 0 83 131 13 83 132 17 68 115 9 87 142 0 145 198 66 121 170 65 141 193 82 
63 100 31 54 97 8 63 108 25 80 133 15 88 145 4 89 146 7 84 141 0 91 143 6 96 147 10 86 138 1 81 131 10 78 127 12 92 146 8 138 188 73 142 193 75 143 193 82 
69 110 8 86 131 12 63 108 17 144 195 74 150 205 75 142 195 81 89 143 5 82 130 20 83 131 11 87 140 0 94 148 0 81 131 8 89 141 4 91 144 10 92 146 8 88 142 2 
88 143 15 87 142 0 81 133 0 69 113 16 63 106 17 58 99 23 83 133 8 82 133 4 65 111 3 93 144 15 98 150 13 82 133 15 89 143 5 91 145 8 94 147 5 86 138 1 
91 146 3 89 145 0 92 146 0 77 124 10 71 118 4 78 126 4 147 197 74 156 203 99 148 193 90 77 127 2 100 153 11 87 140 10 88 144 0 83 137 0 89 142 0 90 144 0 
85 140 0 84 137 7 89 141 4 86 139 0 92 142 9 94 146 12 57 101 12 56 100 15 64 110 1 87 137 16 90 142 6 79 132 0 93 149 0 97 149 22 83 136 6 93 146 6 
82 129 27 81 131 8 89 140 9 90 143 3 99 150 23 87 142 0 82 131 16 69 115 17 79 129 6 145 194 79 153 202 85 147 197 76 87 144 0 77 131 0 93 147 7 92 149 0 
80 131 2 81 132 3 80 129 14 96 151 0 101 155 7 88 141 1 83 133 10 77 127 4 79 126 20 62 105 25 55 96 26 64 106 30 89 140 11 93 145 18 91 144 10 82 137 0 
145 194 69 156 205 77 150 196 97 76 126 3 90 144 7 86 139 0 94 147 7 82 130 20 93 148 0 76 127 0 80 128 19 65 111 12 90 143 0 89 142 0 87 142 0 91 146 0 
68 112 14 56 97 21 56 99 20 81 130 23 88 142 4 83 136 6 91 143 6 87 140 0 88 145 0 93 148 0 89 142 0 81 129 11 91 144 0 88 140 3 85 139 1 91 147 12 
83 127 12 65 109 11 84 135 6 142 193 75 154 207 77 145 195 80 80 129 12 82 134 0 80 129 24 89 140 11 100 153 11 84 132 12 88 141 0 95 147 10 88 143 0 86 144 0 
