P3
16 16
255
128 91 49 133 100 59 120 91 51 124 95 53 139 106 61 143 109 63 129 95 50 142 109 68 126 92 55 131 98 57 134 101 58 139 106 63 127 94 53 135 102 61 136 103 60 137 105 58 
137 103 66 93 60 27 115 86 54 110 81 47 84 52 14 107 73 35 123 91 53 115 85 51 121 90 59 117 87 51 110 80 42 109 79 41 123 93 59 120 90 56 91 61 25 132 103 63 
137 106 62 106 79 36 126 101 61 134 109 68 137 108 66 134 105 61 133 104 62 125 97 58 122 94 54 123 96 53 125 98 53 121 94 49 127 99 59 120 92 53 112 84 44 123 96 53 
136 103 68 88 57 26 101 74 44 100 71 41 106 76 42 108 75 42 86 55 26 86 59 30 106 75 44 111 81 45 82 52 16 106 76 42 86 55 26 91 60 32 86 55 26 135 104 73 
137 103 55 116 85 39 119 90 46 133 102 58 128 95 50 124 92 45 127 96 52 104 77 34 133 101 54 132 100 51 142 110 59 140 108 61 126 93 50 129 96 55 111 78 35 135 102 57 
126 91 53 121 87 52 132 99 66 124 91 58 125 89 53 134 98 62 118 85 50 103 74 40 126 92 55 130 96 58 127 94 53 136 102 64 135 101 66 140 105 73 117 82 50 135 101 64 
133 100 57 118 86 47 131 101 63 130 101 61 134 101 58 136 105 61 132 105 62 103 80 38 134 102 61 136 105 61 135 104 58 126 95 49 122 90 49 124 92 53 132 100 59 117 86 42 
123 93 59 86 57 25 102 75 45 91 62 30 104 74 38 106 76 38 100 74 37 98 78 41 104 74 40 106 76 38 101 72 32 107 77 39 109 79 45 103 72 41 85 55 21 137 107 69 
127 95 56 111 78 47 124 90 53 130 95 53 130 94 62 128 92 56 130 96 51 129 95 58 136 101 61 142 109 58 134 100 54 137 104 63 139 107 60 141 108 67 120 86 51 136 104 57 
134 103 56 122 90 51 138 105 60 135 103 54 142 107 67 136 103 58 129 98 44 122 89 46 124 89 57 127 94 51 133 99 61 120 85 53 124 90 52 118 85 52 115 81 54 130 98 59 
136 107 67 120 87 56 122 90 51 126 93 52 129 94 62 125 91 54 127 96 52 135 102 67 138 105 64 135 105 51 133 102 55 141 109 68 139 108 61 133 101 60 117 85 47 128 98 48 
135 105 69 87 56 28 97 64 31 92 60 22 88 54 26 110 77 46 89 60 20 104 73 44 108 75 44 102 71 27 113 81 42 105 72 39 101 69 30 117 87 53 86 55 26 124 95 53 
124 96 49 106 76 38 134 103 59 138 107 60 130 98 60 141 109 68 131 103 55 107 78 38 124 93 62 129 100 56 122 92 54 103 73 39 126 97 57 133 103 69 118 87 58 136 104 63 
129 100 56 114 81 48 139 107 66 133 102 58 125 92 59 117 85 47 129 100 56 101 71 35 116 87 47 138 110 60 135 107 60 133 104 62 138 107 60 122 90 49 110 78 40 136 106 56 
123 91 53 87 53 25 125 91 56 119 85 48 123 87 61 126 93 62 102 72 34 95 64 35 113 82 53 106 77 37 122 89 54 124 91 60 116 84 46 124 91 58 88 54 27 129 95 57 
130 99 52 136 102 65 133 100 57 141 109 62 127 93 56 124 92 53 127 99 51 123 93 55 126 93 58 137 106 59 137 106 62 135 103 64 129 98 52 124 91 50 131 97 62 129 97 50 
