P3
16 16
255
251 255 236 249 255 255 255 250 255 252 255 255 255 253 255 248 254 252 251 255 255 255 251 255 253 254 255 255 253 253 254 255 255 251 255 255 245 255 247 255 249 255 244 255 255 249 255 237 
254 254 255 54 179 181 50 185 178 34 180 167 42 185 179 41 186 173 46 206 194 36 204 187 37 208 192 46 202 188 45 195 186 45 201 188 46 188 174 58 181 186 50 180 180 211 229 241 
255 254 255 38 179 170 41 186 171 47 210 189 41 206 190 42 201 181 45 207 192 80 207 200 75 210 206 44 211 193 47 201 191 40 202 187 40 208 185 35 178 174 43 188 181 213 233 242 
250 254 255 41 187 176 51 208 189 39 202 183 61 215 205 74 212 199 72 209 201 105 232 223 75 214 207 63 211 197 84 210 209 69 213 204 38 210 188 48 205 196 37 187 176 205 236 239 
255 247 255 50 207 198 38 206 189 70 211 205 71 215 215 82 208 204 125 222 229 103 233 223 101 231 223 118 227 224 74 207 204 71 214 210 76 213 206 44 200 196 38 200 189 204 239 243 
248 255 255 43 202 184 37 205 182 85 215 207 75 208 203 104 237 220 164 235 237 198 252 252 200 255 255 161 238 230 105 240 223 74 209 195 84 210 198 44 205 190 38 207 186 189 240 231 
255 252 255 49 185 181 43 204 189 67 208 200 119 228 233 147 244 237 191 255 255 225 253 255 217 252 255 195 255 251 157 247 245 111 224 220 69 209 196 45 205 197 51 205 195 208 231 237 
255 254 255 39 185 174 77 217 206 75 212 202 113 223 222 201 255 255 219 253 255 230 255 255 233 255 255 226 250 252 196 255 255 102 228 216 109 235 224 83 208 210 36 201 185 208 239 242 
254 255 253 36 201 184 86 207 202 109 230 223 109 229 219 195 255 247 218 255 252 237 254 248 233 253 254 215 255 255 197 255 255 111 225 215 75 215 206 80 209 214 37 187 175 196 239 245 
254 253 255 51 205 197 40 206 194 61 218 207 112 230 230 164 243 238 188 255 254 210 255 255 225 255 254 201 245 248 160 247 239 108 226 212 77 209 198 47 204 193 40 204 180 213 233 240 
252 252 254 53 209 198 34 194 182 88 212 212 83 203 204 108 225 216 162 235 241 203 250 255 188 254 253 159 247 248 88 233 216 76 216 203 84 213 209 45 200 194 45 200 184 204 237 244 
254 255 251 41 202 184 43 210 190 73 213 202 70 214 205 73 220 201 107 228 221 110 227 218 118 225 219 110 229 225 85 210 204 80 207 198 64 218 206 44 201 194 48 184 172 203 236 241 
251 255 253 53 184 178 49 206 189 27 203 182 64 211 203 83 210 201 72 211 204 78 213 206 107 233 221 71 216 203 81 205 197 71 214 196 29 212 184 41 208 191 39 191 170 203 242 241 
255 252 255 44 180 178 37 199 186 37 210 191 49 204 196 54 204 192 40 200 192 67 210 208 77 212 208 37 198 190 47 202 194 46 213 196 35 201 189 54 196 198 35 182 172 210 227 243 
255 247 255 57 186 182 38 189 174 43 181 166 50 186 176 30 184 160 48 203 189 41 212 193 48 200 188 45 196 189 53 190 183 42 184 172 38 184 174 54 182 185 60 189 184 203 237 247 
204 242 221 202 235 252 205 231 244 205 238 245 206 234 245 202 238 238 218 234 250 197 231 241 202 241 240 199 237 240 203 234 237 205 234 232 202 242 242 213 229 244 195 235 234 196 243 223 
