P3
16 16
255
245 205 74 246 210 62 241 206 76 254 219 115 252 221 113 247 221 110 251 223 126 246 219 130 255 215 123 247 224 122 255 223 114 251 218 113 198 136 77 206 135 73 239 220 102 239 226 121 
252 209 68 249 206 68 245 206 69 246 209 77 255 223 106 250 214 102 255 225 110 255 224 105 252 211 61 249 203 66 250 219 111 196 139 72 255 213 118 254 222 123 207 129 80 255 219 121 
219 161 77 220 161 83 223 165 91 216 158 94 219 165 95 255 209 89 244 202 54 250 204 82 204 166 93 219 166 72 197 134 65 221 162 102 226 164 77 214 159 68 217 171 94 194 132 59 
112 86 69 109 84 62 93 73 38 91 71 38 109 86 72 107 81 64 106 82 54 110 84 59 123 83 73 111 85 52 112 80 59 99 72 43 98 75 43 111 79 56 130 100 66 103 70 51 
255 220 103 240 201 80 255 226 118 255 223 115 241 204 72 244 207 66 252 213 76 245 205 71 242 199 61 249 218 128 113 78 46 79 52 43 76 60 26 77 47 19 136 99 72 255 226 118 
213 162 81 250 207 76 244 203 59 248 205 74 248 207 65 254 213 63 250 204 69 247 199 71 216 170 76 216 162 88 167 121 97 100 73 64 94 69 39 99 70 52 164 129 107 211 158 78 
205 142 75 193 132 69 199 137 76 193 132 65 222 163 85 220 161 83 200 137 66 198 136 63 200 131 72 199 139 67 162 129 84 105 58 40 120 85 66 117 84 51 208 128 75 201 140 86 
110 79 59 96 68 44 111 87 53 110 84 61 97 70 61 112 86 61 107 83 47 112 84 72 116 80 58 105 85 61 136 106 70 196 164 123 191 136 79 199 134 54 198 170 105 112 82 58 
221 164 85 214 166 82 216 161 78 213 166 76 212 163 70 253 204 76 245 204 76 250 207 69 247 206 64 249 209 88 207 167 80 205 164 108 203 160 117 206 160 111 189 141 77 212 163 87 
210 164 87 201 130 68 206 135 81 210 130 79 229 167 92 208 168 98 242 200 64 245 213 50 254 205 74 248 201 71 246 206 74 246 209 68 249 213 67 249 209 77 217 165 64 224 166 92 
196 131 63 203 143 71 193 131 58 193 133 60 198 133 65 198 130 59 207 137 77 198 125 70 199 135 63 199 137 64 192 134 60 196 139 70 192 133 73 193 131 72 198 133 69 199 131 60 
107 67 41 108 85 54 99 67 42 112 82 58 112 73 56 128 86 38 95 74 47 109 91 69 118 83 63 113 80 63 116 85 67 111 81 57 118 88 54 113 80 47 124 87 61 117 75 59 
197 168 126 110 75 47 77 59 39 74 51 35 74 50 16 133 98 78 194 132 73 199 131 60 188 137 71 217 165 107 184 131 79 213 160 106 186 134 74 193 140 72 194 136 72 194 136 73 
198 167 112 160 128 89 97 69 45 101 68 49 105 68 41 169 131 95 211 171 119 196 164 103 198 167 120 197 167 113 205 176 116 192 162 102 198 167 113 200 168 117 193 160 107 205 172 118 
189 152 110 155 141 102 93 73 46 106 86 59 118 78 53 194 140 76 165 133 95 156 126 98 165 131 93 159 122 95 165 127 106 167 130 103 189 154 116 185 151 106 171 135 101 161 123 100 
116 82 57 139 95 66 206 162 115 190 135 71 197 141 67 206 161 120 114 79 49 105 89 76 112 84 70 110 83 64 110 84 61 113 87 60 108 82 55 109 83 56 108 84 58 110 86 62 
