P3
16 16
255
187 152 94 188 153 95 193 158 100 191 156 98 191 156 98 194 159 101 190 158 101 191 159 102 190 154 96 196 160 102 192 155 100 191 154 99 196 159 104 194 158 100 190 154 94 187 151 91 
189 154 96 181 146 88 181 146 88 182 147 89 182 147 91 175 143 86 163 131 74 158 126 69 176 141 83 185 150 94 187 152 96 184 149 93 179 144 88 172 137 81 178 143 85 191 157 96 
194 159 103 173 138 82 170 138 81 178 146 89 176 144 87 164 131 77 164 131 77 178 145 91 184 149 93 182 147 91 180 145 91 185 150 96 191 156 102 187 152 96 185 150 94 193 158 100 
193 158 102 186 154 97 188 155 101 180 149 94 173 142 87 176 145 90 179 148 93 182 149 95 182 149 95 182 149 95 181 148 94 178 145 92 178 145 91 175 142 88 176 144 87 189 157 100 
190 155 99 172 140 83 172 139 85 174 143 89 176 145 91 182 151 97 184 151 97 183 150 96 182 149 95 181 148 94 180 147 94 174 141 88 178 145 92 181 148 94 180 148 91 190 158 101 
193 157 99 154 119 63 147 114 60 164 133 79 162 131 77 149 118 64 150 117 63 166 131 75 163 130 76 165 132 78 165 132 78 149 116 63 143 110 56 151 118 64 165 133 76 192 160 103 
198 159 100 182 146 88 186 153 99 190 159 105 182 151 97 183 150 96 188 153 97 192 156 98 192 157 101 189 154 100 194 159 105 191 156 102 194 159 105 193 158 102 182 147 91 191 156 98 
190 151 92 182 146 88 185 150 94 174 141 88 161 130 76 172 139 85 186 151 95 187 151 93 186 151 95 180 145 89 185 150 96 183 148 94 185 150 96 183 148 92 177 142 84 194 159 101 
192 157 101 171 139 82 186 154 97 181 148 94 180 147 93 182 149 95 180 147 94 187 151 99 182 147 93 189 154 100 180 147 93 178 146 89 187 155 98 170 140 80 176 146 86 188 158 98 
191 156 100 168 133 77 177 145 88 174 142 85 177 144 90 184 151 97 182 146 94 180 144 92 177 144 91 169 136 82 181 148 94 174 141 87 173 141 84 167 135 78 168 136 77 192 160 101 
192 157 101 147 112 56 148 116 59 159 127 70 165 132 78 161 128 74 154 119 65 152 117 63 154 121 68 142 109 56 160 127 73 152 119 65 150 117 63 159 127 70 167 135 78 191 159 102 
194 159 103 179 144 88 194 162 105 193 161 104 187 155 98 189 156 102 191 156 102 184 149 95 178 147 93 182 149 96 194 161 107 191 158 104 189 156 102 190 155 101 186 151 95 190 155 99 
193 158 102 174 139 83 183 148 92 182 150 93 184 152 95 187 152 96 178 143 87 161 126 72 166 133 79 172 139 85 176 143 89 175 142 88 184 149 95 184 149 95 177 142 86 193 158 102 
192 155 100 166 131 75 168 133 77 175 143 86 182 150 93 179 144 88 182 147 91 188 151 96 175 143 86 174 142 85 185 153 96 186 151 95 188 153 97 183 148 92 163 128 72 192 157 101 
195 158 103 180 145 89 172 137 81 166 131 75 178 143 87 186 151 95 187 152 96 181 144 89 186 151 93 181 146 88 183 148 90 181 146 90 178 143 87 178 143 87 165 133 76 187 155 98 
186 149 94 191 154 99 195 160 104 190 155 99 193 158 102 190 155 99 193 156 101 194 157 102 191 155 97 197 161 103 189 154 96 195 160 102 190 155 97 190 158 99 190 158 99 182 150 91 
