P3
16 16
255
185 150 96 196 157 100 195 155 94 200 160 101 192 153 96 194 155 100 197 156 100 200 155 98 195 154 98 195 155 96 199 160 101 193 154 95 190 154 94 195 159 101 191 154 99 185 148 95 
145 118 63 176 145 88 175 143 84 179 149 89 170 141 85 183 154 98 180 149 94 182 147 91 180 149 94 186 155 98 176 145 88 172 143 83 175 146 86 176 147 89 176 147 91 149 119 65 
148 117 63 183 151 94 187 152 94 171 136 78 180 148 91 178 147 92 180 147 93 186 149 94 180 147 94 182 149 95 176 144 87 175 143 84 181 149 90 180 148 89 182 149 95 148 117 62 
103 83 50 107 83 47 123 95 55 109 81 41 98 74 36 99 77 40 127 103 65 121 96 56 104 80 46 106 82 46 127 102 62 120 95 54 108 83 42 103 80 39 108 84 46 99 77 40 
110 78 39 143 108 66 151 113 66 159 121 72 152 116 68 152 118 72 146 110 62 152 114 65 156 119 75 143 106 61 153 115 66 151 114 62 149 111 62 152 116 68 144 110 65 115 82 41 
102 83 43 143 119 75 147 119 69 142 112 60 142 115 62 149 122 69 147 120 67 150 120 66 146 116 66 149 119 67 148 118 64 150 121 65 141 111 59 147 121 72 147 123 79 103 80 39 
122 99 55 176 148 100 182 149 95 154 118 58 181 147 86 176 142 81 174 138 76 181 143 80 176 140 80 179 143 81 177 139 76 181 146 82 168 134 73 181 150 96 175 147 100 123 96 53 
115 98 68 163 141 104 177 148 104 160 129 82 172 142 92 177 147 97 182 150 99 181 148 95 184 151 100 182 149 96 190 157 103 191 158 105 162 131 84 177 149 109 158 135 101 121 100 71 
125 97 47 178 146 107 181 150 93 167 132 76 184 147 103 184 148 96 184 149 93 183 147 95 192 156 98 196 159 106 190 154 94 196 160 102 167 132 74 181 151 91 182 151 105 125 98 53 
109 81 41 145 119 60 161 133 83 158 129 69 161 133 70 158 130 82 157 136 73 157 135 78 155 133 76 162 139 72 159 131 81 158 130 67 160 132 69 155 127 79 144 119 63 105 77 38 
129 93 43 180 145 89 195 160 94 192 156 106 189 157 100 152 121 67 107 75 52 105 78 33 109 80 40 103 70 39 150 118 69 193 156 111 198 161 109 198 162 100 185 148 104 113 77 27 
124 99 69 160 137 87 160 134 83 159 133 74 158 133 67 156 134 77 154 134 81 153 136 80 154 133 78 161 141 82 156 130 79 157 130 75 155 128 73 154 127 82 153 129 85 129 102 72 
124 97 42 184 154 94 191 158 91 196 160 84 194 155 90 193 152 96 192 154 91 169 131 82 197 156 100 196 156 95 192 151 95 203 164 99 197 160 90 196 162 98 189 159 95 129 99 45 
93 76 48 167 144 130 175 152 102 176 146 94 186 151 111 180 148 91 172 142 88 156 126 72 180 148 87 183 149 101 183 151 92 181 149 100 176 148 101 166 143 93 160 136 112 98 78 51 
126 104 57 160 135 78 181 149 100 184 150 87 183 146 91 179 142 97 172 142 80 148 121 68 184 151 100 178 146 85 178 142 94 174 140 79 175 144 80 177 147 95 163 139 77 128 104 58 
99 78 47 110 87 46 117 89 49 110 79 48 128 99 57 122 97 56 101 81 48 99 86 34 102 80 41 101 77 43 122 97 56 130 102 62 107 80 37 121 94 51 108 81 51 104 78 51 
