P3
16 16
255
187 150 98 191 154 99 192 158 97 192 157 99 193 158 102 192 157 103 191 156 100 192 157 99 192 157 99 189 154 96 197 161 103 192 156 96 191 155 93 194 160 97 196 164 105 179 146 92 
135 99 47 186 154 97 176 144 85 175 143 84 174 142 85 185 150 96 185 150 94 182 147 89 183 151 94 188 153 99 179 144 90 177 142 86 178 144 83 175 140 82 176 143 89 136 104 53 
146 110 58 178 143 87 181 147 86 179 143 83 180 144 86 174 137 82 192 153 96 187 148 89 184 147 92 186 149 96 179 142 89 184 145 90 186 150 92 184 148 90 185 149 97 145 109 61 
94 78 44 107 89 51 119 102 59 98 79 36 103 81 40 105 83 44 122 100 61 118 96 55 99 80 40 103 83 46 121 99 62 117 95 56 103 84 42 97 78 36 102 84 48 95 76 44 
103 75 36 135 106 62 141 110 63 135 103 54 139 105 59 139 105 60 132 99 54 142 110 63 140 110 60 131 99 52 137 105 58 138 106 59 139 107 56 137 107 57 134 103 59 112 83 43 
109 81 42 136 107 65 132 101 54 136 104 55 141 109 62 132 99 54 138 107 61 134 103 56 132 102 50 139 109 59 137 105 56 139 107 58 138 106 55 134 104 52 138 110 63 104 75 33 
134 100 54 170 134 82 181 145 85 179 141 79 183 144 85 177 141 83 179 144 86 140 108 49 178 144 83 183 147 89 176 140 82 176 140 82 179 143 83 177 141 81 177 142 88 134 100 52 
119 98 55 151 129 80 152 129 75 153 128 71 149 124 68 154 131 79 143 122 69 150 131 75 149 128 75 146 123 73 153 130 80 150 127 75 149 126 74 151 128 76 147 125 78 122 100 59 
128 93 55 186 155 91 182 149 96 137 103 55 172 142 72 174 142 81 172 139 94 175 145 85 176 143 89 172 138 92 177 142 86 185 150 86 161 126 72 183 151 90 180 150 86 130 99 55 
99 80 47 151 122 142 173 151 102 156 131 77 175 142 109 176 145 78 183 151 92 182 148 87 185 150 84 190 154 106 193 159 95 189 155 118 150 122 72 170 149 96 158 133 139 95 79 46 
124 101 57 182 161 96 175 149 88 159 128 73 182 147 89 183 144 85 192 153 96 187 144 101 196 156 95 198 160 89 192 153 88 195 159 101 158 125 71 179 153 96 179 156 102 102 79 48 
120 97 43 133 106 63 149 124 68 149 124 67 152 129 62 154 132 74 146 122 86 149 131 69 149 129 70 147 122 81 156 131 77 155 129 70 151 126 60 153 129 67 129 104 64 122 102 43 
134 94 58 186 150 92 197 159 97 201 160 116 191 152 95 187 152 84 192 158 110 158 127 73 190 157 90 196 160 112 191 157 85 191 153 90 195 153 115 199 160 101 191 155 97 126 85 63 
97 79 41 157 130 137 171 147 99 180 151 93 186 153 110 177 148 80 172 142 80 155 126 58 187 153 92 184 148 98 182 150 91 181 148 105 179 154 90 165 143 86 151 126 121 106 89 43 
123 102 57 167 149 75 176 149 94 180 147 94 183 149 85 180 145 91 179 144 90 135 101 55 185 147 100 175 140 76 175 138 86 183 148 92 168 138 76 171 145 88 168 148 85 119 98 55 
100 76 38 110 82 60 121 95 46 107 77 39 126 98 59 126 104 54 97 75 51 101 86 45 106 85 38 101 76 54 126 103 53 121 94 51 109 81 44 130 104 53 102 75 48 105 80 49 
