P3
16 16
255
137 137 137 254 254 254 255 255 255 114 114 114 134 134 134 254 254 254 255 255 255 255 255 255 112 112 112 107 107 107 132 132 132 255 255 255 109 109 109 255 255 255 109 109 109 108 108 108 
255 255 255 108 108 108 154 154 154 131 131 131 110 110 110 115 115 115 252 252 252 106 106 106 255 255 255 136 136 136 153 153 153 255 255 255 250 250 250 251 251 251 137 137 137 111 111 111 
255 255 255 254 254 254 137 137 137 114 114 114 109 109 109 255 255 255 131 131 131 116 116 116 255 255 255 251 251 251 255 255 255 105 105 105 114 114 114 255 255 255 255 255 255 107 107 107 
136 136 136 152 152 152 255 255 255 247 247 247 137 137 137 253 253 253 150 150 150 135 135 135 253 253 253 255 255 255 106 106 106 186 186 186 152 152 152 109 109 109 253 253 253 255 255 255 
133 133 133 113 113 113 134 134 134 185 185 185 156 156 156 109 109 109 255 255 255 254 254 254 111 111 111 251 251 251 138 138 138 151 151 151 255 255 255 255 255 255 105 105 105 255 255 255 
255 255 255 115 115 115 255 255 255 131 131 131 106 106 106 255 255 255 248 248 248 110 110 110 107 107 107 152 152 152 138 138 138 254 254 254 250 250 250 111 111 111 112 112 112 151 151 151 
252 252 252 254 254 254 107 107 107 255 255 255 255 255 255 187 187 187 152 152 152 255 255 255 139 139 139 135 135 135 253 253 253 116 116 116 254 254 254 252 252 252 135 135 135 137 137 137 
255 255 255 111 111 111 111 111 111 136 136 136 252 252 252 151 151 151 137 137 137 134 134 134 255 255 255 251 251 251 152 152 152 133 133 133 110 110 110 255 255 255 252 252 252 255 255 255 
254 254 254 255 255 255 133 133 133 136 136 136 252 252 252 255 255 255 107 107 107 255 255 255 108 108 108 255 255 255 183 183 183 156 156 156 252 252 252 255 255 255 255 255 255 110 110 110 
136 136 136 102 102 102 255 255 255 255 255 255 108 108 108 255 255 255 255 255 255 133 133 133 109 109 109 110 110 110 255 255 255 148 148 148 135 135 135 255 255 255 134 134 134 110 110 110 
153 153 153 255 255 255 255 255 255 106 106 106 109 109 109 135 135 135 253 253 253 155 155 155 137 137 137 255 255 255 253 253 253 137 137 137 111 111 111 109 109 109 115 115 115 132 132 132 
255 255 255 254 254 254 113 113 113 253 253 253 136 136 136 187 187 187 255 255 255 254 254 254 253 253 253 149 149 149 156 156 156 255 255 255 110 110 110 252 252 252 107 107 107 255 255 255 
252 252 252 135 135 135 114 114 114 109 109 109 255 255 255 253 253 253 255 255 255 108 108 108 255 255 255 137 137 137 106 106 106 111 111 111 255 255 255 107 107 107 118 118 118 151 151 151 
255 255 255 150 150 150 132 132 132 255 255 255 109 109 109 255 255 255 105 105 105 110 110 110 147 147 147 254 254 254 111 111 111 254 254 254 255 255 255 255 255 255 151 151 151 186 186 186 
255 255 255 107 107 107 255 255 255 183 183 183 155 155 155 108 108 108 255 255 255 134 134 134 189 189 189 255 255 255 255 255 255 154 154 154 145 145 145 255 255 255 251 251 251 255 255 255 
149 149 149 255 255 255 253 253 253 152 152 152 137 137 137 133 133 133 255 255 255 255 255 255 252 252 252 108 108 108 255 255 255 134 134 134 112 112 112 110 110 110 254 254 254 137 137 137 
