P3
16 16
255
244 255 255 241 239 216 150 153 126 234 234 222 235 240 234 145 156 124 152 145 135 81 85 70 84 80 68 152 154 141 228 238 214 86 77 70 255 254 243 237 236 232 238 231 215 245 255 255 
255 251 248 218 187 141 222 195 140 213 188 134 211 189 140 208 191 119 223 190 137 200 178 121 219 195 149 199 181 131 201 191 130 217 189 139 218 197 142 216 197 154 219 193 144 243 236 218 
154 154 130 209 190 132 169 151 101 170 151 109 173 157 123 170 158 106 191 163 123 179 163 114 187 171 109 180 169 107 175 170 112 188 167 120 168 152 100 172 161 116 216 200 140 149 154 124 
235 237 224 210 195 140 161 146 89 215 203 131 216 207 140 204 197 125 216 194 136 207 195 135 218 191 144 200 181 123 211 199 139 218 192 131 218 199 131 178 161 115 215 194 139 80 77 68 
152 151 133 205 185 132 178 156 119 216 194 144 201 183 137 200 184 133 207 180 125 200 185 118 210 182 119 203 180 113 195 175 125 212 178 132 216 189 134 183 161 122 212 188 124 153 148 129 
80 85 63 207 193 132 186 172 123 209 197 121 187 178 111 171 161 110 181 158 114 178 167 121 177 162 119 182 173 116 168 164 119 200 181 125 210 200 131 168 160 121 194 183 127 229 237 240 
82 78 66 198 176 126 182 157 127 201 179 119 207 191 132 161 147 100 208 183 126 193 183 114 200 183 127 192 181 115 173 161 119 201 178 126 199 181 115 177 164 122 206 191 122 238 241 232 
153 153 129 204 186 124 184 162 123 214 196 122 197 183 118 171 158 114 201 179 130 182 172 119 189 167 118 198 182 120 180 165 124 209 180 124 221 201 130 179 160 118 206 187 121 255 251 250 
255 253 255 195 185 116 179 165 116 216 191 135 200 181 125 171 161 125 197 182 117 182 168 129 173 164 125 195 177 115 173 162 117 198 185 133 207 191 132 178 162 126 194 184 115 252 255 255 
255 251 253 197 182 125 189 170 128 220 195 131 207 187 118 166 153 109 208 190 118 196 180 120 188 176 116 217 192 125 181 165 114 200 182 118 209 189 120 175 152 118 198 180 118 241 241 233 
237 239 225 193 184 127 172 159 117 213 193 130 193 178 113 175 166 137 177 159 111 162 148 103 176 163 119 186 161 120 180 164 131 194 180 119 216 199 129 184 164 127 196 182 117 145 151 125 
155 148 138 201 184 132 184 165 122 221 195 134 207 186 119 196 182 137 200 176 116 204 183 126 200 181 122 212 181 126 198 180 130 207 187 126 211 188 121 179 155 117 204 183 126 157 155 140 
82 81 63 205 194 128 181 169 109 216 194 134 206 189 120 197 192 126 215 198 126 212 196 137 208 201 133 213 195 123 207 200 132 213 203 141 213 199 134 175 162 110 195 181 118 75 78 67 
89 82 72 212 195 139 188 172 121 177 151 114 190 169 126 172 161 116 175 152 110 175 153 132 172 159 127 180 157 116 168 157 112 176 161 128 175 156 116 176 158 118 211 193 143 83 81 82 
159 144 123 216 191 137 213 190 136 221 190 136 203 180 113 199 185 120 224 198 137 201 178 124 198 182 120 229 200 144 195 179 117 207 188 132 218 194 134 219 191 143 216 186 132 246 234 220 
225 239 242 255 255 243 77 81 67 154 151 134 150 154 129 225 239 226 234 233 231 254 255 251 251 255 248 255 251 255 236 243 236 144 148 133 150 150 122 86 82 70 87 82 60 243 255 255 
