P3
16 16
255
83 65 29 225 203 146 168 146 107 245 232 226 236 232 223 240 232 211 254 243 223 255 249 231 255 248 219 255 247 226 233 228 206 244 239 220 239 232 214 215 206 163 204 189 130 155 134 87 
221 211 162 214 199 132 169 152 106 239 231 218 233 231 218 238 232 210 242 234 215 232 226 210 237 225 209 240 232 221 236 230 216 234 228 214 241 234 218 225 216 175 213 201 143 166 145 100 
221 215 163 212 201 135 163 151 103 251 246 227 238 239 223 249 244 225 248 240 227 238 234 222 239 229 217 255 247 240 241 235 223 249 243 231 248 239 224 233 224 183 212 199 144 159 140 97 
212 208 161 219 207 147 162 147 104 255 255 233 237 235 214 243 235 216 253 241 227 235 229 213 239 231 208 248 240 221 243 237 213 243 237 213 255 250 228 229 218 173 214 202 144 156 137 95 
218 212 164 217 202 143 184 164 114 225 212 177 229 222 180 228 214 177 233 218 185 225 218 176 216 208 161 220 213 171 226 219 173 225 216 173 229 216 181 228 216 164 200 185 126 160 141 101 
215 208 153 218 200 134 206 184 124 209 194 137 210 201 136 199 183 123 199 182 126 210 201 132 194 185 120 217 207 146 212 202 140 201 189 131 212 198 149 197 182 123 216 202 139 154 135 93 
222 217 161 196 178 114 200 178 118 225 209 147 200 188 116 199 179 116 205 185 126 218 209 134 202 187 120 205 189 127 224 206 140 200 182 120 199 179 126 216 201 136 210 195 130 171 152 110 
212 208 160 201 184 130 218 195 143 214 197 141 200 186 123 216 195 142 197 175 128 216 205 141 214 194 133 215 194 137 218 199 133 205 185 124 212 191 136 210 192 128 224 206 140 168 149 106 
217 204 149 202 190 130 213 199 138 221 205 145 200 184 125 214 198 139 213 197 137 219 204 139 221 202 144 202 183 125 210 194 134 197 182 117 216 203 135 208 197 133 216 203 148 163 149 100 
227 213 164 202 189 134 227 212 153 216 200 140 209 193 133 225 209 150 218 202 142 217 201 139 217 201 142 198 182 123 211 195 135 214 198 136 220 206 141 215 201 140 215 202 149 162 148 101 
67 52 9 210 197 145 215 200 141 211 195 133 211 195 133 215 199 139 212 196 137 219 203 143 220 204 144 200 184 125 199 185 124 214 200 137 214 200 135 217 203 142 219 203 151 166 149 103 
83 68 25 216 200 149 216 202 141 215 200 135 201 183 119 221 203 141 199 183 123 221 205 145 211 197 134 212 198 135 199 185 122 218 203 138 218 203 138 213 197 135 215 198 144 157 139 91 
221 207 160 220 204 152 221 205 143 196 181 114 199 181 115 224 206 142 197 181 119 209 193 131 194 180 115 221 207 144 200 186 123 211 196 131 221 206 139 206 190 128 217 198 142 161 141 91 
222 209 157 210 195 138 217 201 141 196 180 118 214 195 136 215 196 138 201 182 124 201 185 125 194 180 119 221 207 146 195 179 120 197 181 121 218 202 140 201 185 125 210 191 135 161 141 91 
222 209 156 193 178 123 217 200 144 220 200 147 218 198 148 213 193 143 202 182 131 207 188 132 203 186 134 214 197 145 198 180 130 200 183 131 215 198 142 198 181 127 195 177 127 163 145 99 
198 182 130 158 142 90 158 141 89 154 133 86 163 141 100 158 136 95 163 142 97 161 141 91 157 139 93 157 138 95 157 138 95 159 141 95 160 142 92 154 136 86 163 145 99 163 144 102 
