P3
16 16
255
242 238 235 245 240 237 217 212 206 220 215 209 222 219 212 239 238 234 236 236 234 239 241 240 221 218 213 214 211 206 241 238 231 241 238 231 218 215 210 213 210 205 243 240 235 242 239 234 
219 215 216 215 211 210 249 245 242 234 231 226 235 232 227 236 235 231 255 255 253 253 253 253 250 246 243 245 241 238 215 211 208 220 216 213 220 216 213 220 216 213 218 214 211 237 233 230 
255 254 255 255 255 253 255 254 251 222 219 214 224 221 216 222 219 214 235 234 230 255 255 251 241 240 238 241 240 238 244 243 241 235 234 232 215 214 212 238 237 235 255 254 252 255 254 252 
255 254 252 255 255 251 213 212 207 187 184 177 95 92 83 53 50 41 59 56 49 93 90 83 215 214 210 234 233 229 255 255 253 254 253 251 255 255 253 255 255 251 208 207 203 255 255 250 
217 217 209 238 238 230 243 243 233 221 221 211 189 187 175 99 97 85 90 88 76 59 55 44 96 96 88 218 217 212 255 255 250 255 254 249 237 236 231 219 219 211 96 96 88 190 190 180 
96 96 84 95 95 83 215 215 203 208 208 198 243 243 233 222 219 210 213 210 201 219 214 208 214 214 204 237 237 229 213 212 207 220 219 214 213 212 207 93 93 85 49 49 37 49 49 37 
94 92 80 192 189 180 240 240 230 242 242 234 213 212 207 218 217 213 220 216 215 242 238 237 255 255 248 255 255 250 255 255 251 238 237 233 238 237 233 238 237 232 222 222 212 190 190 178 
220 216 207 219 216 209 212 211 206 255 255 251 255 254 255 254 252 255 255 253 255 255 252 255 254 253 249 216 215 211 216 215 213 215 213 214 239 238 236 242 241 237 234 234 226 215 215 205 
253 253 255 245 244 242 213 212 208 220 217 210 240 237 230 255 255 250 253 253 251 239 241 240 239 238 236 255 255 253 252 251 249 255 255 253 254 253 251 242 241 239 255 254 252 255 255 251 
254 254 252 250 249 247 247 246 242 209 206 201 220 219 214 243 242 238 241 242 237 241 243 240 255 254 252 255 254 252 255 255 253 239 238 236 244 243 241 210 209 205 215 214 210 235 234 230 
218 217 212 214 213 209 238 237 233 255 255 253 250 249 247 252 251 247 255 255 251 234 235 229 239 238 236 238 237 235 216 215 213 217 216 212 214 213 209 255 254 250 255 255 251 242 241 237 
221 221 211 236 236 228 254 253 249 251 249 250 255 254 255 254 253 251 240 241 236 255 255 250 255 255 253 253 252 250 255 255 251 239 238 233 254 253 248 255 255 250 244 243 238 216 215 210 
209 209 197 220 220 212 220 219 215 240 239 237 242 242 242 216 216 214 215 216 211 236 237 231 241 240 238 251 250 246 242 241 236 240 240 232 211 211 203 193 193 185 92 92 84 48 47 42 
58 55 46 183 183 175 239 238 233 236 237 232 253 253 251 255 255 253 255 255 253 237 236 234 216 215 213 221 220 216 211 210 205 217 217 209 99 99 89 52 52 42 48 48 40 58 58 50 
52 49 42 53 50 43 98 98 90 217 218 210 214 215 209 214 215 210 253 251 252 255 254 255 255 251 250 245 241 238 95 92 85 98 95 86 215 213 201 189 186 177 97 94 85 92 89 82 
242 239 234 218 215 208 215 215 205 91 93 82 239 240 232 254 255 250 255 254 255 253 251 255 243 239 238 213 209 206 218 215 208 218 215 206 240 238 226 220 218 206 218 215 206 242 239 232 
