P3
16 16
255
22 23 28 34 35 40 34 35 40 43 44 49 27 28 33 28 29 34 23 24 29 20 21 26 29 30 35 28 29 34 21 22 27 16 17 22 42 43 48 32 33 38 19 20 25 21 22 27 
19 20 25 22 23 28 26 27 32 33 34 39 19 20 25 21 22 27 27 28 33 25 26 31 31 32 37 55 56 61 17 18 23 29 30 35 19 20 25 22 23 28 21 22 27 64 65 70 
42 43 48 44 45 50 19 20 25 27 28 33 35 36 41 25 26 31 14 15 20 37 38 43 22 23 28 18 19 24 37 38 43 25 26 31 15 16 21 24 25 30 30 31 36 57 58 63 
18 19 24 31 32 37 17 18 23 24 25 30 20 21 26 34 35 40 21 22 27 13 14 19 18 19 24 19 20 25 23 24 29 22 23 28 23 24 29 21 22 27 16 17 22 31 32 37 
20 21 26 27 28 33 23 24 29 24 25 30 19 20 25 30 31 36 38 39 44 38 39 44 25 26 31 18 19 24 26 27 32 29 30 35 30 31 36 20 21 26 16 17 22 27 28 33 
23 24 29 20 21 26 24 25 30 33 34 39 47 48 53 18 19 24 18 19 24 31 32 37 21 22 27 16 17 22 29 30 35 39 40 45 14 15 20 41 42 47 22 23 28 25 26 31 
23 24 29 21 22 27 23 24 29 23 24 29 31 32 37 25 26 31 27 28 33 14 15 20 24 25 30 34 35 40 21 22 27 15 16 21 28 29 34 25 26 31 28 29 34 17 18 23 
16 17 22 42 43 48 24 25 30 19 20 25 29 30 35 37 38 43 20 21 26 23 24 29 33 34 39 16 17 22 13 14 19 31 32 37 29 30 35 28 29 34 19 20 25 21 22 27 
22 23 28 35 36 41 37 38 43 36 37 42 22 23 28 30 31 36 31 32 37 20 21 26 33 34 39 22 23 28 20 21 26 31 32 37 32 33 38 26 27 32 18 19 24 41 42 47 
17 18 23 33 34 39 27 28 33 16 17 22 24 25 30 11 12 17 15 16 21 24 25 30 19 20 25 19 20 25 13 14 19 19 20 25 37 38 43 36 37 42 24 25 30 43 44 49 
19 20 25 28 29 34 18 19 24 24 25 30 18 19 24 16 17 22 27 28 33 32 33 38 23 24 29 18 19 24 29 30 35 26 27 32 17 18 23 18 19 24 25 26 31 24 25 30 
22 23 28 34 35 40 21 22 27 23 24 29 23 24 29 19 20 25 24 25 30 20 21 26 33 34 39 33 34 39 37 38 43 29 30 35 33 34 39 30 31 36 27 28 33 20 21 26 
30 31 36 19 20 25 31 32 37 22 23 28 32 33 38 22 23 28 53 54 59 35 36 41 23 24 29 23 24 29 27 28 33 26 27 32 30 31 36 24 25 30 23 24 29 13 14 19 
20 21 26 30 31 36 39 40 45 32 33 38 57 58 63 29 30 35 28 29 34 35 36 41 35 36 41 26 27 32 31 32 37 32 33 38 17 18 23 15 16 21 30 31 36 22 23 28 
21 22 27 17 18 23 17 18 23 18 19 24 24 25 30 27 28 33 25 26 31 35 36 41 34 35 40 36 37 42 21 22 27 20 21 26 24 25 30 23 24 29 25 26 31 30 31 36 
28 29 34 18 19 24 24 25 30 18 19 24 26 27 32 33 34 39 25 26 31 16 17 22 19 20 25 27 28 33 26 27 32 31 32 37 17 18 23 16 17 22 22 23 28 22 23 28 
