P3
16 16
255
47 48 43 39 44 50 159 34 42 134 33 37 46 43 52 53 42 56 144 33 22 139 33 35 0 2 0 48 47 45 31 40 49 4 0 0 0 1 7 8 0 0 0 1 6 34 44 36 
41 46 52 149 33 44 156 31 25 160 40 39 135 34 26 37 43 41 136 38 25 145 24 41 1 0 5 55 39 49 8 0 4 61 23 12 166 34 48 139 31 29 73 16 31 8 0 0 
157 30 39 158 31 25 153 37 24 144 26 40 35 44 51 57 40 50 40 49 46 36 36 34 11 17 3 54 48 50 0 2 14 150 37 33 15 34 15 1 1 3 129 25 22 16 24 26 
140 35 40 155 33 32 153 32 47 27 42 49 48 47 55 39 30 49 150 26 28 140 35 39 73 12 28 23 39 39 0 4 12 154 33 22 70 6 7 23 31 34 151 33 29 16 14 19 
42 34 45 146 41 35 31 38 46 43 42 50 29 54 51 52 51 49 21 15 15 145 31 41 153 32 24 73 20 16 1 2 0 80 19 27 138 33 29 131 25 25 72 10 25 23 26 15 
54 42 56 40 44 45 56 36 47 58 46 66 50 49 47 49 33 44 38 47 54 10 33 15 143 28 35 128 34 34 145 29 29 8 7 13 14 3 0 37 24 16 23 28 24 146 39 33 
142 31 20 143 45 32 41 47 45 152 26 29 28 19 20 34 41 49 8 17 14 45 40 44 10 0 1 19 23 24 24 12 12 28 26 39 137 34 37 124 26 15 156 34 45 19 32 25 
135 31 32 148 27 44 38 38 36 147 38 43 150 34 45 6 27 10 48 43 47 150 25 43 137 30 36 147 44 35 156 33 15 27 32 38 136 30 44 92 17 14 26 25 33 40 22 34 
3 0 0 0 6 0 12 22 13 73 11 24 149 27 24 134 29 23 20 24 23 154 30 32 46 46 54 92 6 7 158 36 35 34 27 34 130 30 28 31 29 32 23 39 39 27 25 30 
45 35 59 44 43 51 53 40 58 31 39 42 71 16 13 162 39 41 20 16 30 142 35 27 80 10 18 152 37 44 119 26 34 32 32 34 42 32 22 31 24 31 22 25 34 31 32 34 
49 40 31 18 9 12 3 0 5 10 8 0 0 4 4 130 34 35 22 22 20 147 32 39 157 34 36 138 24 34 33 35 32 18 30 28 55 52 63 47 50 57 61 65 74 62 60 61 
4 19 16 69 19 18 142 37 41 148 26 21 80 14 28 4 7 0 36 27 18 72 15 8 68 18 0 24 36 24 20 24 33 56 60 61 50 56 68 23 21 32 26 31 35 31 32 34 
12 21 26 142 29 33 7 3 2 23 21 26 150 35 40 9 11 6 138 27 36 151 38 42 148 30 44 28 32 43 50 54 63 65 56 61 36 25 33 48 57 64 52 57 53 67 57 68 
1 1 0 160 25 32 13 26 16 0 0 7 155 40 37 9 2 0 155 33 30 79 11 12 20 26 22 35 20 43 55 63 66 34 30 31 46 50 51 40 62 60 62 57 54 49 62 68 
12 26 29 75 18 24 139 33 19 136 33 26 91 14 8 17 17 9 139 36 40 41 31 39 40 29 45 21 31 33 63 67 70 32 31 27 43 55 67 64 64 66 54 53 58 45 60 63 
46 34 34 0 0 12 0 2 3 7 20 26 13 2 0 144 31 33 73 13 12 22 30 32 23 25 40 35 31 22 57 50 57 19 37 25 63 53 88 59 59 57 59 61 73 63 56 63 
