P3
16 16
255
37 22 15 37 22 15 38 23 16 38 23 16 38 23 16 38 23 16 39 24 17 39 24 17 37 22 15 38 23 16 38 23 16 38 23 16 37 22 15 36 21 14 36 21 14 37 22 15 
37 22 15 37 22 15 37 22 15 37 22 15 37 22 15 38 23 16 38 23 16 38 23 16 37 22 15 38 23 16 38 23 16 38 23 16 37 22 15 36 21 14 37 22 15 37 22 15 
37 22 15 37 22 15 37 22 15 37 22 15 37 22 15 37 22 15 37 22 15 37 22 15 37 22 15 37 22 15 38 23 16 37 22 15 37 22 15 37 22 15 37 22 15 37 22 15 
38 23 16 37 22 15 37 22 15 37 22 15 37 22 15 36 21 14 36 21 14 36 21 14 37 22 15 37 22 15 37 22 15 37 22 15 37 22 15 37 22 15 37 22 15 37 22 15 
38 23 16 38 23 16 38 23 16 37 22 15 37 22 15 37 22 15 36 21 14 36 21 14 37 22 15 37 22 15 37 22 15 37 22 15 38 23 16 38 23 16 38 23 16 37 22 15 
38 23 16 38 23 16 38 23 16 38 23 16 37 22 15 37 22 15 37 22 15 37 22 15 38 23 16 37 22 15 37 22 15 37 22 15 38 23 16 38 23 16 38 23 16 37 22 15 
38 23 16 38 23 16 38 23 16 38 23 16 37 22 15 37 22 15 37 22 15 37 22 15 38 23 16 37 22 15 37 22 15 37 22 15 38 23 16 38 23 16 38 23 16 38 23 16 
38 23 16 38 23 16 38 23 16 37 22 15 37 22 15 37 22 15 37 22 15 37 22 15 38 23 16 37 22 15 37 22 15 37 22 15 38 23 16 39 24 17 38 23 16 38 23 16 
39 24 17 39 24 17 38 23 16 36 21 14 35 20 13 37 22 15 38 23 16 37 22 15 36 21 14 37 22 15 37 22 15 38 23 16 39 24 17 39 24 17 39 24 17 40 25 18 
38 23 16 38 23 16 37 22 15 36 21 14 36 21 14 37 22 15 38 23 16 38 23 16 38 23 16 38 23 16 38 23 16 38 23 16 38 23 16 38 23 16 38 23 16 38 23 16 
36 21 14 37 22 15 37 22 15 36 21 14 36 21 14 38 23 16 38 23 16 38 23 16 39 24 17 39 24 17 38 23 16 38 23 16 38 23 16 38 23 16 37 22 15 37 22 15 
35 20 13 37 22 15 37 22 15 37 22 15 37 22 15 38 23 16 38 23 16 37 22 15 39 24 17 39 24 17 38 23 16 38 23 16 37 22 15 37 22 15 37 22 15 37 22 15 
36 21 14 37 22 15 38 23 16 37 22 15 37 22 15 38 23 16 37 22 15 36 21 14 38 23 16 38 23 16 38 23 16 37 22 15 37 22 15 37 22 15 38 23 16 38 23 16 
37 22 15 38 23 16 38 23 16 37 22 15 37 22 15 38 23 16 37 22 15 36 21 14 38 23 16 38 23 16 37 22 15 37 22 15 37 22 15 37 22 15 38 23 16 38 23 16 
38 23 16 39 24 17 38 23 16 37 22 15 37 22 15 38 23 16 38 23 16 37 22 15 38 23 16 38 23 16 37 22 15 37 22 15 37 22 15 37 22 15 38 23 16 38 23 16 
38 23 16 39 24 17 38 23 16 37 22 15 37 22 15 38 23 16 39 24 17 38 23 16 39 24 17 38 23 16 37 22 15 37 22 15 37 22 15 37 22 15 37 22 15 38 23 16 
