P3
16 16
255
12 13 17 18 19 23 10 11 15 13 14 18 18 19 23 23 24 28 13 14 18 13 14 18 27 28 32 21 22 26 11 12 16 11 12 16 20 21 25 21 22 26 13 14 18 10 11 15 
20 21 25 24 25 29 32 33 37 33 34 38 31 32 36 26 27 31 20 21 25 15 16 20 10 11 15 11 12 16 16 17 21 16 17 21 11 12 16 11 12 16 15 16 20 17 18 22 
26 27 31 27 28 32 22 23 27 17 18 22 32 33 37 23 24 28 16 17 21 17 18 22 24 25 29 30 31 35 24 25 29 23 24 28 33 34 38 30 31 35 22 23 27 24 25 29 
20 21 25 14 15 19 23 24 28 24 25 29 18 19 23 16 17 21 27 28 32 29 30 34 13 14 18 14 15 19 24 25 29 28 29 33 23 24 28 26 27 31 32 33 37 29 30 34 
19 20 24 20 21 25 13 14 18 20 21 25 26 27 31 20 21 25 5 6 10 7 8 12 15 16 20 21 22 26 14 15 19 11 12 16 22 23 27 19 20 24 9 10 14 11 12 16 
11 12 16 9 10 14 16 17 21 26 27 31 9 10 14 11 12 16 15 16 20 15 16 20 10 11 15 11 12 16 16 17 21 17 18 22 12 13 17 15 16 20 18 19 23 13 14 18 
35 36 40 33 34 38 28 29 33 26 27 31 21 22 26 18 19 23 17 18 22 21 22 26 29 30 34 31 32 36 23 24 28 22 23 27 34 35 39 35 36 40 24 25 29 19 20 24 
15 16 20 18 19 23 33 34 38 33 34 38 26 27 31 20 21 25 28 29 33 27 28 32 10 11 15 18 19 23 24 25 29 24 25 29 23 24 28 25 26 30 26 27 31 26 27 31 
29 28 33 19 18 23 12 11 16 18 17 22 26 25 30 23 22 27 17 16 21 15 14 19 17 16 21 17 16 21 13 12 17 13 12 17 19 18 23 19 18 23 13 12 17 9 8 13 
17 16 21 16 15 20 23 22 27 24 23 28 13 12 17 9 8 13 17 16 21 24 23 28 12 11 16 24 23 28 40 39 44 36 35 40 20 19 24 24 23 28 38 37 42 39 38 43 
27 26 31 27 26 31 21 20 25 23 22 27 35 34 39 33 32 37 23 22 27 22 21 26 30 29 34 25 24 29 19 18 23 20 19 24 22 21 26 19 18 23 16 15 20 19 18 23 
15 14 19 15 14 19 25 24 29 25 24 29 13 12 17 15 14 19 25 24 29 25 24 29 15 14 19 11 10 15 20 19 24 25 24 29 12 11 16 7 6 11 16 15 20 21 20 25 
14 13 18 15 14 19 8 7 12 12 11 16 30 29 34 30 29 34 15 14 19 8 7 12 17 16 21 29 28 33 18 17 22 15 14 19 39 38 43 40 39 44 20 19 24 16 15 20 
22 21 26 25 24 29 36 35 40 38 37 42 27 26 31 23 22 27 23 22 27 17 16 21 9 8 13 22 21 26 29 28 33 26 25 30 23 22 27 23 22 27 28 27 32 33 32 37 
36 35 40 30 29 34 18 17 22 16 15 20 24 23 28 26 25 30 22 21 26 24 23 28 35 34 39 25 24 29 14 13 18 16 15 20 23 22 27 19 18 23 14 13 18 18 17 22 
9 8 13 16 15 20 26 25 30 25 24 29 15 14 19 13 12 17 25 24 29 38 37 42 21 20 25 15 14 19 25 24 29 28 27 32 14 13 18 16 15 20 28 27 32 27 26 31 
