P3
16 16
255
106 106 106 111 111 111 108 108 108 106 106 106 107 107 107 109 109 109 108 108 108 109 109 109 109 109 109 108 108 108 109 109 109 109 109 109 108 108 108 104 104 104 114 114 114 108 108 108 
109 109 109 160 160 160 167 167 167 159 159 159 164 164 164 166 166 166 163 163 163 160 160 160 162 162 162 163 163 163 163 163 163 160 160 160 164 164 164 165 165 165 154 154 154 113 113 113 
107 107 107 164 164 164 160 160 160 169 169 169 115 115 115 158 158 158 162 162 162 165 165 165 160 160 160 163 163 163 165 165 165 161 161 161 164 164 164 172 172 172 161 161 161 106 106 106 
108 108 108 164 164 164 167 167 167 108 108 108 161 161 161 170 170 170 160 160 160 165 165 165 164 164 164 163 163 163 164 164 164 162 162 162 158 158 158 163 163 163 162 162 162 111 111 111 
104 104 104 163 163 163 112 112 112 163 163 163 168 168 168 164 164 164 159 159 159 162 162 162 166 166 166 161 161 161 161 161 161 165 165 165 162 162 162 164 164 164 162 162 162 107 107 107 
109 109 109 167 167 167 161 161 161 166 166 166 160 160 160 163 163 163 168 168 168 165 165 165 161 161 161 161 161 161 161 161 161 164 164 164 163 163 163 167 167 167 166 166 166 108 108 108 
108 108 108 160 160 160 164 164 164 161 161 161 162 162 162 164 164 164 162 162 162 160 160 160 163 163 163 167 167 167 164 164 164 164 164 164 160 160 160 161 161 161 163 163 163 108 108 108 
110 110 110 160 160 160 166 166 166 162 162 162 164 164 164 164 164 164 163 163 163 165 165 165 163 163 163 164 164 164 158 158 158 165 165 165 166 166 166 162 162 162 161 161 161 109 109 109 
109 109 109 161 161 161 162 162 162 166 166 166 165 165 165 158 158 158 164 164 164 163 163 163 166 166 166 161 161 161 160 160 160 160 160 160 166 166 166 165 165 165 162 162 162 111 111 111 
108 108 108 163 163 163 161 161 161 160 160 160 164 164 164 164 164 164 167 167 167 163 163 163 160 160 160 168 168 168 166 166 166 169 169 169 160 160 160 159 159 159 167 167 167 101 101 101 
108 108 108 166 166 166 167 167 167 163 163 163 164 164 164 161 161 161 161 161 161 161 161 161 164 164 164 161 161 161 156 156 156 164 164 164 163 163 163 165 165 165 167 167 167 108 108 108 
107 107 107 162 162 162 164 164 164 162 162 162 165 165 165 161 161 161 161 161 161 166 166 166 161 161 161 169 169 169 166 166 166 160 160 160 165 165 165 162 162 162 163 163 163 105 105 105 
111 111 111 162 162 162 163 163 163 158 158 158 162 162 162 164 164 164 163 163 163 164 164 164 165 165 165 160 160 160 162 162 162 163 163 163 161 161 161 118 118 118 159 159 159 113 113 113 
106 106 106 161 161 161 172 172 172 164 164 164 161 161 161 165 165 165 163 163 163 160 160 160 163 163 163 160 160 160 167 167 167 162 162 162 119 119 119 164 164 164 156 156 156 108 108 108 
113 113 113 154 154 154 165 165 165 164 164 164 160 160 160 163 163 163 163 163 163 162 162 162 165 165 165 165 165 165 162 162 162 165 165 165 159 159 159 158 158 158 172 172 172 106 106 106 
108 108 108 114 114 114 104 104 104 108 108 108 109 109 109 109 109 109 108 108 108 109 109 109 109 109 109 105 105 105 105 105 105 111 111 111 106 106 106 112 112 112 104 104 104 108 108 108 
