P3
16 16
255
198 198 198 173 173 173 140 140 140 143 143 143 109 109 109 116 116 116 98 98 98 119 119 119 106 106 106 116 116 116 118 118 118 99 99 99 198 198 198 173 173 173 142 142 142 143 143 143 
168 168 168 65 65 65 78 78 78 101 101 101 77 77 77 74 74 74 61 61 61 67 67 67 75 75 75 65 65 65 74 74 74 68 68 68 174 174 174 62 62 62 70 70 70 107 107 107 
145 145 145 72 72 72 83 83 83 121 121 121 71 71 71 73 73 73 81 81 81 73 73 73 80 80 82 91 91 93 85 85 87 78 78 78 145 145 145 72 72 70 86 86 84 114 114 112 
114 114 114 124 124 124 116 116 116 136 136 136 67 67 67 69 69 69 76 76 76 73 73 73 58 58 60 65 65 67 79 79 81 81 81 81 119 119 119 111 111 109 121 121 119 138 138 136 
104 104 104 62 62 62 60 60 60 83 83 83 85 85 85 98 98 98 85 85 85 91 91 91 93 93 95 77 77 79 73 73 75 68 68 68 61 61 61 64 64 62 65 65 63 99 99 97 
116 116 116 64 64 64 76 76 76 74 74 74 70 70 70 92 92 92 88 88 88 76 76 76 61 61 63 70 70 72 73 73 75 82 82 82 79 79 79 82 82 80 84 84 82 116 116 114 
117 117 117 69 69 69 80 80 80 131 131 131 139 139 139 131 131 131 135 135 135 135 135 135 120 120 120 112 112 112 118 118 118 113 113 113 106 106 106 71 71 71 83 83 83 113 113 113 
103 103 103 78 78 78 81 81 81 135 135 135 196 196 196 196 196 196 198 198 198 199 199 199 196 196 196 176 176 176 169 169 169 173 173 173 105 105 105 75 75 75 68 68 68 107 107 107 
104 102 105 66 64 67 64 62 65 115 115 115 156 156 156 171 171 171 18 18 18 172 172 172 17 17 17 171 171 171 19 19 19 152 152 152 106 106 106 66 66 68 63 63 65 104 104 106 
147 147 147 177 177 177 196 196 196 160 160 160 100 100 100 177 177 177 13 15 12 175 177 174 20 20 18 178 178 176 11 11 11 162 162 162 87 87 87 173 173 173 184 184 184 143 143 143 
103 103 103 142 142 142 108 108 108 151 153 150 104 106 103 170 172 169 14 16 13 152 154 151 12 14 11 153 155 152 10 12 9 156 158 155 90 92 89 156 158 157 158 160 159 101 103 102 
101 103 100 146 148 145 113 115 112 89 91 88 115 117 114 162 164 161 195 197 194 157 162 156 195 197 192 163 165 162 202 204 201 115 117 114 85 87 84 138 140 137 154 156 153 101 103 100 
108 110 107 139 141 138 134 136 133 66 68 65 115 117 114 119 121 118 115 117 114 114 119 113 117 119 114 115 117 114 115 117 114 111 113 110 73 75 72 142 144 141 134 136 133 107 109 106 
81 81 81 140 140 140 134 134 134 72 74 71 75 77 74 68 70 67 70 72 69 89 91 88 87 89 86 87 89 86 86 88 85 90 92 89 87 89 86 138 140 139 125 127 126 85 87 86 
91 91 91 125 125 125 133 133 133 129 129 129 116 116 116 113 113 113 116 118 115 117 119 116 117 117 115 115 115 113 117 117 117 119 119 119 124 124 124 128 128 128 126 126 126 89 89 89 
88 86 89 91 89 92 92 90 93 85 85 85 91 91 91 87 87 87 90 90 90 87 87 87 86 86 86 91 91 91 86 86 86 87 87 87 88 88 88 89 89 91 87 87 89 89 89 91 
