P3
16 16
255
101 101 101 119 119 119 114 114 114 101 101 101 107 107 107 85 85 87 87 87 89 89 89 91 86 86 86 93 93 93 84 84 84 103 103 103 106 106 106 116 116 116 118 118 118 113 113 113 
120 120 120 103 103 103 73 73 73 83 83 83 73 73 73 74 74 76 62 62 64 63 63 65 64 64 64 67 67 67 71 71 71 82 82 82 76 76 76 79 79 79 97 97 97 110 110 110 
102 102 102 74 74 74 69 69 69 79 79 79 80 80 80 89 89 91 84 84 86 68 68 70 60 60 60 65 65 65 67 67 67 70 70 70 77 77 77 68 68 68 76 76 76 112 112 112 
116 116 116 64 64 64 74 74 74 76 76 76 80 80 80 59 59 61 64 64 66 64 64 66 78 78 78 69 69 69 78 78 78 82 82 82 79 79 79 76 76 76 84 84 84 116 116 116 
106 106 106 72 72 72 80 80 80 87 87 87 85 85 85 73 73 75 62 62 64 70 70 72 74 74 74 88 88 88 90 90 90 87 87 87 82 82 82 73 73 73 59 59 59 105 105 105 
87 87 87 79 79 79 77 77 77 62 62 62 60 60 60 66 66 68 60 60 62 65 65 67 65 65 65 68 68 68 71 71 71 73 73 73 58 58 58 65 65 65 67 67 67 102 102 102 
88 88 88 79 79 79 87 87 87 74 74 74 81 81 81 66 66 68 69 69 71 79 79 81 81 81 81 89 89 89 88 88 88 89 89 89 88 88 88 80 80 80 64 64 64 86 86 86 
86 86 86 74 74 74 74 74 74 63 63 63 71 71 71 69 69 71 80 80 82 89 89 91 90 90 90 82 82 82 76 76 76 72 72 72 74 74 74 69 69 69 71 71 71 90 90 90 
87 87 87 63 63 63 66 66 66 61 61 61 72 72 72 74 74 74 64 64 64 71 71 71 62 62 62 63 63 63 63 63 63 63 63 63 73 73 73 64 64 64 70 70 70 89 89 89 
92 92 92 69 69 69 79 79 79 79 79 79 69 69 69 75 75 75 78 78 78 74 74 74 76 76 76 84 84 84 85 85 85 91 91 91 85 85 85 80 80 80 79 79 79 88 88 88 
84 84 84 69 69 69 73 73 73 80 80 80 83 83 83 90 90 90 84 84 84 77 77 77 80 80 80 74 74 74 67 67 67 78 78 78 78 78 78 80 80 80 76 76 76 84 84 84 
107 107 107 83 83 83 83 83 83 76 76 76 73 73 73 68 68 68 60 60 60 68 68 68 67 67 67 63 63 63 70 70 70 74 74 74 70 70 70 62 62 62 58 58 58 91 91 91 
113 113 113 56 56 56 62 62 62 68 68 68 77 77 77 79 79 79 71 71 71 68 68 68 62 62 62 73 73 73 87 87 87 87 87 87 80 80 80 75 75 75 64 64 64 114 114 114 
117 117 117 75 75 75 77 77 77 79 79 79 84 84 84 78 78 78 70 70 70 81 81 81 83 83 83 93 93 93 81 81 81 70 70 70 62 62 62 74 74 74 72 72 72 114 114 114 
118 118 118 102 102 102 75 75 75 75 75 75 81 81 81 76 76 76 61 61 61 71 71 71 71 71 71 82 82 82 69 69 69 60 60 60 64 64 64 70 70 70 101 101 101 121 121 121 
103 103 103 117 117 117 101 101 101 120 120 120 103 103 103 102 102 102 93 93 93 85 85 85 87 87 87 87 87 87 86 86 86 90 90 90 116 116 116 86 86 86 116 116 116 87 87 87 
