P3
16 16
255
197 197 197 172 172 172 143 143 143 144 144 144 102 102 102 117 117 117 116 116 116 106 106 106 115 115 117 113 113 113 120 120 120 108 108 108 189 189 189 175 175 175 145 145 145 141 141 139 
175 175 175 62 62 62 73 73 73 99 99 99 84 84 84 75 75 75 58 58 58 60 60 60 72 72 74 71 71 71 65 65 65 63 63 63 178 178 178 60 60 60 73 73 73 105 105 103 
140 140 140 71 71 71 90 90 90 119 119 119 75 75 75 73 73 73 78 78 78 84 84 84 79 79 81 90 90 90 95 95 95 74 74 74 148 148 148 66 66 66 89 89 89 117 117 115 
112 112 112 124 124 124 123 123 123 129 129 129 62 62 62 69 69 69 74 74 74 68 68 68 63 63 65 57 57 57 76 76 76 83 83 83 114 114 114 122 122 122 120 120 120 137 137 135 
105 105 105 61 61 61 60 60 60 82 82 82 90 90 90 99 99 99 86 86 86 89 89 89 89 89 91 79 79 79 73 73 73 70 70 70 63 63 63 59 59 59 64 64 64 101 101 99 
105 105 105 62 62 62 74 74 74 68 68 68 72 72 72 89 89 89 86 86 86 80 80 80 71 71 73 71 71 71 75 75 75 78 78 78 86 86 86 91 91 91 85 85 85 107 107 105 
115 115 115 70 70 70 78 78 78 95 95 95 88 88 88 78 78 78 78 78 78 75 75 75 76 76 78 74 74 74 88 88 88 89 89 89 82 82 82 90 90 90 78 78 78 115 115 113 
115 115 115 81 81 81 92 92 92 83 83 83 79 79 79 71 71 71 78 78 78 80 80 80 62 62 64 73 73 73 77 77 77 77 77 77 80 80 80 78 78 78 73 73 73 116 116 114 
104 104 106 62 62 64 79 79 81 68 68 70 61 61 63 62 62 64 65 65 67 62 62 64 62 62 62 64 64 64 70 70 70 71 71 71 70 70 70 70 70 70 61 61 61 103 103 103 
144 144 144 180 180 180 175 175 175 183 183 183 187 187 187 176 176 176 185 185 185 177 177 177 178 178 178 186 186 186 185 185 185 181 181 181 185 185 185 175 175 175 179 179 179 145 145 145 
99 99 99 142 142 142 155 155 155 141 141 141 155 155 155 160 160 160 140 140 140 160 160 160 145 145 145 136 136 136 135 135 135 132 132 132 134 134 134 146 146 146 143 143 143 104 104 104 
107 107 107 134 134 134 141 141 141 137 137 137 154 154 154 141 141 141 134 134 134 141 141 141 146 146 146 143 143 143 139 139 139 133 133 133 145 145 145 125 125 125 142 142 142 104 104 104 
103 103 103 134 134 134 129 129 129 136 136 136 147 147 147 132 132 132 143 143 143 135 135 135 122 122 122 134 134 134 130 130 130 138 138 138 124 124 124 134 134 134 131 131 131 102 102 102 
91 91 91 126 126 126 136 136 136 126 126 126 123 123 123 140 140 140 129 129 129 136 136 136 141 141 141 123 123 123 139 139 139 128 128 128 113 113 113 128 128 128 116 116 116 87 87 87 
86 86 86 118 118 118 127 127 127 125 125 125 115 115 115 126 126 126 114 114 114 114 114 114 128 128 128 125 125 125 114 114 114 133 133 133 113 113 113 117 117 117 113 113 113 90 90 90 
88 88 86 81 81 79 90 90 88 92 92 90 86 86 84 88 88 86 89 89 87 89 89 87 85 85 85 91 91 91 86 86 86 85 85 85 86 86 86 92 92 92 88 88 88 89 89 89 
