P3
16 16
255
75 60 91 74 59 90 73 58 89 73 58 89 74 59 90 75 60 91 76 61 92 76 61 92 72 59 89 75 62 92 77 64 94 76 61 92 72 57 88 72 57 88 73 58 89 75 58 90 
73 58 89 74 59 90 76 61 92 77 62 93 77 62 93 76 61 92 74 59 90 73 58 89 73 60 90 75 62 92 76 61 92 74 59 90 73 58 89 73 58 89 74 59 90 74 59 90 
75 60 91 75 60 91 75 60 91 74 59 90 73 58 89 72 57 88 73 58 89 74 59 90 74 61 91 75 60 91 75 60 91 74 59 90 74 59 90 75 60 91 75 60 91 74 59 90 
76 61 92 76 61 92 75 60 91 73 58 89 70 55 86 70 55 86 72 57 88 75 60 91 74 59 90 74 59 90 75 60 91 75 60 91 75 60 91 75 60 91 75 60 91 74 59 90 
75 60 91 77 62 93 78 63 94 78 63 94 75 60 91 73 58 89 72 57 88 73 58 89 72 57 88 74 59 90 76 61 92 77 62 93 76 61 92 74 59 90 74 59 90 75 60 91 
76 61 92 77 62 93 77 62 93 76 61 92 74 59 90 73 58 89 74 59 90 75 60 91 72 57 88 73 58 89 76 61 92 77 62 93 76 61 92 74 59 90 74 59 90 75 62 92 
78 63 94 76 61 92 74 59 90 72 57 88 72 57 88 73 58 89 75 60 91 77 62 93 75 60 91 74 59 90 74 59 90 76 61 92 76 61 92 75 60 91 74 61 91 75 62 92 
75 60 91 75 60 91 75 60 91 76 61 92 76 61 92 76 61 92 75 60 91 75 60 91 78 61 93 74 59 90 72 57 88 74 59 90 75 60 91 74 61 91 74 61 91 75 62 92 
77 62 93 77 62 93 76 61 92 73 58 89 73 58 89 74 59 90 75 60 91 74 59 90 73 58 89 74 59 90 77 62 93 78 63 94 79 64 95 77 62 93 76 61 92 75 60 91 
74 59 90 74 59 90 73 58 89 71 56 87 71 56 87 73 58 89 73 58 89 73 58 89 75 60 91 74 59 90 73 58 89 73 58 89 73 58 89 75 60 91 76 61 92 77 62 93 
74 59 90 75 60 91 75 60 91 74 59 90 75 60 91 76 61 92 76 61 92 76 61 92 76 61 92 75 60 91 75 60 91 75 60 91 76 61 92 76 61 92 75 60 91 74 59 90 
72 57 88 73 58 89 73 58 89 73 58 89 73 58 89 74 59 90 74 59 90 73 58 89 78 63 94 77 62 93 77 62 93 77 62 93 78 63 94 77 62 93 75 60 91 73 58 89 
72 57 88 74 59 90 74 59 90 73 58 89 73 58 89 74 59 90 74 59 90 73 58 89 79 64 95 77 62 93 73 58 89 72 57 88 72 57 88 74 59 90 76 61 92 76 61 92 
75 60 91 76 61 92 76 61 92 75 60 91 75 60 91 76 61 92 76 61 92 75 60 91 75 60 91 74 59 90 73 58 89 73 58 89 73 58 89 74 59 90 76 61 92 77 62 93 
73 58 89 74 59 90 74 59 90 73 58 89 73 58 89 74 59 90 74 59 90 73 58 89 72 57 88 74 59 90 76 61 92 76 61 92 75 60 91 74 59 90 74 59 90 75 60 91 
75 60 91 76 61 92 75 60 91 74 59 90 75 60 91 76 61 92 77 62 93 76 61 92 76 61 92 76 61 92 76 61 92 73 58 89 71 56 87 71 56 87 73 58 89 76 61 92 
