P3
16 16
255
114 129 224 109 127 189 118 130 202 113 127 202 111 128 198 114 132 206 109 126 195 115 129 200 113 127 200 112 129 199 115 131 208 115 130 199 115 127 203 112 124 196 117 137 200 106 125 220 
107 125 187 172 191 221 165 179 218 173 186 228 168 184 218 172 190 230 165 181 215 173 187 224 170 186 222 172 188 222 169 187 227 166 182 215 172 184 224 173 187 224 160 179 209 116 136 199 
117 129 201 169 183 222 177 185 232 179 185 235 146 155 198 172 182 231 180 189 230 173 180 224 172 181 224 172 184 224 174 185 231 171 180 221 175 181 229 182 189 235 169 183 220 113 125 197 
115 129 204 169 182 224 175 181 231 148 154 204 178 185 229 169 177 224 172 179 221 179 183 228 176 183 227 173 182 221 176 184 230 177 185 224 174 178 226 174 180 228 170 182 222 117 129 205 
110 127 197 170 186 220 150 159 202 176 183 227 171 181 216 177 186 227 179 189 224 174 182 219 178 186 223 171 182 214 170 182 220 178 189 221 176 184 223 174 183 224 169 185 218 113 128 197 
114 132 208 171 189 229 167 177 226 174 182 229 173 182 223 169 180 226 174 186 226 175 183 229 172 180 226 170 182 222 169 180 225 172 184 222 173 181 227 175 186 232 172 190 230 113 129 206 
109 126 195 169 185 219 180 189 230 177 184 226 175 185 220 178 190 230 165 178 213 177 186 227 175 182 224 179 189 225 173 185 225 173 184 216 169 178 217 170 182 222 171 187 221 112 129 199 
116 130 201 169 183 220 172 179 223 179 183 228 175 183 220 172 180 226 177 186 227 174 182 228 175 179 227 177 184 226 171 179 225 177 185 222 178 185 229 174 183 226 170 186 222 114 128 201 
114 128 201 170 186 222 174 183 226 178 185 229 177 185 222 171 179 225 177 184 226 175 179 227 175 183 229 174 183 224 176 184 230 174 182 219 176 180 225 176 183 227 174 188 225 114 128 199 
112 129 199 171 187 221 170 182 222 169 178 217 173 184 216 173 185 225 179 189 225 175 182 224 174 183 224 171 184 219 174 186 226 175 185 220 176 183 225 174 183 224 163 179 213 112 129 198 
113 129 206 172 190 230 175 186 232 173 181 227 172 184 222 169 180 225 170 182 222 172 180 226 171 179 225 180 192 232 163 174 220 171 180 221 176 184 231 173 183 232 174 192 232 112 130 206 
113 128 197 169 185 218 174 183 224 176 184 223 178 189 221 170 182 220 171 182 214 178 186 223 176 184 221 173 183 218 179 188 229 173 183 218 175 182 226 173 182 225 167 183 217 109 126 196 
117 129 205 170 182 222 174 180 228 174 178 226 177 185 224 176 184 230 173 182 221 176 183 227 179 183 228 170 177 219 178 186 233 172 179 223 174 180 230 148 154 204 177 190 232 113 127 202 
113 125 197 169 183 220 182 189 235 175 181 229 171 180 221 174 185 231 172 184 224 172 181 224 177 184 228 174 183 224 169 179 228 179 188 231 148 154 204 179 187 234 164 178 217 119 131 203 
116 136 199 160 179 209 173 187 224 172 184 224 166 182 215 169 187 227 172 188 222 170 186 222 169 183 220 170 186 220 173 191 231 167 183 217 167 180 222 171 185 224 166 185 215 111 129 191 
106 125 220 117 137 200 112 124 196 115 127 203 115 130 199 115 131 208 112 129 199 113 127 200 116 130 201 109 126 195 110 128 202 116 133 203 110 124 199 120 132 204 113 131 193 112 127 222 
