P3
16 16
255
43 46 143 43 46 143 44 47 144 44 47 144 44 47 144 44 47 144 44 47 144 44 47 144 43 46 143 43 46 143 43 46 143 43 46 143 43 46 143 43 46 143 43 46 143 43 46 143 
44 47 144 44 47 144 44 47 144 44 47 144 44 47 144 44 47 144 44 47 144 44 47 144 43 46 143 43 46 143 43 46 143 43 46 143 43 46 143 43 46 143 43 46 143 43 46 143 
44 47 144 44 47 144 44 47 144 44 47 144 44 47 144 44 47 144 44 47 144 44 47 144 43 46 143 43 46 143 43 46 143 43 46 143 43 46 143 43 46 143 43 46 143 43 46 143 
44 47 144 44 47 144 44 47 144 44 47 144 44 47 144 44 47 144 43 46 143 43 46 143 43 46 143 43 46 143 43 46 143 43 46 143 43 46 143 43 46 143 43 46 143 43 46 143 
44 47 144 44 47 144 44 47 144 44 47 144 44 47 144 44 47 144 43 46 143 43 46 143 43 46 143 43 46 143 43 46 143 43 46 143 43 46 143 43 46 143 43 46 143 43 46 143 
44 47 144 44 47 144 44 47 144 44 47 144 44 47 144 44 47 144 44 47 144 44 47 144 43 46 143 43 46 143 43 46 143 43 46 143 43 46 143 43 46 143 43 46 143 43 46 143 
44 47 144 44 47 144 44 47 144 44 47 144 44 47 144 44 47 144 44 47 144 44 47 144 43 46 143 43 46 143 43 46 143 43 46 143 43 46 143 43 46 143 43 46 143 43 46 143 
43 46 143 43 46 143 44 47 144 44 47 144 44 47 144 44 47 144 44 47 144 44 47 144 43 46 143 43 46 143 43 46 143 43 46 143 43 46 143 43 46 143 43 46 143 43 46 143 
43 46 143 43 46 143 43 46 143 43 46 143 43 46 143 44 47 144 44 47 144 44 47 144 44 47 144 44 47 144 44 47 144 45 48 145 45 48 145 44 47 144 44 47 144 44 47 144 
43 46 143 43 46 143 43 46 143 43 46 143 43 46 143 43 46 143 44 47 144 44 47 144 44 47 144 44 47 144 44 47 144 44 47 144 44 47 144 44 47 144 44 47 144 44 47 144 
44 47 144 44 47 144 43 46 143 43 46 143 43 46 143 43 46 143 43 46 143 43 46 143 44 47 144 44 47 144 44 47 144 44 47 144 44 47 144 44 47 144 44 47 144 44 47 144 
44 47 144 44 47 144 44 47 144 43 46 143 43 46 143 43 46 143 43 46 143 43 46 143 44 47 144 44 47 144 44 47 144 44 47 144 44 47 144 44 47 144 44 47 144 44 47 144 
44 47 144 44 47 144 44 47 144 43 46 143 43 46 143 43 46 143 43 46 143 43 46 143 44 47 144 44 47 144 44 47 144 44 47 144 44 47 144 44 47 144 44 47 144 44 47 144 
44 47 144 44 47 144 43 46 143 43 46 143 43 46 143 43 46 143 43 46 143 43 46 143 44 47 144 44 47 144 43 46 143 43 46 143 43 46 143 43 46 143 44 47 144 44 47 144 
43 46 143 43 46 143 43 46 143 43 46 143 43 46 143 43 46 143 44 47 144 44 47 144 44 47 144 44 47 144 43 46 143 43 46 143 43 46 143 43 46 143 44 47 144 44 47 144 
43 46 143 43 46 143 43 46 143 43 46 143 43 46 143 44 47 144 44 47 144 44 47 144 44 47 144 44 47 144 43 46 143 43 46 143 43 46 143 43 46 143 44 47 144 44 47 144 
