P3
16 16
255
104 162 246 108 163 254 112 162 255 121 172 255 114 169 251 118 173 253 111 162 251 108 156 254 102 158 251 121 167 252 147 186 253 164 203 255 137 182 250 120 171 255 104 161 251 109 167 249 
104 158 248 102 156 246 111 165 253 105 161 248 111 168 255 103 160 249 110 165 255 105 158 250 104 157 255 114 163 239 157 201 255 142 182 254 128 175 255 110 165 247 107 165 249 106 162 255 
108 157 250 107 158 247 105 161 244 110 167 254 107 166 255 114 170 255 115 169 255 114 166 249 107 160 252 104 154 239 126 173 251 134 182 255 115 166 249 109 164 255 104 159 252 109 164 254 
109 158 250 108 162 252 109 166 255 101 158 247 105 159 245 115 166 247 134 181 255 138 184 255 119 171 255 109 160 252 109 160 251 130 183 255 117 172 255 99 153 249 110 162 255 108 162 250 
112 164 248 107 162 255 93 148 248 114 168 255 128 176 250 161 202 255 146 185 252 130 168 243 116 165 255 111 163 247 106 160 248 118 172 255 109 162 255 103 155 239 117 169 253 115 165 255 
120 172 255 107 161 255 109 164 255 107 157 246 139 180 246 150 187 242 159 197 255 143 182 255 122 172 255 104 155 244 101 156 249 109 162 255 112 162 249 121 170 249 115 166 249 122 173 255 
114 166 250 104 159 250 104 159 252 122 170 254 141 180 249 147 185 248 137 181 252 121 173 255 136 188 255 105 158 252 111 163 255 103 155 239 135 183 255 138 181 255 126 172 255 118 171 249 
113 163 252 104 158 246 109 164 247 136 183 255 146 185 255 139 181 255 120 173 253 106 172 255 110 161 244 114 166 252 101 154 246 111 158 250 130 173 251 158 202 255 137 186 255 118 170 254 
107 163 255 105 159 245 121 170 246 138 184 255 139 185 255 121 167 252 119 171 255 115 172 253 106 167 255 101 160 252 116 171 255 115 166 255 110 156 241 141 184 255 160 202 255 143 183 253 
109 163 255 107 161 247 120 171 250 126 175 252 130 178 255 111 161 248 118 170 255 115 171 254 109 163 253 109 163 253 118 172 255 115 166 255 104 154 241 115 163 247 123 171 253 113 162 241 
108 161 255 106 160 250 112 167 250 110 162 246 124 176 255 108 162 250 117 171 255 113 169 254 113 160 248 113 163 250 116 166 255 113 164 255 105 159 249 104 159 249 108 163 253 108 165 254 
102 155 249 107 160 252 108 163 253 103 159 246 115 171 255 108 164 251 113 169 255 110 166 253 107 157 246 106 156 245 106 157 248 109 163 253 109 164 255 107 164 254 110 166 255 107 166 255 
101 154 246 111 164 255 108 163 253 106 162 249 108 164 249 106 162 247 106 162 249 106 160 250 104 157 251 105 158 250 110 164 254 117 171 255 113 167 255 111 165 253 113 167 255 100 154 244 
109 164 255 111 166 255 104 158 248 114 166 250 117 170 250 120 173 253 111 165 251 104 157 249 103 157 253 110 165 255 115 169 255 120 175 255 117 169 252 117 169 252 124 174 255 110 160 245 
111 168 255 108 163 253 109 161 247 125 174 253 133 181 255 131 180 255 121 171 255 107 157 252 107 158 249 119 171 255 114 166 249 116 169 247 122 174 250 123 174 253 127 178 255 118 169 252 
102 162 250 106 162 249 123 173 255 137 183 255 140 184 255 125 172 244 119 169 254 108 158 253 122 168 253 136 184 255 122 171 248 123 172 248 134 186 255 129 181 255 120 173 253 111 163 247 
