P3
16 16
255
61 64 159 82 85 180 76 79 174 78 81 174 79 82 175 74 77 170 66 69 162 70 73 166 62 65 160 66 69 166 74 77 174 65 68 165 80 83 180 85 88 183 60 63 156 69 72 165 
61 64 159 73 76 171 84 87 182 60 63 156 69 72 165 57 60 153 65 68 161 69 72 165 76 79 174 71 74 169 88 91 188 64 67 164 72 75 170 77 80 175 75 78 171 62 65 158 
72 75 170 81 84 179 70 73 166 60 63 156 67 70 163 63 66 159 78 81 174 68 71 164 69 72 165 75 78 171 78 81 176 67 70 165 66 69 164 67 70 163 65 68 161 72 76 167 
69 72 165 71 74 167 73 76 169 65 68 161 58 61 154 70 73 166 70 73 166 75 78 171 56 60 151 70 73 166 68 71 164 75 78 173 74 77 172 72 75 168 66 69 162 74 78 169 
63 66 159 69 72 165 64 67 160 70 73 166 69 72 165 60 63 156 74 77 170 65 68 161 74 78 169 59 62 155 64 67 160 69 72 167 69 72 167 67 70 163 81 84 177 70 74 165 
72 75 168 66 69 162 66 69 162 75 78 171 70 73 166 76 79 172 65 68 163 65 68 163 66 70 161 79 82 175 79 82 175 63 66 161 53 56 151 75 78 173 83 86 179 58 61 154 
65 68 161 79 82 175 67 70 163 80 83 176 61 64 157 63 66 161 65 68 163 72 75 170 67 70 163 69 72 165 71 74 169 93 96 191 77 80 177 75 78 175 63 66 161 74 77 172 
73 76 169 76 79 172 74 77 170 64 67 160 65 68 161 62 65 160 70 73 168 74 77 172 72 75 168 57 60 153 66 69 164 69 72 169 64 67 164 80 83 180 88 91 188 75 78 173 
75 76 169 63 66 161 79 82 177 73 77 174 82 86 183 66 69 164 71 74 169 69 70 163 59 62 157 72 75 170 66 69 164 69 72 165 66 69 162 70 73 166 67 70 163 68 71 164 
54 55 148 79 82 175 69 72 167 75 80 174 81 86 180 87 90 185 60 63 156 77 78 171 79 82 177 67 70 165 70 73 168 69 72 165 72 75 168 68 71 164 70 73 166 71 74 167 
81 82 174 74 77 170 48 51 144 72 77 169 73 78 170 68 71 164 68 71 164 64 65 157 74 77 172 75 78 173 75 78 173 57 60 153 74 77 170 78 81 174 68 71 164 66 69 162 
56 60 151 68 71 164 86 89 182 68 71 164 69 72 165 63 66 159 66 69 162 76 80 171 74 77 172 65 68 163 68 71 166 74 77 170 71 74 167 73 76 169 67 70 163 59 62 155 
79 82 175 77 80 173 73 76 169 63 67 158 59 63 154 67 70 163 72 75 168 62 65 158 67 70 165 80 83 178 69 72 167 72 75 168 79 82 175 67 70 163 64 67 160 66 69 162 
75 80 172 63 66 159 74 77 170 63 64 156 67 68 160 76 79 172 57 60 153 74 79 171 68 71 166 77 80 175 76 79 174 67 70 163 71 74 167 61 64 157 86 89 182 69 72 165 
87 92 186 76 79 174 79 82 175 68 69 162 62 63 156 66 69 162 75 78 173 69 74 168 68 71 166 72 75 170 68 71 166 63 66 159 77 80 173 56 59 152 74 77 170 79 82 175 
70 74 171 74 77 172 62 65 160 72 73 166 90 91 184 78 81 176 54 57 152 76 80 177 66 69 164 72 75 170 73 76 171 65 68 161 66 69 162 63 66 159 68 71 164 65 68 161 
