P3
16 16
255
34 44 139 70 126 213 39 27 63 37 27 80 43 48 142 29 31 69 36 25 65 40 27 71 38 31 65 23 33 68 46 26 61 32 29 46 41 50 143 34 34 72 42 37 137 56 43 149 
71 122 213 56 38 140 31 26 67 40 31 58 39 44 146 27 26 44 34 38 65 38 28 63 36 27 70 43 31 69 24 29 69 38 31 62 41 38 153 26 37 59 39 39 77 39 42 139 
37 132 214 40 46 142 39 58 127 34 32 82 36 24 64 46 52 128 21 37 53 34 24 51 34 32 53 27 22 62 33 28 68 43 18 60 37 45 130 38 45 151 36 31 63 27 37 62 
27 27 51 39 134 200 44 47 140 31 29 51 54 63 166 76 111 211 34 140 198 36 141 207 37 135 198 36 137 181 58 128 214 59 73 172 39 21 59 54 48 144 40 44 143 44 48 147 
34 30 67 69 125 200 56 38 150 70 114 211 41 145 196 66 67 173 40 42 155 44 38 136 34 50 138 50 50 146 57 63 173 26 141 195 56 120 207 40 47 119 46 25 82 40 23 68 
20 31 51 49 73 159 62 118 211 63 60 173 38 47 140 72 117 208 52 68 166 75 129 215 68 68 166 72 114 212 37 43 155 60 46 144 48 72 172 51 141 204 42 54 138 28 33 65 
50 20 58 61 127 224 58 70 156 40 50 147 64 117 211 54 70 165 63 127 217 62 59 164 65 119 209 62 74 192 61 70 163 63 122 202 42 45 148 60 56 169 41 127 204 41 49 147 
73 119 205 59 62 167 38 55 143 69 52 184 76 124 208 65 64 166 32 135 194 64 68 167 69 119 208 55 68 172 72 122 211 73 62 164 58 73 174 40 49 142 61 74 170 69 119 206 
63 68 172 68 123 206 58 62 169 54 49 149 60 116 199 59 68 169 46 136 198 57 67 165 73 116 211 60 67 174 37 140 199 72 64 167 42 44 157 56 69 171 57 121 211 49 45 142 
36 34 74 49 37 135 64 125 205 44 133 201 47 52 146 64 66 169 64 118 227 58 72 161 41 139 188 49 68 171 70 122 205 34 53 148 69 116 208 74 122 204 51 35 71 29 28 72 
26 29 64 35 33 80 35 29 65 58 64 176 35 132 201 51 47 158 64 113 206 57 73 168 38 137 202 59 67 176 31 50 142 65 118 194 63 70 184 44 42 143 27 26 57 38 34 67 
44 27 61 21 30 39 34 27 61 31 35 62 46 72 149 85 107 208 58 41 143 64 66 166 63 119 216 43 50 140 82 114 199 37 27 62 35 36 93 45 29 56 34 53 155 41 41 153 
47 42 144 41 50 143 44 44 134 31 28 55 39 34 74 52 71 174 32 148 197 33 46 148 48 47 149 64 113 205 60 46 141 39 44 148 26 21 51 31 31 59 29 34 64 41 31 56 
40 28 78 28 40 66 42 38 151 38 47 140 33 24 55 33 26 60 69 116 204 63 61 168 62 120 220 59 66 172 59 70 162 42 44 145 59 44 135 45 41 136 37 20 65 36 25 59 
40 42 143 40 25 82 45 28 70 41 50 143 26 30 31 42 25 80 65 72 176 69 122 198 54 73 167 74 123 216 36 136 195 33 138 185 65 126 206 49 70 175 36 58 131 66 117 208 
36 52 127 54 42 150 29 27 67 45 45 145 33 31 68 41 25 64 21 26 56 71 121 216 31 24 40 39 31 72 26 24 63 42 22 73 49 70 177 74 116 200 78 117 212 41 45 155 
