P3
16 16
255
255 252 255 252 255 255 255 249 249 255 249 255 255 253 255 238 255 250 255 254 250 254 255 255 255 247 255 248 255 255 247 255 255 255 253 255 247 254 247 255 254 255 255 255 251 252 254 253 
255 255 243 242 252 251 255 255 243 255 252 255 248 255 243 236 149 200 255 249 255 254 251 255 255 255 248 235 147 197 255 252 243 255 251 255 255 249 251 252 254 253 250 255 249 255 255 251 
255 250 253 255 250 255 238 255 255 252 253 255 255 253 255 145 41 104 245 137 186 255 253 255 228 143 200 243 254 255 252 255 255 253 251 228 247 255 255 255 252 255 255 248 247 255 251 255 
221 123 182 255 247 255 224 149 179 253 252 248 255 249 255 247 255 244 247 255 255 215 100 155 226 123 176 251 255 255 221 139 188 255 255 244 198 63 142 241 252 254 241 255 255 251 255 255 
215 93 154 225 140 179 211 91 155 247 255 255 201 77 147 255 253 255 163 39 101 205 92 156 216 99 169 162 47 112 206 89 157 255 254 255 255 249 255 225 145 184 255 252 255 208 90 164 
254 254 255 245 142 195 238 140 197 223 77 142 255 254 255 255 251 255 252 255 255 251 255 254 195 66 133 220 78 162 247 255 250 154 49 108 193 64 146 215 99 148 172 41 121 249 251 240 
220 81 162 142 46 117 229 125 186 255 254 255 249 255 246 249 251 250 255 247 255 160 47 113 190 74 159 249 252 255 255 253 250 255 253 255 244 255 255 155 51 114 212 87 163 254 255 244 
255 250 253 245 255 250 230 141 195 248 255 255 164 44 115 251 255 251 230 142 192 190 73 141 226 142 191 255 255 248 232 143 191 155 44 120 255 252 246 205 88 158 255 250 255 249 255 253 
255 251 253 252 255 255 216 79 169 189 71 129 255 248 255 255 252 255 151 50 120 228 144 196 231 140 199 218 86 162 161 45 118 255 251 255 164 45 139 182 73 131 251 255 255 255 255 250 
251 251 249 204 93 159 255 253 238 217 87 159 148 52 116 154 45 103 255 252 244 253 251 252 210 86 136 229 146 198 255 254 242 241 255 243 200 66 135 249 255 255 251 249 237 215 82 161 
255 250 255 249 255 255 228 146 194 255 251 255 215 82 163 231 125 200 149 50 115 254 255 248 255 249 255 183 74 142 224 99 165 152 46 112 244 254 255 154 48 120 192 83 150 159 49 112 
254 250 255 215 83 159 196 59 151 236 146 182 253 255 252 191 68 149 230 125 191 254 255 255 255 252 255 247 255 238 237 138 193 185 76 157 255 253 250 255 247 253 218 83 152 255 252 253 
251 255 241 255 254 255 254 255 255 214 89 145 233 254 255 255 251 255 187 75 149 155 44 120 253 255 254 252 255 255 221 81 154 164 38 119 253 248 255 234 146 194 153 42 108 225 82 170 
248 255 255 248 246 247 255 250 253 154 42 116 214 94 155 254 242 255 234 139 183 194 73 140 255 255 250 160 50 123 218 82 158 146 50 114 198 96 146 155 49 113 254 255 255 244 254 255 
255 255 248 248 255 255 150 55 113 255 255 244 186 59 148 152 48 123 225 105 169 151 46 113 156 47 114 215 78 146 187 76 142 194 66 151 255 251 255 255 250 248 255 253 244 248 255 244 
254 250 251 255 252 255 253 251 255 254 251 255 255 255 243 159 45 105 189 66 146 249 255 255 166 42 130 200 93 149 156 49 119 255 255 253 251 255 255 252 253 239 255 251 255 255 252 251 
