P3
16 16
255
215 98 166 226 96 166 219 84 153 221 95 159 208 88 150 219 99 163 241 117 187 172 52 123 169 53 128 196 69 148 173 51 128 223 92 170 189 78 147 205 89 154 228 121 177 214 101 155 
231 121 182 204 100 159 212 102 163 210 90 154 216 102 164 221 123 180 241 143 200 202 89 153 177 49 132 166 49 128 189 70 152 187 74 152 174 41 124 194 72 147 174 53 124 230 124 186 
223 129 182 237 133 192 227 119 181 224 118 182 230 128 191 241 140 200 226 125 183 230 129 185 186 72 144 170 55 130 193 68 146 186 71 148 193 68 146 188 72 145 210 86 159 219 98 169 
225 121 180 214 98 163 195 75 147 189 77 149 187 75 147 201 81 152 221 102 168 231 123 181 240 139 195 213 101 160 185 75 136 194 73 140 206 102 163 234 118 183 220 104 169 210 80 150 
225 101 171 184 68 139 155 38 116 172 44 127 171 42 125 179 58 135 192 72 143 223 96 165 234 125 182 238 133 189 234 144 196 231 126 183 232 127 186 222 97 165 163 46 114 197 80 150 
193 71 144 163 47 122 167 52 130 191 72 154 172 48 132 189 66 146 177 57 129 202 82 153 208 94 163 215 110 176 229 120 185 230 134 197 213 102 171 154 47 117 175 52 132 184 63 143 
187 71 144 172 50 127 192 74 150 179 68 144 190 75 150 198 70 147 206 82 155 212 103 170 190 74 145 189 73 144 218 94 166 234 130 193 180 71 138 149 50 117 192 71 148 199 70 153 
225 94 172 167 49 123 190 76 148 207 85 158 197 69 144 210 86 158 239 119 190 192 73 141 216 85 155 207 82 148 233 128 185 236 124 183 224 119 176 201 78 143 182 65 133 219 97 170 
224 95 160 211 92 160 170 53 124 189 70 138 216 100 161 233 125 183 211 95 160 219 87 163 219 85 156 230 119 185 232 126 192 190 73 143 213 83 157 237 120 188 227 127 187 219 129 183 
231 137 190 230 122 184 213 98 167 233 127 191 228 125 181 213 104 161 237 125 184 225 121 184 227 127 191 206 85 156 188 71 142 214 82 158 207 87 159 198 77 148 205 79 150 222 99 166 
233 128 187 215 104 170 232 130 195 234 146 204 228 144 194 224 124 178 217 101 162 210 91 155 182 73 140 188 77 145 223 82 161 206 92 162 215 87 162 217 79 156 200 64 140 210 82 156 
212 92 163 165 54 123 170 59 128 214 99 168 230 119 185 242 138 197 237 129 189 201 81 143 188 71 141 234 92 168 208 91 159 226 92 165 216 101 168 207 83 153 221 97 167 218 105 171 
182 51 131 173 51 128 191 69 144 172 47 123 190 72 146 232 127 193 226 122 185 242 126 189 206 85 152 220 107 171 225 77 151 213 95 156 201 87 147 224 131 186 227 129 188 215 94 161 
175 48 129 200 67 148 194 69 145 163 56 128 156 56 126 178 73 142 231 122 189 207 102 161 229 119 182 201 85 148 209 112 166 214 85 149 235 126 183 241 142 197 211 103 165 193 72 141 
180 77 148 205 85 157 201 71 145 210 84 158 191 70 147 174 56 130 235 129 193 217 127 178 227 103 175 226 126 188 228 123 182 223 124 179 221 97 160 221 91 161 195 74 145 202 85 156 
216 96 168 187 70 138 222 99 166 219 85 158 178 47 125 212 96 167 230 117 181 221 102 160 186 68 142 197 69 144 215 98 166 214 101 165 216 101 166 213 83 157 214 83 161 190 72 148 
