P3
16 16
255
247 255 255 254 255 255 247 255 255 66 58 55 251 255 255 255 255 244 249 255 255 253 253 251 252 255 246 255 253 249 253 255 254 255 250 255 60 56 71 252 251 255 245 255 250 255 255 247 
255 255 250 255 246 237 254 255 255 52 69 61 82 73 78 255 253 242 255 249 255 247 255 246 255 253 246 251 255 255 251 255 244 81 78 73 59 63 64 254 255 244 251 248 255 255 250 253 
255 250 255 255 255 246 255 254 253 46 45 50 84 83 88 85 96 92 76 74 79 218 199 61 198 178 81 76 71 78 99 97 98 78 76 64 44 50 50 243 255 252 252 255 255 249 255 255 
251 255 237 241 250 255 62 64 53 30 30 38 36 41 35 47 57 59 61 59 64 102 103 98 116 95 92 56 62 62 49 49 57 45 45 55 45 27 23 54 59 62 255 253 255 255 254 253 
247 255 255 255 251 255 51 43 66 102 40 25 255 255 246 80 74 74 48 49 51 41 59 63 63 54 49 45 48 63 80 80 92 250 255 254 96 45 26 56 53 46 247 252 248 255 254 251 
251 255 250 249 255 250 255 248 255 128 59 44 251 255 255 92 82 90 45 44 60 232 207 62 210 215 51 48 43 49 99 89 100 249 255 239 126 51 45 255 255 253 245 255 255 249 253 254 
251 255 241 255 249 255 102 103 105 255 249 255 247 255 246 105 108 91 55 48 42 218 203 52 212 205 73 40 51 34 101 97 94 248 255 255 153 72 71 255 249 255 255 250 255 255 252 255 
255 251 255 194 86 50 70 96 83 176 71 41 255 252 252 88 96 99 41 48 66 222 206 59 218 173 82 51 50 45 106 89 108 248 255 250 144 77 48 249 255 253 253 253 245 250 255 244 
249 255 250 205 172 183 151 47 22 196 186 159 255 252 246 99 94 98 50 50 48 215 176 73 218 197 70 50 49 44 100 95 99 247 255 255 90 86 87 255 254 255 255 254 255 252 254 251 
255 255 237 252 252 255 180 25 29 227 235 254 255 253 255 87 96 95 46 58 44 206 129 51 213 185 62 46 45 41 106 101 105 242 252 251 96 94 95 255 251 252 255 254 255 252 255 253 
214 242 255 216 46 46 164 238 241 167 27 12 246 255 249 107 98 101 47 45 50 213 184 44 190 148 36 47 43 42 101 96 100 243 252 249 255 254 255 255 254 255 255 254 255 252 255 253 
176 226 233 224 55 50 231 44 51 171 220 227 248 255 255 87 88 83 49 50 54 209 125 55 227 172 71 54 49 53 89 87 88 252 255 253 254 254 254 252 252 254 255 253 254 250 255 252 
164 227 234 139 1 0 181 24 31 134 14 0 229 239 251 70 79 74 42 51 50 204 105 38 204 133 45 53 48 55 75 75 75 248 250 245 255 255 255 251 252 255 255 254 255 252 255 251 
249 255 255 172 220 232 160 231 215 170 221 240 255 251 255 251 255 255 251 255 245 220 123 54 191 108 30 255 253 255 248 250 249 255 255 251 253 255 254 250 254 255 255 253 255 246 251 245 
255 252 255 254 251 255 255 251 251 248 255 255 254 250 249 254 251 244 255 244 255 201 95 33 217 124 55 255 253 255 252 255 255 251 250 245 251 253 252 252 255 255 255 251 255 254 255 251 
254 254 254 255 254 255 255 251 248 240 255 249 255 255 251 255 253 246 247 247 245 190 110 49 199 101 38 255 253 255 247 251 250 255 255 250 254 255 255 252 255 255 255 249 255 253 254 249 
