P3
16 16
255
105 93 93 104 92 92 106 94 94 106 94 94 104 92 92 104 94 93 106 96 95 103 93 92 107 92 95 107 92 95 106 94 96 110 98 100 110 98 100 113 103 104 103 93 94 105 95 96 
104 92 92 109 97 97 115 103 103 110 98 98 139 127 127 123 113 112 106 96 95 104 94 93 103 91 93 114 102 104 112 100 102 116 104 106 109 99 100 105 95 96 103 93 94 103 93 94 
104 92 92 112 100 100 134 122 122 147 135 135 119 107 107 108 98 97 134 124 123 121 111 110 123 113 114 118 108 109 105 95 96 120 110 111 122 112 113 114 104 105 107 97 98 104 94 95 
108 96 96 111 99 99 142 130 130 98 86 86 108 96 96 98 88 87 108 98 97 139 129 128 112 103 104 118 109 110 109 100 101 115 106 107 117 107 108 117 107 108 110 100 101 102 90 92 
103 91 91 114 102 102 153 141 141 117 105 105 106 94 94 105 95 94 116 106 105 140 130 129 117 108 109 110 101 102 117 108 109 117 108 109 117 107 108 120 110 111 104 94 95 116 104 106 
107 95 95 112 100 100 133 121 121 155 143 143 97 85 85 119 109 108 156 146 145 136 126 125 110 100 101 119 109 110 133 123 124 144 134 135 141 131 132 134 124 125 111 101 102 106 96 97 
107 95 95 110 98 98 120 108 108 132 120 120 154 142 142 157 147 146 133 123 122 116 106 105 115 103 105 131 119 121 157 145 147 110 98 100 100 90 91 144 134 135 117 107 108 116 106 107 
104 92 92 106 94 94 110 98 98 116 104 104 119 107 107 116 106 105 113 103 102 111 101 100 119 104 107 154 139 142 108 96 98 105 93 95 106 94 96 113 103 104 140 130 131 100 90 91 
110 98 98 108 96 96 119 107 107 115 105 104 115 105 104 106 96 95 119 109 108 112 102 101 117 107 108 153 143 144 119 109 110 100 90 91 111 101 102 111 99 101 115 103 105 104 92 94 
114 102 102 101 89 89 117 105 105 137 127 126 150 140 139 151 141 140 133 123 122 112 102 101 115 105 106 139 129 130 149 139 140 115 105 106 112 102 103 130 120 121 113 101 103 109 97 99 
111 99 99 105 93 93 137 125 125 151 141 140 121 111 110 113 103 102 143 133 132 133 123 122 110 101 102 114 105 106 139 130 131 151 141 142 140 130 131 122 112 113 104 94 95 107 97 98 
114 102 102 105 93 93 151 139 139 115 105 104 102 92 91 99 89 88 106 96 95 141 131 130 118 109 110 114 105 106 108 99 100 120 111 112 117 107 108 105 95 96 114 104 105 113 103 104 
112 100 100 103 91 91 144 132 132 109 99 98 103 93 92 109 99 98 112 102 101 141 131 130 114 105 106 114 105 106 115 106 107 107 97 98 112 102 103 121 111 112 109 99 100 108 98 99 
104 92 92 104 92 92 121 109 109 129 119 118 103 93 92 114 104 103 143 133 132 134 124 123 119 109 110 115 105 106 119 109 110 112 102 103 118 108 109 119 107 109 104 92 94 115 103 105 
106 94 94 102 90 90 103 91 91 114 104 103 120 110 109 133 123 122 116 106 105 111 101 100 103 93 94 114 102 104 110 98 100 111 99 101 111 99 101 105 93 95 106 94 96 103 91 93 
105 93 93 110 98 98 109 97 97 111 101 100 110 100 99 103 93 92 103 93 92 106 96 95 105 93 95 106 94 96 102 90 92 108 96 98 108 93 96 102 87 90 109 94 97 108 93 96 
