P3
16 16
255
181 95 72 176 102 75 151 86 66 143 112 92 195 100 98 194 106 86 197 103 78 172 96 72 171 101 76 178 97 70 159 82 72 167 134 117 196 103 88 172 100 76 175 98 78 176 98 62 
165 85 74 148 76 61 142 80 67 161 138 120 128 59 52 143 85 61 157 85 61 159 94 74 153 88 70 157 91 69 136 73 64 162 139 123 133 61 46 151 90 71 158 84 73 156 86 61 
114 64 57 121 69 58 114 61 53 164 145 131 117 64 56 116 68 48 146 74 60 143 69 66 126 62 52 113 60 44 120 65 58 158 135 121 109 56 42 140 86 74 134 62 63 125 66 58 
146 111 109 140 106 97 168 134 125 162 154 143 161 136 129 129 112 94 141 114 105 133 117 117 146 109 101 155 133 119 167 134 127 166 152 139 163 140 126 130 106 96 149 108 112 128 117 113 
194 107 87 183 102 72 182 98 70 173 101 77 165 84 63 171 97 72 149 87 66 165 132 117 189 112 86 168 101 75 179 94 73 179 102 74 154 83 55 173 103 78 155 84 66 140 108 85 
134 69 49 150 90 62 154 86 63 151 79 65 158 84 73 150 74 61 128 68 58 160 135 130 127 65 44 139 80 66 152 79 64 149 76 57 148 85 68 140 77 60 122 69 53 161 144 128 
132 65 59 141 77 65 156 86 78 134 66 63 117 67 58 129 76 62 109 62 52 168 147 142 119 63 50 118 60 58 129 70 62 135 77 63 134 79 72 136 73 66 112 60 47 159 130 126 
156 136 129 134 110 98 144 107 99 142 107 105 127 120 104 154 132 111 170 134 122 171 146 142 164 137 120 160 128 129 137 115 104 135 114 95 135 110 103 144 105 98 166 134 119 172 151 150 
177 94 80 182 102 75 154 82 70 164 134 124 192 102 93 194 103 84 196 103 86 170 107 72 164 85 68 175 100 69 146 89 72 156 132 120 206 104 102 189 100 82 180 99 82 171 101 75 
157 85 70 146 85 54 140 81 63 157 131 116 158 85 70 151 87 59 159 81 61 153 81 56 152 85 69 149 88 59 123 70 52 161 142 125 143 67 53 154 87 60 161 86 65 151 84 57 
129 66 59 127 77 54 114 61 47 165 132 123 130 68 57 113 69 44 153 87 75 152 77 72 130 67 62 124 72 51 119 62 51 169 142 131 129 76 62 138 88 63 148 76 64 143 81 68 
142 110 113 157 130 121 166 135 132 162 147 144 166 130 130 135 113 102 135 104 102 133 108 114 146 105 109 135 111 101 169 134 130 165 147 143 158 133 128 131 104 93 146 106 106 130 115 118 
152 80 65 178 101 81 179 97 76 164 96 75 164 82 68 182 100 79 156 85 65 146 113 98 190 103 84 169 102 73 177 97 72 175 98 78 159 82 66 177 99 79 165 92 77 160 130 119 
127 70 50 148 83 65 158 86 64 155 90 68 154 87 71 153 78 57 143 87 62 146 138 119 156 84 60 144 87 58 154 89 61 155 87 64 158 88 76 154 83 65 123 68 48 147 137 125 
118 67 50 123 69 57 127 64 47 127 64 49 123 70 62 131 72 56 111 59 38 174 149 144 114 58 41 131 73 62 125 66 48 126 67 53 120 65 60 126 67 53 113 65 45 175 147 144 
159 132 121 134 111 105 147 113 103 151 108 102 129 109 108 135 116 102 164 135 121 172 142 152 157 134 128 166 130 134 147 114 107 133 106 99 131 113 111 168 142 129 168 141 122 173 146 151 
