P3
16 16
255
158 143 124 155 139 123 156 143 127 154 142 128 152 140 126 156 144 130 157 143 130 154 141 125 155 141 128 157 144 128 153 142 124 153 142 124 155 143 127 152 139 123 163 148 129 154 139 116 
154 138 122 202 189 172 189 177 161 200 188 174 194 182 168 197 185 171 188 176 162 199 185 172 194 180 171 195 183 171 194 182 168 194 182 168 197 185 173 193 181 169 190 177 161 164 149 130 
157 144 128 192 180 164 197 185 171 189 179 167 158 148 136 193 183 171 197 185 173 192 180 168 197 184 178 196 183 175 194 184 174 192 182 172 194 184 175 197 184 176 192 180 168 152 139 123 
154 142 126 195 183 169 191 181 169 158 148 138 190 182 171 193 183 173 194 184 174 196 186 176 193 182 176 192 182 173 194 184 174 191 183 172 189 178 172 194 184 175 197 185 173 155 143 127 
154 142 128 196 184 170 161 151 139 193 185 174 191 183 172 192 184 173 197 187 177 191 181 171 192 182 173 189 179 169 194 186 173 194 186 173 189 181 170 192 182 172 194 182 168 152 141 123 
155 143 129 201 189 175 181 171 159 193 183 173 194 186 175 186 176 166 196 186 176 190 180 170 197 187 177 190 180 168 193 184 169 195 187 174 193 183 173 195 185 175 195 183 169 153 142 124 
148 134 121 198 186 172 200 188 176 194 184 174 193 183 173 201 191 181 190 180 170 197 184 175 197 184 176 190 180 170 191 181 169 190 180 170 191 181 172 196 183 175 195 183 171 155 142 126 
159 146 130 193 179 166 192 180 168 195 185 175 192 182 172 190 180 170 194 181 172 199 186 177 193 180 174 196 183 175 197 187 177 193 183 174 192 181 175 196 183 177 195 181 172 155 141 128 
155 141 128 195 181 172 196 183 177 192 181 175 193 183 174 197 187 177 196 183 175 193 180 174 199 186 177 192 179 170 195 185 175 191 181 171 191 181 171 194 182 170 197 183 170 157 143 130 
155 142 126 195 183 171 196 183 175 191 181 172 190 180 170 191 181 169 190 180 170 197 184 176 193 180 171 190 180 170 196 186 177 192 182 173 193 183 173 198 186 174 190 178 166 155 141 128 
153 142 124 195 183 169 195 185 175 193 183 173 195 187 174 193 184 169 190 180 168 197 187 177 194 184 174 197 187 178 184 174 165 193 184 175 198 188 178 189 179 169 196 184 172 155 143 129 
152 141 123 194 182 168 192 182 172 189 181 170 194 186 173 194 186 173 189 179 169 192 182 173 188 178 168 194 184 175 200 191 182 189 180 171 189 181 170 193 183 173 197 185 173 149 137 123 
155 143 127 197 185 173 194 184 175 189 178 172 191 183 172 194 184 174 192 182 173 193 182 176 197 187 177 186 176 166 194 184 174 191 183 172 191 181 171 156 146 134 199 187 173 157 145 131 
152 139 123 192 180 168 197 184 176 194 184 175 192 182 172 194 184 174 196 183 175 197 184 178 193 181 169 199 187 175 190 180 170 193 183 173 159 149 137 193 181 167 191 179 165 153 140 124 
164 149 130 190 177 161 193 181 169 197 185 173 194 182 168 194 182 168 195 183 171 194 180 171 193 179 166 195 183 171 195 183 171 195 183 171 196 184 170 194 182 168 201 188 172 159 143 127 
154 139 116 163 148 129 152 139 123 155 143 127 153 142 124 153 142 124 157 144 128 155 141 128 158 144 131 156 142 129 149 137 123 157 145 131 151 139 125 157 144 128 157 141 125 154 138 122 
