P3
16 16
255
116 77 46 119 80 49 131 92 61 118 79 48 123 84 55 122 83 54 123 84 55 129 90 61 141 98 66 122 79 47 122 79 47 123 80 46 146 103 69 124 83 51 114 73 41 116 77 44 
138 99 68 121 82 51 119 80 49 132 93 62 117 78 47 117 78 49 122 83 54 111 72 43 120 79 49 129 88 56 153 110 78 143 100 68 120 77 45 137 96 64 116 77 44 135 96 65 
118 77 47 125 84 54 132 91 61 114 73 43 119 78 48 113 72 42 124 83 53 122 81 53 134 95 64 120 79 49 129 88 58 133 92 60 140 99 67 127 86 56 117 78 47 136 97 66 
140 99 69 121 80 50 130 89 59 125 84 54 121 80 50 127 86 56 116 75 45 119 78 48 116 77 48 126 87 56 121 80 50 118 77 47 129 88 58 125 86 55 122 83 52 107 70 41 
120 79 49 111 70 40 128 87 57 122 81 51 135 94 64 130 89 59 124 83 53 131 90 60 128 91 62 112 73 42 126 87 56 133 92 62 127 86 56 116 75 45 124 85 54 119 80 51 
121 80 50 144 103 73 116 75 45 135 94 64 136 95 65 146 105 73 121 80 48 122 81 49 117 78 47 126 87 56 128 87 57 126 85 53 156 115 83 129 88 58 123 82 52 111 72 41 
124 83 53 123 82 52 119 78 48 141 100 70 121 80 48 110 69 37 126 85 53 122 81 49 125 86 55 120 81 48 124 83 51 128 85 53 120 77 45 122 79 47 142 101 69 116 75 45 
133 92 62 126 85 55 125 84 54 127 86 54 124 83 51 126 85 53 142 101 69 135 94 62 118 79 46 117 76 44 157 116 84 121 78 44 146 103 69 132 89 57 135 92 60 125 82 50 
127 88 59 124 83 55 134 93 63 121 77 48 124 80 51 126 85 55 123 82 54 122 83 54 119 82 53 123 86 57 119 80 49 116 75 45 130 89 59 139 96 64 138 95 63 137 92 61 
113 74 45 120 81 52 121 80 50 117 76 46 127 86 56 135 94 64 116 77 48 120 81 52 124 85 54 123 84 53 115 76 45 126 85 55 121 80 50 143 102 72 122 78 49 130 87 55 
126 87 58 116 77 46 111 70 40 125 84 54 123 82 52 132 91 61 112 73 42 118 79 50 120 79 47 123 82 52 135 94 64 117 76 46 127 86 56 126 85 55 131 90 60 124 83 53 
124 85 54 137 98 67 121 82 51 114 75 44 117 78 47 140 101 70 119 80 49 116 77 46 126 83 51 141 98 66 124 83 51 142 101 71 118 77 47 116 77 46 117 78 49 116 77 48 
132 93 62 117 78 47 121 82 51 132 93 62 119 80 49 128 89 58 129 90 59 122 83 52 119 76 44 127 84 52 120 79 47 127 86 56 128 87 57 121 82 51 131 92 63 119 80 51 
126 85 53 126 85 53 123 82 52 119 80 49 118 79 48 121 80 50 123 82 50 124 83 51 139 96 64 132 88 59 126 85 55 124 83 53 120 79 49 124 85 54 121 82 51 129 90 59 
139 96 64 126 83 51 119 78 48 129 88 58 125 84 54 115 74 44 121 78 46 132 89 57 140 99 69 121 80 50 118 77 47 130 89 59 125 84 54 122 81 51 115 74 44 148 107 75 
128 83 50 138 95 63 127 83 54 130 89 59 141 100 70 139 95 66 129 86 54 141 96 63 116 75 47 127 86 58 122 81 51 119 78 48 125 84 54 130 89 57 122 81 49 118 77 45 
