P3
16 16
255
255 255 255 255 255 255 255 255 255 255 255 255 255 255 255 255 255 255 255 255 255 255 255 255 255 255 255 255 255 255 255 255 255 255 255 255 255 255 255 255 255 255 255 255 255 255 255 255 
255 255 255 255 255 255 255 255 255 255 255 255 255 255 255 255 255 255 255 255 255 255 255 255 255 255 255 255 255 255 255 255 255 255 255 255 255 255 255 255 255 255 255 255 255 255 255 255 
255 255 255 255 255 255 255 255 255 255 255 255 255 255 255 255 255 255 255 255 255 255 255 255 255 255 255 255 255 255 255 255 255 255 255 255 255 255 255 255 255 255 255 255 255 255 255 255 
255 255 255 255 255 255 255 255 255 255 255 255 255 255 255 255 255 255 255 255 255 255 255 255 255 255 255 255 255 255 255 255 255 255 255 255 255 255 255 255 255 255 255 255 255 255 255 255 
255 255 255 255 255 255 255 255 255 255 255 255 255 255 255 255 255 255 255 255 255 255 255 255 255 255 255 255 255 255 255 255 255 255 255 255 255 255 255 255 255 255 255 255 255 255 255 255 
255 255 255 255 255 255 255 255 255 255 255 255 255 255 255 255 255 255 255 255 255 255 255 255 255 255 255 255 255 255 255 255 255 255 255 255 255 255 255 255 255 255 255 255 255 255 255 255 
255 255 255 255 255 255 255 255 255 255 255 255 255 255 255 255 255 255 255 255 255 255 255 255 255 255 255 255 255 255 255 255 255 255 255 255 255 255 255 255 255 255 255 255 255 255 255 255 
255 255 255 255 255 255 255 255 255 255 255 255 255 255 255 255 255 255 255 255 255 255 255 255 255 255 255 255 255 255 255 255 255 255 255 255 255 255 255 255 255 255 255 255 255 255 255 255 
247 255 255 246 252 252 255 254 244 254 255 253 242 255 255 255 251 242 199 153 119 202 154 118 203 154 114 145 114 96 255 246 249 254 254 255 255 255 251 255 252 243 255 255 253 247 254 255 
253 249 250 255 254 255 255 249 247 255 250 248 255 250 249 194 157 138 211 151 115 202 151 122 200 154 120 145 107 84 114 87 76 255 249 245 255 255 253 254 255 253 253 253 253 255 254 255 
255 252 250 255 254 255 255 254 255 255 252 250 138 115 101 198 149 119 205 149 116 149 108 88 142 107 79 151 109 84 144 106 83 116 94 81 255 254 252 248 255 255 251 252 254 255 251 249 
255 254 250 246 252 252 249 255 255 255 253 246 101 84 68 139 109 83 114 84 60 100 81 66 104 81 65 110 82 61 118 87 67 95 77 65 253 252 250 249 254 255 254 255 255 255 250 247 
249 255 255 252 255 255 245 250 246 255 255 250 255 253 244 255 254 246 255 254 246 100 86 75 73 59 50 255 252 246 255 253 250 255 254 253 255 254 255 255 255 255 253 253 255 255 255 255 
252 255 255 253 247 247 255 254 251 255 253 253 255 253 254 251 255 255 255 251 255 180 151 137 104 89 82 248 247 245 248 255 255 247 255 255 255 253 255 255 253 251 255 254 255 248 255 255 
254 253 255 255 253 251 255 251 252 255 255 255 251 249 250 251 255 255 255 252 253 196 152 125 170 148 135 255 254 248 249 255 255 248 255 255 252 250 253 255 250 248 255 255 253 250 255 255 
251 255 254 255 255 251 248 255 255 247 255 255 255 255 251 249 255 255 255 252 243 203 155 115 180 149 129 255 252 237 252 253 247 251 255 255 255 254 255 255 252 254 255 254 253 254 255 253 
