P3
16 16
255
103 64 35 108 67 39 100 59 29 106 65 35 110 69 39 120 79 49 104 63 35 105 66 37 115 75 49 116 76 50 103 64 35 100 61 32 114 75 46 113 74 45 101 62 33 100 61 32 
112 69 37 117 74 42 127 82 51 131 86 53 124 79 46 122 77 46 112 69 37 112 69 37 103 59 30 105 61 32 110 66 37 107 66 36 101 60 30 103 62 30 109 68 36 110 69 37 
125 80 47 121 76 43 115 69 35 114 68 34 130 84 50 126 80 46 110 65 32 111 66 33 124 79 48 123 78 47 120 75 44 120 75 44 125 80 47 126 81 48 121 76 43 117 72 39 
114 71 39 111 66 35 122 77 44 124 79 46 111 66 33 111 66 33 120 75 44 127 84 52 104 61 29 110 67 35 128 85 53 130 87 55 113 70 38 114 69 38 127 82 49 128 83 50 
117 76 48 112 71 41 102 61 31 115 72 40 122 79 47 120 79 49 96 55 25 97 56 28 109 70 41 113 74 45 100 59 29 99 58 28 120 79 49 119 78 48 101 60 30 102 58 29 
100 61 32 99 60 31 110 69 39 122 81 51 98 57 27 103 62 32 102 63 34 109 70 41 99 60 31 105 66 37 107 68 39 105 66 37 105 64 34 105 64 34 106 65 35 111 70 40 
129 88 58 123 82 52 119 76 44 120 77 45 115 72 40 118 75 43 108 67 37 112 71 41 123 82 52 125 84 54 115 74 44 115 72 40 127 84 52 127 84 52 118 73 42 117 72 41 
110 65 34 112 67 34 128 83 50 132 86 52 122 76 42 119 74 41 123 78 45 126 81 50 106 63 29 109 66 32 121 76 43 125 80 47 120 74 41 121 75 42 127 81 47 128 79 46 
120 79 49 115 74 44 100 59 29 109 68 38 120 79 49 117 76 46 102 61 31 109 68 38 105 64 32 111 70 38 101 60 28 106 65 33 109 68 36 109 68 36 102 61 29 103 62 30 
110 66 37 112 68 39 116 72 43 120 76 47 105 61 32 104 60 31 109 65 36 118 74 45 103 62 30 121 80 48 126 85 53 126 85 53 113 72 40 115 74 42 124 83 51 128 87 55 
122 79 47 121 78 46 117 74 42 121 78 46 125 82 50 128 85 53 120 77 45 116 73 41 121 80 48 122 81 49 106 65 33 110 69 37 116 75 43 112 71 39 104 63 31 111 70 38 
110 67 35 109 66 34 119 76 44 121 78 46 107 64 32 109 66 34 120 77 45 120 77 45 107 64 32 107 64 32 113 70 38 122 79 47 105 62 30 100 57 25 110 67 35 118 75 43 
108 65 33 109 66 34 98 55 23 103 60 28 128 85 53 123 80 48 104 61 29 103 60 28 112 69 37 122 79 47 112 69 37 115 72 40 125 82 50 129 86 54 116 73 41 106 63 31 
117 74 42 120 77 45 126 83 51 127 84 52 128 85 53 117 74 42 113 70 38 113 70 38 105 62 30 112 69 37 120 77 45 125 82 50 110 67 35 116 73 41 127 84 52 121 78 46 
130 87 55 126 83 51 114 71 39 106 63 31 122 79 47 122 79 47 118 75 43 118 75 43 128 85 53 119 76 44 105 62 30 113 70 38 114 71 39 115 72 40 112 69 37 112 69 37 
102 57 26 110 65 34 125 80 49 116 71 40 108 63 32 109 64 33 126 81 50 128 83 52 109 66 34 115 72 40 119 76 44 122 79 47 106 63 31 108 65 33 119 76 44 123 80 48 
