P3
16 16
255
251 255 255 255 252 247 255 253 244 255 252 255 255 248 255 249 255 255 255 253 255 247 255 255 255 253 255 254 255 253 252 255 253 244 252 255 255 248 255 255 255 251 247 255 247 255 252 253 
251 250 248 6 68 21 26 99 28 0 101 20 13 105 30 13 95 23 0 75 8 14 64 13 12 70 11 12 96 19 8 95 16 15 103 29 16 97 30 4 61 6 8 60 24 242 255 255 
255 251 250 9 99 27 199 202 123 203 199 108 198 205 110 210 195 110 206 205 123 209 210 140 199 202 123 208 206 121 206 204 117 198 201 112 207 207 119 220 207 137 14 71 18 255 253 255 
255 249 254 2 102 29 216 211 129 195 211 104 137 188 67 145 174 64 163 196 92 159 194 102 147 195 95 164 189 95 143 171 71 145 177 70 191 218 105 207 197 108 9 100 23 255 248 253 
237 255 255 24 96 33 212 203 128 159 185 84 193 200 107 211 210 120 197 210 120 206 209 128 214 208 122 204 207 120 211 213 130 194 205 113 130 179 64 207 206 116 8 99 22 255 255 255 
254 255 251 11 67 4 203 202 122 141 183 81 204 203 120 204 196 115 214 212 127 205 211 125 207 218 114 206 212 114 205 197 112 205 199 115 147 173 74 214 205 126 13 100 29 249 255 255 
255 252 247 19 96 24 205 205 119 137 173 67 202 208 118 201 207 119 196 202 112 169 193 97 148 173 69 198 210 108 195 201 105 201 212 118 164 192 92 213 211 136 0 69 5 255 253 255 
248 255 255 13 96 24 206 200 116 162 196 86 204 205 112 197 214 120 161 191 93 209 212 125 201 214 132 141 168 73 214 219 125 202 202 112 151 189 88 207 214 137 13 62 7 255 254 255 
254 255 253 16 59 13 214 208 132 153 195 97 206 209 122 201 217 119 176 183 105 198 217 136 203 209 135 166 191 87 198 216 117 210 208 121 152 195 105 206 201 120 17 66 11 255 252 255 
252 255 251 6 67 10 213 211 128 161 196 94 210 213 122 199 214 109 195 206 110 148 169 64 175 189 102 199 205 105 204 207 118 216 216 128 163 183 98 207 203 114 9 100 23 246 255 250 
249 255 255 13 94 35 209 206 125 171 184 96 205 197 122 208 208 122 214 216 132 206 213 117 207 205 118 200 206 108 214 207 127 198 202 115 162 188 97 206 201 110 17 99 23 251 255 249 
254 251 244 13 104 25 191 206 101 148 174 65 197 214 118 198 208 112 206 205 122 208 201 111 202 202 112 194 208 110 207 204 125 188 205 109 159 194 92 209 208 115 13 93 24 255 254 255 
255 251 255 19 95 33 196 206 110 194 209 108 162 186 90 146 176 78 156 190 104 157 196 105 153 198 93 162 189 86 149 166 74 147 184 68 200 217 113 199 200 107 10 101 32 254 253 255 
255 252 252 16 66 15 200 202 118 211 205 117 205 201 110 201 201 103 217 212 130 204 208 121 210 208 131 210 205 124 221 215 139 197 209 109 204 210 122 214 211 134 8 61 9 255 252 250 
247 255 255 7 60 32 11 70 12 10 88 26 16 103 35 13 102 20 2 66 5 20 90 27 19 100 31 2 96 18 11 98 29 23 102 23 15 94 28 16 67 10 12 61 29 244 255 241 
255 255 250 255 255 251 250 252 241 255 254 255 255 253 255 247 253 241 255 250 255 249 255 255 251 254 247 255 254 250 251 255 255 253 255 249 255 252 255 251 255 254 243 255 255 255 251 251 
