P3
16 16
255
252 255 255 250 255 246 255 250 255 255 253 255 252 252 250 255 249 255 255 254 255 255 253 251 255 253 255 248 253 247 255 255 255 248 255 255 247 255 255 255 254 255 251 255 243 255 251 255 
255 255 250 56 86 26 70 103 34 63 110 29 63 108 27 58 92 31 61 107 34 67 101 27 152 167 110 76 102 37 68 88 29 67 100 29 66 98 33 63 82 26 63 87 27 253 255 243 
255 255 253 60 102 28 80 126 38 75 117 35 92 124 49 64 100 28 67 127 31 79 131 33 87 122 40 78 122 37 87 121 44 79 126 32 80 129 37 89 123 46 53 87 26 249 255 255 
253 255 249 65 112 32 79 121 35 108 131 61 151 167 102 80 105 37 91 137 49 103 130 53 108 156 56 86 137 42 66 105 24 87 139 39 91 146 42 88 128 39 60 95 31 247 254 255 
254 254 255 63 106 34 78 122 35 98 141 51 106 153 51 69 121 21 91 142 49 189 200 142 102 151 44 88 140 42 86 120 44 104 151 59 82 134 34 84 123 32 66 97 29 254 255 255 
255 254 255 56 85 31 70 99 33 85 125 39 86 142 33 98 162 52 94 160 52 93 126 45 97 147 50 96 144 58 172 201 137 80 123 44 81 131 44 88 125 45 61 89 28 250 245 249 
252 255 242 73 99 36 152 175 105 95 131 43 103 148 45 97 141 46 76 139 25 106 160 46 100 155 51 102 154 54 101 135 51 92 140 41 89 143 45 75 118 29 68 101 32 255 255 250 
254 255 253 66 100 39 74 122 36 92 160 49 98 157 51 83 116 45 79 123 44 104 149 56 95 153 51 95 152 47 108 148 51 99 153 41 96 158 49 82 128 38 65 102 33 253 255 252 
255 249 255 69 102 31 78 128 31 101 146 51 112 149 69 176 200 142 86 118 42 94 156 57 104 150 42 83 144 40 100 150 53 103 152 45 87 138 45 85 130 45 63 104 28 248 255 250 
254 255 255 62 99 30 78 127 35 93 144 41 97 153 46 105 150 57 105 150 47 92 155 40 99 151 53 184 194 134 86 137 58 78 128 29 158 168 108 75 112 42 68 106 33 255 247 255 
248 254 254 56 87 28 86 124 47 79 126 32 80 142 31 99 155 54 104 149 46 92 143 42 108 149 53 102 156 58 89 132 53 90 126 38 86 128 28 90 129 38 63 88 23 253 255 252 
255 255 248 68 95 28 86 121 39 95 139 44 102 157 53 74 120 30 106 140 53 95 135 49 95 147 36 93 155 56 83 131 45 83 134 29 94 141 39 79 119 22 59 102 22 254 255 255 
255 250 252 68 97 33 83 127 42 94 138 49 88 137 48 89 125 55 141 172 96 95 138 56 89 145 44 103 130 51 56 110 34 90 138 52 155 173 97 89 130 51 61 97 36 255 252 255 
255 255 255 55 91 27 75 122 41 84 129 44 78 123 42 68 100 33 58 91 10 76 127 32 81 124 35 81 130 25 54 98 21 90 124 50 85 122 29 82 123 44 66 93 40 249 255 242 
252 255 248 57 85 24 59 88 24 68 94 31 70 106 36 58 86 27 77 100 32 70 104 30 68 98 34 63 103 33 61 89 30 65 100 32 68 96 38 63 88 31 48 90 24 255 255 243 
254 253 255 252 255 244 255 253 255 255 251 255 248 255 251 248 255 255 255 254 255 255 253 255 252 254 255 255 254 243 244 254 253 254 255 255 255 252 249 248 255 253 249 255 251 255 248 255 
