P3
16 16
255
248 255 244 52 85 32 85 138 50 96 153 56 89 139 40 70 112 40 85 133 34 97 151 55 97 152 48 91 141 52 58 88 28 91 139 39 100 157 60 79 124 33 57 88 31 255 251 255 
255 254 255 79 99 46 85 127 25 96 143 39 87 125 40 171 198 147 91 127 37 91 134 26 96 154 44 96 135 46 50 91 23 108 153 52 95 147 47 90 146 49 177 196 140 255 255 253 
187 187 149 148 168 99 86 126 30 93 137 40 80 117 24 65 93 35 81 113 40 91 127 63 99 155 46 100 136 48 75 115 45 107 149 47 100 151 50 92 147 46 60 80 21 252 253 248 
254 255 248 61 86 31 87 137 42 88 143 41 98 145 49 52 91 28 78 123 30 91 141 44 103 152 47 96 142 52 138 164 101 100 147 45 95 150 49 78 122 27 72 102 40 255 253 253 
249 254 247 64 92 41 88 139 46 97 155 53 95 147 47 61 102 34 84 131 35 99 151 53 102 150 50 79 123 38 63 88 30 77 121 24 88 142 46 86 129 39 55 84 26 254 248 250 
255 254 255 57 80 28 105 153 51 99 152 46 96 141 48 58 89 32 89 125 37 104 146 46 102 154 54 89 122 43 56 92 31 84 123 30 90 139 47 87 141 47 180 198 146 255 255 255 
183 188 147 65 91 20 107 152 57 97 147 48 80 124 26 59 89 27 87 117 47 172 202 148 98 150 49 92 125 44 48 84 22 84 125 29 102 152 57 89 145 48 60 81 24 250 252 251 
252 255 253 57 86 30 99 151 50 99 156 49 94 141 45 52 85 28 90 126 38 106 147 51 91 139 37 81 127 39 62 88 27 96 143 41 98 154 53 87 132 37 63 95 32 255 254 250 
251 255 254 57 91 30 91 130 47 105 156 53 80 124 27 70 99 32 83 128 45 91 138 42 84 127 35 79 124 33 60 89 31 99 150 45 101 157 58 85 127 43 64 96 31 255 255 253 
254 255 253 53 85 22 92 131 48 101 152 51 96 140 45 67 96 29 75 123 39 102 153 52 81 124 35 77 123 35 57 86 32 101 152 49 91 147 46 85 125 37 70 101 31 255 255 248 
251 252 244 74 104 40 79 117 34 99 151 51 90 135 42 147 178 110 95 143 57 99 150 45 94 138 51 77 125 39 62 91 37 105 156 53 89 144 43 80 120 31 149 181 108 184 182 170 
255 255 246 74 105 37 87 125 42 90 142 44 97 142 51 57 88 20 86 136 47 100 152 44 92 139 45 79 128 37 52 81 25 104 152 50 75 130 29 87 125 38 58 88 18 255 253 244 
187 187 175 139 170 102 83 121 36 95 147 49 92 139 47 52 83 16 92 141 52 103 155 47 101 152 49 88 138 39 71 101 41 104 152 50 93 145 47 84 121 41 62 92 28 255 253 252 
255 255 248 59 90 23 84 124 38 97 152 51 77 124 30 60 91 24 94 142 56 100 148 46 103 155 47 81 132 31 70 100 40 97 144 42 89 140 47 87 124 46 50 80 20 255 254 255 
253 252 248 58 90 25 81 121 35 97 152 50 93 140 44 59 90 23 77 122 41 97 143 45 100 148 46 97 144 48 171 199 141 96 142 43 89 140 47 83 122 43 65 96 36 252 252 252 
255 255 253 54 86 23 97 139 53 100 155 51 103 150 54 59 88 22 81 125 46 79 122 30 91 138 42 91 137 47 60 87 34 77 123 25 106 157 65 79 118 37 56 88 23 254 255 251 
