P3
16 16
255
246 255 253 255 254 246 247 255 255 255 254 252 255 255 244 254 255 255 251 250 255 249 255 251 255 255 243 247 255 248 254 255 255 255 255 251 251 251 251 255 252 255 254 255 246 253 251 255 
255 251 255 249 225 197 251 231 206 244 247 216 255 238 217 254 250 251 255 251 255 255 249 252 253 252 255 255 248 255 254 243 251 248 246 221 255 246 211 235 238 193 248 230 192 255 253 255 
252 255 255 253 226 183 255 246 226 248 251 255 255 248 255 251 255 253 254 255 251 241 255 255 255 249 255 255 255 253 247 255 255 216 23 54 250 251 255 254 247 219 237 230 201 255 249 255 
239 255 248 255 246 220 255 255 248 247 255 237 227 117 90 240 52 51 251 222 188 246 235 205 255 244 211 251 235 222 250 254 231 255 251 251 253 255 254 255 247 251 248 250 203 247 255 255 
255 252 255 246 243 224 255 250 255 252 255 251 235 58 68 212 37 42 251 245 221 250 248 253 251 254 245 255 255 251 246 245 225 255 253 246 252 255 251 246 255 255 250 246 211 255 255 255 
255 250 254 254 255 255 251 247 248 240 236 199 255 241 198 254 249 246 254 254 255 251 255 255 255 250 255 250 252 241 255 253 255 166 31 46 253 252 255 255 250 255 250 254 255 255 250 248 
254 255 255 255 240 246 254 255 251 243 227 214 255 252 253 255 248 255 245 240 202 211 37 30 210 34 37 246 250 217 252 255 255 255 249 246 255 237 215 255 254 251 255 252 251 254 255 253 
251 255 246 255 254 246 211 31 66 255 244 205 243 255 248 251 251 255 211 34 52 242 116 94 248 45 51 204 38 58 248 251 255 253 252 248 250 254 217 255 249 251 253 250 255 248 255 253 
255 251 255 255 250 255 241 255 241 255 239 216 255 254 243 255 251 251 207 33 58 242 51 56 205 39 39 178 32 51 240 244 211 255 246 255 249 234 195 248 255 255 254 255 246 248 255 242 
255 253 244 251 255 255 255 254 255 255 248 255 251 246 216 251 255 255 246 240 208 208 39 46 181 30 49 255 240 217 255 255 250 249 246 227 250 234 211 169 38 44 252 251 255 255 245 255 
255 255 253 253 253 243 251 255 255 249 252 255 249 255 248 255 239 204 243 231 207 243 234 205 250 241 224 255 251 255 254 255 253 253 243 216 238 225 206 255 252 251 255 251 255 253 250 241 
255 253 255 244 242 219 255 255 243 239 119 84 216 34 57 248 250 255 255 254 241 252 246 248 255 254 237 243 255 255 255 255 248 248 233 192 255 243 223 255 251 248 252 255 255 254 255 253 
244 255 250 249 253 218 255 240 255 246 47 42 169 32 50 248 233 212 248 236 210 255 255 250 255 252 249 255 252 230 241 111 77 255 246 253 238 255 240 253 253 255 249 247 209 249 255 255 
255 241 255 249 233 208 246 249 192 254 248 252 255 251 248 245 255 240 255 236 212 241 235 199 241 247 211 255 252 245 255 252 255 255 252 255 255 255 243 255 234 216 252 235 209 252 255 236 
249 255 255 248 233 204 238 234 196 248 250 226 255 247 229 249 252 255 250 249 255 248 252 255 255 251 255 247 241 245 255 254 251 245 255 255 249 236 219 255 239 211 230 240 205 255 251 251 
255 253 253 255 251 255 248 255 253 255 250 255 252 250 253 252 255 250 255 255 237 255 251 255 248 255 245 255 255 246 255 253 255 252 248 255 255 255 243 242 255 250 255 254 255 255 248 255 
