P3
16 16
255
242 255 255 255 252 239 248 255 252 255 250 255 255 249 252 255 254 251 247 255 253 253 250 255 255 250 255 255 251 255 255 253 255 246 250 251 255 255 250 249 255 255 255 249 241 247 254 255 
255 251 242 129 58 28 125 66 36 133 69 44 142 72 38 155 75 40 140 69 27 144 73 43 121 62 28 125 66 34 135 70 38 143 74 45 143 64 33 123 61 36 113 58 19 255 253 239 
255 253 255 119 56 25 131 69 32 146 69 39 143 63 30 150 74 38 138 68 19 149 61 25 144 68 32 143 71 33 143 65 27 146 59 31 172 71 43 152 70 48 122 57 25 254 255 248 
252 249 255 142 77 45 138 73 31 141 60 31 128 56 31 114 56 32 110 60 25 131 56 33 143 61 37 140 69 37 144 71 38 135 61 36 141 62 32 123 51 27 140 73 47 253 250 255 
255 253 255 147 58 28 167 75 34 137 57 24 138 71 44 131 55 42 123 56 30 126 58 37 128 53 30 117 52 20 126 53 21 129 63 39 124 64 27 135 72 37 139 64 33 255 250 255 
249 255 255 141 67 42 145 69 35 122 53 22 119 58 30 123 52 34 118 53 23 130 60 34 119 63 38 118 63 32 131 57 32 120 53 37 106 50 15 136 76 39 141 67 30 253 251 255 
254 254 254 139 73 41 117 53 15 132 63 32 127 61 27 127 58 27 121 58 15 140 65 33 128 59 26 121 62 20 144 65 34 135 57 44 127 58 25 145 66 27 162 77 36 254 255 253 
255 252 249 152 68 44 143 67 41 121 61 37 108 48 22 132 49 31 135 61 34 121 59 36 138 54 28 118 59 19 127 60 33 112 48 39 122 58 33 148 65 35 147 61 28 245 255 255 
255 252 255 137 61 27 165 75 38 130 60 34 118 50 29 131 50 33 137 61 35 94 52 28 125 57 38 123 55 34 131 56 33 130 49 28 154 64 30 139 69 33 132 69 36 255 246 255 
253 251 254 140 75 43 139 64 24 139 74 34 129 65 29 130 61 32 125 51 16 124 62 25 128 56 16 127 65 24 134 70 34 126 62 34 141 72 33 132 73 33 116 58 20 255 255 255 
255 252 255 115 53 30 147 73 46 137 67 33 130 66 31 105 48 28 129 57 33 135 58 30 135 54 24 122 57 25 127 60 34 112 46 32 120 55 27 142 68 43 147 68 38 254 253 251 
255 249 244 146 73 41 153 63 36 135 49 22 130 56 27 123 62 41 132 60 36 138 60 38 129 59 34 108 55 23 121 55 29 121 56 38 131 66 34 148 64 36 169 79 45 251 255 245 
248 255 254 134 76 39 139 58 28 148 71 53 127 57 32 118 55 24 132 62 26 122 58 33 129 56 37 136 75 46 144 65 35 130 52 29 145 70 38 145 57 35 143 53 27 249 255 255 
252 255 255 119 61 24 144 68 36 126 49 31 147 66 39 147 66 23 164 78 27 143 67 33 141 65 33 134 63 21 152 68 24 150 70 35 142 70 30 144 73 45 132 63 34 246 255 255 
255 246 249 118 59 25 124 63 32 135 69 45 143 68 39 137 67 31 142 67 27 143 68 39 133 56 28 148 72 38 157 75 38 142 66 40 138 65 33 113 52 24 131 62 29 255 248 251 
254 251 255 255 253 244 248 255 247 255 255 253 255 252 251 251 255 255 254 255 255 255 250 255 254 254 255 251 251 253 255 254 255 248 251 255 255 254 255 249 255 251 255 255 236 245 253 255 
