P3
16 16
255
251 255 255 255 248 242 252 255 250 247 255 255 203 106 0 204 107 13 230 189 45 239 201 92 232 187 68 243 209 85 246 206 84 216 161 32 196 110 0 255 248 249 248 255 255 248 255 250 
255 249 255 248 255 250 251 248 255 249 255 255 255 253 255 178 64 1 211 108 5 223 193 61 218 191 62 251 206 81 243 197 86 229 185 60 233 194 55 201 108 13 255 248 255 255 253 248 
246 254 255 255 254 253 255 252 244 248 250 237 173 67 5 207 99 0 234 189 46 244 206 83 252 205 87 232 190 54 248 187 45 246 232 171 201 111 23 214 109 0 246 249 255 255 251 255 
255 253 255 245 248 253 250 252 247 191 65 24 194 111 7 236 210 87 240 181 65 243 204 83 235 206 80 228 190 57 230 209 84 240 206 96 180 66 3 250 255 248 252 255 255 245 255 245 
252 255 251 247 255 248 252 255 255 207 105 0 231 202 82 246 208 97 241 200 95 241 205 93 235 192 61 241 183 73 237 210 93 217 197 66 198 102 0 252 254 241 255 251 255 255 253 248 
249 248 244 255 251 255 188 105 1 240 184 65 229 208 80 248 237 173 249 241 166 243 236 166 234 198 76 252 207 82 239 197 89 205 104 0 209 106 14 255 253 251 254 255 255 246 255 255 
255 254 255 255 254 245 229 192 77 238 192 57 234 209 82 247 234 164 251 207 76 248 236 188 251 240 184 233 204 78 243 188 62 204 119 0 249 255 244 248 252 251 255 253 255 245 255 255 
255 249 255 252 255 244 222 189 48 249 207 87 251 231 178 248 233 164 255 251 255 247 255 246 250 253 232 234 213 98 247 234 179 242 177 61 177 63 3 244 255 255 255 253 255 255 253 250 
255 254 255 255 253 255 254 248 255 255 251 255 255 255 244 252 249 255 255 254 255 253 255 254 255 251 251 255 248 255 252 252 252 254 255 248 253 255 254 255 255 248 245 253 255 255 255 243 
243 255 253 249 255 255 248 255 239 239 254 247 251 255 251 255 255 246 243 255 242 254 255 255 255 254 255 243 255 254 177 63 0 254 252 255 255 252 250 254 255 255 255 253 255 249 253 255 
255 254 237 255 250 250 251 255 255 255 252 250 243 255 255 251 248 255 255 248 255 178 66 0 248 255 245 198 108 0 199 113 14 205 107 10 247 253 241 249 255 255 254 255 246 255 252 255 
246 255 255 255 247 255 255 252 255 251 246 252 247 255 253 255 251 255 175 63 0 200 107 3 208 111 8 201 108 5 225 157 20 194 106 8 255 254 253 255 247 255 255 254 248 253 255 254 
255 255 250 255 252 255 247 255 246 255 253 247 251 255 255 198 104 4 227 155 34 238 187 59 219 158 18 233 159 34 195 107 0 171 79 2 255 253 242 255 255 250 255 254 255 242 255 244 
247 255 251 255 252 255 252 255 255 174 63 0 200 105 0 220 165 38 237 205 86 233 207 84 245 210 90 247 199 101 175 63 0 253 254 249 255 251 255 244 255 255 255 246 247 252 252 255 
248 255 239 245 247 255 255 250 255 180 63 0 248 188 68 226 207 68 245 213 92 234 203 78 245 243 166 241 191 76 226 162 56 190 118 0 251 252 255 255 253 255 255 254 246 255 254 250 
255 254 255 255 250 255 247 255 246 255 252 255 200 105 0 233 192 50 232 190 56 241 202 99 231 206 87 249 211 86 227 188 49 205 106 2 207 110 3 247 251 252 251 255 255 247 255 255 
