P3
16 16
255
0 89 0 75 59 254 62 69 235 60 49 205 39 43 176 55 40 21 97 75 34 92 48 23 110 69 37 109 69 34 113 65 25 84 53 24 114 70 31 112 70 32 111 68 26 85 56 26 
11 124 10 204 195 130 165 157 121 57 68 254 52 54 227 48 29 15 88 51 25 54 30 4 64 40 16 77 51 28 84 53 24 43 26 10 69 42 15 72 46 21 78 48 20 44 28 12 
3 97 1 0 125 0 252 222 168 213 200 130 70 65 255 61 27 18 59 44 3 46 30 31 66 42 18 80 54 31 87 56 28 40 24 9 72 44 20 76 52 28 83 53 27 39 26 10 
64 65 251 0 88 1 197 203 141 173 148 107 67 65 236 55 35 26 80 57 43 40 22 0 72 45 18 77 50 23 87 54 23 43 26 10 80 50 24 76 48 26 82 51 23 44 27 11 
60 53 221 53 56 231 62 67 247 72 74 247 46 40 176 42 29 13 84 49 27 45 33 7 70 46 22 75 51 27 85 58 31 43 31 17 75 50 28 64 42 21 75 47 25 46 32 21 
33 26 8 122 48 13 248 242 102 226 141 34 27 28 14 42 35 9 87 50 32 49 29 5 76 46 20 81 51 25 88 54 26 47 30 14 77 47 23 70 42 18 80 46 18 52 31 14 
113 73 38 111 62 3 121 68 36 83 59 11 111 68 34 113 67 34 85 42 23 48 36 12 82 48 21 83 49 22 84 47 18 49 30 13 79 48 20 78 47 19 85 49 17 58 36 13 
77 57 20 91 43 31 62 48 21 45 25 16 53 35 15 62 40 16 57 33 5 41 28 22 57 36 19 57 36 19 61 36 16 32 25 17 57 38 21 53 34 17 64 39 17 50 38 26 
86 52 17 73 48 28 72 47 16 52 39 23 63 39 15 58 42 16 61 39 16 59 42 16 69 39 13 66 42 16 61 44 14 57 35 24 82 55 28 70 38 13 85 56 24 60 34 19 
90 53 26 80 51 37 76 45 17 48 26 13 86 51 29 77 50 23 93 55 32 90 56 29 88 58 30 73 49 23 59 40 10 51 27 15 85 58 31 80 48 23 86 59 29 53 27 12 
84 51 16 70 43 22 85 56 22 47 25 4 104 68 36 107 75 37 92 47 14 90 50 14 94 60 32 84 58 31 63 44 12 52 28 16 73 46 19 75 45 19 79 54 23 51 28 14 
81 55 20 68 47 26 85 62 28 44 27 7 88 57 26 102 76 41 81 44 15 85 55 21 83 49 21 79 52 25 54 33 2 50 26 14 66 39 12 82 52 28 79 54 24 50 28 15 
77 46 18 77 51 38 82 55 28 48 30 18 72 41 21 72 47 25 85 53 38 80 55 35 81 47 20 77 51 24 62 43 13 52 30 19 70 44 19 77 49 25 75 51 23 45 26 12 
90 52 16 78 47 26 91 58 23 53 30 12 73 38 10 57 31 4 69 37 16 53 27 4 64 32 7 60 36 12 64 47 19 45 25 16 74 50 26 68 42 19 76 55 26 50 32 20 
81 51 15 61 36 14 82 56 19 53 35 13 83 52 21 84 61 27 86 56 28 83 60 29 86 58 36 72 50 29 71 55 30 52 33 26 79 57 34 69 45 21 69 50 20 41 23 11 
46 28 14 44 30 29 52 35 17 38 27 23 51 28 12 47 30 10 48 25 9 50 33 15 54 27 6 51 30 11 50 36 10 42 23 17 52 30 7 51 26 4 53 33 6 43 25 13 
