P3
16 16
255
85 56 26 114 71 29 108 69 30 109 67 27 86 57 25 111 68 25 107 69 32 110 75 37 85 55 27 106 71 33 104 72 33 112 69 24 85 55 21 109 71 32 106 74 36 106 69 25 
43 25 13 81 49 26 72 44 23 70 39 18 46 28 14 83 51 26 74 47 26 61 36 16 52 26 13 80 48 25 84 53 32 89 50 21 63 36 19 84 48 26 77 49 28 80 45 17 
41 23 11 88 56 33 79 51 30 79 49 25 44 26 12 89 55 28 82 54 32 65 38 17 48 26 12 75 47 23 73 49 25 75 41 13 52 31 14 76 45 24 72 47 27 79 49 21 
42 24 2 86 53 20 74 45 15 84 53 22 41 23 1 85 51 16 83 54 22 74 45 13 45 27 7 76 50 23 68 48 21 82 51 20 58 40 20 82 54 30 67 45 22 78 49 19 
44 32 16 76 50 23 60 40 15 76 55 28 40 28 12 83 56 27 75 54 27 69 48 21 48 26 12 76 50 27 64 42 21 87 55 30 54 35 21 80 49 31 61 35 18 80 48 23 
49 31 19 79 48 27 68 41 22 78 51 30 43 26 16 88 56 31 76 48 26 74 46 24 55 34 15 81 54 27 66 44 20 88 57 26 49 28 9 76 46 22 66 40 15 92 57 25 
56 33 17 82 46 20 74 43 22 78 46 23 45 26 11 91 54 25 77 43 16 87 53 26 49 28 7 72 47 17 65 45 18 82 53 19 48 30 8 77 47 19 71 46 16 87 55 16 
52 40 24 66 40 13 55 35 11 59 39 14 37 28 13 81 56 26 64 40 12 80 56 28 49 28 23 63 37 24 53 34 20 61 32 14 41 22 15 75 46 30 79 53 36 86 52 25 
59 34 14 86 57 25 66 40 13 88 54 27 52 29 13 78 49 17 69 43 16 78 46 23 56 35 16 85 50 22 67 39 15 79 49 23 49 32 16 74 43 14 77 50 23 79 52 25 
52 31 14 83 56 27 71 50 23 86 54 29 54 35 20 79 52 23 68 47 20 81 51 27 56 37 20 82 51 23 68 42 19 79 51 27 47 31 16 78 47 19 76 48 24 83 55 31 
46 27 13 77 51 24 75 55 31 73 42 21 55 37 23 76 51 21 67 47 20 77 49 27 52 34 20 79 49 23 70 45 23 78 52 29 43 30 14 82 51 23 73 45 21 82 55 28 
51 29 16 76 50 23 77 55 32 64 32 9 57 38 24 76 51 20 68 47 20 76 48 24 48 31 15 78 46 21 75 49 26 79 51 27 44 28 13 90 56 28 75 45 17 83 53 25 
49 26 12 78 51 22 73 49 25 69 37 12 52 30 16 79 53 20 66 42 14 79 49 23 47 28 11 76 45 17 76 48 24 74 44 18 41 24 8 91 56 26 76 45 16 81 50 21 
44 22 8 81 54 25 66 44 20 84 52 29 45 26 11 82 55 25 61 40 11 83 53 29 53 34 19 79 48 20 76 50 27 69 41 17 42 26 10 89 55 27 78 48 22 81 51 23 
45 27 13 75 51 25 58 40 16 80 52 31 45 29 16 73 49 23 58 40 16 75 48 29 55 39 24 73 45 21 70 48 27 65 43 22 44 32 20 76 48 24 71 46 24 74 49 27 
39 25 14 54 34 9 42 27 6 54 29 9 37 24 16 49 29 5 48 33 14 52 29 13 39 27 15 54 29 7 51 32 15 51 32 15 31 24 16 53 31 10 48 29 12 50 31 14 
