P3
16 16
255
69 47 26 69 45 17 85 48 21 79 50 32 69 55 29 87 54 21 88 53 23 86 56 32 68 56 6 85 57 33 89 54 24 87 49 36 64 56 35 77 49 12 77 56 37 56 33 19 
79 51 27 79 52 22 73 41 20 68 31 13 60 32 10 82 39 20 62 44 6 85 45 20 100 44 29 82 52 24 67 38 24 86 39 19 82 52 14 78 44 19 57 44 28 72 39 4 
76 49 22 68 48 24 193 199 199 195 197 194 163 174 168 159 157 160 76 49 28 71 52 22 74 41 36 65 50 11 81 57 29 179 171 99 186 153 100 201 170 80 134 108 51 54 36 12 
58 32 17 53 24 6 203 199 196 66 46 22 197 37 63 115 120 116 41 23 3 33 24 7 82 53 21 191 161 101 187 158 100 249 228 185 255 253 241 242 241 185 196 156 107 37 30 22 
66 54 32 58 33 11 173 174 168 191 29 52 56 34 10 159 155 152 82 53 35 64 37 26 180 167 97 253 231 184 253 253 241 253 253 243 186 42 42 255 249 242 139 108 51 56 50 16 
80 56 28 70 42 18 107 101 101 160 170 161 117 118 112 99 103 102 61 41 17 59 31 7 190 158 101 255 233 190 191 155 95 247 255 253 251 249 252 255 223 193 122 115 60 83 53 29 
82 47 28 73 60 28 76 39 20 66 41 19 83 50 31 82 51 31 80 54 27 61 36 16 187 169 103 253 244 229 253 253 245 251 248 239 240 247 240 255 255 246 133 113 42 79 43 19 
44 26 16 43 20 2 51 31 6 38 36 15 46 27 12 54 26 4 49 33 10 47 29 17 185 160 94 253 255 250 192 164 91 255 247 250 247 241 181 255 248 238 135 106 64 52 33 16 
72 46 23 50 44 10 66 44 33 73 42 21 67 42 22 71 47 21 83 54 24 97 51 27 183 166 97 255 246 244 244 233 205 255 254 241 130 109 56 247 232 191 127 110 38 52 38 27 
71 54 26 86 45 15 76 47 39 82 55 10 87 52 14 75 53 32 66 45 26 55 38 18 192 164 91 250 230 197 250 233 181 240 230 195 255 230 178 255 232 197 140 110 56 56 33 17 
49 30 15 57 30 13 48 38 13 36 20 7 55 27 26 49 27 16 87 58 26 89 54 26 187 156 92 252 227 186 255 237 196 248 230 194 188 159 101 137 111 62 86 55 11 63 36 15 
63 56 212 0 96 9 0 81 1 54 72 244 41 46 166 45 35 25 32 26 0 48 34 7 88 59 19 136 116 57 127 110 54 126 109 66 80 56 22 54 28 13 46 18 14 52 31 12 
31 45 168 4 100 0 103 158 54 82 120 35 74 63 245 46 21 17 79 51 37 70 33 25 82 51 33 86 60 27 65 43 22 53 29 5 78 58 21 72 48 12 75 52 38 70 48 24 
52 57 223 72 65 243 90 109 53 123 177 65 79 130 37 32 19 3 78 46 21 52 28 16 71 38 21 81 48 7 83 58 18 86 51 23 75 49 24 72 38 26 70 41 33 73 43 15 
68 61 252 60 60 242 64 73 240 5 98 7 4 78 0 57 33 29 87 53 28 46 50 13 82 56 33 86 54 33 75 49 32 81 43 32 75 56 24 81 51 25 69 48 21 80 53 26 
0 81 0 0 93 5 71 50 249 43 70 247 8 104 4 43 36 8 61 20 34 62 37 6 53 39 10 53 30 12 46 31 8 57 26 21 38 30 7 49 24 17 41 28 9 45 23 9 
