P3
16 16
255
204 119 13 187 118 25 204 122 20 160 85 18 188 122 10 203 111 8 203 119 33 156 87 12 163 99 27 188 118 20 192 122 11 206 118 21 148 109 16 168 83 18 195 115 26 155 97 0 
224 145 27 230 140 28 225 148 18 159 83 21 196 126 15 225 150 35 213 137 15 197 125 15 164 85 6 227 145 35 234 141 22 190 121 20 162 84 9 223 141 31 242 147 41 159 85 20 
194 121 19 242 160 84 236 163 71 157 85 9 53 0 10 56 0 15 197 119 19 223 165 83 169 93 17 188 114 17 58 0 24 226 151 26 152 95 8 202 114 25 222 166 69 170 91 0 
152 97 7 231 143 37 230 160 75 151 112 17 41 0 2 53 19 0 53 0 0 231 166 76 151 89 0 51 6 9 47 0 20 39 0 0 191 128 25 145 95 6 229 165 68 185 119 22 
156 95 12 235 133 25 227 147 24 48 0 9 75 24 7 67 21 0 66 27 10 227 144 24 151 96 16 55 0 3 61 17 0 68 20 0 53 5 5 167 83 19 237 148 18 191 123 26 
160 94 18 233 145 37 228 146 20 46 0 0 60 16 5 67 17 6 61 18 0 227 145 35 160 95 13 45 0 6 70 15 8 70 23 0 63 14 0 157 88 11 242 140 40 218 140 29 
148 93 0 231 140 23 219 147 37 52 2 11 66 15 0 68 19 2 67 20 0 200 117 15 159 85 0 46 2 17 68 22 0 64 20 0 72 15 0 66 24 0 216 148 13 232 145 40 
166 86 27 230 144 25 227 152 25 227 160 81 71 16 9 73 19 0 222 147 19 197 114 34 165 87 15 222 175 67 68 10 8 62 19 0 73 21 0 59 16 7 228 167 74 229 143 20 
173 88 23 221 138 18 227 157 25 234 136 37 226 167 73 229 140 20 197 119 8 226 164 81 196 123 12 231 143 33 221 169 68 231 166 66 237 142 36 218 175 73 228 133 17 236 150 29 
154 89 5 234 147 42 221 136 17 49 3 6 162 87 19 37 7 7 197 125 27 234 141 46 47 0 4 191 119 35 186 119 14 51 5 7 158 83 16 39 0 0 243 147 47 218 138 25 
160 95 13 230 144 23 49 0 8 34 4 0 41 3 0 45 0 9 66 15 0 39 5 0 53 1 14 70 21 4 41 0 0 43 0 7 79 11 8 43 3 14 209 155 20 226 146 33 
147 91 0 227 146 38 43 0 7 74 21 3 75 14 11 74 18 0 61 22 0 82 14 5 57 15 1 70 22 0 70 19 0 65 18 0 64 21 0 57 22 0 74 15 1 230 145 20 
165 89 31 193 119 10 232 147 38 42 0 0 55 21 0 217 180 91 69 16 2 64 15 0 207 122 31 65 18 0 61 13 1 70 23 5 197 116 27 75 16 0 75 11 0 194 114 27 
163 86 14 196 118 10 217 151 13 61 0 7 236 146 32 236 140 38 64 13 0 230 153 35 153 90 0 229 147 45 221 148 33 67 10 1 131 65 15 216 145 29 221 155 17 160 94 8 
129 64 8 158 90 17 201 115 12 129 69 0 188 111 21 200 114 29 157 93 21 143 95 13 159 92 13 202 113 23 154 93 10 157 96 13 126 59 17 176 82 18 183 118 14 124 60 14 
128 53 13 157 96 13 152 91 24 127 54 21 152 98 12 197 119 18 169 85 0 166 88 13 116 65 10 169 84 17 165 89 14 121 59 8 131 63 2 156 91 23 159 88 10 127 59 20 
