P3
16 16
255
79 79 79 77 77 77 81 81 79 87 87 85 88 88 86 91 90 88 98 97 95 103 102 100 101 100 98 97 96 94 94 93 91 86 86 84 78 78 76 79 79 77 82 82 82 78 78 78 
74 74 76 74 74 76 78 78 80 81 81 83 79 79 81 80 78 81 79 77 78 77 75 76 82 80 81 73 71 72 70 68 71 72 72 74 72 72 74 69 69 71 69 69 71 71 71 73 
41 40 46 44 43 49 50 49 55 52 51 56 52 51 56 56 54 59 54 52 57 47 45 50 46 44 49 51 49 54 53 51 56 52 51 56 54 53 58 54 53 59 49 48 54 44 43 49 
69 68 73 67 66 71 62 61 66 54 53 58 53 52 57 64 62 67 72 70 73 71 69 72 72 70 73 76 74 77 66 64 69 50 49 54 51 50 55 58 57 62 63 62 67 65 64 69 
62 62 64 69 69 71 77 77 77 80 80 80 82 82 82 90 88 89 93 91 92 90 88 89 86 84 85 87 85 86 84 82 83 82 82 82 83 83 83 74 74 74 65 65 67 65 65 67 
79 79 77 81 81 79 85 85 83 86 86 84 85 85 83 89 88 86 93 92 90 93 92 88 105 104 100 98 97 95 89 88 86 86 86 84 90 90 88 88 88 86 80 80 78 76 76 74 
77 77 77 77 77 77 84 84 84 93 93 91 94 94 92 93 92 90 94 93 91 95 94 92 99 98 96 93 92 90 86 85 83 81 81 79 82 82 80 86 86 86 84 84 84 76 76 76 
82 82 84 76 76 78 79 79 81 88 88 88 89 89 89 87 85 86 88 86 87 91 89 90 87 85 86 81 79 80 88 86 87 97 97 97 92 92 92 82 82 84 76 76 78 73 73 75 
78 78 80 64 64 66 72 72 74 77 77 77 91 91 91 86 86 86 80 80 78 88 88 86 90 90 88 87 87 85 85 85 85 88 88 88 81 81 81 73 73 75 60 60 62 80 80 82 
80 80 82 74 74 76 71 71 73 64 64 64 71 71 71 81 81 81 84 84 84 88 88 88 88 88 88 86 86 86 81 81 81 68 68 68 68 68 68 72 72 74 73 73 75 82 82 84 
73 73 73 78 78 78 78 78 78 72 72 72 70 70 72 74 74 76 71 71 73 67 67 69 71 71 73 72 72 74 76 76 78 65 65 67 73 73 73 75 75 75 80 80 80 74 74 74 
96 96 96 88 88 88 82 82 82 74 74 74 68 68 70 61 61 63 68 68 70 73 72 77 73 72 77 64 64 66 67 67 69 69 69 71 79 79 79 79 79 79 89 89 89 89 89 89 
89 89 89 73 73 73 74 74 74 65 65 67 60 60 62 48 48 50 57 56 61 64 63 68 65 64 69 51 50 55 52 52 54 59 59 61 67 67 69 70 70 70 79 79 79 88 88 88 
79 79 81 69 69 71 76 76 78 61 61 63 53 53 55 50 50 52 45 45 47 41 41 43 45 45 47 43 43 45 52 52 54 50 50 52 59 59 61 72 72 74 74 74 76 80 80 82 
63 62 67 57 56 61 62 62 64 48 48 50 47 47 49 87 87 89 92 92 94 96 96 98 93 93 95 90 90 92 92 92 94 53 53 55 52 52 54 61 61 63 56 55 60 57 56 61 
47 46 51 47 46 51 54 53 58 48 48 50 43 43 45 98 98 100 91 91 93 93 93 93 94 94 94 92 92 94 97 97 99 42 42 44 45 45 47 54 53 58 49 48 53 51 50 55 
