P3
16 16
255
45 44 50 39 38 43 39 38 43 40 39 44 38 38 40 252 252 254 255 255 255 255 255 255 255 255 255 255 255 255 252 252 254 38 38 40 40 39 44 39 38 43 39 38 43 45 44 50 
42 41 46 39 38 43 33 32 37 46 46 48 33 33 35 255 255 255 253 253 253 250 250 250 250 250 250 253 253 253 255 255 255 33 33 35 46 46 48 33 32 37 39 38 43 42 41 46 
36 35 40 40 39 44 56 55 60 49 49 51 36 36 38 255 255 255 253 253 253 255 255 255 255 255 255 253 253 253 255 255 255 36 36 38 49 49 51 56 55 60 40 39 44 36 35 40 
42 42 44 39 39 41 45 45 47 249 249 251 255 255 255 252 252 252 255 255 255 255 255 255 255 255 255 255 255 255 252 252 252 255 255 255 249 249 251 45 45 47 39 39 41 42 42 44 
34 34 36 44 44 46 40 40 42 254 254 255 255 255 255 255 255 255 252 252 252 255 255 255 255 255 255 252 252 252 255 255 255 255 255 255 254 254 255 40 40 42 44 44 46 34 34 36 
255 255 255 252 252 254 252 252 254 254 254 254 251 251 251 248 248 248 255 255 255 251 251 251 251 251 251 255 255 255 248 248 248 251 251 251 254 254 254 252 252 254 252 252 254 255 255 255 
255 255 255 250 250 250 255 255 255 255 255 255 255 255 255 255 255 255 249 249 249 255 255 255 255 255 255 249 249 249 255 255 255 255 255 255 255 255 255 255 255 255 250 250 250 255 255 255 
253 253 253 255 255 255 252 252 252 252 252 252 255 255 255 255 255 255 255 255 255 254 254 254 254 254 254 255 255 255 255 255 255 255 255 255 252 252 252 252 252 252 255 255 255 253 253 253 
253 253 253 255 255 255 252 252 252 252 252 252 255 255 255 255 255 255 255 255 255 254 254 254 254 254 254 255 255 255 255 255 255 255 255 255 252 252 252 252 252 252 255 255 255 253 253 253 
255 255 255 250 250 250 255 255 255 255 255 255 255 255 255 255 255 255 249 249 249 255 255 255 255 255 255 249 249 249 255 255 255 255 255 255 255 255 255 255 255 255 250 250 250 255 255 255 
255 255 255 252 252 254 252 252 254 254 254 254 251 251 251 248 248 248 255 255 255 251 251 251 251 251 251 255 255 255 248 248 248 251 251 251 254 254 254 252 252 254 252 252 254 255 255 255 
34 34 36 44 44 46 40 40 42 254 254 255 255 255 255 255 255 255 252 252 252 255 255 255 255 255 255 252 252 252 255 255 255 255 255 255 254 254 255 40 40 42 44 44 46 34 34 36 
42 42 44 39 39 41 45 45 47 249 249 251 255 255 255 252 252 252 255 255 255 255 255 255 255 255 255 255 255 255 252 252 252 255 255 255 249 249 251 45 45 47 39 39 41 42 42 44 
36 35 40 40 39 44 56 55 60 49 49 51 36 36 38 255 255 255 253 253 253 255 255 255 255 255 255 253 253 253 255 255 255 36 36 38 49 49 51 56 55 60 40 39 44 36 35 40 
42 41 46 39 38 43 33 32 37 46 46 48 33 33 35 255 255 255 253 253 253 250 250 250 250 250 250 253 253 253 255 255 255 33 33 35 46 46 48 33 32 37 39 38 43 42 41 46 
45 44 50 39 38 43 39 38 43 40 39 44 38 38 40 252 252 254 255 255 255 255 255 255 255 255 255 255 255 255 252 252 254 38 38 40 40 39 44 39 38 43 39 38 43 45 44 50 
