P3
16 16
255
249 253 255 252 255 255 250 255 254 44 47 66 251 255 252 40 40 68 254 255 250 255 254 255 255 255 255 255 255 255 255 255 255 255 255 255 255 255 255 255 255 255 255 255 255 255 255 255 
76 77 97 61 63 76 64 67 84 35 38 57 42 44 56 71 71 95 251 252 254 255 254 255 255 255 255 255 255 255 255 255 255 255 255 255 255 255 255 255 255 255 255 255 255 255 255 255 
68 70 83 252 255 255 43 47 59 250 255 255 250 253 255 248 251 255 254 255 246 252 254 243 255 255 255 255 255 255 255 255 255 255 255 255 255 255 255 255 255 255 255 255 255 255 255 255 
39 40 58 41 44 53 62 65 82 80 84 96 63 65 77 69 70 88 252 254 251 255 255 255 255 255 255 255 255 255 255 255 255 255 255 255 255 255 255 255 255 255 255 255 255 255 255 255 
252 255 255 252 255 255 251 255 255 57 60 79 250 254 255 39 39 67 254 255 253 253 252 255 255 255 255 255 255 255 255 255 255 255 255 255 255 255 255 255 255 255 255 255 255 255 255 255 
250 254 253 252 255 255 251 255 250 39 42 57 252 255 248 40 40 64 253 255 245 255 255 255 255 255 255 255 255 255 255 255 255 255 255 255 255 255 255 255 255 255 255 255 255 255 255 255 
80 82 95 59 61 73 64 68 79 43 46 65 40 43 50 68 68 94 254 255 255 250 249 255 255 255 255 255 255 255 255 255 255 255 255 255 255 255 255 255 255 255 255 255 255 255 255 255 
65 67 80 252 255 255 38 42 54 250 255 255 252 255 255 247 250 255 254 255 248 255 255 248 255 255 255 255 255 255 255 255 255 255 255 255 255 255 255 255 255 255 255 255 255 255 255 255 
35 42 60 249 255 255 38 43 63 247 253 251 252 254 255 252 251 255 255 255 253 255 252 249 255 255 255 255 255 255 255 255 255 255 255 255 255 255 255 255 255 255 255 255 255 255 255 255 
40 41 59 40 43 50 63 65 80 69 73 84 63 65 77 66 67 87 254 255 255 253 254 255 255 255 255 255 255 255 255 255 255 255 255 255 255 255 255 255 255 255 255 255 255 255 255 255 
255 255 253 254 255 250 247 249 244 67 70 75 251 255 250 38 41 56 251 255 246 251 255 255 255 255 255 255 255 255 255 255 255 255 255 255 255 255 255 255 255 255 255 255 255 255 255 255 
253 253 255 254 255 255 252 255 255 37 39 52 251 255 255 44 45 66 248 252 251 252 255 255 255 255 255 255 255 255 255 255 255 255 255 255 255 255 255 255 255 255 255 255 255 255 255 255 
75 80 99 55 62 68 62 67 89 37 41 50 43 44 62 65 64 78 255 254 255 255 254 255 255 255 255 255 255 255 255 255 255 255 255 255 255 255 255 255 255 255 255 255 255 255 255 255 
64 72 85 248 255 255 32 37 57 251 255 255 252 254 255 255 254 255 255 254 251 255 254 245 255 255 255 255 255 255 255 255 255 255 255 255 255 255 255 255 255 255 255 255 255 255 255 255 
36 39 58 34 38 47 71 73 96 75 78 93 64 65 85 66 64 85 255 254 255 255 254 255 255 255 255 255 255 255 255 255 255 255 255 255 255 255 255 255 255 255 255 255 255 255 255 255 
255 255 255 254 255 255 252 253 255 64 66 79 251 255 255 38 41 60 249 255 248 252 255 255 255 255 255 255 255 255 255 255 255 255 255 255 255 255 255 255 255 255 255 255 255 255 255 255 
