P3
16 16
255
239 238 207 233 232 201 236 233 202 238 235 204 235 232 199 231 228 195 243 240 209 236 233 202 224 225 183 234 232 194 231 226 194 235 231 194 231 232 190 226 228 181 232 230 189 229 225 188 
225 218 172 217 209 163 228 220 174 219 211 164 220 209 163 214 203 157 205 194 148 219 208 162 223 215 169 218 207 162 220 207 163 219 208 163 221 213 166 215 207 158 221 209 161 214 200 151 
216 193 149 208 185 141 208 186 139 209 185 139 214 190 142 208 181 134 208 182 133 214 188 139 205 182 130 210 185 128 215 189 128 201 177 117 204 182 125 195 170 114 204 175 115 202 171 104 
233 239 205 236 242 208 235 241 207 232 236 203 238 239 205 232 234 197 233 233 195 229 227 188 230 231 200 231 232 192 230 229 183 224 225 183 231 232 200 231 230 199 229 224 182 187 177 124 
245 234 188 215 204 158 227 216 170 224 214 165 215 203 153 198 182 130 190 173 119 224 205 149 218 200 154 191 174 120 190 174 114 225 210 155 221 207 162 215 198 154 232 209 155 200 173 106 
239 227 187 223 211 173 218 206 166 214 202 162 227 214 170 203 186 140 189 169 119 232 210 160 230 210 159 212 193 137 191 174 118 217 204 152 223 210 165 211 194 148 216 193 139 202 174 111 
222 219 174 210 207 162 227 224 179 225 223 175 214 211 160 227 220 166 231 218 163 192 177 118 189 176 123 225 211 162 232 221 176 217 210 168 216 213 170 216 209 163 213 199 150 196 174 124 
235 226 183 220 211 170 228 219 178 214 205 162 223 212 166 222 206 155 193 173 120 195 174 117 197 177 114 191 171 118 224 207 163 224 211 167 213 205 156 211 200 146 216 196 143 198 170 120 
226 219 173 224 216 169 222 210 160 221 209 161 229 221 174 227 219 172 185 175 126 232 219 167 224 215 174 196 181 122 211 210 166 228 220 173 223 214 159 208 204 159 211 190 137 193 178 119 
213 196 152 206 185 138 215 191 143 203 181 132 205 184 137 211 190 143 210 186 138 208 182 131 211 188 144 205 179 118 213 188 132 201 170 113 199 168 103 201 172 114 208 173 117 200 170 106 
223 230 196 223 227 192 227 229 190 227 227 189 229 231 194 228 230 193 229 230 190 235 232 189 237 227 191 230 229 185 233 231 192 229 234 202 218 223 183 234 227 183 227 215 175 195 176 118 
238 226 174 223 208 153 227 211 152 193 174 116 224 207 151 222 205 149 196 176 117 190 169 106 221 212 169 212 210 159 223 203 140 188 171 115 195 177 113 198 170 105 235 221 172 193 174 106 
233 220 178 223 209 164 188 170 122 217 199 151 203 186 140 204 187 141 216 196 146 216 193 143 209 187 138 207 200 148 207 191 139 224 221 180 227 224 173 196 175 118 212 194 144 206 176 103 
224 217 175 201 189 147 233 220 175 202 189 145 232 220 178 214 205 162 231 218 174 195 181 134 225 210 181 222 210 168 214 193 148 216 197 154 229 209 158 210 187 137 225 207 167 192 172 119 
225 218 172 222 214 165 226 216 165 226 216 167 214 208 160 224 217 171 216 208 161 227 217 166 219 197 160 215 195 144 213 201 161 226 214 176 213 200 155 214 201 157 221 197 151 195 173 115 
209 187 140 206 183 133 214 188 137 205 182 132 209 188 141 206 185 140 207 186 139 205 181 133 206 186 136 201 174 105 206 191 134 195 171 111 200 177 109 192 177 118 201 171 107 195 176 107 
