P3
16 16
255
79 77 90 76 74 85 79 76 85 58 55 66 82 78 92 76 72 86 77 76 84 76 75 80 80 77 84 79 73 83 82 73 94 83 76 92 57 56 61 56 56 66 79 76 87 38 34 25 
77 74 83 49 44 51 63 58 65 54 48 58 53 47 59 63 57 69 58 53 60 47 45 48 44 42 43 55 51 52 46 40 52 56 50 60 49 49 49 54 52 63 61 54 70 21 16 13 
80 75 82 49 42 49 30 24 28 29 19 27 36 26 37 36 28 39 22 15 22 37 33 34 36 36 34 39 38 34 39 34 40 39 34 38 21 22 16 77 76 84 48 41 59 29 20 25 
82 76 86 49 44 51 27 20 27 72 65 72 82 74 85 83 75 86 83 78 85 83 78 82 74 73 78 77 75 78 63 58 65 76 72 73 37 37 29 79 76 85 65 56 77 32 21 29 
72 70 83 60 59 67 28 25 32 77 74 83 58 55 66 58 54 68 54 52 63 59 58 66 63 61 75 59 56 67 49 43 57 67 62 68 38 37 32 55 52 61 61 52 71 28 17 23 
63 63 75 56 54 65 33 32 38 80 77 86 49 46 57 61 59 73 48 46 59 42 42 52 45 41 58 50 43 59 50 41 60 60 54 64 38 37 35 76 73 82 55 46 65 27 16 20 
75 72 83 61 58 67 20 18 23 51 46 52 79 73 83 77 74 85 75 72 83 82 79 88 85 79 89 79 72 80 63 54 71 50 44 54 23 22 20 77 74 85 65 58 76 31 22 25 
82 76 86 58 53 59 43 37 39 60 54 58 79 72 80 30 22 33 79 73 83 80 75 82 78 74 73 29 23 23 84 74 85 48 41 49 37 36 34 78 75 86 60 52 73 29 20 23 
81 74 90 61 56 62 35 31 30 53 49 50 76 72 86 23 19 36 77 73 87 61 60 66 60 60 68 23 20 31 60 54 66 53 45 58 26 20 32 78 72 82 51 44 52 31 19 29 
82 75 93 52 47 54 40 36 37 55 50 54 59 55 69 63 59 76 61 57 71 58 55 62 57 58 63 60 57 64 65 58 66 53 45 56 38 32 42 62 57 64 52 45 52 28 17 25 
75 72 79 53 52 50 36 36 28 76 73 68 48 44 45 54 49 53 32 28 27 43 40 35 36 36 38 34 32 35 49 42 49 67 60 68 17 12 19 81 76 83 67 60 67 29 18 26 
83 79 96 64 61 72 38 35 42 60 55 62 62 56 68 59 53 65 70 62 73 49 42 49 57 57 59 69 64 70 48 41 48 47 40 48 32 26 36 79 74 81 51 44 52 28 16 26 
59 57 62 45 43 46 22 20 21 43 39 40 31 27 28 45 41 42 37 31 31 26 21 18 36 34 39 19 14 21 31 21 32 31 23 34 22 16 28 84 78 90 49 41 52 33 21 33 
53 47 59 51 45 57 77 71 85 78 72 86 86 80 94 59 53 67 78 72 84 83 75 88 79 76 83 84 77 85 67 57 68 83 73 84 61 55 65 78 72 82 52 44 55 28 16 26 
35 30 26 50 45 42 55 49 51 52 47 51 60 55 59 46 41 45 67 62 66 61 56 62 48 46 49 50 43 50 55 45 53 45 35 43 58 53 59 51 46 52 51 45 49 44 33 39 
40 35 29 41 36 33 26 20 24 35 28 35 29 24 28 23 18 22 15 10 17 19 16 25 20 16 17 21 15 17 29 20 25 26 17 22 32 28 29 27 23 24 37 31 31 33 23 22 
