P3
16 16
255
157 157 157 157 157 157 152 152 152 152 152 152 156 156 156 138 138 138 141 141 141 153 153 153 153 153 153 151 151 151 142 142 142 155 155 155 150 150 150 144 144 144 151 151 151 112 112 112 
151 151 151 123 123 123 132 132 132 122 122 122 113 113 113 128 128 128 121 121 121 130 130 130 129 129 129 109 109 109 104 104 104 127 127 127 130 130 130 121 121 121 123 123 123 87 87 87 
144 144 144 127 127 127 95 95 95 102 102 102 87 87 87 85 85 85 90 90 90 90 90 90 97 97 97 102 102 102 95 95 95 104 104 104 107 107 107 123 123 123 113 113 113 89 89 89 
130 130 130 114 114 114 91 91 91 152 152 152 159 159 159 154 154 154 142 142 142 137 137 137 159 159 159 153 153 153 135 135 135 156 156 156 96 96 96 138 138 138 112 112 112 92 92 92 
159 159 159 122 122 122 89 89 89 155 155 155 134 134 134 127 127 127 126 126 126 119 119 119 122 122 122 129 129 129 132 132 132 105 105 105 100 100 100 139 139 139 130 130 130 89 89 89 
152 152 152 129 129 129 92 92 92 155 155 155 129 129 129 118 118 118 112 112 112 106 106 106 121 121 121 118 118 118 124 124 124 120 120 120 97 97 97 140 140 140 125 125 125 87 87 87 
137 137 137 111 111 111 84 84 84 135 135 135 127 127 127 126 126 126 85 85 85 88 88 88 90 90 90 136 136 136 128 128 128 111 111 111 96 96 96 151 151 151 118 118 118 92 92 92 
140 140 140 126 126 126 91 91 91 153 153 153 121 121 121 100 100 100 94 94 94 87 87 87 88 88 88 154 154 154 129 129 129 118 118 118 89 89 89 155 155 155 107 107 107 87 87 87 
136 136 136 107 107 107 88 88 88 140 140 140 133 133 133 115 115 115 88 88 88 90 90 90 90 90 90 137 137 137 120 120 120 108 108 108 84 84 84 156 156 156 117 117 117 90 90 90 
158 158 158 108 108 108 99 99 99 135 135 135 121 121 121 122 122 122 137 137 137 155 155 155 137 137 137 140 140 140 123 123 123 109 109 109 92 92 92 153 153 153 120 120 120 87 87 87 
151 151 151 129 129 129 97 97 97 152 152 152 132 132 132 129 129 129 134 134 134 125 125 125 139 139 139 123 123 123 120 120 120 110 110 110 86 86 86 139 139 139 119 119 119 92 92 92 
154 154 154 124 124 124 97 97 97 156 156 156 117 117 117 105 105 105 123 123 123 109 109 109 120 120 120 111 111 111 107 107 107 112 112 112 93 93 93 145 145 145 124 124 124 88 88 88 
156 156 156 128 128 128 110 110 110 101 101 101 102 102 102 93 93 93 90 90 90 88 88 88 84 84 84 90 90 90 85 85 85 100 100 100 101 101 101 134 134 134 123 123 123 88 88 88 
135 135 135 135 135 135 155 155 155 148 148 148 137 137 137 140 140 140 154 154 154 155 155 155 156 156 156 157 157 157 143 143 143 136 136 136 137 137 137 124 124 124 118 118 118 90 90 90 
135 135 135 127 127 127 113 113 113 132 132 132 122 122 122 108 108 108 114 114 114 130 130 130 126 126 126 119 119 119 109 109 109 106 106 106 122 122 122 110 110 110 109 109 109 91 91 91 
108 108 108 88 88 88 91 91 91 90 90 90 86 86 86 90 90 90 92 92 92 87 87 87 87 87 87 91 91 91 92 92 92 88 88 88 89 89 89 86 86 86 89 89 89 87 87 87 
