P3
16 16
255
69 34 41 66 35 41 71 42 47 66 35 41 53 18 25 73 33 42 73 33 42 67 30 38 69 36 43 59 28 34 64 27 35 67 34 41 52 25 30 76 36 45 72 29 39 47 25 28 
78 36 46 64 29 36 63 32 38 62 33 38 54 25 30 63 36 41 51 29 32 41 21 23 51 22 27 48 23 27 57 26 32 59 30 35 39 19 21 66 33 40 63 26 34 33 17 18 
61 34 39 44 22 25 46 26 28 45 25 27 43 21 24 52 27 31 49 24 28 48 26 29 50 28 31 43 23 25 48 23 27 52 30 33 37 23 23 61 34 39 54 23 29 20 12 10 
69 32 40 52 21 27 47 22 26 34 14 16 30 11 13 29 13 14 25 13 13 29 19 18 31 9 12 30 11 13 36 11 15 36 16 18 27 13 13 62 37 41 57 30 35 20 15 12 
43 24 26 29 15 15 32 18 18 29 13 14 53 28 32 63 30 37 61 24 32 58 21 29 63 36 41 42 20 23 48 19 24 60 35 39 34 18 19 38 11 16 35 6 11 24 16 14 
61 28 35 49 20 25 45 23 26 35 13 16 62 37 41 68 39 44 62 31 37 55 26 31 59 28 34 59 32 37 66 35 41 60 33 38 36 17 19 60 31 36 55 24 30 24 14 13 
61 34 39 48 26 29 46 27 29 28 8 10 55 28 33 59 24 31 59 22 30 64 24 33 53 20 27 54 25 30 59 26 33 56 27 32 36 16 18 63 32 38 55 24 30 21 11 10 
69 32 40 55 24 30 51 26 30 30 8 11 56 31 35 52 25 30 54 27 32 62 35 40 63 30 37 63 34 39 69 36 43 63 36 41 37 18 20 57 28 33 52 21 27 24 16 14 
43 24 28 43 16 23 27 15 17 26 17 18 57 32 38 36 13 19 33 21 23 54 31 37 57 32 38 32 16 19 41 18 24 55 30 36 23 13 14 25 15 16 29 14 17 20 16 15 
67 34 43 61 21 32 48 21 28 32 9 15 73 35 46 67 31 41 55 28 35 59 23 33 63 33 41 61 23 34 58 14 27 67 37 45 32 16 19 69 36 45 56 18 29 22 12 13 
59 32 39 52 22 30 51 30 35 22 6 9 52 25 32 50 23 30 38 17 22 37 10 17 36 15 20 42 15 22 55 19 29 47 26 31 26 16 17 59 32 39 58 27 35 20 16 15 
63 30 39 49 18 26 45 22 28 34 13 18 59 32 39 62 32 40 52 25 32 49 22 29 62 32 40 60 39 44 67 37 45 68 37 45 31 10 15 48 25 31 44 17 24 30 11 15 
49 26 32 38 23 26 28 16 18 29 17 19 29 17 19 33 17 20 33 17 20 31 19 21 27 11 14 16 7 8 34 18 21 29 10 14 22 13 14 29 19 20 40 24 27 20 14 14 
64 20 33 63 32 40 56 25 33 58 25 34 40 13 20 54 21 30 68 30 41 69 39 47 66 39 46 74 38 48 70 28 40 66 36 44 35 16 20 70 32 43 58 16 28 28 13 16 
68 32 42 51 32 36 46 23 29 45 20 26 31 15 18 49 26 32 54 24 32 43 24 28 42 23 27 49 22 29 58 25 34 44 23 28 26 17 18 51 24 31 52 21 29 22 18 17 
51 20 28 26 14 16 39 20 24 36 15 20 22 12 13 35 19 22 39 12 19 30 18 20 39 16 22 30 15 18 38 17 22 35 12 18 24 12 14 31 19 21 34 18 21 19 13 13 
