P3
16 16
255
36 36 36 35 35 35 37 37 37 36 36 36 34 34 34 36 36 36 37 37 37 34 34 34 33 32 37 36 35 40 36 36 38 36 36 38 37 37 39 36 36 36 34 34 34 35 35 35 
58 58 58 62 62 62 73 73 73 79 79 79 76 76 76 76 76 76 74 74 74 67 67 67 80 80 82 78 78 80 78 78 80 75 75 77 72 72 74 70 70 70 59 59 59 42 42 42 
51 51 51 55 55 55 68 68 68 76 76 76 71 71 71 70 70 70 69 69 69 60 60 60 74 74 76 73 73 75 73 73 75 68 68 70 64 64 66 66 66 66 55 55 55 32 32 32 
50 50 50 43 43 43 45 45 45 47 47 47 44 44 44 53 53 53 66 66 66 66 66 66 66 66 68 67 67 69 58 58 60 44 44 44 41 41 41 46 46 46 47 47 47 43 43 43 
43 43 43 35 35 35 34 34 34 36 36 36 37 37 37 49 49 49 63 63 63 66 66 66 61 61 61 65 65 65 53 53 53 39 39 39 38 38 38 36 36 36 36 36 36 45 45 45 
43 43 43 38 38 38 34 34 34 34 34 34 36 36 36 44 44 44 54 54 54 60 60 60 58 58 58 57 57 57 43 43 43 34 34 34 38 38 38 36 36 36 35 35 35 47 47 47 
77 77 77 85 85 85 89 89 89 87 87 87 78 78 78 57 57 57 38 38 38 32 32 32 31 31 29 39 39 37 56 56 56 76 76 76 89 89 89 90 90 90 84 84 84 79 79 81 
44 44 44 54 54 54 57 57 57 55 55 55 54 54 54 42 42 42 34 34 34 39 39 39 39 39 37 33 33 31 45 45 43 56 56 56 53 53 53 55 55 55 55 55 55 42 42 44 
35 35 35 58 58 58 64 64 66 76 76 78 80 80 82 52 52 54 33 33 33 37 37 37 36 36 34 38 38 36 44 44 44 74 74 76 77 77 79 65 65 65 54 54 52 36 36 34 
46 46 46 62 62 62 77 77 79 75 75 77 63 63 65 49 49 51 48 48 48 43 43 43 42 42 40 47 47 47 54 54 54 73 73 75 75 75 77 56 56 56 64 64 64 42 42 40 
35 35 35 48 48 48 74 74 76 79 79 81 74 74 76 54 54 56 45 45 45 44 44 44 49 49 49 42 42 42 56 56 58 67 67 69 78 78 80 41 41 43 64 64 64 41 41 41 
38 38 38 35 35 35 71 71 73 78 78 80 67 67 69 64 64 66 81 81 81 88 88 88 86 86 88 79 79 81 67 67 69 84 84 86 63 63 65 59 59 61 52 52 54 28 28 30 
36 36 36 51 51 51 65 65 67 62 62 64 75 75 77 73 73 75 61 61 61 64 64 64 77 77 79 75 75 77 77 77 79 61 61 63 56 56 58 80 80 82 75 75 77 38 38 40 
57 57 57 56 56 56 60 60 62 67 67 69 77 77 79 82 82 84 74 74 74 70 70 70 57 57 59 62 62 64 67 67 67 57 57 57 42 42 42 77 77 77 60 60 62 36 36 38 
36 36 36 50 50 50 45 45 47 51 51 53 48 48 50 42 42 44 38 38 38 56 56 56 50 50 52 44 44 44 59 59 59 52 52 50 51 51 49 54 54 54 48 48 48 38 38 40 
32 32 32 41 41 41 32 32 34 40 40 42 31 31 33 39 39 41 38 38 38 35 35 35 39 39 41 35 35 35 33 33 31 39 39 37 30 30 28 38 38 36 35 35 35 35 35 37 
