P3
16 16
255
223 220 211 236 233 224 240 237 230 236 231 225 241 234 228 226 219 213 240 231 224 236 227 220 238 229 220 239 230 223 217 210 204 234 229 225 231 228 223 237 234 227 240 236 227 220 216 205 
221 217 206 237 233 224 239 235 226 237 232 226 234 227 221 222 215 207 234 227 219 238 229 220 234 225 216 237 230 222 221 216 210 240 235 231 235 230 226 238 233 227 240 236 227 226 219 209 
221 215 203 236 229 219 234 227 217 237 230 220 236 229 219 230 223 213 230 223 213 229 223 211 217 211 199 223 219 208 218 214 205 239 234 228 237 232 226 240 236 227 238 231 221 221 215 203 
224 216 203 237 229 218 234 226 215 230 223 213 235 228 218 233 227 215 227 223 211 220 217 202 225 221 209 238 234 222 240 236 225 245 241 232 233 229 220 236 229 219 237 231 219 226 220 208 
222 214 201 237 229 218 237 229 218 220 213 203 230 223 213 226 222 210 229 225 213 224 221 206 221 219 206 226 222 210 225 221 210 222 218 207 220 213 203 233 226 216 236 230 218 227 221 209 
224 218 206 236 229 219 240 233 223 225 221 210 244 240 229 241 237 226 240 236 225 235 231 219 241 239 227 237 233 222 234 230 219 229 222 212 226 219 209 236 229 219 229 225 214 218 214 203 
219 215 204 226 222 213 226 222 213 222 217 211 241 236 230 237 233 224 226 223 214 225 223 211 219 215 204 219 215 204 234 227 217 231 224 214 221 214 204 220 216 205 220 216 205 224 222 210 
243 240 231 245 242 233 237 234 227 234 231 224 241 238 231 235 232 225 225 222 213 238 235 226 239 235 226 226 219 211 234 227 217 238 231 221 239 232 222 240 236 225 236 233 224 241 238 229 
239 237 225 240 237 230 234 229 226 241 233 230 231 224 216 233 226 216 223 219 208 237 233 224 236 227 218 229 222 214 238 234 225 242 239 230 235 232 223 241 238 229 235 231 220 240 236 225 
216 214 199 228 226 214 226 222 213 228 221 213 235 229 217 236 230 216 222 219 204 225 221 209 227 220 210 229 222 212 239 235 226 238 235 226 222 219 210 223 220 211 221 217 208 229 225 214 
220 217 208 241 238 233 238 233 230 226 218 216 239 232 226 240 236 227 236 231 225 239 234 230 242 238 226 237 233 222 233 230 221 231 228 219 229 226 219 242 239 230 236 233 224 226 222 213 
221 220 200 243 240 223 237 233 221 221 215 203 225 219 203 227 224 205 226 223 206 221 219 204 219 215 203 227 225 213 225 223 211 220 217 208 219 216 209 239 236 229 239 236 227 220 217 208 
225 222 213 239 234 230 239 233 233 242 234 232 242 234 231 244 239 233 239 234 230 221 217 214 224 222 209 240 238 226 242 239 230 244 240 231 235 230 224 241 237 228 238 235 226 218 215 206 
228 225 206 235 232 217 234 230 219 240 233 223 230 224 210 227 224 209 228 226 211 214 212 199 218 216 204 221 218 209 218 214 205 237 233 224 242 235 227 239 235 226 238 234 223 221 217 206 
220 216 207 231 226 222 236 228 226 236 228 226 233 225 222 227 222 216 244 241 236 246 242 239 239 236 227 238 234 225 227 220 214 241 234 228 238 229 222 230 223 213 235 228 218 223 217 205 
223 219 207 238 234 225 243 235 232 238 230 227 245 238 230 226 222 213 237 234 225 237 234 229 239 234 228 241 236 230 225 218 212 237 228 223 235 226 219 235 226 217 239 233 221 220 214 200 
