P3
16 16
255
127 90 121 89 49 84 90 49 91 75 34 76 85 44 84 87 46 86 89 48 88 131 90 132 104 66 103 128 91 125 92 57 90 83 49 84 148 114 151 147 115 152 138 107 139 123 93 121 
89 53 89 128 92 130 86 48 87 58 20 59 66 28 65 74 37 71 84 47 81 83 45 82 102 69 100 85 52 83 122 89 120 153 118 151 82 46 84 84 48 86 85 47 84 88 51 85 
89 54 94 145 111 148 91 55 93 61 23 60 60 23 57 81 46 79 83 48 80 90 55 87 122 91 122 88 55 86 68 35 66 79 44 77 77 39 76 65 24 64 70 27 70 90 47 90 
83 48 88 150 114 152 71 33 70 57 17 54 69 28 68 70 32 71 132 96 132 145 110 143 145 109 145 69 33 71 79 41 80 60 22 61 64 24 61 61 21 58 60 19 59 91 50 94 
129 91 130 84 47 81 74 32 68 77 35 75 60 17 63 62 20 66 91 53 94 123 88 121 92 52 89 87 46 88 51 9 55 64 23 67 67 29 68 60 25 58 71 37 72 126 94 133 
86 46 81 84 44 79 74 32 68 71 26 69 99 55 104 65 26 70 93 60 89 121 92 110 81 48 69 92 55 88 87 48 92 63 24 69 66 30 68 86 53 84 89 60 91 117 90 123 
86 48 85 95 58 92 84 44 79 87 46 88 83 44 88 89 55 88 76 53 61 170 153 143 155 135 128 117 91 102 139 108 139 127 93 130 129 93 129 146 113 142 123 92 123 84 53 87 
102 68 103 99 64 97 92 55 89 87 49 88 147 113 150 137 112 133 169 155 144 228 222 188 207 201 169 163 149 140 84 61 79 145 114 146 145 110 143 125 90 120 101 66 98 105 69 105 
89 54 94 129 93 129 144 109 141 148 112 148 125 91 126 81 54 73 160 141 134 207 193 164 164 157 115 156 139 119 78 46 67 94 51 97 95 50 93 90 48 88 87 50 93 89 58 92 
121 85 123 89 54 87 87 50 84 82 44 83 73 36 77 70 39 70 61 35 46 173 154 147 156 139 119 89 63 76 67 32 62 89 49 86 91 47 98 71 30 70 84 50 77 88 53 95 
94 56 95 87 49 86 72 32 67 67 26 66 66 27 72 62 25 68 67 36 68 85 57 79 118 89 109 85 52 81 65 28 71 67 28 75 72 31 71 63 26 60 93 55 92 100 64 100 
90 49 91 97 56 96 61 21 58 62 21 61 57 15 61 73 34 79 88 51 94 147 113 148 91 52 97 88 50 87 69 30 77 53 14 61 71 37 64 67 30 61 82 44 85 130 93 127 
84 43 87 72 31 73 77 37 74 64 24 61 74 33 73 70 32 71 148 110 149 122 86 122 87 44 87 69 27 77 54 16 55 58 23 53 68 32 70 89 54 87 145 108 139 84 45 90 
93 55 96 86 48 87 72 34 73 71 33 70 84 47 81 79 42 76 129 92 125 104 67 101 94 54 91 87 46 86 70 33 67 68 31 64 85 47 84 129 91 128 144 108 144 95 59 97 
86 51 84 90 54 90 88 52 90 147 111 147 146 111 144 92 57 89 81 46 78 92 57 90 102 65 106 86 52 77 66 28 65 96 54 100 89 49 83 82 44 83 93 56 100 140 107 134 
146 113 140 144 111 142 125 91 128 83 49 86 85 51 86 122 88 121 150 114 150 80 44 82 124 93 125 91 56 96 92 54 93 83 41 81 92 48 99 96 57 101 89 56 85 142 112 140 
