P3
16 16
255
142 142 142 144 144 144 141 141 141 143 143 143 126 126 126 118 118 118 117 117 117 126 126 126 117 117 115 102 102 102 118 118 120 114 114 116 130 130 132 123 123 125 130 130 130 127 127 125 
127 127 127 126 126 126 119 119 119 128 128 128 116 116 116 121 121 121 94 94 94 93 93 93 92 92 90 128 128 128 128 128 128 106 106 108 102 102 104 91 91 91 128 128 128 114 114 112 
125 125 125 116 116 116 100 100 100 100 100 100 119 119 119 97 97 97 35 35 35 58 58 58 54 54 52 87 87 87 116 116 116 128 128 128 44 44 44 53 53 53 129 129 129 128 128 126 
129 129 129 91 91 91 115 115 115 123 123 123 122 122 122 43 43 43 58 58 58 55 55 55 72 72 72 48 48 48 39 39 39 127 127 127 130 130 130 116 116 116 117 117 117 110 110 110 
112 112 112 44 44 44 57 57 57 112 112 112 117 117 117 117 117 117 96 96 96 44 44 44 37 37 37 32 32 32 94 94 92 115 115 113 112 112 110 116 116 114 128 128 128 132 132 132 
128 128 128 137 137 137 147 147 147 123 123 123 116 116 116 134 134 134 135 135 135 144 144 144 148 148 148 113 113 113 115 115 113 92 92 90 95 95 93 105 105 103 115 115 115 137 137 137 
120 120 120 145 145 145 125 125 125 117 117 117 93 93 93 113 113 113 120 120 120 118 118 118 121 121 121 125 125 125 56 56 54 47 48 43 59 60 55 88 88 86 127 127 127 132 132 132 
113 113 113 93 93 93 114 114 114 96 96 96 32 32 32 59 59 59 47 47 47 90 90 90 128 128 128 126 126 124 91 91 89 58 59 54 73 74 69 128 128 126 144 144 142 141 141 141 
144 144 144 113 113 113 129 129 127 36 36 34 61 61 59 75 75 73 51 51 51 44 44 44 126 126 126 116 116 116 128 128 128 118 118 118 117 117 117 113 113 113 128 128 128 116 116 116 
123 123 123 147 147 147 121 121 119 90 90 88 40 40 38 51 51 49 92 92 92 116 116 116 115 115 115 146 146 146 141 141 141 127 127 127 125 125 125 92 92 92 97 97 97 122 122 122 
102 102 102 126 126 126 135 135 133 120 120 118 97 97 95 94 94 92 130 130 130 117 117 117 129 129 129 115 115 115 111 111 111 121 121 121 95 95 95 35 35 35 56 56 56 106 106 106 
130 130 130 123 123 123 100 100 98 88 88 86 111 111 109 89 89 87 129 129 129 125 125 125 115 115 115 126 126 126 92 92 92 90 90 90 116 116 116 117 117 117 117 117 117 115 115 115 
125 125 125 93 93 93 34 34 32 75 75 73 55 55 53 42 42 40 32 32 32 144 144 144 145 145 145 93 93 93 73 73 73 58 58 58 34 34 34 116 116 116 103 103 103 106 106 106 
143 143 143 119 119 119 92 92 90 54 54 52 39 39 37 93 93 91 115 115 115 118 118 118 116 116 116 95 95 95 48 48 48 43 43 43 93 93 93 114 114 114 121 121 121 124 124 124 
128 128 128 112 112 112 120 120 118 115 115 113 126 126 124 130 130 128 56 56 56 41 41 41 126 126 126 124 124 124 96 96 96 128 128 128 125 125 125 129 129 129 138 138 138 144 144 144 
128 128 128 126 126 126 117 117 115 114 114 112 118 118 116 123 123 121 141 141 141 120 120 120 128 128 128 141 141 141 145 145 145 123 123 123 131 131 131 114 114 114 127 127 127 129 129 129 
