P3
16 16
255
182 133 92 152 110 70 141 101 75 121 94 67 117 82 63 184 133 88 80 65 58 143 107 75 93 68 46 116 81 61 47 34 17 124 85 56 68 45 31 191 139 92 97 66 48 179 135 98 
126 88 52 140 103 76 89 59 31 121 77 50 115 85 57 150 94 57 100 97 90 97 63 38 114 80 55 190 141 101 84 62 48 121 84 55 150 118 93 145 104 76 93 67 44 97 61 35 
179 135 96 77 60 50 124 82 44 63 46 39 151 106 65 96 67 51 62 45 27 118 83 55 107 71 47 61 48 31 92 57 38 122 86 54 88 62 39 104 54 27 176 131 89 126 85 57 
149 105 68 109 100 85 180 135 106 78 61 43 153 106 78 89 65 41 91 68 54 152 111 79 129 86 54 111 84 57 123 90 71 149 112 83 114 83 55 96 74 61 163 112 67 106 84 70 
156 110 74 74 57 37 138 94 65 135 109 82 88 53 33 138 105 74 93 66 47 128 84 47 144 109 79 85 53 32 108 68 32 120 109 103 124 79 46 140 106 78 62 44 34 119 85 57 
110 84 61 66 44 30 161 109 62 158 105 71 126 90 56 160 110 77 70 48 25 81 54 35 83 61 38 121 83 62 117 93 67 108 90 80 114 64 29 115 88 59 112 71 49 112 73 40 
182 135 93 130 85 52 122 86 52 114 81 62 75 90 97 126 76 43 114 83 55 187 137 100 188 136 96 111 80 59 138 94 59 172 136 110 105 73 48 142 107 79 122 86 60 111 84 63 
96 69 48 117 93 69 194 124 73 107 77 49 108 81 70 135 95 59 115 79 53 63 49 38 150 109 79 97 61 25 128 91 72 122 83 50 125 85 50 130 86 59 155 108 64 150 106 77 
134 96 59 115 88 71 86 53 34 111 81 53 111 91 67 105 82 68 123 87 65 70 44 17 88 69 55 131 91 55 155 110 71 100 63 37 122 91 70 117 84 51 95 60 28 64 44 35 
108 84 60 155 106 73 70 44 29 128 88 52 77 42 10 89 58 38 98 56 31 112 86 61 124 88 52 125 80 49 117 82 62 164 125 92 183 131 84 173 132 102 75 49 32 109 83 60 
66 49 33 165 113 76 121 81 55 167 136 107 184 128 79 92 56 32 182 133 100 143 115 91 56 52 41 146 106 80 196 129 86 140 114 91 109 87 63 84 57 36 104 102 105 123 80 46 
115 94 75 125 79 43 122 85 58 152 111 79 146 111 83 167 113 69 106 67 38 99 63 31 101 102 106 153 106 64 122 88 61 66 44 31 89 61 40 91 69 45 121 91 63 90 64 51 
121 86 58 80 50 24 153 110 75 109 86 68 110 78 53 124 90 63 185 134 91 123 88 60 80 58 44 122 86 52 102 74 52 125 81 54 130 85 52 98 65 32 177 130 88 154 110 83 
124 85 56 121 81 46 68 52 36 108 67 37 88 70 58 112 90 69 158 110 70 140 105 83 100 64 28 51 34 26 165 129 107 82 57 35 122 88 53 191 129 80 118 81 55 119 84 54 
151 107 78 124 90 55 67 46 25 183 145 122 100 58 33 45 37 26 123 88 56 90 59 41 82 79 70 159 114 85 136 85 54 122 96 73 60 45 26 73 50 34 141 106 84 141 107 79 
152 108 81 121 88 55 109 83 58 149 105 76 127 81 48 87 67 43 138 132 120 121 89 68 85 57 36 161 107 61 124 83 51 118 87 69 125 86 57 105 79 52 68 50 28 97 59 36 
