P3
16 16
255
75 74 80 77 76 82 52 51 57 106 105 110 62 61 66 76 75 80 63 62 67 105 105 107 125 125 125 120 120 120 73 73 73 94 94 94 72 72 72 107 107 105 90 90 88 88 88 86 
77 76 81 57 56 61 56 55 60 90 89 94 77 76 81 60 60 62 57 57 59 118 118 120 99 98 103 80 79 84 65 64 69 74 73 78 63 63 65 101 101 103 91 91 93 75 75 77 
55 54 59 59 58 63 46 46 48 62 62 64 64 64 66 54 54 56 53 53 55 106 106 108 76 75 83 61 60 66 54 53 59 68 67 73 50 49 55 94 93 99 65 64 70 63 62 68 
63 63 65 74 74 76 126 126 128 107 107 109 88 88 90 88 88 90 76 76 78 84 84 86 74 73 79 55 54 60 59 58 64 53 52 58 51 50 56 62 61 67 51 50 56 66 65 71 
120 120 122 125 125 127 105 105 107 90 90 92 75 75 77 79 79 81 53 53 55 65 65 67 64 64 66 51 51 53 58 58 60 51 51 53 92 92 94 128 128 130 118 118 120 77 76 81 
105 105 107 89 89 91 104 104 106 74 74 76 76 76 78 60 60 62 46 45 50 78 77 82 94 94 94 118 118 118 102 102 102 75 75 75 119 119 119 122 122 124 88 88 90 66 66 68 
105 105 107 97 97 99 74 74 76 59 58 63 68 67 72 57 56 61 55 54 59 105 104 109 119 119 119 77 77 77 88 88 90 70 70 72 104 104 106 71 71 73 79 79 81 61 60 65 
78 78 80 56 55 60 55 54 59 58 57 62 58 57 62 54 53 59 61 60 66 106 105 111 91 91 93 73 73 75 77 76 81 48 47 52 91 90 95 78 77 82 72 71 77 55 54 60 
121 121 119 122 122 122 105 105 107 59 58 63 80 79 85 87 86 91 75 75 77 92 92 92 74 73 79 66 65 71 75 74 80 53 52 58 62 61 66 68 67 72 64 63 68 50 50 52 
103 103 101 91 91 91 94 94 96 71 70 76 70 69 75 78 77 82 90 90 92 87 87 87 63 62 68 73 72 78 67 66 72 49 48 53 57 56 61 52 51 56 87 86 91 94 93 98 
107 107 107 79 79 81 66 65 70 54 53 59 64 63 69 71 70 75 70 69 74 73 73 75 77 76 81 65 64 69 91 90 95 120 119 124 104 103 108 75 74 79 75 74 79 86 85 91 
89 89 91 74 73 78 66 65 70 55 54 60 60 59 65 53 52 58 43 42 47 68 68 70 63 63 65 62 62 64 116 116 118 81 80 85 75 74 79 51 50 55 73 72 78 77 76 82 
89 88 93 68 67 72 71 70 75 60 59 65 60 59 65 59 58 63 108 107 112 124 123 128 120 120 122 68 68 70 92 92 94 73 72 77 76 75 80 49 48 53 78 77 83 61 60 66 
65 64 69 51 50 55 65 64 69 80 79 84 88 87 92 60 59 64 119 119 121 89 89 91 104 104 106 74 74 76 72 72 74 56 55 60 47 46 51 67 66 71 67 66 71 54 53 58 
61 60 65 53 52 57 76 75 80 123 123 125 120 120 122 73 73 75 105 105 107 89 89 91 76 75 80 90 89 94 77 76 81 48 47 52 70 70 72 92 92 94 68 68 70 73 73 75 
93 92 97 52 51 56 63 63 65 125 125 127 88 88 88 49 49 49 55 55 55 76 76 76 61 60 65 66 65 70 51 50 55 91 90 95 88 88 90 120 120 122 128 128 130 106 106 106 
