P3
16 16
255
199 200 204 254 255 255 251 252 254 254 255 255 254 255 255 255 255 255 254 254 254 255 255 255 255 255 253 255 255 255 255 255 255 254 255 255 250 251 253 251 252 254 252 255 255 198 202 203 
255 255 255 253 254 255 254 255 255 254 255 255 254 255 255 252 253 255 204 206 205 233 235 234 255 255 255 232 232 232 201 203 202 253 255 254 254 255 255 254 255 255 252 253 255 252 253 255 
255 255 255 255 255 255 234 234 236 195 196 198 254 255 255 207 208 210 251 255 255 249 253 254 253 254 255 253 254 255 254 255 255 253 255 254 253 255 254 248 250 249 255 255 255 255 255 255 
255 255 255 249 249 249 253 253 253 239 240 242 251 252 254 249 253 254 252 255 255 252 255 255 202 206 207 250 254 255 253 254 255 254 255 255 236 238 237 255 255 255 251 251 251 255 255 253 
255 255 255 251 253 252 254 255 255 197 198 200 254 255 255 252 255 255 248 252 255 197 201 204 250 254 255 234 238 239 252 253 255 230 231 233 251 253 252 252 252 252 255 255 255 255 255 253 
247 249 248 254 255 255 201 202 204 254 255 255 253 254 255 234 235 237 254 255 255 254 255 255 254 255 255 251 252 254 231 232 234 254 255 255 250 252 251 254 255 255 232 232 232 249 249 249 
251 255 255 250 254 255 222 226 227 251 255 255 202 203 205 252 253 255 254 255 255 231 233 232 254 254 254 249 249 249 254 255 255 230 232 231 254 255 255 254 255 255 200 201 203 254 255 255 
200 205 208 222 227 230 232 238 238 252 255 255 231 232 234 254 255 255 255 255 255 254 254 254 230 230 228 255 255 255 252 252 252 254 255 255 253 254 255 254 255 255 249 253 254 199 203 204 
248 252 255 205 206 210 254 255 255 253 254 255 254 255 255 254 255 255 254 255 255 233 235 234 254 255 255 254 255 255 232 233 235 230 234 235 197 201 202 231 235 236 249 253 254 202 206 207 
254 255 255 251 252 254 198 199 201 254 255 255 247 248 250 204 205 207 229 231 230 252 254 253 254 255 255 199 200 202 252 253 255 251 252 254 252 255 255 252 255 255 247 251 252 229 233 234 
255 255 255 249 249 249 254 255 255 254 255 255 253 254 255 227 231 232 252 255 255 252 255 255 253 254 255 252 253 255 254 255 255 253 254 255 248 249 251 252 255 255 234 238 239 251 255 255 
251 251 251 255 255 255 255 255 255 229 230 232 254 255 255 248 252 253 252 255 255 228 233 236 254 255 255 205 206 208 247 248 250 254 255 255 254 255 255 254 255 255 200 201 203 254 255 255 
255 255 255 253 253 253 252 252 252 208 209 211 231 232 234 252 255 255 197 201 204 228 233 236 200 201 203 254 255 255 254 255 255 249 250 252 232 233 235 199 200 202 249 250 252 254 255 255 
254 254 254 255 255 255 254 255 255 251 252 254 254 255 255 251 255 255 231 235 236 250 254 255 254 255 255 249 250 252 205 206 208 231 232 234 254 255 255 228 229 231 254 255 255 255 255 255 
254 255 255 252 253 255 254 255 255 254 255 255 251 252 254 254 255 255 199 201 200 235 237 236 230 231 233 197 198 200 254 255 255 254 255 255 254 255 255 255 255 255 252 252 254 252 252 254 
198 202 205 254 255 255 252 253 255 254 255 255 253 254 255 254 255 255 252 254 253 253 255 254 253 254 255 254 255 255 250 251 253 254 255 255 254 254 255 250 250 252 255 255 255 203 203 205 
