P3
16 16
255
102 102 32 111 109 58 113 116 49 99 106 39 255 251 255 254 255 250 253 254 248 255 253 255 254 251 255 254 255 255 249 255 243 254 255 255 255 253 255 255 254 248 185 193 94 155 163 77 
113 109 62 181 184 95 169 175 79 115 120 54 253 249 246 255 252 255 255 253 255 255 253 250 255 254 255 253 253 253 254 255 244 249 250 254 255 254 251 175 182 86 163 171 70 116 122 52 
120 117 50 168 171 82 137 142 48 106 106 52 255 253 255 255 251 242 177 188 84 160 169 78 112 122 36 252 249 255 255 255 243 255 251 255 178 189 85 163 167 82 141 143 80 255 249 249 
98 97 43 116 115 71 110 116 44 95 98 41 255 254 255 255 251 252 165 178 73 255 250 254 255 253 255 252 249 255 255 255 246 255 249 255 159 166 70 143 147 60 113 117 30 255 252 255 
255 255 250 253 252 250 255 255 253 255 253 255 252 250 255 255 254 255 128 141 51 255 253 255 255 252 255 255 255 243 251 248 255 102 105 50 138 143 53 117 116 51 110 108 57 255 248 255 
255 254 255 254 255 250 254 255 251 253 254 255 254 255 246 255 255 255 110 122 48 253 251 255 255 255 255 254 254 254 254 251 255 119 122 67 184 190 84 162 165 74 113 116 47 255 252 255 
253 253 253 253 254 255 253 255 252 252 255 248 255 255 251 255 253 255 107 113 53 255 253 255 251 252 255 252 254 253 255 255 250 106 112 40 186 188 104 167 170 79 110 113 42 255 255 250 
255 255 246 254 254 255 255 253 255 253 250 255 255 253 254 255 254 253 97 100 47 255 254 244 254 255 244 254 255 255 254 251 255 111 117 47 163 165 82 142 143 63 111 116 49 255 251 255 
255 255 255 255 255 255 255 255 255 255 255 255 255 255 255 255 255 255 255 255 255 255 255 255 255 254 255 255 255 250 254 255 234 96 102 54 108 114 52 110 115 57 96 97 63 255 254 241 
255 255 255 255 255 255 255 255 255 255 255 255 255 255 255 255 255 255 255 255 255 255 255 255 254 254 254 255 253 255 255 253 255 250 248 251 255 255 246 254 255 241 255 254 247 255 254 255 
255 255 255 255 255 255 255 255 255 255 255 255 255 255 255 255 255 255 255 255 255 255 255 255 253 255 242 255 255 255 255 253 255 255 253 255 253 252 255 255 254 255 252 250 251 255 254 255 
255 255 255 255 255 255 255 255 255 255 255 255 255 255 255 255 255 255 255 255 255 255 255 255 255 255 246 253 254 248 253 253 251 255 255 251 255 255 250 255 255 250 255 255 253 251 250 255 
255 255 255 255 255 255 255 255 255 255 255 255 255 255 255 255 255 255 255 255 255 255 255 255 255 254 255 254 253 255 255 255 255 255 255 251 253 254 248 244 245 240 255 254 255 250 250 255 
255 255 255 255 255 255 255 255 255 255 255 255 255 255 255 255 255 255 255 255 255 255 255 255 255 254 255 254 253 255 255 254 255 251 250 255 255 255 255 255 255 255 249 251 250 254 255 255 
255 255 255 255 255 255 255 255 255 255 255 255 255 255 255 255 255 255 255 255 255 255 255 255 255 255 251 255 255 251 255 255 253 255 255 255 251 251 253 253 253 253 255 255 250 255 255 246 
255 255 255 255 255 255 255 255 255 255 255 255 255 255 255 255 255 255 255 255 255 255 255 255 255 254 255 254 253 251 255 255 251 254 253 251 255 255 255 255 254 255 254 253 255 254 254 255 
