P3
16 16
255
87 32 2 124 56 19 136 61 21 105 40 2 102 47 6 135 60 21 81 26 5 252 251 255 251 253 248 254 255 255 255 254 248 241 255 255 250 255 255 252 255 250 227 172 131 196 147 80 
139 51 15 143 94 27 172 118 48 210 154 93 174 114 51 149 86 17 128 70 30 255 253 246 255 254 255 255 254 252 249 253 255 255 251 255 255 249 246 220 172 106 210 140 81 102 51 22 
105 42 7 185 112 57 199 144 80 207 145 98 205 140 82 190 109 46 93 51 13 255 248 255 255 254 249 254 255 253 248 254 252 255 255 255 223 178 145 204 148 63 150 85 27 255 254 255 
96 52 13 199 152 82 219 138 82 228 166 119 200 145 80 202 153 74 100 44 9 255 253 255 253 255 250 250 253 255 255 255 243 253 255 232 194 144 95 150 90 30 109 40 0 246 255 254 
106 42 4 191 112 46 202 143 75 213 141 93 208 145 76 172 113 35 91 51 2 89 19 19 97 51 15 102 38 11 104 51 20 100 55 0 93 48 9 110 48 9 81 24 17 249 255 255 
131 62 29 139 91 19 178 118 56 194 140 93 181 113 52 147 90 23 134 66 27 100 46 10 179 120 62 160 84 34 185 108 56 152 91 34 200 140 88 198 142 81 113 47 15 255 249 247 
75 30 7 130 59 17 106 48 10 105 50 20 131 63 24 135 54 27 82 22 0 108 46 0 188 115 38 179 115 44 219 145 74 138 82 31 191 117 56 197 154 85 96 43 0 252 254 255 
255 253 255 255 255 240 255 255 250 249 250 252 255 255 246 251 255 255 255 249 253 92 51 21 183 114 55 202 148 86 225 180 123 153 88 30 190 110 59 181 111 39 105 51 13 250 253 255 
254 255 255 252 255 253 255 249 253 247 255 255 254 255 250 251 255 255 242 255 255 108 45 4 189 120 53 201 142 72 223 183 124 210 141 74 179 113 55 199 138 81 138 69 14 250 252 255 
254 255 255 244 249 245 255 251 255 251 255 255 244 244 236 255 254 255 252 255 255 131 60 16 184 111 60 206 137 82 230 176 129 192 121 59 183 114 57 211 145 87 124 53 0 254 255 255 
251 253 252 252 255 255 255 246 249 251 255 255 255 255 248 255 253 251 255 252 244 131 58 13 182 117 59 186 117 58 200 143 90 177 112 44 183 122 59 205 141 80 129 66 12 252 255 253 
255 255 253 254 255 255 255 254 253 247 252 255 255 254 252 255 250 248 255 252 248 124 64 27 182 122 52 147 77 8 183 119 58 155 92 21 201 141 78 203 136 84 126 63 22 255 253 250 
255 254 251 253 253 253 252 251 247 251 255 255 250 251 255 255 254 255 255 253 255 65 30 10 123 63 11 137 67 18 127 60 15 125 63 12 126 65 18 128 60 25 88 26 1 255 248 247 
255 253 252 255 254 255 255 255 250 252 255 255 252 255 255 248 252 255 255 254 255 255 253 244 254 248 252 255 251 255 254 248 252 255 254 251 255 251 247 255 251 252 255 254 255 241 255 255 
255 254 255 255 254 255 252 254 243 255 255 255 251 252 255 254 254 252 255 252 255 252 255 253 255 254 255 251 255 255 248 255 255 252 255 255 255 255 251 251 255 249 245 254 249 254 255 251 
248 251 255 254 254 255 254 255 246 253 249 246 255 254 255 255 255 248 255 252 255 248 255 254 255 252 249 249 255 255 249 255 255 254 253 255 255 253 255 254 255 255 252 255 255 255 246 248 
