P3
16 16
255
179 119 65 171 111 57 176 115 61 181 120 66 177 117 65 175 117 67 168 112 63 165 111 64 177 115 56 181 122 54 179 121 57 166 108 60 166 109 64 176 120 69 172 119 69 164 109 70 
133 84 44 136 87 47 126 77 37 139 90 49 136 87 47 137 89 51 116 71 32 131 85 49 134 87 59 132 86 52 132 88 53 118 73 40 118 74 37 132 90 42 132 88 39 133 89 42 
136 92 47 116 69 25 134 87 41 131 84 38 115 69 20 124 78 29 138 94 47 117 73 26 141 90 43 121 70 27 120 71 30 124 73 28 134 83 38 140 87 47 125 70 31 125 71 25 
84 44 18 94 54 28 93 52 24 89 48 18 87 46 14 90 47 15 79 36 2 85 42 8 76 39 0 82 43 14 90 53 24 88 53 15 82 47 9 80 43 16 80 43 16 89 54 14 
55 35 10 40 20 0 41 21 0 58 37 10 65 44 15 67 44 13 69 46 14 86 63 31 119 87 28 94 61 16 73 41 3 86 58 18 75 48 18 41 13 1 45 18 11 61 35 20 
126 74 35 137 85 46 163 111 72 163 111 72 166 114 74 137 84 42 141 88 44 165 111 67 167 108 64 160 102 62 130 77 37 140 92 44 156 110 61 154 110 63 158 116 68 133 92 38 
115 70 28 125 82 40 125 82 40 126 84 42 132 90 48 133 90 48 115 72 29 119 75 30 124 72 32 139 91 45 133 86 42 137 89 51 131 86 47 121 76 34 131 86 44 122 74 36 
85 43 5 78 38 2 89 49 14 80 41 8 85 46 13 81 42 9 85 45 10 82 39 5 77 40 13 83 48 10 76 40 4 81 44 18 83 43 18 79 39 3 88 44 9 83 37 11 
70 48 35 43 22 5 35 15 0 60 39 8 81 57 21 76 48 9 75 46 6 92 60 19 56 38 0 59 41 3 75 55 20 66 42 14 64 40 16 41 19 0 41 20 3 56 37 22 
130 83 37 120 73 27 138 91 45 162 115 69 162 114 68 163 112 67 167 116 71 162 109 67 162 113 83 134 85 53 160 111 78 160 112 74 135 87 47 118 74 29 135 91 44 132 88 39 
142 94 46 131 84 38 121 74 32 129 84 45 137 91 55 116 70 34 112 64 26 138 90 50 136 85 40 133 85 39 131 87 42 119 76 31 131 90 44 133 90 45 128 85 40 120 76 31 
80 39 7 82 41 11 84 45 16 81 42 13 81 40 8 88 46 8 90 47 2 83 41 0 91 40 9 90 44 11 87 46 14 75 39 5 80 46 11 80 44 12 84 43 13 85 41 12 
71 50 29 40 19 0 41 18 0 63 38 18 61 35 10 62 33 1 88 56 17 114 81 36 113 82 27 84 57 2 72 50 1 75 56 14 67 48 15 42 20 0 46 18 4 61 31 20 
131 91 42 111 70 24 133 90 47 163 118 76 160 111 68 161 108 64 173 117 70 167 109 61 138 84 46 141 89 50 125 76 36 133 88 46 164 119 77 157 113 68 151 104 60 166 118 72 
132 88 43 138 94 49 127 82 40 119 74 32 132 87 46 133 85 47 122 72 35 120 70 35 115 71 26 134 90 45 133 89 44 127 83 38 130 86 41 135 91 46 132 89 44 119 76 33 
87 37 10 89 42 12 87 42 9 84 41 6 83 43 7 84 46 10 82 43 10 81 42 9 84 45 16 81 42 11 80 39 9 91 47 18 86 43 11 82 41 9 87 49 13 77 41 5 
