P3
16 16
255
228 129 108 223 127 105 224 132 107 214 127 99 219 132 104 210 120 93 217 126 99 225 129 104 225 127 102 229 133 109 221 129 104 225 134 107 216 125 96 200 111 81 192 109 79 167 90 62 
227 131 109 211 116 94 202 112 86 188 101 73 195 110 81 206 116 89 205 114 87 213 119 93 230 135 107 210 116 90 219 127 102 208 117 90 194 103 74 197 110 80 181 100 71 153 77 51 
219 127 104 203 113 89 219 132 105 186 101 72 200 115 86 200 113 85 216 125 98 229 135 109 214 121 90 217 126 97 212 122 96 192 105 77 221 134 106 181 96 67 173 96 70 155 83 59 
228 138 114 188 101 74 188 102 75 164 79 50 203 118 87 209 122 92 220 130 103 212 121 94 204 113 82 211 124 94 189 104 75 192 106 79 187 102 73 157 76 47 175 99 75 144 73 51 
217 127 103 197 110 83 195 108 80 201 116 87 211 126 95 214 127 97 211 122 92 206 115 88 204 118 85 191 106 77 198 114 86 171 87 59 171 87 59 173 92 63 191 115 91 142 71 49 
224 132 109 208 118 92 201 114 86 210 123 93 210 125 94 209 122 92 207 120 90 204 115 85 187 104 74 186 105 76 167 87 60 157 76 49 176 92 64 194 113 84 170 94 68 145 73 49 
222 128 103 206 114 89 219 129 102 213 126 96 215 128 98 203 116 86 199 112 82 192 105 75 190 110 83 174 97 71 157 80 54 167 86 59 187 103 75 177 94 64 181 104 76 143 69 44 
228 132 108 214 120 95 223 132 105 215 126 96 199 112 82 202 115 85 190 105 74 192 107 76 164 87 61 158 80 57 163 85 62 192 112 87 193 109 81 180 97 67 197 118 88 147 71 45 
226 126 102 227 133 107 210 120 93 203 116 88 202 115 88 192 106 81 180 98 74 167 89 66 153 79 52 169 85 59 197 107 80 196 113 81 177 94 62 201 114 87 204 120 96 142 70 45 
231 135 110 208 117 90 202 117 88 200 117 87 191 107 79 181 97 71 178 98 73 165 89 63 167 91 65 198 112 87 192 102 75 181 96 65 207 124 92 203 113 86 208 124 98 154 80 55 
218 126 101 209 122 94 198 117 87 189 108 78 175 94 64 178 97 68 170 91 61 175 98 70 182 105 77 192 105 78 198 107 80 203 118 87 205 120 89 209 119 92 222 136 111 153 79 52 
223 131 106 200 113 86 189 108 79 176 97 67 181 100 71 187 103 75 175 94 65 187 108 78 192 113 83 182 92 65 205 114 85 201 116 85 207 122 91 224 134 107 205 119 94 156 80 54 
226 131 109 200 110 86 214 130 104 178 97 68 174 90 62 177 91 64 194 108 81 192 108 80 177 98 68 204 114 87 206 115 88 210 125 94 217 134 104 182 92 66 204 118 93 144 68 42 
224 129 107 186 96 72 179 95 69 166 86 61 173 92 65 189 105 79 186 102 74 179 98 69 195 118 88 203 116 88 213 123 96 207 126 96 180 99 70 160 74 49 196 112 88 149 75 48 
221 129 106 173 87 62 157 77 52 176 100 74 185 107 84 182 102 77 172 92 67 197 120 92 197 120 90 210 124 97 205 119 92 210 131 101 195 118 90 189 105 81 185 105 82 150 80 54 
213 123 99 161 80 53 164 88 62 150 78 53 158 84 59 143 69 44 153 79 54 146 72 45 163 88 57 172 88 60 176 90 63 153 76 48 155 80 51 154 72 48 155 77 54 149 82 56 
