P3
16 16
255
146 143 138 136 146 138 146 146 146 149 136 143 128 126 129 135 144 141 134 150 140 123 126 119 120 115 121 99 102 93 123 114 119 113 114 109 133 123 124 125 132 138 120 115 112 133 123 134 
126 127 132 135 122 131 110 111 113 118 133 128 125 113 117 119 123 124 124 119 123 147 121 134 118 135 127 125 131 119 129 127 132 96 106 108 108 113 117 122 105 113 131 131 119 113 126 117 
125 136 142 112 110 115 60 122 99 70 115 94 92 110 98 84 90 86 89 95 93 112 103 108 100 103 118 109 91 103 122 119 114 223 119 84 181 97 61 148 141 148 117 118 122 118 124 120 
123 122 120 139 128 126 133 153 141 110 121 113 95 84 90 52 125 106 68 114 103 91 91 93 107 107 99 155 145 146 125 123 128 148 137 133 172 172 164 129 122 129 117 115 116 124 126 121 
117 114 121 109 115 113 106 124 112 101 87 84 69 120 89 124 125 93 215 115 89 189 106 52 124 126 79 137 140 145 121 133 129 112 132 130 114 116 105 123 123 99 138 120 136 131 126 122 
130 135 115 149 137 141 107 105 110 132 120 96 190 103 58 238 112 72 239 124 119 168 164 163 151 146 142 109 114 117 130 114 125 96 98 93 92 83 84 99 108 113 114 118 130 144 142 153 
109 113 114 132 129 136 118 127 132 127 122 129 148 150 149 161 160 156 162 163 157 144 143 138 115 117 116 104 99 105 81 91 90 122 128 84 135 132 97 83 90 100 119 112 119 120 133 115 
121 112 113 97 106 101 124 115 116 90 90 88 82 99 91 97 103 101 124 113 121 125 128 133 126 128 117 59 106 100 98 154 119 82 176 158 98 148 121 181 109 71 117 100 92 128 126 127 
143 144 136 147 140 158 110 100 111 58 121 102 122 125 96 75 91 78 122 104 100 120 131 123 124 150 141 153 144 149 57 98 94 90 151 133 131 130 86 219 117 69 196 99 80 110 120 122 
123 128 132 84 149 115 76 182 146 78 189 136 94 149 130 132 134 112 124 119 125 145 141 158 125 125 133 125 111 110 144 145 139 55 117 102 163 162 167 176 163 157 127 145 133 133 121 135 
117 118 112 148 142 146 62 126 102 78 148 112 174 161 155 155 135 146 126 124 127 97 93 84 109 111 106 126 122 119 126 130 129 149 142 150 144 162 162 131 125 127 139 134 130 115 117 106 
125 129 128 136 120 130 141 140 146 159 168 165 119 129 131 108 102 102 109 113 90 183 103 76 91 83 96 107 101 111 138 122 123 121 129 114 142 153 145 124 124 132 122 112 121 115 114 109 
116 132 121 118 108 132 118 120 117 119 109 120 106 109 92 45 117 106 123 129 93 230 110 83 250 127 83 186 113 98 108 119 113 104 108 111 124 103 110 94 109 106 99 98 103 119 139 130 
152 143 138 142 145 150 55 116 111 118 133 90 164 161 152 149 143 145 52 121 103 133 127 79 63 120 103 146 153 159 150 143 150 122 123 118 99 108 105 75 117 113 79 182 152 124 114 104 
126 119 126 157 143 140 159 167 152 169 160 155 146 142 143 131 123 121 148 143 140 158 158 156 163 163 151 146 148 145 138 127 133 122 129 122 151 142 137 137 142 138 128 127 133 134 142 145 
120 132 128 126 126 124 129 126 121 109 118 127 132 120 130 117 115 120 120 130 121 142 148 148 119 130 126 133 122 130 125 122 131 128 126 131 123 134 126 139 144 137 142 138 135 129 131 130 
