P3
16 16
255
27 15 17 22 7 10 33 12 17 15 15 13 29 13 16 26 14 16 32 11 16 18 14 13 21 11 12 27 17 18 24 14 15 27 15 17 25 13 15 29 14 17 27 11 14 28 12 15 
57 30 37 69 33 43 62 31 39 64 39 45 37 12 18 66 30 40 67 36 44 63 40 46 50 19 27 61 30 38 56 26 34 60 30 38 42 12 20 63 36 43 50 23 30 57 30 37 
48 29 33 47 14 23 52 31 36 48 21 28 21 11 12 58 25 34 44 21 27 31 12 16 55 25 33 53 23 31 46 19 26 57 32 38 32 9 15 52 31 36 32 13 17 46 30 33 
44 25 29 53 20 29 31 4 11 46 19 26 32 17 20 54 23 31 55 30 36 29 6 12 50 20 28 54 24 32 52 22 30 43 16 23 34 9 15 52 29 35 41 20 25 31 10 15 
20 16 15 30 15 18 35 12 18 25 21 20 31 22 23 21 15 15 31 16 19 22 13 14 25 16 17 24 15 16 22 12 13 30 18 20 35 20 23 27 15 17 29 17 19 23 11 13 
34 11 17 63 32 40 73 27 40 54 33 38 67 37 45 20 1 5 58 22 32 43 16 23 35 12 18 61 36 42 57 27 35 58 27 35 56 23 32 60 27 36 64 31 40 51 20 28 
31 16 19 59 29 37 59 21 32 49 28 33 28 12 15 40 24 27 47 22 28 54 29 35 34 13 18 54 31 37 47 22 28 53 26 33 48 21 28 45 20 26 40 17 23 45 24 29 
27 17 18 57 24 33 52 22 30 50 20 28 11 5 5 47 24 30 44 23 28 42 17 23 39 12 19 57 30 37 53 23 31 44 14 22 45 18 25 46 23 29 36 17 21 37 22 25 
35 14 19 37 14 20 19 15 14 15 15 13 34 11 17 30 11 15 21 17 16 21 15 15 26 16 17 30 14 17 22 13 14 31 12 16 17 13 12 27 12 15 28 16 18 34 13 18 
56 23 32 61 25 35 36 17 21 17 2 5 67 34 43 51 20 28 33 14 18 35 14 19 16 0 3 46 23 29 35 20 23 59 36 42 19 10 11 30 11 15 38 22 25 50 25 31 
46 21 27 47 22 28 20 8 10 24 14 15 50 27 33 53 30 36 20 8 10 17 2 5 49 28 33 48 21 28 27 8 12 52 25 32 23 13 14 48 25 31 17 0 2 56 29 36 
45 18 25 54 29 35 37 18 22 45 29 32 26 1 7 47 22 28 36 15 20 48 29 33 49 26 32 55 25 33 35 14 19 28 1 8 37 25 27 46 23 29 39 20 24 52 25 32 
28 12 15 26 16 17 27 17 18 27 17 18 26 16 17 36 24 26 31 16 19 30 20 21 32 11 16 37 10 17 33 17 20 40 15 21 22 13 14 36 17 21 33 18 21 37 12 18 
57 21 31 45 18 25 65 34 42 59 23 33 38 11 18 50 19 27 70 32 43 68 37 45 45 26 30 52 27 33 37 21 24 45 22 28 31 22 23 40 21 25 11 0 0 53 30 36 
50 23 30 29 13 16 51 24 31 59 29 37 24 8 11 50 29 34 60 27 36 45 20 26 45 26 30 44 19 25 46 30 33 47 22 28 18 8 9 21 0 5 60 41 45 49 22 29 
50 27 33 37 25 27 41 18 24 41 14 21 23 11 13 46 30 33 47 16 24 45 22 28 40 19 24 46 19 26 38 19 23 52 25 32 26 14 16 50 25 31 49 28 33 53 22 30 
