P3
16 16
255
97 97 97 129 129 129 156 156 156 152 150 153 120 118 121 153 151 154 160 155 161 155 150 156 128 128 128 151 151 151 159 159 159 154 154 154 138 138 138 137 137 137 140 140 140 86 86 86 
108 108 108 127 127 127 120 120 120 130 128 131 103 101 104 130 128 131 133 131 134 142 140 143 118 118 118 143 143 143 122 122 122 138 138 138 124 124 124 139 139 139 123 123 123 93 93 93 
157 157 157 128 128 128 98 98 98 102 100 103 121 119 122 127 125 128 131 129 132 137 135 138 125 125 125 111 111 111 124 124 124 129 129 129 101 101 101 128 128 128 124 124 124 89 89 89 
122 122 122 95 95 95 136 136 136 155 155 155 84 84 84 127 125 128 132 130 133 128 126 129 128 128 128 129 129 129 96 96 96 102 102 102 97 97 97 120 120 120 122 122 122 89 89 89 
150 150 150 130 130 130 124 124 124 129 129 129 140 140 140 95 95 95 118 118 118 125 125 125 119 119 119 125 125 125 119 119 119 101 101 101 126 126 126 116 116 116 109 109 109 87 87 87 
143 143 143 110 110 110 122 122 122 113 113 113 119 119 119 124 124 124 127 127 127 109 109 109 130 130 130 133 133 133 118 118 118 136 136 136 101 101 101 91 91 91 116 116 116 92 92 92 
116 114 117 114 114 114 109 109 109 107 107 107 106 106 106 117 117 117 100 102 99 108 110 107 118 118 118 111 111 111 112 112 112 117 117 117 104 104 104 92 92 92 98 98 98 86 86 86 
102 100 103 94 94 94 90 90 90 89 89 89 98 98 98 98 100 97 95 97 94 86 88 85 86 86 86 98 98 98 98 98 98 102 102 102 102 102 102 98 98 98 100 100 100 100 100 100 
155 155 155 156 156 156 152 152 152 100 100 100 141 141 141 113 113 113 101 101 101 92 92 92 128 126 129 139 137 140 90 88 91 140 138 141 155 153 156 153 151 154 161 159 162 153 151 154 
129 129 129 127 127 127 140 140 140 109 109 109 124 124 124 127 127 127 114 114 114 81 81 81 140 138 141 122 120 123 100 98 101 116 114 117 130 128 131 135 133 136 129 127 130 138 136 139 
136 136 136 135 135 135 132 132 132 133 133 133 98 98 98 133 133 133 115 115 115 94 94 94 121 119 122 100 98 101 117 115 118 143 141 144 139 137 140 130 128 131 100 98 101 127 125 128 
128 128 128 135 135 135 124 124 124 129 129 129 88 88 88 98 98 98 91 91 91 96 96 96 149 149 149 128 128 128 141 141 141 121 121 121 128 128 128 104 104 104 122 122 122 128 128 128 
125 125 125 123 123 123 127 127 127 111 111 111 151 151 151 136 136 136 140 140 140 88 88 88 160 160 160 129 129 129 123 123 123 133 133 133 136 136 136 96 96 96 119 119 119 129 129 129 
122 122 122 118 118 118 110 110 110 136 136 136 136 136 136 128 128 128 118 118 118 88 88 88 137 137 137 113 113 113 126 126 126 118 118 118 135 135 135 94 94 94 118 118 118 117 117 117 
105 105 105 111 111 111 116 116 116 105 105 105 113 113 113 123 123 123 125 125 125 89 89 89 123 123 123 107 107 107 113 113 113 119 119 119 109 109 109 88 88 88 89 89 89 107 107 107 
100 100 100 96 96 96 100 100 100 100 100 100 101 101 101 100 100 100 87 87 87 90 90 90 85 85 85 92 92 92 97 97 97 99 99 99 95 95 95 100 100 100 98 98 98 101 101 101 
