P3
16 16
255
27 22 3 11 13 10 10 12 0 30 19 15 68 35 26 113 53 19 117 59 39 110 57 26 113 56 27 116 56 32 116 59 32 68 36 25 30 20 11 11 7 0 22 25 16 25 23 8 
13 15 10 191 149 101 186 149 107 65 38 11 151 86 44 176 108 73 183 109 62 171 104 61 178 103 63 175 104 52 172 102 76 149 90 46 74 39 11 196 156 120 193 147 95 4 13 10 
7 9 0 189 152 108 82 35 19 174 104 53 172 111 54 167 109 61 161 103 53 184 104 69 170 102 63 175 109 57 175 105 69 179 102 50 164 109 52 71 34 18 179 151 101 24 12 0 
31 21 12 62 35 8 175 105 56 87 53 28 79 42 15 88 53 34 82 55 36 91 58 41 82 46 30 68 47 20 80 35 29 77 46 15 96 56 30 170 108 59 66 35 4 30 19 15 
65 33 22 156 91 51 169 108 54 90 53 27 149 99 74 180 106 59 85 58 51 166 101 47 179 106 55 63 31 20 172 109 66 164 110 86 85 52 21 178 101 55 154 92 45 62 35 28 
117 58 24 171 102 71 169 110 68 91 55 41 172 98 51 168 110 62 88 41 21 166 93 40 180 103 51 104 60 33 156 88 51 176 108 59 89 47 31 168 115 73 178 105 70 112 53 23 
114 56 34 180 106 61 169 111 65 75 49 32 90 63 54 79 33 10 71 57 54 77 60 42 70 44 29 72 55 48 91 54 36 68 39 31 85 58 37 177 105 65 174 101 50 115 62 44 
109 56 22 177 110 65 180 100 65 86 53 34 174 109 51 180 108 49 77 60 40 176 104 64 170 105 63 82 65 39 183 97 50 180 109 53 87 57 33 172 104 67 173 110 57 115 54 26 
117 57 31 168 101 56 178 105 70 90 58 37 177 105 57 179 97 41 83 61 48 172 103 61 176 105 61 76 58 36 185 105 54 171 104 59 87 54 37 179 103 79 173 107 55 115 59 24 
114 58 33 180 108 58 170 110 50 63 40 24 80 50 26 85 39 26 73 56 40 70 49 28 67 41 28 80 65 42 87 49 36 73 50 18 84 58 41 170 102 53 175 102 49 110 56 30 
112 61 32 172 98 71 170 107 74 79 32 14 153 83 58 169 110 54 86 38 36 183 100 48 162 89 44 85 36 32 178 107 53 172 98 63 96 61 31 158 112 78 177 106 78 122 53 37 
62 34 23 156 95 50 176 105 49 95 63 40 147 93 55 171 102 69 76 45 24 178 107 55 175 104 62 73 43 17 155 86 53 168 117 70 78 48 20 175 105 54 159 97 48 62 29 24 
34 21 12 62 30 7 172 113 53 91 54 25 84 52 29 87 41 15 80 56 44 84 52 27 94 56 33 81 59 38 89 51 28 84 56 32 99 57 33 172 106 58 67 33 5 31 24 8 
15 8 0 187 156 109 71 24 18 168 108 56 177 105 55 167 104 71 173 111 62 179 106 73 173 99 64 171 109 52 169 108 79 177 104 59 171 110 65 77 28 32 181 150 96 18 9 0 
16 19 8 196 152 105 185 156 98 70 39 11 156 96 46 172 100 62 181 109 59 169 103 51 180 106 59 180 111 54 172 108 72 150 95 41 68 32 8 193 152 108 197 150 98 18 26 11 
22 23 9 22 24 21 16 9 0 30 17 11 64 33 28 110 60 27 111 54 35 116 59 32 111 58 40 114 53 34 117 56 27 70 37 22 23 17 3 12 13 5 13 15 10 30 16 13 
