P3
16 16
255
71 40 55 77 30 50 79 40 58 83 46 63 77 32 52 69 38 53 70 38 53 78 41 58 89 44 64 59 33 46 84 41 60 70 36 52 71 32 50 77 40 57 79 34 54 73 42 57 
73 34 52 129 63 90 125 67 91 130 57 86 140 61 92 131 61 89 130 61 89 127 54 83 151 67 100 122 58 84 131 55 85 133 69 95 130 66 92 119 64 87 132 70 95 72 27 47 
79 38 56 132 63 91 73 39 55 90 36 59 92 51 69 91 46 66 96 55 73 102 48 71 111 51 76 101 56 76 106 48 72 110 55 78 106 44 69 93 39 62 141 72 100 82 33 54 
73 45 59 134 59 89 78 33 53 151 61 96 141 66 96 139 63 93 129 63 90 128 59 87 132 57 87 127 63 89 131 62 90 128 62 89 129 60 88 101 49 71 130 64 91 80 39 57 
73 34 52 139 58 90 79 47 62 141 66 96 120 62 86 124 58 85 127 57 85 138 59 90 139 63 93 126 56 84 127 57 85 134 59 89 139 64 94 104 50 73 129 56 85 78 37 55 
67 35 50 142 61 93 100 57 76 140 55 88 130 57 86 96 42 65 99 44 67 100 55 75 95 50 70 91 44 64 92 47 67 125 67 91 127 63 89 87 46 64 129 60 88 70 36 52 
66 40 53 125 56 84 85 54 69 121 61 86 129 63 90 88 45 64 124 54 82 120 60 85 128 66 91 125 59 86 101 43 67 124 55 83 125 56 84 88 51 68 131 67 93 67 43 56 
83 42 60 137 53 86 101 52 73 140 67 96 130 49 81 86 45 63 130 64 91 100 55 75 104 49 72 126 64 89 106 52 75 128 55 84 138 62 92 104 57 77 132 51 83 78 37 55 
78 35 54 137 56 88 107 49 73 139 64 94 134 58 88 91 44 64 118 54 80 111 56 79 96 44 66 118 58 83 101 47 70 128 55 84 140 64 94 95 48 68 132 53 84 77 40 57 
61 39 51 122 62 87 98 55 74 130 68 93 123 54 82 94 49 69 128 64 90 121 61 86 125 65 90 123 61 86 111 56 79 123 57 84 121 55 82 84 50 66 125 63 88 56 36 47 
80 39 57 127 54 83 101 46 69 131 65 92 124 55 83 92 51 69 99 45 68 77 28 49 96 44 66 101 47 70 106 52 75 126 57 85 139 66 95 104 55 76 136 60 90 78 37 55 
76 42 58 125 59 86 105 50 73 133 67 94 134 61 90 115 60 83 129 63 90 131 62 90 128 58 86 128 62 89 124 58 85 131 61 89 137 64 93 92 43 64 123 54 82 74 40 56 
73 30 49 129 60 88 117 51 78 131 61 89 137 61 91 125 59 86 128 59 87 138 62 92 136 60 90 129 63 90 136 63 92 143 70 99 133 60 89 97 43 66 133 64 92 71 30 48 
80 39 57 125 65 90 109 51 75 97 43 66 103 48 71 95 50 70 89 50 68 93 44 65 93 44 65 92 55 72 93 44 65 94 45 66 99 45 68 94 49 69 125 67 91 73 34 52 
81 36 56 123 61 86 135 66 94 129 63 90 135 62 91 128 58 86 129 65 91 137 56 88 136 52 85 133 69 95 134 58 88 122 56 83 131 62 90 125 67 91 122 60 85 87 42 62 
67 41 54 74 35 53 79 36 55 76 39 56 77 38 56 64 32 47 68 46 58 74 35 53 87 44 63 61 37 50 80 37 56 73 39 55 73 32 50 82 45 62 84 41 60 68 40 54 
