P3
16 16
255
128 59 87 169 71 109 173 77 114 146 65 97 151 64 98 166 75 110 172 81 116 173 73 111 145 66 97 149 64 97 166 79 113 145 61 94 166 76 111 176 82 118 143 62 94 110 48 73 
143 68 98 117 55 80 108 53 76 102 48 71 95 43 65 110 56 79 110 52 76 111 51 76 101 52 73 109 55 78 105 51 74 101 52 73 106 51 74 115 53 78 105 53 75 87 55 70 
183 77 117 119 55 81 102 48 71 135 73 98 94 40 63 118 64 87 106 42 68 120 60 85 110 52 76 125 63 88 106 48 72 98 44 67 116 56 81 113 44 72 128 68 93 91 46 66 
168 74 110 129 60 88 128 66 91 125 56 84 105 41 67 126 62 88 138 65 94 137 67 95 132 63 91 124 54 82 134 68 95 105 45 70 130 64 91 141 65 95 135 62 91 104 46 70 
111 89 101 93 50 69 88 43 63 89 50 68 95 52 71 92 45 65 90 45 65 94 42 64 92 47 67 93 46 66 89 46 65 85 51 67 90 49 67 96 44 66 93 46 66 74 42 57 
92 55 72 141 65 95 150 66 99 143 73 101 133 52 84 150 66 99 147 68 99 151 66 99 142 66 96 144 63 95 147 71 101 140 70 98 142 66 96 149 64 97 139 63 93 116 56 81 
138 72 99 133 58 88 139 63 93 128 53 83 134 58 88 136 60 90 137 62 92 134 58 88 133 60 89 142 66 96 132 56 86 131 61 89 141 65 95 136 55 87 138 68 96 89 37 59 
173 73 111 125 56 84 131 67 93 136 61 91 125 59 86 125 61 87 126 57 85 131 69 94 132 68 94 129 60 88 116 46 74 131 65 92 128 58 86 140 65 95 122 62 87 91 52 70 
181 75 115 126 53 82 124 62 87 123 59 85 97 45 67 101 52 73 126 62 88 135 60 90 130 66 92 122 60 85 109 54 77 130 51 82 120 62 86 108 53 76 99 56 75 110 50 75 
164 79 112 110 56 79 103 56 76 106 51 74 93 46 66 96 51 71 105 51 74 105 51 74 98 46 68 94 42 64 95 46 67 106 48 72 94 47 67 90 43 63 88 47 65 92 43 64 
125 55 83 81 40 58 73 39 55 81 38 57 75 36 54 80 39 57 78 33 53 75 41 57 76 37 55 84 43 61 81 38 57 68 36 51 78 39 57 78 41 58 78 35 54 82 45 62 
143 64 95 96 49 69 82 48 64 87 50 67 78 44 60 92 49 68 94 47 67 87 55 70 86 49 66 83 44 62 95 48 68 69 47 59 84 45 63 92 53 71 95 46 67 69 37 52 
178 80 118 120 51 79 96 47 68 89 50 68 73 39 55 100 51 72 111 51 76 98 51 71 95 50 70 103 58 78 99 45 68 67 36 51 103 54 75 105 56 77 97 42 65 78 41 58 
172 76 113 130 51 82 117 51 78 106 57 78 78 39 57 109 54 77 128 55 84 114 52 77 109 51 75 105 51 74 99 44 67 98 49 70 112 50 75 111 51 76 103 48 71 82 41 59 
133 69 95 123 57 84 132 59 88 122 62 87 90 45 65 119 59 84 134 58 88 125 59 86 111 47 73 119 61 85 94 42 64 136 67 95 136 70 97 122 58 84 86 39 59 86 45 63 
115 81 97 121 69 91 133 60 89 125 56 84 96 47 68 124 62 87 131 55 85 124 60 86 126 60 87 117 62 85 72 27 47 143 67 97 126 57 85 115 49 76 73 36 53 84 47 64 
