P3
16 16
255
91 57 73 132 66 93 132 70 95 128 55 84 84 53 68 137 56 88 135 56 87 127 57 85 126 62 88 133 64 92 127 46 78 57 33 46 76 29 49 74 33 51 106 42 68 87 50 67 
128 73 96 141 57 90 140 64 94 145 64 96 82 48 64 137 61 91 143 70 99 127 63 89 138 63 93 130 60 88 127 54 83 77 49 63 121 63 87 113 58 81 128 58 86 87 50 67 
141 72 100 143 56 90 144 60 93 154 69 102 90 45 65 141 62 93 144 68 98 125 59 86 142 61 93 134 64 92 128 59 87 72 38 54 125 56 84 129 59 87 142 67 97 88 49 67 
138 65 94 150 66 99 148 64 97 146 59 93 107 47 72 151 61 96 155 64 99 151 67 100 152 67 100 142 66 96 134 58 88 92 38 61 140 61 92 148 69 100 151 67 100 90 35 58 
73 32 50 88 45 64 95 52 71 94 49 69 78 52 65 96 51 71 94 42 64 88 45 64 87 46 64 92 49 68 98 51 71 80 48 63 91 50 68 84 45 63 91 48 67 69 37 52 
173 73 111 152 62 97 152 62 97 148 61 95 133 63 91 140 64 94 149 65 98 144 71 100 149 68 100 151 66 99 149 59 94 147 63 96 148 64 97 148 69 100 148 67 99 136 57 88 
167 77 112 137 64 93 136 63 92 137 67 95 121 59 84 125 63 88 131 62 90 125 65 90 125 56 84 130 64 91 128 64 90 134 64 92 128 58 86 133 63 91 126 64 89 110 52 76 
149 62 96 131 65 92 134 61 90 138 63 93 125 52 81 135 62 91 140 55 88 140 61 92 144 65 96 124 58 85 110 55 78 131 61 89 141 62 93 145 61 94 127 63 89 106 52 75 
127 65 90 137 64 93 125 59 86 122 58 84 90 53 70 101 52 73 124 62 87 144 57 91 132 66 93 122 58 84 110 50 75 123 57 84 119 59 84 113 53 78 107 52 75 109 51 75 
104 42 67 112 48 74 110 58 80 111 51 76 90 45 65 101 46 69 103 56 76 104 52 74 95 43 65 97 48 69 94 47 67 97 48 69 93 46 66 90 43 63 90 47 66 90 45 65 
98 87 95 76 48 62 69 37 52 80 35 55 69 41 55 75 41 57 70 39 54 81 40 58 76 39 56 76 42 58 74 40 56 70 39 54 75 41 57 75 41 57 79 45 61 70 42 56 
87 65 77 90 47 66 104 55 76 110 50 75 82 43 61 99 52 72 94 47 67 111 49 74 108 53 76 101 49 71 96 42 65 82 41 59 101 47 70 101 47 70 108 50 74 89 46 65 
168 81 115 137 56 88 113 53 78 111 47 73 91 37 60 128 62 89 108 53 76 108 50 74 123 61 86 118 60 84 116 54 79 84 45 63 111 51 76 112 52 77 123 57 84 92 49 68 
166 75 110 140 55 88 121 61 86 125 63 88 96 49 69 129 65 91 124 62 87 139 66 95 132 63 91 130 66 92 130 61 89 84 50 66 123 59 85 128 64 90 138 65 94 88 47 65 
140 67 96 137 61 91 138 74 100 127 58 86 98 46 68 131 62 90 144 69 99 156 62 98 145 64 96 138 62 92 141 57 90 93 52 70 138 62 92 137 61 91 147 62 95 95 48 68 
125 59 86 100 42 66 95 58 75 94 47 67 82 41 59 98 40 64 104 55 76 102 53 74 106 51 74 94 45 66 101 46 69 57 46 54 99 50 71 83 36 56 103 43 68 64 47 57 
