P3
16 16
255
149 25 25 175 32 36 139 22 15 178 29 35 157 24 27 131 0 0 168 34 35 190 46 46 146 28 24 148 26 23 152 18 19 178 35 39 152 22 22 178 29 35 181 49 47 178 29 31 
126 2 2 149 16 17 169 39 37 176 53 48 116 1 0 150 22 23 166 38 35 186 51 48 191 42 48 161 39 36 161 22 25 175 47 44 191 46 49 173 33 36 151 27 25 104 3 0 
109 1 0 122 9 5 135 0 0 148 23 21 115 0 0 154 21 24 142 27 20 122 3 0 116 0 0 105 8 0 129 0 0 179 56 51 125 1 0 113 0 0 111 6 3 86 3 0 
123 0 7 81 3 0 125 0 0 103 6 0 132 0 3 91 13 1 128 4 6 128 0 0 87 4 0 91 6 1 148 28 30 127 0 0 96 3 0 106 3 4 91 5 6 81 0 3 
81 26 21 85 0 0 116 7 12 100 0 0 89 3 2 91 0 0 118 0 8 89 6 0 86 1 6 96 10 11 112 3 8 115 0 2 86 1 0 92 0 5 76 10 12 88 26 31 
78 19 21 82 22 21 78 18 10 92 2 4 76 18 14 84 33 29 91 4 10 81 0 1 89 36 32 79 20 16 92 0 5 82 8 5 79 3 3 88 28 27 83 32 31 88 27 34 
71 23 21 90 32 30 101 36 30 113 3 12 72 29 20 113 53 53 83 25 24 107 46 45 79 35 24 89 30 24 83 7 7 78 28 19 100 26 27 85 25 24 94 47 41 121 49 53 
121 46 51 95 36 32 107 0 6 89 3 4 80 25 20 93 39 37 121 49 53 110 50 50 107 2 7 111 6 13 115 45 43 98 33 29 97 0 9 117 10 20 101 51 42 104 39 35 
110 38 41 73 30 23 108 42 43 110 45 49 88 42 42 80 30 29 90 26 24 103 2 6 124 0 8 96 0 1 120 56 47 110 51 43 107 33 32 95 14 13 103 32 28 110 56 44 
82 0 7 103 37 38 116 42 43 141 66 70 117 46 52 92 42 41 70 27 20 91 0 1 97 44 36 103 48 41 100 42 38 109 51 49 116 55 54 89 17 20 101 10 17 97 0 4 
89 35 35 104 59 53 103 46 39 118 48 46 121 49 52 92 41 38 59 16 10 96 6 15 115 55 55 137 65 69 122 41 50 120 54 58 67 26 22 57 24 17 67 22 19 91 27 28 
87 39 39 82 24 22 78 0 0 121 50 46 90 40 33 88 30 29 83 24 26 61 20 18 75 25 24 111 55 56 101 39 42 79 19 21 70 19 18 82 34 32 79 28 27 82 23 25 
95 17 30 99 45 43 118 48 46 106 1 8 93 4 10 99 48 45 98 43 46 86 19 26 83 24 26 85 26 28 79 21 20 118 58 58 102 38 39 112 50 51 98 42 41 76 27 23 
77 37 37 114 43 47 103 38 34 121 51 49 120 39 45 142 69 76 118 49 54 83 18 22 78 35 29 76 27 23 91 33 32 98 34 34 116 50 51 134 66 67 115 47 48 85 16 19 
73 27 27 110 38 42 114 56 54 111 53 51 123 59 60 94 43 42 77 26 23 79 36 29 78 30 28 68 17 16 103 45 44 114 53 52 96 35 34 116 55 54 102 40 41 102 40 41 
77 27 28 82 28 26 89 40 35 115 44 48 119 57 60 80 24 25 115 36 41 111 52 48 86 31 36 71 21 22 74 26 24 96 45 42 109 47 48 112 48 49 103 44 46 93 42 41 
