P3
16 16
255
115 60 83 112 54 78 124 60 86 129 60 88 138 65 94 134 59 89 137 64 93 136 63 92 136 60 90 131 61 89 132 66 93 134 61 90 135 56 87 138 63 93 119 59 84 82 37 57 
136 61 91 123 57 84 109 55 78 98 55 74 80 39 57 92 45 65 104 46 70 126 62 88 128 49 80 130 61 89 108 53 76 104 50 73 124 66 90 116 58 82 93 41 63 92 49 68 
108 44 70 131 62 90 119 49 77 132 59 88 119 50 78 122 60 85 115 61 84 91 44 64 91 52 70 84 45 63 94 47 67 107 47 72 118 48 76 133 63 91 119 61 85 83 36 56 
73 39 55 70 36 52 70 36 52 75 43 58 69 37 52 68 34 50 63 29 45 62 28 44 75 34 52 68 31 48 66 34 49 68 34 50 66 27 45 65 26 44 66 32 48 65 34 49 
122 62 87 124 62 87 106 40 67 128 62 89 134 68 95 127 63 89 128 66 91 104 44 69 127 58 86 134 70 96 125 65 90 117 59 83 116 58 82 103 48 71 98 44 67 111 62 83 
115 49 76 125 63 88 116 61 84 108 59 80 89 44 64 103 60 79 91 48 67 82 37 57 96 47 68 102 47 70 118 54 80 124 55 83 122 53 81 127 63 89 122 67 90 106 54 76 
95 46 67 106 48 72 111 41 69 130 54 84 122 49 78 111 51 76 94 49 69 78 44 60 134 59 89 127 57 85 120 56 82 114 59 82 103 54 75 92 45 65 91 42 63 99 45 68 
57 33 46 56 30 43 67 41 54 65 37 51 69 38 53 66 34 49 65 31 47 65 28 45 56 34 46 62 34 48 65 31 47 66 29 46 71 34 51 73 39 55 69 35 51 63 29 45 
128 59 87 131 62 90 131 65 92 123 61 86 112 54 78 115 53 78 127 58 86 138 62 92 136 61 91 138 63 93 132 57 87 137 64 93 132 62 90 134 68 95 122 60 85 103 43 68 
129 54 84 120 50 78 124 58 85 131 62 90 126 53 82 121 52 80 110 56 79 90 49 67 92 49 68 91 46 66 107 55 77 102 48 71 103 51 73 88 43 63 92 53 71 71 39 54 
129 67 92 124 58 85 114 48 75 103 48 71 97 54 73 90 53 70 90 47 66 97 45 67 107 52 75 104 50 73 105 56 77 97 52 72 92 47 67 93 46 66 109 60 81 104 52 74 
58 34 47 62 36 49 69 37 52 76 37 55 79 36 55 69 30 48 57 29 43 56 36 47 59 35 48 69 38 53 73 36 53 74 31 50 73 30 49 68 31 48 65 34 49 54 28 41 
119 65 88 100 45 68 118 56 81 138 68 96 131 56 86 129 59 87 123 63 88 96 44 66 134 55 86 137 62 92 131 62 90 107 43 69 129 65 91 124 55 83 139 63 93 137 56 88 
119 57 82 115 46 74 127 57 85 125 61 87 98 46 68 90 45 65 103 51 73 101 41 66 101 49 71 118 64 87 119 61 85 107 47 72 121 63 87 110 55 78 108 56 78 102 55 75 
98 46 68 97 48 69 95 46 67 106 51 74 123 61 86 116 58 82 89 48 66 70 42 56 125 56 84 127 63 89 107 52 75 101 52 73 92 45 65 96 44 66 95 40 63 101 41 66 
59 35 48 64 36 50 66 35 50 63 32 47 62 31 46 65 33 48 75 36 54 83 38 58 81 40 58 68 29 47 64 30 46 64 33 48 62 34 48 56 30 43 64 38 51 58 32 45 
