P3
16 16
255
136 64 65 126 71 64 115 0 8 105 44 43 123 43 44 116 49 43 144 28 29 175 32 28 102 38 36 132 2 10 98 39 31 170 36 35 176 33 29 115 1 0 141 26 19 124 46 44 
152 25 36 133 0 1 115 0 7 117 56 37 131 66 70 128 70 68 157 26 34 135 22 24 112 1 8 156 25 31 115 47 36 144 24 25 146 15 20 159 30 35 178 35 37 162 32 32 
98 38 28 110 58 44 128 1 0 129 63 65 177 52 58 117 47 45 119 40 45 135 2 5 158 30 21 160 19 35 123 53 53 119 4 19 157 24 29 168 31 23 154 14 15 116 4 0 
114 47 54 100 46 36 97 41 40 124 2 0 113 49 49 126 2 13 124 3 0 114 0 0 148 16 11 120 61 55 124 65 59 111 47 47 151 24 31 127 1 0 155 21 30 147 27 29 
128 69 71 124 43 49 121 0 0 112 39 46 161 28 29 153 23 31 90 44 29 128 6 0 120 51 54 124 71 65 190 48 46 129 68 50 107 49 45 124 0 12 102 55 47 184 50 51 
112 52 41 133 0 0 113 2 9 139 26 12 110 46 47 111 41 39 153 27 28 117 0 4 100 35 39 164 32 46 129 0 0 149 26 28 130 71 65 113 49 49 128 68 67 143 63 54 
121 0 5 158 22 32 118 3 0 112 48 46 142 29 33 147 67 66 122 0 10 171 31 32 176 32 41 159 26 31 105 47 36 140 73 65 134 0 9 112 47 41 99 46 30 129 0 11 
110 53 44 124 0 6 122 51 45 104 59 40 138 60 60 143 23 32 171 33 31 146 28 14 191 45 46 164 33 23 118 54 44 192 46 65 104 49 44 99 45 45 118 6 2 149 18 23 
142 18 29 142 65 73 110 51 45 135 0 0 153 23 33 112 0 3 163 28 32 119 0 0 187 29 30 110 2 0 119 47 67 113 51 40 133 72 71 111 52 36 95 39 42 130 0 0 
125 8 0 110 1 0 123 10 0 148 20 19 105 6 1 110 50 52 122 49 42 124 69 64 146 27 33 101 37 35 126 7 1 109 50 34 124 0 4 145 27 41 171 28 32 113 47 48 
145 24 31 132 0 7 106 46 35 196 49 57 120 69 76 126 51 48 126 62 60 110 56 56 117 0 2 95 48 38 128 0 0 114 33 30 146 22 14 106 53 59 134 0 8 123 4 0 
112 50 53 102 44 43 158 20 33 137 63 64 110 52 51 123 42 39 127 0 0 117 0 11 112 39 30 143 19 29 110 9 17 152 28 30 168 34 35 124 0 15 116 46 48 149 26 11 
115 0 0 143 24 18 178 29 23 165 32 37 140 29 35 149 26 29 117 10 0 153 17 31 110 52 51 141 62 67 107 48 44 122 0 0 152 28 39 171 28 24 115 47 38 94 49 46 
137 2 0 124 1 0 151 29 26 126 0 0 122 47 52 129 68 49 149 20 25 119 57 44 128 61 53 144 73 77 121 71 70 121 54 38 150 24 25 151 25 26 149 25 36 122 0 15 
114 0 7 113 50 58 104 37 28 97 47 38 149 21 34 114 48 52 128 5 7 134 18 21 188 55 60 126 55 53 107 59 55 147 22 38 113 5 0 107 47 46 111 36 40 120 0 0 
117 50 41 129 68 73 118 52 54 121 0 0 122 52 52 94 39 32 112 2 5 135 1 2 116 48 45 133 65 62 150 25 23 175 31 31 148 18 26 103 46 35 120 1 3 149 24 28 
