P3
16 16
255
253 255 252 252 255 255 251 255 253 246 255 245 251 255 255 252 252 254 252 255 251 249 255 253 252 255 255 255 254 255 247 255 255 249 253 252 255 253 255 251 255 254 254 255 255 252 254 253 
255 251 255 255 254 248 255 251 252 255 254 255 249 255 251 255 253 254 254 253 255 255 254 251 255 245 255 247 251 250 255 251 255 255 252 255 249 255 255 250 255 254 255 252 255 255 254 255 
244 255 255 255 250 251 255 250 254 255 247 255 254 255 249 249 255 255 255 250 255 254 255 255 243 255 253 254 255 255 255 255 255 243 255 251 255 249 255 255 253 254 247 251 250 251 251 251 
248 255 250 246 253 255 251 255 251 255 248 251 255 255 253 249 255 255 248 255 250 255 248 255 241 255 252 255 254 255 255 254 255 254 254 254 249 255 255 255 254 255 249 255 255 255 255 255 
255 252 251 255 252 255 240 255 250 254 255 255 242 255 243 102 2 36 255 255 244 252 255 255 113 9 44 255 240 245 245 255 255 255 254 255 255 248 252 255 253 255 254 255 255 241 250 247 
252 252 252 251 252 254 255 253 250 255 235 253 182 18 45 252 255 248 112 0 26 253 255 254 97 2 34 255 254 255 97 19 45 254 254 254 247 253 251 253 255 254 253 255 254 255 254 255 
255 253 253 255 253 255 255 255 245 75 12 41 187 9 33 151 17 50 135 11 39 248 255 251 101 10 41 255 249 254 245 255 253 118 2 41 255 251 252 249 255 255 248 255 255 255 251 255 
254 255 247 248 252 255 101 8 26 251 255 253 181 13 38 146 2 37 179 19 43 255 247 253 146 4 52 255 254 255 97 8 38 254 255 255 112 0 38 252 255 255 250 255 254 255 254 255 
244 255 243 248 255 254 106 0 38 254 253 255 138 13 57 102 5 24 174 13 18 76 7 52 154 3 54 254 247 255 144 15 37 242 252 255 255 255 246 143 10 53 255 255 250 252 255 248 
255 243 254 252 255 255 248 249 254 154 5 43 95 6 36 180 12 37 185 18 35 147 3 56 88 13 34 255 253 253 104 2 41 141 5 45 108 0 26 169 12 33 247 250 255 255 254 255 
151 9 57 94 1 32 254 255 253 178 18 30 79 6 35 166 15 32 91 12 33 255 248 255 151 0 53 100 7 28 166 17 13 85 12 55 248 255 255 175 10 24 106 11 55 255 252 243 
105 2 31 241 255 255 255 251 248 180 16 27 251 255 255 153 2 33 72 12 50 249 253 254 185 18 26 238 254 255 191 11 40 243 254 255 255 247 255 255 253 255 169 14 32 252 255 255 
151 7 56 249 252 255 247 255 255 150 0 30 251 255 255 255 255 250 138 6 63 255 255 241 165 19 32 246 255 249 140 6 57 249 255 255 255 252 249 76 9 44 150 8 46 255 255 250 
243 255 248 144 10 63 255 251 255 148 12 58 91 0 38 254 254 255 101 0 42 104 6 31 151 1 47 255 251 255 104 0 29 149 5 40 84 4 33 139 15 65 69 3 31 255 255 255 
255 255 246 255 251 248 140 2 54 255 254 255 151 7 60 69 8 42 98 9 53 87 2 43 247 255 250 91 1 29 86 9 61 148 7 60 158 22 24 70 2 39 255 252 255 252 255 255 
255 250 255 255 255 250 67 13 49 255 252 250 136 5 45 92 6 33 251 255 255 77 8 39 252 255 253 80 0 39 255 252 246 78 6 46 141 10 54 255 250 252 255 251 255 245 255 248 
