P3
16 16
255
84 51 68 82 33 55 86 41 62 79 34 55 70 36 52 90 58 73 78 35 54 67 43 56 75 41 55 81 49 62 72 44 58 80 35 55 90 49 67 71 37 53 89 40 61 70 39 54 
78 39 58 127 64 91 120 56 83 147 74 103 131 56 86 136 57 88 155 61 97 135 59 89 147 60 92 165 70 104 145 58 92 148 63 96 137 64 93 134 65 93 128 53 83 90 51 69 
84 42 62 118 55 82 94 45 66 92 47 67 97 54 73 89 48 66 100 48 70 90 49 67 91 48 65 109 50 72 105 51 74 90 45 65 91 50 68 106 46 71 132 56 86 78 39 57 
90 43 63 130 68 93 90 58 73 255 251 255 255 254 255 248 253 255 255 254 255 251 255 255 246 255 255 254 255 255 249 255 255 251 255 255 255 254 255 90 58 73 124 60 86 77 38 56 
83 36 56 137 62 92 80 28 50 91 50 68 94 47 67 100 59 75 92 45 63 83 36 54 82 41 57 76 38 53 72 38 54 93 46 66 94 51 70 78 33 53 124 60 86 87 42 62 
72 40 55 133 58 88 135 69 96 129 60 88 156 69 101 144 65 94 142 66 94 145 69 97 136 57 86 136 60 88 143 67 97 160 64 101 141 57 90 121 57 83 133 67 94 94 53 71 
75 43 58 139 66 95 79 30 51 87 50 67 96 45 64 77 39 54 75 43 56 76 40 54 80 44 58 85 44 60 101 60 78 96 42 65 94 45 66 88 36 58 126 62 88 73 39 55 
98 44 67 144 63 95 88 56 71 255 255 255 255 252 255 249 253 254 254 255 255 255 250 255 252 255 255 255 253 255 250 254 255 250 255 255 254 255 255 82 50 65 130 61 89 78 37 55 
83 31 53 143 67 97 82 51 66 251 250 255 255 252 255 252 255 255 255 255 255 255 250 255 253 251 254 255 254 255 249 255 255 253 254 255 255 253 255 87 59 73 119 57 82 82 35 55 
76 42 58 120 60 85 84 37 57 86 43 62 80 35 55 85 46 64 76 33 50 84 50 64 109 56 76 111 58 78 87 44 63 95 50 70 77 36 54 83 29 52 147 72 102 99 47 69 
85 48 65 122 62 87 126 60 87 136 60 90 141 65 95 146 70 100 154 65 97 144 74 100 128 55 82 142 63 92 131 55 85 141 57 90 135 65 93 127 61 88 136 67 95 69 37 52 
84 35 56 128 59 87 85 33 55 93 48 68 91 48 67 89 48 66 102 47 68 89 45 62 73 47 58 68 36 49 85 54 69 77 38 56 79 42 59 80 37 56 134 74 99 75 43 58 
83 38 58 134 64 92 82 51 66 254 252 255 255 252 255 251 255 255 254 255 255 255 253 255 252 247 251 255 253 255 249 255 255 252 255 255 254 252 255 83 51 66 133 60 89 101 43 67 
75 36 54 139 63 93 95 48 68 89 57 72 102 48 71 86 43 62 94 51 68 107 54 74 113 58 79 103 45 67 95 46 67 104 50 73 99 50 71 100 42 66 147 68 99 95 41 64 
90 51 69 132 57 87 135 71 97 132 66 93 144 63 95 136 55 87 152 65 97 145 58 90 143 67 95 148 63 94 152 67 100 150 60 95 145 69 99 137 68 96 127 57 85 88 56 71 
89 50 68 90 35 58 81 34 54 85 42 61 72 35 52 85 51 67 92 45 63 74 44 56 88 52 66 78 37 53 74 40 56 77 38 56 83 49 65 94 51 70 105 43 68 74 37 54 
