P3
16 16
255
254 255 250 255 254 250 251 255 255 251 255 255 255 244 255 252 255 255 255 254 255 255 255 248 255 255 255 246 255 254 248 255 250 255 244 249 255 252 253 255 254 255 254 250 247 248 255 251 
255 252 255 255 253 252 255 250 251 249 255 253 243 255 249 255 250 255 254 254 255 255 251 255 255 248 255 255 254 251 249 254 255 255 254 248 245 254 255 240 255 251 255 252 255 255 251 248 
245 255 255 255 254 255 244 254 246 249 255 248 252 252 250 246 255 252 244 255 255 251 255 255 252 255 255 255 248 255 252 255 250 247 255 255 252 255 251 255 247 255 255 249 255 255 255 255 
249 255 244 255 249 255 251 255 255 255 249 247 255 250 255 255 253 255 253 255 242 255 252 255 255 252 255 250 255 252 255 253 255 255 251 248 246 251 254 255 254 255 249 255 255 250 254 253 
254 255 250 255 252 255 255 253 255 248 255 255 240 251 245 96 14 36 255 243 246 248 255 255 95 9 38 249 255 248 146 10 50 97 14 32 255 254 255 252 251 247 255 254 255 255 255 251 
254 254 255 254 255 247 250 254 255 252 255 255 178 18 42 255 254 238 103 2 44 254 255 255 107 11 39 255 250 251 176 7 48 255 253 252 242 255 240 255 250 255 242 252 243 255 255 253 
255 245 255 255 246 249 251 255 255 255 255 250 166 10 34 167 10 39 152 9 55 244 255 254 99 6 37 255 251 245 248 253 249 182 22 60 255 249 255 244 255 247 255 251 255 243 255 252 
243 255 242 247 255 255 251 249 252 255 249 241 254 255 251 145 6 35 168 16 39 255 251 253 137 7 53 247 255 255 110 3 29 244 255 247 255 253 250 246 255 255 255 254 255 255 249 255 
255 252 255 245 255 244 252 250 255 249 255 253 157 4 51 100 8 23 178 11 19 82 8 41 149 6 68 255 251 249 155 0 55 255 255 248 241 255 253 251 249 255 255 254 248 255 255 253 
252 251 255 255 253 250 255 252 253 248 253 255 105 10 42 161 8 36 178 15 42 134 7 52 92 8 34 237 255 255 108 9 27 139 7 56 250 249 245 255 253 255 255 247 251 248 255 250 
255 253 255 255 247 255 254 255 244 251 253 255 78 8 34 174 18 40 102 3 32 254 255 253 140 14 36 108 0 44 177 16 34 76 8 47 249 255 250 255 250 255 248 255 255 254 255 249 
242 255 255 251 255 255 255 255 246 255 247 255 252 255 255 139 10 30 91 5 44 255 247 247 175 11 36 249 255 255 178 12 32 255 247 255 255 253 253 247 254 247 252 248 255 255 255 250 
255 254 255 252 255 248 255 253 253 255 244 255 255 255 253 255 254 248 128 8 56 255 253 255 181 16 48 252 255 248 151 7 40 252 253 255 247 251 254 249 255 250 255 248 255 249 255 251 
255 253 255 242 255 243 255 254 255 255 255 255 248 253 249 247 255 255 109 0 35 103 13 48 145 7 41 247 255 247 113 0 36 251 255 255 255 255 255 255 243 243 255 255 255 249 255 255 
255 253 254 254 255 253 254 255 255 255 254 250 138 10 58 72 11 42 105 10 40 73 0 30 249 255 251 115 8 52 80 7 34 145 3 59 255 253 251 254 255 255 248 253 249 255 252 255 
248 255 250 255 249 255 255 249 250 254 255 248 145 6 61 87 0 39 255 254 253 77 11 39 255 254 255 78 0 48 249 255 253 70 3 46 254 255 244 246 255 254 255 255 253 255 252 255 
