P3
16 16
255
254 253 248 249 255 255 255 250 255 255 254 255 251 251 253 255 252 255 255 255 255 250 255 245 250 255 252 251 255 255 255 246 255 252 255 246 248 255 250 252 254 243 255 253 250 252 255 250 
249 255 255 254 255 255 250 251 243 249 255 248 255 253 255 241 255 255 255 255 255 254 254 252 255 252 255 255 249 251 254 255 248 245 246 255 255 250 255 255 252 255 246 252 248 255 253 255 
253 247 255 255 253 248 255 252 243 244 255 253 250 255 249 255 252 246 249 254 247 255 252 255 249 255 248 241 255 255 253 255 241 247 255 248 248 253 246 249 252 255 252 252 244 255 252 255 
254 255 255 254 255 248 255 245 254 249 254 255 255 255 250 247 255 255 250 255 255 251 253 248 255 252 255 255 253 255 255 255 253 255 250 248 255 254 255 255 253 255 255 248 255 243 255 247 
255 255 248 249 255 255 245 250 253 251 255 255 255 248 255 253 255 244 194 49 66 203 51 72 176 29 47 253 163 103 237 255 250 255 253 255 255 249 249 255 246 255 253 253 251 255 255 244 
247 255 251 255 253 255 245 255 250 255 249 255 255 247 252 254 172 90 255 98 4 196 58 48 165 35 33 163 38 52 142 23 27 255 253 255 244 255 244 251 255 243 253 250 255 255 255 246 
255 255 255 255 249 252 254 255 247 254 247 255 251 255 244 253 92 14 255 102 0 185 53 41 255 104 0 239 170 101 151 18 9 251 255 255 253 245 255 249 255 255 247 251 255 255 255 244 
252 255 255 255 255 251 255 251 251 247 255 254 252 255 248 118 12 24 148 19 24 150 23 30 255 97 13 248 106 6 134 0 9 255 252 255 253 255 243 255 251 250 255 250 255 247 255 253 
252 255 255 255 254 255 255 254 251 74 26 14 172 27 32 197 56 62 204 49 63 169 32 39 115 6 1 90 22 19 94 23 5 189 36 28 118 0 3 255 248 250 245 255 252 248 255 253 
255 252 252 255 245 255 247 255 253 75 5 7 84 22 9 112 3 6 110 11 14 110 6 7 74 31 15 82 18 16 103 8 4 118 17 9 69 0 2 242 255 246 254 255 253 255 252 255 
248 255 250 246 254 255 250 251 253 255 255 244 82 0 5 72 22 21 81 19 20 67 6 1 59 0 1 90 25 31 79 18 15 62 0 0 250 255 252 249 255 253 255 250 250 255 251 255 
250 250 242 255 251 255 255 254 255 255 253 251 252 255 248 255 255 251 255 251 246 77 26 23 78 54 44 255 252 250 254 255 246 255 255 246 255 249 255 250 251 255 252 255 253 252 253 255 
255 255 248 255 255 255 249 250 255 255 253 255 255 252 254 255 253 255 253 252 248 87 67 58 115 45 43 255 253 255 252 251 255 255 254 245 244 250 248 247 255 255 255 251 254 255 255 250 
245 255 248 254 245 250 255 253 255 247 255 255 251 255 255 249 255 255 255 255 253 138 67 73 119 103 78 250 251 255 241 255 255 255 255 246 254 254 252 255 248 255 243 255 255 250 255 244 
255 249 251 249 255 255 255 248 255 254 255 250 255 255 253 249 250 254 255 254 251 122 95 84 133 62 60 255 252 255 255 252 255 247 255 250 254 254 255 255 250 255 255 252 253 247 255 253 
252 255 255 255 255 255 252 250 251 249 255 248 252 255 251 255 253 255 255 255 248 123 70 64 112 52 52 255 254 251 252 255 255 246 246 248 252 255 255 255 252 255 243 255 245 255 253 255 
