P3
16 16
255
222 126 50 214 118 42 224 128 52 215 119 43 215 122 45 210 117 40 215 123 48 210 118 43 213 116 39 212 116 39 210 114 38 213 117 41 208 114 40 212 118 44 216 120 46 205 109 35 
195 108 39 192 105 36 194 107 38 181 97 27 181 96 29 184 101 33 181 98 30 174 91 23 190 103 34 188 104 34 184 100 30 186 101 34 194 109 42 186 101 36 175 90 25 180 95 30 
184 99 32 176 91 24 172 89 23 171 88 22 171 88 22 169 88 22 165 84 18 172 91 25 172 89 21 161 78 10 159 78 12 159 78 12 158 77 11 158 77 12 160 79 14 161 82 16 
221 127 53 214 120 48 214 122 49 217 126 55 217 126 55 202 111 40 193 102 29 204 113 40 209 121 49 203 115 41 207 116 43 210 119 46 210 119 46 205 117 45 197 109 38 160 73 2 
218 121 44 210 114 38 207 113 39 194 102 27 202 110 37 194 102 27 192 100 25 195 102 25 184 93 20 206 114 39 200 108 33 189 97 22 189 97 22 185 93 18 197 106 33 179 91 19 
216 124 51 198 107 36 191 103 32 178 91 22 191 107 37 191 104 35 194 107 36 195 107 35 189 104 37 193 109 39 189 102 31 188 100 29 192 105 34 185 98 29 191 108 40 161 78 10 
211 120 49 193 105 34 192 105 36 188 105 37 195 112 46 191 108 40 189 105 35 187 100 29 181 97 33 173 90 24 191 106 39 195 108 39 192 105 36 188 103 36 192 109 43 160 79 14 
203 107 31 197 103 29 194 103 32 184 96 25 182 95 24 196 108 36 202 111 38 198 106 33 189 102 35 185 96 28 204 113 42 191 99 26 198 106 33 197 106 35 182 95 24 161 77 7 
208 117 44 180 93 22 190 106 36 190 103 34 189 98 27 199 107 34 203 111 38 195 104 33 191 99 32 195 106 40 190 103 36 189 100 32 198 107 37 195 104 34 189 102 35 161 80 15 
213 122 51 176 89 20 180 95 28 196 111 44 194 106 35 187 96 25 194 106 34 188 101 30 194 106 35 192 105 36 182 97 30 182 95 26 190 102 31 187 99 28 182 97 30 156 75 10 
205 112 42 195 106 38 178 93 26 184 99 32 197 110 41 186 98 27 192 103 35 193 108 41 195 108 37 185 101 31 181 98 30 187 103 33 192 106 33 185 99 26 182 99 29 159 80 13 
188 94 20 204 113 42 193 106 37 190 103 34 206 118 47 197 106 35 190 102 31 187 100 31 186 98 26 193 106 35 194 110 40 189 105 35 190 102 30 193 105 33 192 108 36 159 76 8 
214 116 41 199 105 33 198 107 36 198 107 37 198 106 33 194 102 29 199 106 36 193 105 34 195 102 32 193 104 36 193 106 39 191 104 35 194 103 33 194 103 32 195 107 36 166 79 10 
207 111 35 191 99 26 188 100 29 191 103 31 201 109 36 195 103 28 194 102 29 190 99 28 199 106 36 188 99 31 179 92 25 180 93 26 188 100 29 191 100 29 196 105 35 172 85 16 
197 106 33 202 115 44 181 98 30 174 90 20 195 108 37 194 106 32 198 110 38 200 113 42 189 101 30 193 108 41 184 101 35 172 89 23 182 98 28 198 111 40 204 117 46 174 90 20 
161 77 7 171 91 22 155 76 10 155 76 9 166 83 13 159 72 1 173 89 17 170 87 17 164 80 8 158 78 9 154 75 9 159 80 13 165 85 14 159 75 3 162 80 7 155 75 4 
