P3
16 16
255
240 237 206 236 233 200 241 238 205 238 235 202 239 236 201 229 225 190 239 235 198 232 226 190 228 229 189 231 228 187 228 225 180 236 233 188 224 225 183 230 231 191 231 229 188 223 218 176 
229 216 172 219 206 162 218 205 161 211 197 152 211 197 150 213 196 150 213 197 148 215 197 149 221 209 171 221 208 166 214 199 156 219 206 162 222 210 168 217 208 167 208 195 153 215 198 154 
211 197 152 218 201 157 204 187 141 203 185 137 205 185 135 207 187 136 213 191 141 208 187 134 208 188 129 197 176 113 196 172 108 197 173 109 192 171 108 198 177 114 201 176 110 202 171 104 
242 236 212 231 224 198 242 232 205 245 234 206 247 233 204 234 221 189 216 203 171 233 218 187 235 231 193 232 224 185 234 227 185 237 230 188 233 228 186 236 229 187 229 216 171 188 172 123 
235 238 193 227 229 182 220 219 171 217 215 164 226 223 170 210 207 154 214 211 158 216 213 160 206 197 154 231 220 175 228 215 170 214 203 158 213 201 159 210 197 152 227 209 159 208 185 131 
241 237 199 218 213 173 220 213 171 200 191 148 218 207 162 222 214 168 217 208 165 220 213 169 213 209 161 219 213 165 217 211 163 210 206 159 214 212 164 210 204 156 225 214 160 195 179 120 
240 231 190 218 206 164 218 205 160 225 211 164 234 220 173 222 209 164 216 205 160 216 207 164 217 200 154 206 189 143 227 210 166 224 209 166 223 210 168 219 205 160 233 211 161 202 175 120 
223 216 172 217 209 163 223 212 166 208 196 148 208 196 148 228 220 173 224 217 173 217 212 170 217 210 158 209 199 150 229 221 174 214 207 163 223 218 176 219 212 166 212 199 147 192 173 115 
234 227 183 207 200 154 222 214 167 217 209 160 217 209 160 219 211 164 225 218 174 217 210 168 216 211 156 220 212 166 222 214 168 214 208 156 218 212 162 221 210 165 218 200 152 201 179 119 
236 228 182 200 192 146 206 195 149 219 208 162 223 213 164 219 208 162 226 218 171 214 206 160 226 216 163 216 205 159 208 197 151 207 197 144 217 210 158 223 210 165 219 201 151 191 170 107 
235 227 180 224 216 169 211 200 155 219 208 163 225 214 169 206 195 149 210 202 153 223 215 166 227 216 171 221 207 170 217 203 166 221 210 164 220 209 164 211 197 158 216 197 154 195 173 116 
202 195 149 226 219 173 218 209 166 215 206 165 230 221 178 231 223 177 221 215 167 214 208 158 207 199 152 220 208 168 222 208 169 221 211 162 217 209 162 221 209 167 232 215 169 196 176 117 
236 232 187 218 214 169 217 210 168 227 220 178 223 216 174 216 209 165 213 209 162 216 212 164 219 212 157 225 215 166 221 211 160 220 214 156 216 211 155 214 206 157 223 212 158 191 176 111 
224 217 171 220 212 166 220 212 165 219 208 162 220 209 163 219 211 164 220 212 166 216 209 163 219 208 162 214 200 161 208 195 153 211 199 151 214 206 159 218 206 168 229 214 173 208 191 139 
232 218 169 231 218 166 211 195 143 206 191 136 230 215 160 225 209 158 228 214 167 232 218 173 224 210 165 227 208 168 217 198 158 205 187 141 215 201 156 234 218 184 237 217 180 205 183 134 
192 172 121 206 187 131 195 176 117 191 171 108 201 181 120 189 170 114 210 190 140 207 186 141 194 177 108 192 172 111 197 176 113 196 177 108 197 179 113 190 173 117 197 177 118 198 175 107 
