P3
16 16
255
31 135 146 39 147 157 46 148 160 31 142 151 37 152 159 39 152 160 33 148 155 33 141 151 47 142 160 35 143 156 34 142 154 48 152 163 32 147 154 42 165 172 27 141 152 38 140 155 
30 143 151 32 143 152 29 161 163 43 158 165 27 129 141 45 149 160 37 129 144 30 141 150 34 144 157 27 156 161 42 156 166 43 150 160 37 160 165 28 145 154 41 152 163 57 199 201 
38 146 158 53 178 184 43 160 169 33 154 162 42 148 161 45 134 152 36 142 155 36 140 153 37 141 154 35 154 162 34 145 156 35 143 153 39 154 161 38 134 150 38 135 151 29 169 170 
30 141 152 40 144 157 31 139 151 37 143 156 24 135 146 30 147 156 35 143 155 34 145 156 30 126 142 42 138 154 34 146 157 32 153 161 42 148 161 39 135 151 38 140 154 24 130 143 
40 151 162 36 138 152 38 146 158 39 145 158 45 156 167 29 146 155 44 155 166 45 157 168 30 137 147 37 141 152 37 154 163 29 150 158 46 157 168 23 140 149 41 160 166 40 136 150 
29 135 148 46 169 176 29 143 153 39 156 165 37 141 154 50 139 157 31 142 153 39 147 159 38 146 156 39 156 163 36 144 156 37 133 149 41 145 158 27 146 154 37 154 161 36 138 150 
22 133 142 30 138 148 35 163 166 33 144 153 25 126 138 43 147 158 43 141 154 29 148 154 32 139 147 45 153 163 41 149 161 51 157 170 34 136 150 39 147 159 39 152 160 39 152 158 
38 140 152 44 148 159 48 146 159 42 146 157 36 149 157 33 148 155 29 151 156 46 163 170 36 154 158 34 135 147 30 162 164 42 195 192 39 158 166 35 146 155 34 164 166 39 161 164 
48 140 155 44 152 162 29 152 157 44 166 171 35 143 153 34 136 148 42 150 160 38 157 163 33 148 155 44 155 164 33 144 153 34 151 158 38 149 158 30 138 148 33 155 160 34 145 154 
27 135 145 29 146 153 37 159 164 17 132 139 43 145 157 43 145 157 39 154 161 22 154 156 34 147 155 39 154 161 41 145 156 49 138 154 36 140 151 42 150 160 42 143 155 40 162 167 
34 156 161 37 141 152 35 124 140 56 148 163 34 141 151 34 149 156 26 137 146 43 144 156 39 167 170 42 157 164 26 149 154 28 143 150 30 143 151 44 167 172 34 153 159 37 162 166 
28 156 159 42 150 160 41 139 152 30 141 150 28 162 163 56 194 194 33 150 157 46 135 151 37 141 152 25 144 150 50 157 167 31 167 167 40 163 168 34 136 148 50 180 182 37 130 145 
49 147 160 34 136 148 32 139 149 44 155 164 39 150 159 33 140 150 44 145 157 26 122 136 29 136 146 41 145 156 35 167 169 34 147 155 38 161 166 27 161 162 40 127 144 28 141 149 
26 145 151 31 148 155 31 146 153 37 150 158 25 138 146 37 152 159 27 144 151 45 164 170 45 167 172 42 172 174 26 141 148 41 160 166 27 149 154 42 155 163 41 164 169 26 145 151 
43 162 168 40 147 157 36 132 146 36 137 149 35 148 156 34 156 161 34 149 156 42 146 157 25 144 150 35 142 152 37 141 152 29 140 149 45 141 155 34 132 145 37 156 162 37 141 152 
39 146 156 34 142 152 37 150 158 27 149 154 48 173 177 44 167 172 18 133 140 45 152 162 39 150 159 41 156 163 35 152 159 37 150 158 31 150 156 38 155 162 32 134 146 37 148 157 
