P3
16 16
255
86 90 91 86 90 91 85 89 90 85 89 90 86 90 91 88 92 93 88 92 93 89 93 94 85 89 90 88 92 93 89 93 94 86 90 91 82 86 87 83 87 88 85 89 90 86 90 91 
85 89 90 86 90 91 88 92 93 89 93 94 89 93 94 88 92 93 87 91 92 86 90 91 87 91 92 89 93 94 89 93 94 87 91 92 85 89 90 86 90 91 87 91 92 86 90 91 
87 91 92 87 91 92 87 91 92 86 90 91 85 89 90 84 88 89 85 89 90 86 90 91 87 91 92 88 92 93 88 92 93 87 91 92 88 92 93 88 92 93 88 92 93 86 90 91 
89 93 94 89 93 94 88 92 93 85 89 90 82 86 87 82 86 87 84 88 89 86 90 91 86 90 91 87 91 92 87 91 92 88 92 93 88 92 93 88 92 93 87 91 92 86 90 91 
87 91 92 89 93 94 91 95 96 90 94 95 87 91 92 85 89 90 84 88 89 85 89 90 85 89 90 86 90 91 88 92 93 89 93 94 88 92 93 87 91 92 87 91 92 88 92 93 
88 92 93 89 93 94 89 93 94 88 92 93 86 90 91 85 89 90 86 90 91 86 90 91 85 89 90 87 91 92 89 93 94 90 94 95 88 92 93 87 91 92 87 91 92 89 93 94 
90 94 95 88 92 93 86 90 91 84 88 89 84 88 89 85 89 90 87 91 92 89 93 94 87 91 92 87 91 92 87 91 92 89 93 94 89 93 94 88 92 93 88 92 93 89 93 94 
87 91 92 87 91 92 87 91 92 88 92 93 88 92 93 88 92 93 88 92 93 87 91 92 88 92 93 86 90 91 85 89 90 87 91 92 89 93 94 88 92 93 87 91 92 87 91 92 
89 93 94 89 93 94 88 92 93 85 89 90 84 88 89 85 89 90 86 90 91 86 90 91 86 90 91 87 91 92 89 93 94 90 94 95 90 94 95 90 94 95 90 94 95 89 93 94 
86 90 91 87 91 92 86 90 91 84 88 89 83 87 88 85 89 90 85 89 90 85 89 90 88 92 93 87 91 92 86 90 91 85 89 90 86 90 91 87 91 92 89 93 94 89 93 94 
87 91 92 88 92 93 88 92 93 87 91 92 87 91 92 88 92 93 89 93 94 88 92 93 88 92 93 88 92 93 88 92 93 89 93 94 89 93 94 89 93 94 87 91 92 86 90 91 
84 88 89 86 90 91 86 90 91 85 89 90 85 89 90 86 90 91 86 90 91 85 89 90 91 95 96 90 94 95 89 93 94 90 94 95 90 94 95 89 93 94 87 91 92 85 89 90 
85 89 90 86 90 91 86 90 91 85 89 90 85 89 90 86 90 91 86 90 91 84 88 89 92 96 97 89 93 94 85 89 90 83 87 88 84 88 89 86 90 91 89 93 94 90 94 95 
87 91 92 88 92 93 88 92 93 87 91 92 87 91 92 88 92 93 87 91 92 86 90 91 88 92 93 86 90 91 84 88 89 83 87 88 84 88 89 86 90 91 89 93 94 91 95 96 
85 89 90 86 90 91 86 90 91 85 89 90 85 89 90 86 90 91 86 90 91 85 89 90 84 88 89 86 90 91 88 92 93 88 92 93 87 91 92 87 91 92 87 91 92 88 92 93 
88 92 93 88 92 93 88 92 93 87 91 92 87 91 92 88 92 93 89 93 94 88 92 93 88 92 93 89 93 94 88 92 93 86 90 91 83 87 88 83 87 88 85 89 90 87 91 92 
