P3
16 16
255
255 253 255 254 253 251 253 252 255 254 255 255 254 255 251 255 255 255 255 253 255 255 251 255 255 251 255 255 253 255 255 255 255 254 255 251 254 255 255 253 252 255 254 253 251 255 253 255 
255 255 253 255 253 255 255 255 255 255 255 250 251 253 252 253 252 255 255 255 251 254 255 239 254 255 239 255 255 251 253 252 255 251 253 252 255 255 250 255 255 255 255 253 255 255 255 253 
253 252 255 255 255 255 255 255 255 255 254 255 253 253 251 255 255 251 254 255 255 251 254 255 251 254 255 254 255 255 255 255 251 253 253 251 255 254 255 255 255 255 255 255 255 253 252 255 
254 255 255 253 254 248 255 254 255 255 254 255 255 255 248 255 255 253 252 255 255 250 254 253 250 254 253 252 255 255 255 255 253 255 255 248 255 254 255 255 254 255 253 254 248 254 255 255 
254 255 251 252 254 253 254 254 252 255 255 248 255 255 253 253 252 255 253 255 252 253 255 229 253 255 229 253 255 252 253 252 255 255 255 253 255 255 248 254 254 252 252 254 253 254 255 251 
255 255 255 254 253 255 255 255 253 255 255 253 253 252 255 253 251 254 255 254 255 255 249 255 255 249 255 255 254 255 253 251 254 253 252 255 255 255 253 255 255 253 254 253 255 255 255 255 
255 252 255 254 255 250 254 255 255 252 255 255 253 255 252 255 254 255 255 251 255 255 247 242 255 247 242 255 251 255 255 254 255 253 255 252 252 255 255 254 255 255 254 255 250 255 252 255 
255 252 255 255 255 241 254 254 255 250 254 253 254 255 230 255 249 255 255 246 241 238 253 66 238 253 66 255 246 241 255 249 255 254 255 230 250 254 253 254 254 255 255 255 241 255 252 255 
243 255 255 255 251 255 255 253 255 249 252 255 255 251 255 255 255 246 255 232 77 255 213 56 240 160 23 255 235 88 254 247 255 252 255 255 253 255 250 255 250 255 249 255 242 249 255 255 
252 255 253 255 254 249 254 255 246 255 255 250 252 255 255 255 231 69 238 165 37 249 239 82 192 104 33 243 220 62 255 242 75 245 255 255 248 255 248 255 253 255 255 253 255 251 247 246 
255 248 255 250 247 254 255 250 253 255 250 254 228 255 255 255 255 253 245 235 75 187 106 41 253 216 49 255 231 96 247 252 255 255 253 248 250 250 248 252 255 255 255 249 255 255 250 255 
252 255 239 255 255 253 247 255 255 255 252 253 255 255 239 251 246 253 255 250 255 28 126 7 24 122 0 249 255 253 255 247 255 252 254 255 255 254 253 244 250 246 254 254 255 252 254 249 
252 255 255 249 255 249 255 250 255 255 249 255 255 250 245 29 130 2 81 144 39 72 170 35 77 139 38 248 255 255 255 251 255 255 247 251 255 249 247 248 255 241 254 254 246 252 255 239 
254 251 246 255 252 255 236 255 249 255 247 255 248 255 246 255 249 251 19 118 12 93 180 37 84 141 44 57 152 32 25 128 11 255 255 244 251 254 255 247 255 255 255 245 255 255 254 251 
255 253 255 254 255 255 255 255 246 255 255 239 255 255 253 246 255 255 255 253 255 82 168 45 24 119 0 22 120 11 250 255 241 253 253 255 255 250 255 255 253 244 254 255 255 242 252 254 
254 255 255 255 252 250 255 255 251 251 251 255 250 255 243 255 250 255 255 248 255 70 147 41 34 120 13 245 255 241 255 251 255 251 255 255 254 255 241 255 250 252 246 255 255 255 252 251 
