P3
16 16
255
58 111 91 60 133 106 51 131 102 44 82 67 63 110 92 55 108 88 64 126 103 49 81 68 58 116 94 66 125 103 54 130 102 48 82 68 61 110 91 65 135 109 61 119 97 49 81 68 
67 129 106 69 107 92 61 87 76 32 66 52 75 128 108 61 112 93 48 86 71 38 64 53 60 124 100 62 113 94 61 87 76 27 68 52 58 126 101 64 107 90 39 92 72 39 60 51 
69 101 88 54 80 69 44 82 67 45 56 50 58 99 83 59 87 75 44 87 70 42 62 53 56 105 86 57 91 77 44 76 63 58 75 67 66 110 93 43 90 72 44 82 67 48 59 53 
47 88 72 37 69 56 37 58 49 50 82 69 42 78 64 37 78 62 56 86 74 49 75 64 55 83 71 42 65 55 35 61 50 54 74 65 47 77 65 47 60 53 39 62 52 57 74 66 
46 87 71 56 105 86 57 130 103 56 86 74 78 125 107 56 82 71 59 108 89 48 82 68 53 111 89 61 108 90 55 135 106 45 83 68 76 125 106 62 127 103 54 103 84 35 88 68 
66 124 102 64 132 107 54 103 84 32 55 45 63 104 88 56 135 106 49 108 86 48 54 50 63 97 83 67 135 110 41 85 68 40 61 52 54 97 80 63 112 93 60 136 108 40 55 48 
60 111 92 52 86 72 43 86 69 47 73 62 51 104 84 64 98 84 46 89 72 36 62 51 65 109 92 40 74 60 53 85 72 40 66 55 63 107 90 47 83 69 61 102 86 48 78 66 
52 78 67 38 61 51 36 64 52 54 74 65 52 82 70 35 63 51 50 82 69 54 77 67 51 79 67 47 70 60 20 63 46 56 76 67 55 81 70 38 59 50 35 63 51 48 82 68 
64 108 91 56 126 100 67 137 111 52 75 65 66 110 93 55 134 105 50 129 100 54 77 67 62 92 80 53 115 92 62 127 103 57 78 69 61 105 88 54 133 104 54 134 105 48 78 66 
64 132 107 60 109 90 54 98 81 30 64 50 69 124 103 65 114 95 48 91 74 41 62 53 66 131 107 59 129 103 53 104 85 37 65 53 61 129 104 67 111 94 57 78 69 36 59 49 
61 110 91 50 91 75 43 86 69 37 63 52 66 107 91 53 87 73 37 71 57 46 63 55 55 102 84 59 108 89 58 107 88 46 74 62 61 108 90 63 97 83 52 84 71 43 66 56 
52 72 63 45 62 54 51 79 67 57 74 66 53 83 71 42 62 53 37 67 55 51 79 67 57 72 65 42 59 51 49 83 69 62 85 75 52 82 70 36 56 47 32 66 52 47 79 66 
55 98 81 54 118 94 58 126 101 54 82 70 55 106 87 52 131 102 51 131 102 46 82 68 65 108 91 53 140 108 57 131 104 49 70 61 52 110 88 60 128 103 62 117 96 46 76 64 
58 132 105 62 103 87 59 87 75 35 65 53 63 127 103 60 115 94 56 99 82 41 61 52 62 132 106 55 106 87 58 88 76 37 60 50 64 129 105 58 107 88 58 84 73 45 60 53 
58 116 94 54 88 74 47 75 63 42 63 54 61 110 91 48 89 73 47 79 66 48 59 53 59 108 89 61 87 76 63 91 79 44 67 57 60 107 89 49 90 74 45 83 68 41 58 50 
50 76 65 43 60 52 37 67 55 53 79 68 45 79 65 44 59 52 42 68 57 46 80 66 52 73 64 33 67 53 33 69 55 46 69 59 45 88 71 46 59 52 43 56 49 45 83 68 
