P3
16 16
255
107 107 107 116 116 116 253 253 253 183 183 183 254 254 254 155 155 155 150 150 150 255 255 255 154 156 153 180 182 179 122 124 121 186 188 185 253 255 252 254 255 253 182 184 181 122 124 121 
161 161 161 248 248 248 255 255 255 255 255 255 112 112 112 107 107 107 125 125 125 157 157 157 255 255 255 185 185 185 157 157 157 182 182 182 255 255 255 180 180 180 161 161 161 185 185 185 
251 251 251 255 255 255 157 157 157 152 152 152 253 253 253 154 154 154 153 153 153 122 122 122 185 185 185 252 252 252 185 185 185 255 255 255 255 255 255 183 183 183 178 178 178 182 182 182 
255 255 255 180 180 180 125 125 125 109 109 109 111 111 111 255 255 255 188 188 188 150 150 150 186 186 186 107 107 107 255 255 255 255 255 255 255 255 255 254 254 254 190 190 190 255 255 255 
182 182 182 156 156 156 190 190 190 152 152 152 255 255 255 255 255 255 151 151 151 186 186 186 253 253 253 255 255 255 105 105 105 251 251 251 154 154 154 157 157 157 255 255 255 253 253 253 
182 182 182 190 190 190 178 178 178 254 254 254 255 255 255 180 180 180 122 122 122 111 111 111 110 110 110 111 111 111 255 255 255 113 113 113 109 109 109 125 125 125 148 148 148 255 255 255 
154 154 154 151 151 151 253 253 253 111 111 111 179 179 179 161 161 161 183 183 183 153 153 153 255 255 255 149 149 149 155 155 155 255 255 255 151 151 151 153 153 153 125 125 125 184 184 184 
122 122 122 114 114 114 109 109 109 255 255 255 188 188 188 181 181 181 183 183 183 255 255 255 109 107 110 117 115 118 121 119 122 187 185 188 255 254 255 183 181 184 128 126 129 151 149 152 
184 184 184 154 154 154 255 255 255 109 109 109 112 112 112 181 181 181 155 155 155 151 151 151 253 255 252 154 156 153 185 185 185 152 152 152 187 187 187 105 105 105 159 157 160 124 122 125 
183 183 183 251 251 251 254 254 254 255 255 255 110 110 110 107 107 107 109 109 109 129 129 129 155 157 154 250 252 249 185 185 185 184 184 184 181 181 181 113 113 113 182 180 183 154 152 155 
254 254 254 157 157 157 153 153 153 249 249 249 110 110 110 255 255 255 153 153 153 149 149 149 120 120 120 187 187 187 255 255 255 188 188 188 107 107 107 111 111 111 110 110 110 184 184 184 
156 156 156 125 125 125 111 111 111 112 112 112 254 254 254 253 253 253 255 255 255 185 185 185 158 158 158 180 180 180 252 252 252 149 149 149 156 156 156 110 110 110 255 255 255 255 255 255 
118 118 118 158 158 158 148 148 148 255 255 255 151 151 151 154 154 154 250 250 250 255 255 255 183 183 183 255 255 255 112 112 112 111 111 111 125 125 125 183 183 183 252 252 252 151 151 151 
156 156 156 184 184 184 255 255 255 183 183 183 127 127 127 108 108 108 111 111 111 252 252 252 250 250 250 113 113 113 255 255 255 152 152 152 183 183 183 128 128 128 153 153 153 187 187 187 
189 189 189 247 247 247 188 188 188 153 153 153 176 176 176 159 159 159 255 255 255 255 255 255 162 160 163 148 146 149 253 253 253 255 255 255 184 184 184 148 148 148 190 192 189 247 249 246 
152 152 152 255 255 255 181 181 181 185 185 185 188 188 188 253 253 253 253 253 253 111 111 111 108 106 109 132 130 133 149 149 149 255 255 255 252 252 252 184 184 184 254 255 253 154 156 153 
