P3
16 16
255
65 54 34 45 34 14 70 57 38 63 50 31 61 49 27 48 33 12 70 55 34 63 48 25 63 50 31 42 28 17 61 48 29 72 60 36 47 34 18 65 52 33 66 54 28 50 37 20 
58 45 26 47 34 15 81 68 49 51 38 19 59 46 27 46 34 12 81 66 45 59 44 23 64 52 30 45 31 18 59 46 27 65 53 29 52 39 23 63 50 31 62 50 24 53 40 23 
65 50 31 52 37 18 51 38 19 53 40 21 64 51 32 45 32 15 81 68 51 47 34 17 58 46 24 51 37 24 61 48 29 49 37 13 50 37 21 63 50 31 65 53 27 50 37 20 
72 57 38 42 27 8 58 43 24 56 43 24 59 46 29 48 35 18 58 47 29 55 43 27 65 50 27 55 39 24 62 50 28 44 32 8 50 36 23 60 47 28 71 57 31 55 39 23 
72 57 38 50 35 16 67 52 33 51 38 19 63 50 33 47 34 17 60 49 31 51 39 23 83 67 42 53 37 22 61 49 27 55 43 19 59 45 32 51 38 19 71 57 31 66 49 31 
65 50 31 69 54 35 46 33 14 59 46 27 68 55 36 46 33 16 67 54 37 47 34 17 85 69 43 58 42 26 66 54 32 58 46 22 60 46 33 48 35 18 71 57 30 66 49 31 
55 42 23 61 48 29 48 35 16 68 55 36 62 49 30 54 42 20 52 37 16 67 52 31 71 55 29 66 49 33 70 58 36 53 41 17 59 45 32 52 39 22 72 56 30 63 46 28 
52 41 21 58 47 27 45 32 13 62 49 30 73 61 39 61 46 25 59 44 23 68 53 30 64 47 19 67 50 34 71 56 35 54 42 18 65 51 38 55 39 23 68 52 26 69 50 33 
61 48 32 47 34 17 45 30 11 88 72 49 65 49 26 65 50 29 54 39 18 69 54 35 64 51 32 49 36 19 71 58 41 52 40 18 70 56 30 56 42 16 67 52 29 67 50 32 
64 51 35 66 50 34 54 39 18 80 64 41 63 47 24 64 49 28 51 36 17 63 50 33 60 48 26 52 39 20 69 56 37 53 38 17 73 58 35 57 43 17 54 39 18 64 48 32 
62 47 28 61 44 26 68 51 31 69 53 30 69 54 31 56 41 20 57 44 25 48 37 19 65 50 27 55 40 21 64 49 30 46 31 12 75 60 37 59 47 23 41 28 9 60 47 30 
67 50 30 54 37 17 62 46 23 75 59 36 60 45 24 56 43 24 64 51 34 38 27 9 86 70 47 63 48 27 67 52 33 46 31 12 78 66 44 69 57 35 48 35 16 65 52 36 
85 69 46 53 37 14 64 48 25 65 49 26 69 54 33 49 36 17 72 59 42 40 29 11 86 70 45 54 39 18 65 49 33 42 27 8 66 54 32 61 49 27 51 38 19 59 46 30 
82 67 44 65 49 26 52 36 13 71 54 34 68 53 32 63 48 29 64 51 32 47 36 16 74 59 36 49 34 15 69 53 37 52 36 20 62 47 28 62 50 28 64 51 32 64 51 34 
70 58 34 63 48 25 52 37 14 68 51 31 69 52 32 64 49 28 68 53 32 47 35 13 58 46 24 45 32 13 61 48 32 56 40 25 53 38 19 66 51 30 66 51 30 61 46 27 
68 56 32 63 51 27 50 35 14 72 55 35 51 34 14 66 51 30 72 57 36 49 34 13 62 50 28 56 43 26 59 46 30 59 46 30 50 35 16 71 56 35 64 49 28 55 38 20 
