P3
16 16
255
254 255 255 247 255 251 255 255 250 255 249 241 255 252 253 254 254 255 255 254 249 254 255 253 255 254 245 254 253 255 252 255 253 250 255 250 249 255 255 255 252 255 246 255 255 255 251 255 
255 253 255 252 249 255 245 255 255 251 255 255 249 255 246 254 254 242 250 252 255 255 255 255 254 255 255 252 255 255 245 255 252 255 246 255 254 254 255 253 241 255 255 255 244 253 255 242 
255 255 250 255 251 244 247 252 255 255 250 255 236 255 249 255 253 253 247 255 255 255 255 253 255 250 239 244 255 251 249 255 251 69 144 25 40 99 33 252 255 255 255 255 253 247 254 255 
247 255 250 255 248 255 245 254 253 23 80 29 41 104 33 67 144 42 71 136 34 253 253 251 248 255 255 255 255 255 15 87 11 65 132 53 255 254 255 16 75 19 250 254 255 255 246 255 
240 249 255 251 255 255 252 255 255 253 255 252 49 138 48 85 178 71 27 102 43 28 78 15 62 144 36 86 173 69 41 93 18 9 90 24 60 146 37 30 99 44 255 255 244 255 255 250 
255 255 248 245 255 250 26 77 11 69 138 32 38 108 19 74 47 17 70 49 18 26 105 24 89 166 64 25 102 22 23 83 23 96 62 34 87 173 46 0 87 8 255 254 250 251 253 250 
255 251 245 247 255 251 254 254 254 26 80 28 66 51 12 17 83 22 23 97 8 64 144 57 37 104 35 11 85 0 78 41 15 60 147 52 18 81 26 255 253 255 241 251 252 247 255 255 
255 249 255 243 255 255 254 255 255 250 248 255 255 255 246 34 100 28 13 85 12 16 82 18 15 78 7 29 102 33 22 105 33 90 59 30 87 65 24 79 46 13 255 246 255 255 254 255 
254 255 244 255 248 255 254 255 250 251 255 254 64 137 48 19 87 10 18 80 17 90 64 37 30 102 39 30 98 11 22 81 23 63 53 17 87 42 9 22 100 25 255 255 253 255 255 253 
245 252 255 255 249 255 250 255 242 25 82 27 5 84 19 240 255 235 108 64 35 83 56 27 91 61 33 22 83 13 74 51 19 67 51 35 22 87 29 81 185 48 73 144 40 255 243 253 
251 255 251 255 255 239 245 250 244 255 251 255 248 255 255 14 83 20 52 139 34 27 108 29 87 64 20 94 59 37 75 57 7 8 85 13 255 251 255 255 249 255 244 254 253 247 255 255 
254 254 255 255 246 255 255 254 251 249 255 237 65 139 52 95 170 65 37 99 26 110 80 44 91 61 33 112 85 55 75 45 19 255 249 255 255 252 251 255 255 251 254 255 243 254 248 255 
255 251 251 255 249 255 247 253 241 240 255 254 22 81 17 76 52 26 113 82 51 128 99 41 113 86 43 108 75 30 93 66 39 243 254 255 249 255 237 255 253 247 247 255 250 249 255 253 
241 255 242 248 255 255 245 255 246 255 253 255 255 254 249 255 252 255 100 76 38 132 97 69 112 84 47 87 64 32 69 52 34 255 255 253 255 242 244 248 255 255 255 245 255 255 250 255 
255 255 239 255 249 255 245 254 255 253 251 254 255 250 246 255 253 255 76 67 34 128 97 69 98 55 20 115 82 49 71 57 20 113 78 50 255 248 252 255 249 255 247 255 255 255 253 250 
248 255 255 250 255 249 254 255 248 255 250 255 243 255 247 93 63 29 87 63 29 116 82 37 93 61 40 74 55 12 86 62 24 92 64 27 254 255 251 241 255 251 255 252 255 255 255 243 
