P3
16 16
255
120 110 98 72 48 24 73 53 29 84 55 25 79 53 26 74 57 37 81 51 23 82 56 31 80 56 22 85 51 42 78 48 22 181 163 0 76 44 23 67 52 11 90 54 30 54 38 12 
80 67 51 77 53 27 61 40 19 51 25 0 52 31 4 40 25 6 55 25 0 71 45 20 81 57 31 66 40 13 49 22 15 60 21 14 49 21 17 43 23 24 85 50 31 64 48 22 
85 67 47 78 52 27 47 30 10 54 32 8 61 43 19 58 45 28 91 61 33 78 51 24 71 49 25 54 37 0 55 37 13 63 33 33 63 47 13 87 73 34 83 55 18 54 36 26 
94 69 47 67 40 13 42 27 8 63 45 23 58 42 19 57 42 23 103 74 44 73 46 19 84 61 27 38 24 0 59 41 29 64 44 11 54 39 16 91 75 24 86 58 21 58 36 25 
94 68 45 75 48 21 43 30 13 60 43 23 65 47 23 57 40 20 94 63 32 76 49 22 83 55 31 38 25 8 64 44 33 64 40 28 65 47 25 90 63 36 79 47 26 63 41 18 
93 67 44 78 51 24 39 26 10 53 35 13 69 48 21 68 48 23 99 66 33 74 48 21 76 42 32 42 30 6 61 41 6 70 45 23 63 42 11 103 69 34 73 43 19 63 41 18 
95 69 46 80 52 28 47 34 18 67 45 21 70 43 13 69 43 16 110 76 41 73 47 20 77 46 28 35 27 6 72 48 22 70 46 22 72 45 38 110 72 33 79 53 26 57 39 19 
89 64 42 75 49 24 38 25 8 71 47 21 81 51 17 71 44 14 115 79 43 73 47 20 75 48 21 36 31 9 74 51 20 70 46 20 77 53 17 113 76 31 70 48 24 56 44 18 
92 69 51 69 45 9 41 28 12 72 51 20 73 47 14 73 44 26 113 74 31 88 55 24 76 46 22 44 27 11 73 52 25 67 46 19 85 55 19 113 71 31 80 54 29 66 41 19 
82 63 49 74 53 22 40 26 13 68 47 18 81 52 22 85 56 38 111 74 32 82 51 22 74 48 25 42 26 10 71 49 25 71 49 25 83 52 21 114 75 36 74 52 28 61 41 17 
66 52 43 67 47 23 43 29 16 70 46 18 81 50 19 83 52 31 116 78 39 83 53 25 75 53 29 44 28 12 75 49 24 79 53 30 83 52 23 117 79 42 73 53 28 60 42 18 
122 107 100 73 52 33 44 28 12 83 56 26 94 59 27 74 43 15 113 75 38 83 54 24 79 58 31 48 31 11 83 53 25 85 55 29 88 53 25 112 74 38 69 49 24 55 35 8 
85 67 55 70 45 25 54 36 14 82 51 22 83 47 13 88 55 24 119 81 45 79 50 18 80 56 28 52 32 8 87 52 22 84 50 23 89 54 26 107 69 33 76 55 28 65 44 15 
89 66 48 78 50 29 53 36 10 95 65 37 102 68 40 100 73 43 96 61 31 73 48 18 70 44 17 58 36 13 98 63 31 99 69 41 104 74 46 103 70 37 73 53 28 62 37 7 
88 64 40 82 54 32 61 47 20 72 50 26 73 47 24 74 54 29 78 47 26 71 51 26 82 57 35 70 52 32 85 54 25 76 55 28 71 51 26 73 47 20 61 44 24 65 41 15 
80 54 27 55 27 6 49 40 11 47 30 10 50 31 14 42 30 8 58 35 19 47 32 9 54 31 13 51 34 18 55 29 2 52 36 13 44 32 10 53 33 9 48 35 19 62 40 19 
