P3
16 16
255
81 51 23 72 42 14 83 54 24 81 52 22 85 56 26 84 55 23 85 54 23 88 58 24 77 52 21 81 56 25 84 57 27 83 57 24 84 57 27 84 57 27 74 49 19 62 37 7 
78 53 31 76 51 29 76 54 31 67 45 22 63 41 18 66 44 21 70 48 25 70 48 24 85 48 32 84 47 29 80 45 26 76 43 24 75 47 26 75 50 28 67 46 25 57 39 19 
76 45 24 77 49 27 75 47 25 75 47 25 71 43 21 73 47 24 75 49 26 70 44 21 59 43 17 60 44 18 64 44 19 71 47 21 76 50 27 78 50 28 72 44 23 68 37 17 
58 37 20 56 35 18 49 28 11 59 40 23 56 37 20 50 33 17 43 27 12 34 18 3 48 29 14 46 27 10 44 25 8 45 26 9 47 28 11 46 29 13 45 29 13 45 29 14 
81 50 21 80 49 20 72 41 10 85 54 25 85 54 25 85 55 27 81 54 27 72 46 21 86 63 32 84 61 29 81 58 26 78 55 23 73 50 18 67 46 15 65 46 14 65 48 18 
69 49 25 74 54 30 72 50 26 71 49 25 66 44 20 66 45 24 62 44 24 51 34 16 64 39 17 68 41 20 74 46 25 81 49 28 83 48 29 82 45 27 84 45 30 85 46 31 
60 38 15 67 43 19 77 51 26 74 46 22 73 45 21 74 48 25 70 45 23 60 38 17 86 51 31 85 50 30 81 49 26 75 45 21 69 43 18 64 42 18 60 42 18 58 42 17 
44 28 15 39 21 7 51 32 17 50 29 12 55 34 17 51 32 17 45 27 15 41 25 12 38 25 8 41 28 11 46 30 14 48 33 14 49 33 17 50 34 18 45 32 16 41 28 12 
76 49 19 84 55 25 85 56 26 80 51 21 77 48 18 78 49 19 80 53 23 85 58 29 85 56 26 86 55 24 84 53 22 84 53 22 87 56 27 85 55 27 75 48 21 69 42 15 
80 53 32 77 50 29 75 47 26 76 48 27 78 51 32 78 51 32 71 46 26 63 38 18 62 42 18 62 42 18 68 46 23 67 45 21 67 45 22 65 44 23 63 42 23 52 34 14 
78 54 28 74 50 24 75 51 25 73 49 25 67 43 19 63 41 18 65 45 21 62 44 20 73 51 28 70 48 24 77 53 29 67 43 19 65 41 17 66 42 18 75 51 27 66 44 21 
53 27 10 48 22 5 55 27 13 60 34 19 55 29 16 51 27 15 48 26 13 40 21 7 40 24 8 46 30 14 55 39 23 43 27 11 48 31 13 42 25 7 46 29 11 39 22 4 
76 52 18 71 47 13 78 53 22 85 60 29 81 56 26 77 54 23 73 52 23 64 45 15 83 52 24 88 58 30 87 57 29 72 42 14 86 55 27 82 51 22 87 56 27 90 59 30 
74 49 27 72 45 24 74 47 26 75 48 27 70 43 22 67 42 20 68 43 21 63 41 20 67 43 19 75 50 28 74 52 29 65 43 22 77 55 34 70 48 25 67 45 22 68 46 23 
68 48 23 65 45 20 64 42 18 67 45 21 74 50 26 73 51 27 65 44 17 56 35 8 82 52 26 76 48 24 72 46 23 66 42 18 67 42 20 65 40 18 68 44 20 68 44 20 
42 26 11 48 30 16 49 30 16 47 25 11 47 25 11 50 29 12 54 33 16 58 37 20 58 35 17 47 26 9 47 30 14 49 33 18 37 24 8 38 25 9 44 31 15 38 25 9 
