P3
16 16
255
73 49 15 83 48 18 78 54 26 72 56 30 86 56 32 83 57 30 68 49 17 86 53 22 90 53 24 71 48 17 68 46 23 77 51 34 67 51 25 71 50 23 77 46 25 71 52 22 
72 50 27 67 39 25 51 30 13 39 20 3 49 22 11 47 21 4 56 32 8 85 54 34 81 50 22 69 51 27 46 28 8 37 16 0 44 29 8 47 25 1 59 29 3 70 50 25 
67 50 20 43 27 12 54 36 12 64 44 17 61 42 27 66 44 20 95 67 30 84 57 30 74 48 21 40 27 11 55 38 18 68 48 23 58 41 25 70 46 22 102 72 38 72 47 25 
72 56 22 34 25 8 60 43 13 75 51 13 63 45 25 77 52 22 119 85 39 76 49 19 70 49 18 40 26 17 59 43 20 73 50 19 66 44 30 78 48 22 116 81 41 80 52 30 
70 48 24 48 34 25 74 49 27 80 49 18 74 48 35 78 48 24 113 74 35 80 48 25 73 48 17 54 36 24 72 51 24 76 47 13 77 50 29 81 48 17 111 73 28 86 54 29 
72 51 22 51 30 13 75 48 19 85 52 17 86 56 32 87 53 25 111 76 36 91 57 29 85 56 24 48 27 8 75 49 22 86 53 18 82 52 26 93 58 26 119 80 39 83 52 24 
71 52 19 62 35 6 89 63 28 100 72 33 108 73 41 102 69 34 101 73 33 81 48 15 82 51 23 60 39 12 90 63 36 99 66 35 106 77 45 105 72 39 99 63 31 69 45 17 
67 49 27 81 49 28 85 59 36 69 45 19 91 54 28 87 55 30 77 55 31 85 53 30 84 52 27 66 45 16 89 61 37 83 49 24 80 56 22 81 52 20 81 49 24 76 56 29 
77 57 20 75 42 11 79 55 29 78 58 33 86 54 29 78 53 23 70 54 21 78 51 22 77 51 14 70 44 11 70 49 22 81 59 36 82 55 28 79 52 23 74 50 22 72 49 17 
66 44 20 71 43 29 48 26 12 38 19 2 48 22 7 53 28 8 53 31 7 84 55 37 71 43 19 69 48 31 42 23 8 42 20 6 44 22 8 52 27 7 57 29 7 83 58 38 
73 52 23 42 24 10 61 43 21 64 44 17 57 40 20 63 42 15 100 72 35 76 48 26 84 54 26 41 29 13 57 41 18 67 46 19 54 41 22 64 40 14 105 71 36 78 54 30 
76 51 20 36 22 9 67 47 20 67 45 8 69 55 29 72 49 15 122 85 40 82 50 25 86 55 24 35 26 9 62 45 17 69 45 9 67 57 32 71 46 15 125 82 39 80 54 27 
72 44 20 53 34 28 71 46 26 78 49 17 73 52 33 80 50 22 113 71 33 88 51 33 84 48 24 48 35 26 68 46 25 79 48 19 72 55 37 80 50 24 115 67 31 83 52 32 
78 53 23 51 28 12 76 48 24 86 56 20 80 50 24 88 55 22 115 80 40 85 51 26 90 56 28 48 29 12 77 51 26 87 54 21 78 54 28 89 56 23 118 76 38 78 51 24 
65 49 15 60 34 7 87 60 30 96 68 31 113 77 41 104 72 33 97 72 31 76 47 15 78 52 17 60 37 6 93 66 36 94 64 28 109 79 43 103 71 33 99 69 31 72 49 15 
69 54 31 75 44 24 77 49 28 84 56 32 87 47 21 88 57 29 67 50 24 73 46 25 80 58 34 74 48 25 84 57 36 81 50 29 79 43 17 85 54 26 69 47 23 70 52 28 
