P3
16 16
255
56 50 36 65 52 33 58 52 38 60 47 28 67 54 35 55 49 35 67 52 31 58 51 35 60 51 34 61 49 27 54 52 37 62 54 35 61 50 32 57 51 39 67 54 35 53 50 33 
65 52 33 95 75 48 204 191 172 215 195 170 96 76 49 74 62 40 100 79 50 208 193 170 212 191 170 102 78 50 78 67 47 97 77 52 215 193 169 211 194 176 97 73 47 64 52 30 
57 51 37 208 196 174 226 223 208 213 200 181 201 189 167 67 61 45 208 193 170 217 210 192 221 208 192 196 178 156 67 61 47 205 192 173 229 212 194 215 205 193 196 179 159 63 56 40 
62 50 28 216 196 169 213 201 179 206 186 159 195 175 148 72 60 38 215 194 165 225 210 187 210 190 166 209 185 157 73 61 39 219 199 172 224 202 178 208 191 173 200 176 148 61 46 23 
62 50 28 94 75 45 201 189 167 191 171 144 98 78 51 72 60 36 100 79 50 194 179 156 189 171 147 103 82 51 68 60 37 94 79 50 202 182 155 187 172 151 97 76 47 64 54 29 
61 55 39 73 61 39 68 62 46 72 60 38 70 58 36 76 69 53 67 52 29 72 65 47 68 60 41 72 60 36 61 60 42 70 62 39 76 65 45 63 57 43 75 63 39 55 52 33 
68 53 32 93 72 43 208 193 172 213 192 165 101 80 53 74 59 36 100 76 48 212 196 173 216 196 172 104 81 50 75 63 41 97 77 50 219 198 171 206 189 169 103 79 51 64 49 26 
57 50 34 211 196 175 228 221 205 222 207 186 196 181 160 68 61 45 213 197 174 225 216 199 232 215 199 202 181 160 67 60 44 211 196 177 234 215 198 218 206 194 198 180 160 60 51 34 
61 53 34 210 190 166 223 210 193 211 191 166 187 170 144 69 61 40 217 197 172 218 201 183 209 193 168 190 170 143 72 64 45 208 192 167 218 201 175 206 194 172 192 172 145 61 50 30 
61 49 25 105 82 51 193 175 151 194 171 140 103 82 51 71 59 33 96 73 41 206 186 162 191 171 144 104 79 49 70 58 36 99 79 52 210 186 158 183 167 142 105 82 51 64 49 26 
58 57 39 71 60 38 68 62 46 71 59 35 71 64 38 65 64 44 75 63 39 69 62 44 70 62 43 69 57 35 66 64 52 71 62 45 73 62 42 64 58 42 73 61 39 57 53 41 
59 51 30 97 77 52 211 198 179 219 199 172 91 76 47 72 64 41 96 76 49 210 195 174 210 194 169 103 83 56 68 59 42 96 80 57 212 195 169 205 192 173 101 81 56 61 50 32 
62 51 33 216 194 170 230 215 196 220 199 172 192 172 145 68 57 35 215 194 167 238 220 200 219 202 176 204 180 152 69 58 40 217 200 174 232 211 184 222 207 184 201 180 151 58 45 26 
56 50 38 213 196 178 225 215 203 211 194 174 191 176 155 66 60 44 212 195 175 213 201 189 210 197 178 185 169 146 69 63 49 204 191 172 219 204 183 205 196 179 187 171 148 64 57 41 
61 48 29 104 80 54 201 184 164 192 168 140 100 81 51 73 61 39 98 74 46 203 185 165 197 177 152 105 81 53 74 61 42 99 79 54 206 185 158 187 171 148 96 72 44 63 48 27 
59 56 41 59 47 25 63 56 40 62 47 24 60 50 25 59 56 37 65 50 27 58 49 32 65 54 36 61 46 25 57 53 42 62 51 33 59 46 27 60 53 37 69 54 33 54 50 38 
