P3
16 16
255
65 53 27 64 48 32 59 56 49 59 47 33 59 57 44 60 50 25 58 52 40 60 52 41 61 51 39 53 56 29 65 47 33 48 50 37 63 55 42 55 48 32 65 57 44 62 49 17 
62 46 30 61 67 93 128 150 164 158 170 196 60 64 76 79 59 32 56 63 91 137 152 171 151 166 187 57 63 89 82 64 44 63 64 92 138 150 174 148 169 186 54 57 92 67 54 37 
57 54 47 132 154 168 172 187 206 154 175 194 172 192 203 71 61 49 130 157 174 169 184 203 161 179 189 173 191 205 61 59 38 139 153 179 167 186 190 161 182 199 178 192 203 50 51 35 
62 50 36 151 163 189 157 178 197 175 191 217 196 205 220 76 60 37 151 167 193 159 175 198 175 193 205 199 207 226 77 63 34 162 167 189 162 176 187 166 190 202 201 207 229 61 51 26 
53 51 38 69 73 85 172 192 203 195 204 219 59 69 78 65 64 46 55 64 81 178 192 203 195 203 222 50 62 74 64 54 53 60 68 87 183 191 212 191 205 218 59 63 88 55 48 38 
63 53 26 77 57 30 65 55 43 80 64 41 62 61 43 69 63 41 71 63 42 72 56 40 75 56 42 73 72 42 82 63 59 53 54 40 76 60 44 78 61 45 76 61 42 68 54 28 
57 51 39 57 64 92 134 161 178 151 167 193 58 67 84 68 60 39 53 64 92 139 157 179 150 169 183 52 65 81 74 63 43 59 68 85 137 154 172 144 171 180 52 62 87 58 53 31 
59 51 40 139 154 173 167 182 201 159 175 198 176 190 201 76 60 44 136 154 176 166 179 198 164 181 197 173 185 207 70 62 43 142 151 180 163 179 192 159 180 199 184 192 213 56 50 36 
60 50 38 152 167 188 160 178 188 175 193 205 195 203 222 74 55 41 153 172 186 161 178 194 177 192 195 195 202 218 71 60 54 162 165 196 167 178 196 166 189 195 206 208 229 57 50 32 
55 58 31 54 60 86 176 194 208 195 203 222 54 66 78 68 67 36 52 65 81 175 187 209 194 201 217 52 76 88 65 59 37 51 69 83 174 188 201 196 205 214 42 57 78 59 58 38 
60 42 28 80 62 42 70 68 47 73 59 30 67 57 56 78 59 55 72 61 41 71 63 44 72 61 55 69 63 41 76 65 47 62 60 47 74 63 33 73 69 57 79 62 44 57 44 25 
56 58 45 60 61 89 134 148 174 162 167 189 58 66 85 58 59 45 61 70 87 140 149 178 156 159 190 51 69 83 66 64 51 49 67 81 142 151 168 154 160 186 57 64 90 58 60 47 
58 50 37 139 151 177 169 188 192 169 183 194 179 187 208 77 61 45 137 154 172 162 178 191 173 181 200 174 188 201 73 62 32 145 154 171 171 180 209 169 181 203 178 185 211 56 52 17 
55 48 32 150 173 189 160 181 198 162 186 198 194 208 221 73 56 40 144 171 180 163 184 203 167 190 196 195 204 213 65 61 49 160 166 192 164 176 198 169 201 214 193 198 217 56 54 29 
63 55 42 54 57 92 181 195 208 195 201 223 64 68 93 75 60 41 55 65 90 179 187 208 203 205 226 47 62 83 79 62 44 60 67 93 175 182 208 196 201 220 56 62 94 61 53 34 
65 52 20 63 50 33 53 54 38 62 52 27 55 48 38 66 52 26 59 54 32 58 52 38 58 51 33 57 56 36 58 45 26 55 57 44 58 54 19 56 54 29 60 52 33 62 50 28 
