P3
16 16
255
255 255 255 253 253 253 251 251 251 255 255 255 253 253 253 255 255 255 255 255 255 252 252 252 255 255 255 253 253 253 255 255 255 255 255 255 255 255 255 254 254 254 255 254 255 255 253 254 
252 252 252 253 253 253 255 255 255 251 251 251 255 255 255 250 250 250 255 255 255 255 255 255 255 255 255 253 253 253 253 253 253 248 248 248 255 255 255 248 248 248 255 255 255 254 254 254 
255 255 255 255 255 255 244 244 244 255 255 255 255 255 255 255 255 255 251 251 251 255 255 255 255 255 255 253 253 253 255 255 255 255 255 255 251 251 253 255 255 255 249 249 251 255 255 255 
254 254 254 254 254 254 255 255 255 253 253 253 252 252 252 255 255 253 255 255 253 252 251 249 255 255 255 255 255 255 252 252 252 254 254 254 255 255 255 252 252 254 255 255 255 250 251 253 
255 255 255 248 248 248 255 255 255 253 253 253 255 255 253 253 252 250 255 255 253 148 147 145 249 248 246 255 254 255 254 252 253 250 250 250 255 255 255 255 255 255 254 254 255 255 255 255 
255 255 255 254 254 254 255 255 255 255 255 255 255 255 253 89 88 86 255 255 253 165 161 158 255 254 251 123 119 118 255 254 253 131 130 128 251 250 248 254 252 253 255 255 255 250 250 250 
254 254 254 255 255 255 251 251 251 148 147 145 255 255 253 149 148 146 255 253 250 111 107 104 154 149 145 127 122 119 112 107 104 93 89 86 255 254 253 98 97 95 254 253 251 255 254 255 
253 253 253 255 255 255 255 255 255 147 146 144 93 92 90 165 161 158 93 89 86 255 254 251 114 106 103 167 159 156 255 254 250 95 90 87 255 254 251 126 122 121 255 254 252 255 255 253 
255 254 253 127 123 120 255 253 250 116 111 107 151 143 140 151 146 142 100 95 91 91 86 83 255 254 249 157 154 149 124 119 115 96 91 88 133 128 125 152 147 144 255 253 250 130 126 123 
255 254 253 168 164 161 111 106 103 95 90 86 255 254 250 154 149 145 106 101 98 255 254 251 111 108 103 126 123 118 255 254 250 127 122 119 255 252 249 167 162 159 127 123 120 255 254 251 
251 250 248 165 161 160 131 126 123 255 250 246 96 91 87 113 108 104 101 96 93 127 123 120 153 150 145 255 255 250 255 251 247 129 124 121 255 254 251 132 127 124 255 254 251 255 254 251 
255 255 253 96 92 91 150 146 143 132 127 123 95 90 86 252 247 243 115 110 107 167 163 160 93 90 85 93 88 84 136 131 127 255 254 251 95 90 87 152 147 144 92 88 85 255 252 249 
92 91 89 255 255 253 255 254 251 99 94 91 131 126 122 255 254 251 95 91 88 161 157 154 93 88 84 131 126 122 152 147 143 96 91 88 128 123 120 255 254 251 94 90 87 130 129 125 
93 91 92 124 123 121 255 254 251 126 121 118 152 147 144 93 88 85 255 253 250 153 149 148 112 107 103 94 89 85 133 128 124 153 148 145 255 253 250 96 92 89 153 149 146 248 247 243 
255 254 255 94 93 91 161 157 156 255 254 251 134 129 126 255 254 251 92 88 85 95 91 90 157 152 148 255 254 250 255 251 248 149 141 139 255 254 251 131 127 124 120 119 115 255 255 251 
255 253 254 255 255 253 255 254 253 87 83 80 95 91 88 128 124 121 255 253 250 95 91 90 128 123 119 255 253 249 115 107 104 138 130 128 110 105 102 255 253 250 255 255 251 254 253 249 
