P3
16 16
255
255 255 255 255 255 255 250 250 250 254 255 255 254 255 255 252 252 252 255 255 255 255 255 255 255 255 255 255 255 255 255 255 255 252 252 252 255 254 255 255 254 255 255 254 255 254 252 255 
255 255 253 255 254 252 255 255 255 255 255 255 255 255 255 164 164 164 255 255 253 255 254 252 253 253 251 159 159 157 252 252 250 255 255 255 251 251 251 253 253 253 255 255 255 254 255 255 
255 252 249 255 254 252 255 255 253 255 254 252 255 255 253 112 111 109 157 156 154 255 254 251 165 166 161 254 255 250 254 254 252 255 255 253 253 255 252 254 255 253 254 255 253 253 255 252 
154 149 145 255 254 251 160 156 153 255 255 253 253 252 250 255 254 251 255 254 251 130 125 121 148 144 141 255 254 251 162 158 155 250 249 245 121 120 116 250 251 246 255 255 253 255 255 253 
132 127 123 161 156 152 132 128 125 255 254 251 132 128 125 254 250 247 122 117 113 127 122 118 137 127 125 119 111 108 129 121 118 255 253 251 255 254 251 167 163 160 255 254 251 131 127 124 
255 254 250 160 155 151 164 160 157 126 122 119 255 254 251 255 254 251 249 244 240 255 254 250 124 114 112 128 118 116 255 252 250 116 108 106 124 116 114 128 120 118 112 107 104 255 254 251 
125 120 116 119 115 112 150 146 143 255 255 253 255 254 252 255 254 251 255 254 251 114 109 105 117 112 108 255 254 250 255 254 251 255 250 247 255 252 249 119 114 111 128 123 120 255 253 250 
255 254 250 254 250 247 166 162 159 255 255 253 110 109 107 255 253 250 163 159 156 119 114 110 163 162 158 255 254 250 161 160 156 110 109 105 255 255 251 122 121 117 255 254 253 255 254 253 
255 254 255 254 250 249 130 125 122 123 115 112 255 253 250 255 254 250 106 105 103 165 165 163 166 163 156 130 123 117 115 105 103 255 250 247 113 109 106 119 118 116 255 251 250 255 253 253 
255 254 255 132 128 127 255 254 251 128 120 117 114 106 103 116 111 107 255 254 251 255 255 253 122 121 116 162 157 153 255 253 250 255 254 251 118 114 111 255 255 251 255 254 251 134 126 124 
253 251 252 255 253 252 165 160 157 255 254 250 127 122 118 151 146 142 113 109 106 252 251 249 255 255 251 120 116 113 129 124 121 115 110 107 255 254 251 110 107 102 124 119 115 111 101 99 
255 254 255 127 126 124 118 114 111 167 162 158 255 254 250 122 117 113 150 145 142 255 254 251 255 255 253 252 248 247 173 167 167 113 108 105 255 255 250 255 255 250 134 126 123 255 253 248 
252 252 252 255 255 253 255 254 253 124 120 117 255 253 249 255 253 249 119 114 110 116 111 107 255 255 253 255 253 252 124 119 116 119 114 111 255 253 250 161 158 153 111 106 102 135 125 123 
255 255 255 251 250 248 255 254 252 115 111 108 129 124 121 255 254 250 169 161 158 117 109 106 254 250 247 115 110 107 129 121 119 116 108 106 131 127 124 111 110 106 255 252 249 254 249 246 
252 252 252 255 255 253 110 109 107 255 254 253 119 114 111 111 106 102 140 132 129 117 108 103 119 112 106 128 119 114 128 118 116 119 111 108 252 251 247 255 255 253 255 255 253 255 254 255 
255 255 255 255 255 255 255 255 253 255 252 251 255 254 251 113 105 102 124 116 113 255 251 246 116 107 100 136 125 119 116 105 101 255 252 249 255 255 251 253 255 252 251 253 252 255 255 255 
