P3
16 16
255
254 254 254 255 255 255 255 255 255 254 254 254 253 253 253 253 253 253 255 255 255 254 254 254 255 255 255 255 255 255 255 255 255 253 253 253 255 255 255 255 255 255 255 255 255 255 255 255 
255 255 255 249 249 249 253 253 253 255 255 255 255 255 255 255 255 255 255 255 255 253 253 253 253 253 253 253 253 253 255 255 255 253 253 253 252 252 252 254 254 254 255 255 255 252 252 252 
255 255 255 253 253 253 255 255 255 255 255 255 251 251 251 255 255 255 253 253 253 254 254 254 255 255 255 251 251 251 255 255 255 255 255 255 255 255 255 255 255 255 255 255 255 254 254 254 
255 255 255 255 255 255 254 254 254 255 255 255 255 255 255 255 255 255 249 249 249 255 255 255 255 255 253 255 255 253 253 252 250 252 252 252 255 255 255 254 254 254 249 249 249 255 255 255 
255 255 255 254 254 254 255 255 255 248 248 248 255 255 255 251 251 251 255 255 255 252 252 252 248 247 245 255 255 253 255 255 253 253 252 250 254 254 254 255 255 255 255 255 255 255 255 255 
255 255 253 253 252 250 255 255 253 255 255 253 255 255 253 255 255 253 255 255 253 255 254 252 255 254 251 255 255 253 255 254 252 255 255 253 253 253 253 255 255 255 251 251 251 254 254 254 
255 255 253 254 253 251 252 251 249 255 255 253 147 146 144 250 249 247 255 255 253 255 255 253 255 251 248 97 93 90 106 105 103 253 252 250 255 255 253 251 251 251 255 255 255 255 255 255 
255 254 252 255 255 253 255 255 253 88 87 85 150 149 147 255 255 253 255 255 253 110 109 107 255 253 250 152 148 145 151 147 144 255 255 253 255 255 253 255 255 255 254 254 254 255 255 255 
254 253 251 255 255 253 253 252 248 151 150 146 164 160 157 149 145 142 255 254 251 150 146 143 152 148 139 164 159 153 152 147 143 255 254 251 150 146 145 255 252 251 255 254 255 253 253 253 
255 255 251 110 109 105 254 250 247 163 159 156 166 162 159 164 161 156 148 145 140 255 254 250 165 162 155 167 162 156 114 109 105 255 250 247 111 106 103 96 92 91 255 255 253 149 148 146 
148 144 141 166 163 158 156 153 148 255 252 248 164 159 155 150 145 141 117 112 108 153 148 144 157 154 149 161 158 153 253 248 244 168 163 159 169 164 161 112 107 104 255 251 248 97 93 90 
115 110 106 150 145 141 159 154 150 170 165 161 255 254 248 115 110 104 148 143 137 110 105 99 150 149 145 110 106 103 255 250 246 165 160 156 148 143 139 255 254 250 111 106 102 165 161 158 
255 252 249 112 107 103 157 152 148 113 108 102 149 144 138 165 160 154 155 150 144 115 110 104 96 92 91 255 254 251 158 153 149 149 144 140 117 112 106 162 157 153 164 159 155 148 144 141 
114 106 103 169 161 158 167 162 158 111 106 102 116 111 105 161 156 150 165 160 154 150 145 139 90 86 85 111 106 103 149 144 140 171 164 158 149 142 136 113 108 102 148 143 139 116 112 109 
255 254 250 147 142 138 165 160 156 154 149 145 91 86 82 151 148 143 172 169 162 165 162 155 114 109 106 157 149 146 167 160 154 154 147 139 118 111 105 114 109 105 169 165 162 252 251 249 
93 88 85 118 113 110 151 146 142 114 109 105 115 112 107 95 92 87 146 143 138 165 162 157 155 147 145 96 88 85 154 147 141 113 106 98 114 107 99 165 160 156 150 146 143 255 255 253 
