P3
16 16
255
254 255 255 248 249 251 254 255 255 254 255 255 252 254 253 255 255 255 255 255 255 253 253 255 254 252 253 255 255 255 255 255 255 250 251 253 254 255 255 252 252 252 255 255 253 255 255 253 
254 254 255 255 255 255 254 254 254 255 255 255 252 252 252 255 255 255 254 254 254 255 254 255 255 255 253 255 254 252 255 255 255 255 255 255 253 255 254 253 253 253 252 252 252 250 250 248 
251 251 253 255 255 255 252 252 252 252 251 249 255 255 253 254 253 251 255 255 253 255 253 254 114 109 106 114 110 107 252 251 249 255 255 255 251 251 251 254 255 255 255 255 255 255 255 255 
255 255 255 255 253 254 255 255 253 255 254 251 110 106 103 116 112 109 255 254 251 161 157 156 94 86 83 95 90 86 112 108 105 255 254 252 255 255 255 252 252 252 254 255 255 247 247 247 
254 254 254 255 254 255 255 253 252 110 105 102 95 90 86 129 124 120 255 253 250 133 129 126 167 158 153 168 160 157 136 131 128 255 253 252 252 250 251 255 255 255 251 251 251 255 255 255 
253 255 254 254 254 254 255 254 253 127 122 119 137 132 128 114 109 105 255 254 250 116 112 109 140 131 126 115 106 101 130 125 122 255 254 253 255 255 253 255 254 255 255 253 254 253 252 250 
254 255 255 249 249 249 255 254 252 111 106 103 116 108 106 104 99 95 255 251 247 102 98 95 114 105 100 139 129 127 115 107 105 253 248 245 117 113 112 113 109 108 251 247 246 255 254 253 
250 254 255 254 255 255 255 254 255 90 84 84 95 90 87 121 116 113 119 115 112 95 91 88 137 128 123 116 106 104 106 98 96 111 106 103 128 124 123 92 88 87 120 116 113 255 251 248 
252 253 255 255 255 255 254 252 253 93 89 88 166 161 158 93 88 85 98 93 90 163 158 155 105 99 99 105 99 99 96 90 90 98 92 92 103 99 98 132 128 127 135 131 130 255 254 252 
255 255 255 254 252 253 108 104 103 99 94 91 120 115 111 162 154 151 167 159 156 133 128 124 103 97 97 113 107 107 101 95 95 95 89 89 95 91 88 107 103 100 98 94 91 255 254 251 
253 252 250 110 106 105 90 85 82 117 109 106 135 128 122 122 113 108 140 131 126 122 115 109 100 96 93 92 88 85 98 93 90 113 108 105 95 90 87 137 132 128 136 131 127 255 251 247 
255 254 253 115 110 107 168 160 157 111 102 97 123 114 107 141 132 125 123 114 107 116 107 102 130 126 123 131 127 124 100 95 92 92 87 83 133 128 124 94 87 81 95 88 82 138 131 125 
253 249 248 108 103 100 121 113 110 117 108 103 114 105 98 122 113 106 132 123 116 169 160 155 94 89 85 97 92 88 161 156 152 94 89 85 127 120 114 168 161 155 139 132 126 123 114 109 
255 255 253 88 84 83 115 110 107 108 100 97 112 105 99 141 132 127 123 114 109 118 111 105 166 159 153 169 162 156 121 114 108 117 110 104 118 110 107 121 113 110 119 111 108 115 107 104 
250 250 250 255 254 255 87 83 82 117 112 109 94 89 85 115 107 104 101 93 90 121 116 112 140 131 126 136 127 122 118 111 105 121 113 110 118 110 107 123 115 112 115 107 105 96 88 86 
254 255 255 254 254 255 255 254 255 94 90 89 106 101 98 94 89 86 97 92 89 112 107 104 124 115 108 125 116 111 117 108 103 105 95 93 113 105 102 99 91 89 96 88 86 255 253 253 
