P3
16 16
255
248 249 251 254 255 255 255 255 255 249 249 249 255 255 255 255 255 255 250 251 253 254 255 255 255 254 255 252 254 253 250 254 253 253 255 254 255 254 255 255 254 255 251 251 249 254 255 253 
254 255 255 254 254 254 248 248 248 255 255 253 255 255 253 254 254 254 254 255 255 249 250 252 254 252 253 254 255 255 252 255 255 248 250 249 255 255 255 255 253 254 255 255 255 253 255 254 
251 252 254 255 255 255 255 255 255 254 253 251 253 252 250 255 255 253 255 255 255 255 255 255 255 254 255 248 250 249 251 255 254 254 255 255 255 255 255 255 254 255 255 255 255 252 255 255 
255 255 255 249 249 249 255 255 253 255 255 253 255 254 253 255 255 253 255 255 253 253 251 252 255 254 255 255 255 255 254 255 255 249 251 250 255 255 255 255 254 255 255 255 255 251 255 255 
253 253 253 255 254 255 252 251 249 130 126 125 125 121 118 129 125 122 255 252 251 255 254 252 255 254 253 251 250 248 254 255 253 255 255 255 253 251 252 253 251 252 255 255 255 254 255 255 
254 254 254 255 254 255 255 251 250 116 112 109 157 152 149 112 107 104 255 254 251 129 125 122 129 124 121 114 110 107 255 255 251 252 251 249 255 254 253 255 254 253 255 254 255 252 254 253 
255 253 254 255 253 254 255 254 253 255 252 249 103 98 94 100 95 91 113 108 105 128 123 120 116 106 104 115 110 106 255 255 250 255 252 249 135 130 127 125 119 119 254 250 249 255 255 253 
255 254 255 144 142 143 134 130 129 153 148 145 255 253 250 116 108 105 94 89 85 96 91 88 116 107 102 153 146 140 151 148 143 255 255 250 93 85 83 114 106 104 132 128 127 255 255 253 
255 255 253 126 125 123 152 148 145 166 158 155 158 150 147 95 87 84 96 88 85 97 92 88 132 125 119 168 161 155 155 150 147 90 86 85 113 109 108 94 92 93 111 110 108 255 255 253 
255 255 253 253 252 248 151 146 143 151 143 140 129 120 115 134 125 120 118 110 107 110 105 101 153 146 138 131 124 118 117 109 106 96 91 88 100 96 95 105 101 100 255 254 252 255 255 253 
255 255 251 255 254 251 255 253 249 121 112 107 134 125 120 154 145 140 116 109 103 115 108 102 133 124 117 114 105 100 155 148 142 166 158 155 90 85 82 255 254 251 255 254 251 254 250 247 
152 148 145 161 158 153 155 147 144 130 121 116 115 104 98 117 108 101 150 143 137 153 146 140 115 106 99 119 110 103 168 159 154 152 143 138 105 97 94 255 254 250 127 122 118 131 128 123 
130 126 123 128 123 119 169 161 158 154 145 140 163 152 146 112 103 96 157 150 144 167 160 154 153 146 140 132 123 118 155 146 141 128 119 114 113 104 99 132 124 121 165 160 156 131 128 123 
254 250 247 255 254 251 129 121 118 152 143 138 131 122 117 154 145 140 113 106 100 155 150 144 167 162 156 135 128 122 131 122 117 121 112 107 156 147 142 165 157 154 151 146 142 255 254 251 
255 255 253 127 123 120 127 122 119 116 108 105 163 156 150 130 123 117 132 127 123 159 156 151 151 146 142 122 117 113 119 112 106 151 142 137 135 126 121 159 151 148 127 122 119 255 254 251 
255 254 252 255 252 251 135 130 127 97 89 86 106 98 95 135 130 126 255 253 248 153 150 145 151 147 144 255 254 250 92 84 81 138 129 124 155 146 141 128 120 117 255 254 251 255 254 250 
