P3
16 16
255
134 124 122 102 97 93 167 164 159 162 157 153 133 125 122 116 109 103 113 110 103 162 162 154 169 162 156 133 126 120 117 110 104 111 104 98 164 156 153 167 162 158 113 108 104 166 161 157 
116 106 104 123 115 112 161 158 153 165 160 156 154 146 143 112 103 98 151 146 140 164 161 154 169 162 156 125 118 112 132 125 119 119 111 108 168 160 157 107 102 98 165 160 156 165 160 156 
98 87 85 130 122 119 110 105 101 148 143 139 162 152 150 167 158 153 161 154 148 148 143 137 134 127 121 166 159 153 168 161 155 112 104 101 99 91 88 124 119 115 161 156 152 167 162 158 
114 103 101 102 92 90 100 95 91 131 126 122 131 121 119 117 106 102 151 142 137 115 108 102 149 142 136 172 164 161 167 159 156 106 98 95 97 89 86 118 113 109 110 105 101 115 110 106 
138 124 123 129 119 117 152 147 143 164 159 155 131 121 119 134 123 119 121 110 106 117 108 103 159 151 148 126 118 115 105 97 94 119 111 108 122 114 111 168 163 159 154 149 145 112 107 101 
138 124 123 155 145 143 162 157 153 154 149 145 139 131 128 130 119 115 130 119 115 136 127 122 111 103 100 138 130 127 110 102 99 119 111 108 135 127 124 143 138 132 168 163 157 151 146 140 
115 104 102 154 146 143 157 154 149 106 103 98 152 144 141 172 163 158 131 120 116 109 100 95 117 109 106 130 122 119 114 106 103 168 160 157 163 155 152 120 115 109 150 145 139 149 144 138 
135 124 122 109 101 98 148 145 140 155 152 147 164 159 155 154 145 140 137 126 122 132 123 118 106 98 95 107 99 96 132 124 121 154 146 143 168 161 155 153 148 142 108 103 97 156 151 145 
162 159 154 167 164 159 104 101 96 132 127 123 95 90 86 109 101 98 112 104 101 115 107 104 102 98 97 97 92 89 116 108 105 117 108 103 153 144 139 156 149 143 131 123 120 104 99 96 
167 164 159 166 161 157 144 139 135 91 86 82 134 126 123 165 157 154 172 164 161 115 107 104 94 90 89 96 91 88 126 118 115 112 105 99 118 109 104 115 108 102 95 87 84 116 111 108 
114 107 101 170 163 157 118 111 105 135 128 122 155 148 142 170 163 157 163 156 150 133 126 120 126 120 120 119 114 111 130 122 119 121 114 108 94 87 81 130 123 117 132 124 121 95 87 85 
119 110 105 106 97 92 131 122 117 136 127 122 110 101 96 112 105 99 139 132 126 129 122 116 99 94 91 161 156 152 163 155 152 94 87 81 135 128 122 156 149 143 165 157 154 132 124 121 
115 106 101 162 153 148 170 161 156 133 124 119 115 106 101 117 108 103 171 162 157 166 159 153 113 108 105 165 160 156 170 165 161 108 103 97 145 138 132 175 168 162 152 145 139 128 120 117 
157 148 143 164 155 150 155 146 141 129 120 115 113 104 99 134 125 120 162 153 148 120 111 106 106 98 95 158 150 147 161 156 152 110 105 99 157 152 146 149 142 136 117 110 104 121 112 107 
153 148 144 152 144 141 115 107 104 115 107 104 129 121 118 133 123 121 119 109 107 131 121 119 96 88 85 129 121 118 158 153 149 151 146 140 117 112 106 110 103 97 112 103 98 113 104 99 
113 108 104 106 101 97 108 103 99 118 110 107 150 142 139 120 110 108 117 107 105 97 87 85 117 110 104 98 91 85 109 104 98 116 111 105 161 156 150 168 161 155 120 111 106 115 106 99 
