P3
16 16
255
117 106 102 114 105 100 121 112 107 129 122 116 166 159 153 156 149 143 130 123 117 115 106 101 109 105 96 154 150 141 151 146 140 133 128 122 116 109 103 100 92 89 110 102 99 113 105 102 
131 120 116 138 129 124 110 101 96 133 126 120 158 151 145 155 148 142 164 157 151 136 127 122 114 109 103 152 147 141 161 156 150 154 147 141 132 125 119 111 104 98 116 108 105 117 109 106 
157 146 142 129 120 115 113 104 99 112 105 99 127 120 114 167 160 154 154 147 141 135 126 121 107 99 96 133 125 122 157 150 144 152 145 139 131 124 118 115 106 101 129 120 115 132 123 118 
129 118 114 119 110 105 97 88 83 110 103 97 118 111 105 154 147 141 168 161 155 132 123 118 96 86 84 118 108 106 129 119 117 133 124 119 133 124 119 159 150 145 157 148 141 135 126 119 
120 109 105 124 115 110 136 127 122 131 124 118 114 107 101 127 120 114 134 127 121 114 105 100 108 98 96 117 107 105 119 109 107 111 102 97 111 102 97 153 144 139 156 147 140 111 102 95 
117 106 102 138 129 124 153 144 139 157 150 144 133 126 120 105 98 92 118 111 105 109 100 95 120 110 108 130 120 118 115 106 101 131 124 118 116 109 103 135 128 122 124 117 111 122 115 109 
132 121 117 137 128 123 147 138 133 166 159 153 157 150 144 114 107 101 114 107 101 128 119 114 154 147 141 113 106 100 132 125 119 154 147 141 152 145 139 109 104 98 122 117 113 96 91 87 
137 126 122 111 102 97 137 128 123 155 148 142 161 154 148 135 128 122 106 99 93 158 149 144 132 125 117 156 149 141 114 107 101 153 146 140 168 163 157 155 150 146 123 118 114 158 153 149 
115 107 104 108 100 97 116 108 105 166 158 155 152 144 141 136 128 125 93 85 82 132 124 121 154 150 147 130 125 121 113 106 100 133 124 117 158 147 141 158 147 141 153 142 136 135 124 120 
112 104 101 98 90 87 103 95 92 135 127 124 133 125 122 117 109 106 108 100 97 156 148 145 164 159 155 153 148 144 112 105 99 113 104 99 135 126 121 131 122 117 137 128 123 114 104 102 
122 114 111 130 122 119 134 126 123 116 108 105 114 106 103 105 97 94 132 124 121 164 156 153 148 143 139 155 147 144 116 109 103 129 122 116 133 124 119 115 107 104 97 89 87 105 100 97 
128 121 115 151 144 138 154 147 141 115 108 102 127 120 114 133 126 120 160 153 147 152 145 139 172 164 161 128 120 117 134 127 121 152 145 139 158 150 147 125 120 117 108 103 100 94 90 89 
157 148 143 170 161 156 157 148 143 117 108 103 121 112 107 131 122 117 163 154 149 159 150 145 133 125 122 114 106 103 134 127 121 153 146 140 167 159 156 154 149 146 108 104 101 103 99 98 
131 122 117 155 146 141 153 144 139 128 119 114 116 107 102 118 109 104 134 125 120 131 122 117 130 122 119 101 93 90 105 96 91 113 104 99 155 148 142 150 142 139 151 146 143 117 113 110 
116 107 102 134 125 120 130 121 116 122 113 108 131 122 117 156 147 142 155 146 141 134 125 120 131 123 120 106 98 95 136 127 122 120 111 106 133 124 119 157 148 143 133 126 120 149 141 138 
115 106 101 121 112 107 113 104 99 114 105 100 134 125 120 166 157 152 157 148 143 131 122 117 115 107 105 117 109 106 131 122 117 132 123 116 113 104 97 117 108 101 156 147 140 133 126 120 
