P3
16 16
255
2 255 248 0 252 255 5 255 255 11 251 240 0 253 255 0 255 248 2 255 248 0 254 250 0 255 241 0 254 255 3 255 254 6 255 245 0 250 255 1 255 255 9 254 255 0 255 250 
0 1 0 11 255 254 0 3 5 18 255 252 0 2 0 21 251 255 11 0 7 23 255 253 4 2 13 31 255 254 0 1 0 59 252 247 3 0 2 86 255 255 4 0 7 255 250 255 
26 228 240 40 230 255 49 255 255 48 248 245 40 253 255 55 252 255 52 255 255 62 249 254 67 253 255 74 252 255 76 253 255 107 253 252 131 255 255 160 255 242 247 255 244 253 255 237 
2 0 6 56 221 255 0 0 7 59 254 255 1 5 4 68 254 249 0 1 4 90 255 255 0 4 0 109 253 254 0 6 0 148 255 255 0 2 0 254 245 255 4 5 9 255 255 225 
58 194 246 67 198 254 73 219 255 78 239 249 87 249 251 92 255 255 100 255 248 105 255 240 123 255 250 149 255 251 174 255 253 193 252 250 255 252 255 255 255 228 255 249 213 255 248 190 
0 4 0 73 194 255 13 0 0 95 214 255 0 2 2 114 255 255 10 0 9 143 247 255 0 0 0 187 255 255 7 0 2 249 255 251 0 5 1 255 247 212 0 3 2 255 255 195 
95 156 247 107 160 255 118 179 255 123 188 244 121 213 255 138 231 249 152 247 249 172 255 254 196 250 252 221 255 255 255 252 246 251 251 243 255 247 217 249 255 192 252 246 194 251 255 156 
1 0 4 124 159 253 0 5 0 138 179 255 0 0 2 165 201 251 0 6 6 193 250 255 0 6 5 255 251 248 1 0 2 246 255 207 0 3 0 255 251 163 3 4 0 255 254 162 
131 128 255 122 141 246 156 141 255 156 151 241 164 174 255 179 185 255 206 199 243 226 226 250 255 252 253 244 255 225 253 255 195 251 249 190 255 255 173 250 255 155 255 255 130 254 254 134 
11 0 0 157 117 242 1 0 0 179 133 255 0 7 0 214 149 255 6 3 14 248 200 252 0 0 7 255 250 195 14 0 0 255 255 161 8 0 5 245 255 142 3 12 7 253 248 128 
154 101 251 162 106 255 181 108 255 204 119 255 213 118 244 233 141 240 255 150 255 252 161 220 255 189 190 255 214 173 247 255 161 239 252 134 255 255 130 255 254 113 247 255 94 255 255 98 
11 0 13 188 76 249 0 5 0 208 98 255 0 5 0 255 112 243 0 5 9 255 138 189 3 0 2 255 180 137 6 0 9 249 255 107 0 2 0 255 248 100 0 2 0 245 255 87 
195 58 252 210 63 253 224 80 255 240 76 255 255 80 255 255 87 202 248 94 154 255 118 138 247 129 115 255 147 126 245 158 105 255 205 95 255 250 91 255 253 79 252 255 76 255 251 62 
2 3 5 211 49 246 8 0 5 247 62 255 0 6 0 243 64 148 3 0 2 255 81 120 2 4 3 237 113 62 3 0 5 255 146 68 0 2 13 255 246 40 0 3 9 255 255 49 
218 29 246 236 41 255 255 39 250 255 37 170 249 42 122 248 52 90 255 49 92 250 53 45 254 57 74 255 60 55 255 93 45 249 101 39 252 120 37 255 169 46 255 248 31 255 252 31 
0 3 0 255 10 255 7 0 4 251 20 74 10 0 7 255 14 52 1 0 0 255 26 47 0 5 0 254 29 43 3 0 4 252 45 1 0 3 8 255 79 19 0 1 12 255 241 17 
