P3
16 16
255
120 117 136 104 102 87 78 84 74 69 82 72 88 83 79 84 80 77 65 57 72 48 67 65 104 96 93 98 105 98 96 100 101 85 78 86 85 80 87 64 63 69 74 77 84 80 83 88 
76 82 78 66 58 79 49 38 44 55 49 75 75 56 75 48 62 63 69 57 59 66 65 73 79 84 78 104 96 109 44 52 54 44 46 43 61 60 66 70 64 64 83 81 68 63 65 62 
112 97 102 46 45 59 216 255 247 22 215 96 90 99 96 79 81 96 75 88 78 50 41 42 47 48 66 53 45 60 210 255 211 34 220 119 54 65 67 53 41 63 60 59 64 65 56 75 
49 66 50 79 88 83 24 215 83 2 122 25 126 128 123 57 65 67 64 62 67 63 57 85 75 80 83 100 101 87 29 217 97 0 126 19 118 120 106 105 95 104 111 106 103 75 85 84 
48 43 50 61 60 74 124 128 139 117 116 112 111 94 104 42 39 58 60 86 61 93 81 85 104 100 97 109 96 103 118 123 126 117 123 123 112 92 101 101 110 105 68 69 64 68 62 62 
136 122 137 114 121 114 73 80 72 61 65 68 47 51 54 56 246 120 55 255 126 14 149 31 96 102 90 99 98 94 75 79 88 97 99 112 88 79 84 75 84 79 94 88 90 81 101 92 
118 116 117 106 100 104 98 106 95 48 94 68 71 241 153 218 255 224 0 125 28 31 146 51 45 98 78 81 82 86 66 64 65 65 63 66 44 44 56 59 31 53 65 59 69 83 83 95 
108 99 92 44 63 70 51 49 60 66 85 55 60 239 137 5 125 15 25 143 33 26 202 75 57 87 53 108 95 105 88 77 85 54 67 58 43 53 54 213 255 228 12 223 116 89 77 65 
56 60 71 215 255 233 26 220 85 65 65 75 11 200 72 23 151 32 129 119 120 122 120 123 105 93 97 75 87 85 96 101 95 78 81 98 58 63 66 19 230 99 0 122 22 128 120 117 
58 67 64 31 221 111 0 124 19 122 112 111 131 119 119 116 124 135 77 86 83 103 98 104 80 90 81 48 42 52 55 46 51 70 56 56 64 54 62 127 113 126 119 120 125 109 98 102 
100 94 104 114 114 116 127 127 129 83 80 87 68 57 73 74 84 85 89 70 64 54 67 73 39 44 47 62 240 146 73 246 128 46 90 65 59 64 68 109 100 83 129 125 124 110 122 118 
109 99 98 108 107 112 81 74 81 64 62 49 98 103 106 131 124 114 120 120 112 126 122 123 0 127 27 78 242 145 206 247 231 11 127 26 26 153 38 70 81 83 111 121 123 103 105 94 
98 99 94 84 80 71 62 59 78 50 67 57 45 50 56 40 49 46 99 106 112 95 101 99 0 122 26 17 197 50 3 122 28 17 155 36 27 190 75 75 85 84 106 103 98 104 93 91 
57 65 68 62 59 78 51 60 91 56 43 61 218 252 217 40 221 108 94 97 106 108 91 99 84 84 92 50 93 48 36 148 46 115 128 108 122 115 131 53 46 53 59 66 85 66 56 67 
126 123 118 133 116 124 91 106 85 108 111 100 14 216 108 4 120 13 121 124 131 40 51 43 62 54 51 124 122 136 117 122 128 80 81 75 79 87 76 99 100 95 101 97 98 124 120 121 
117 126 125 118 119 113 100 98 103 91 72 92 124 119 115 115 132 113 81 76 83 44 51 59 85 85 75 120 115 135 100 102 101 95 101 89 88 78 87 81 78 85 98 104 104 95 103 92 
