P3
16 16
255
125 120 114 98 100 97 76 85 94 76 86 78 77 77 77 87 83 74 63 60 67 59 62 71 91 101 102 104 102 90 105 98 88 82 83 87 78 85 95 56 60 63 84 83 81 81 80 85 
90 82 97 55 56 61 40 52 42 39 46 56 72 71 79 63 56 72 65 63 68 60 63 72 82 85 92 102 97 103 113 99 90 136 117 85 137 111 74 127 100 79 89 79 78 59 68 75 
92 103 107 109 95 94 150 115 83 180 144 112 130 113 85 64 61 70 37 40 45 47 47 45 47 39 37 55 67 65 119 127 116 138 116 93 169 141 117 129 122 112 55 59 68 61 56 78 
68 65 76 131 108 90 182 140 118 207 174 157 129 119 128 74 84 83 85 84 89 76 59 65 86 87 91 107 98 99 106 94 94 128 124 125 118 122 125 96 100 103 98 100 97 82 85 74 
42 46 47 63 69 67 116 124 126 115 128 110 58 63 66 60 61 65 65 63 66 116 116 90 134 114 81 159 137 113 175 150 130 134 111 93 106 93 87 102 99 106 82 79 86 70 61 56 
121 115 125 126 125 123 82 79 64 107 93 93 139 113 98 176 140 118 216 176 140 221 180 152 228 190 181 220 179 149 173 147 122 119 119 119 84 83 81 137 117 90 161 141 116 101 100 105 
123 126 117 93 94 99 103 104 108 81 85 94 114 122 111 129 121 118 170 144 121 216 173 141 212 178 150 130 115 108 114 115 119 55 64 59 45 51 47 48 48 56 67 64 73 86 78 76 
100 97 108 82 82 80 58 59 63 61 61 59 65 61 78 65 60 67 122 119 130 120 120 122 123 124 126 92 96 97 87 85 86 69 60 65 43 42 50 52 62 71 76 86 88 80 81 75 
78 84 80 60 66 78 90 77 68 141 112 70 169 147 123 69 59 70 78 80 93 112 125 116 102 97 93 124 103 84 140 113 84 171 145 122 121 99 85 65 57 54 61 62 67 82 79 86 
63 54 57 56 60 59 113 104 89 171 145 130 171 143 129 220 175 142 220 180 145 101 95 95 74 88 91 79 79 77 169 139 113 219 184 154 121 113 111 52 54 69 53 51 56 59 64 60 
103 109 105 87 76 84 98 97 115 127 124 117 215 176 135 231 187 162 127 116 122 58 68 70 55 64 73 48 48 38 123 129 125 111 117 129 91 81 89 78 76 77 107 118 120 117 123 123 
94 96 95 105 103 108 85 83 94 57 56 61 122 123 118 117 128 130 109 119 128 132 122 123 86 80 80 63 56 64 88 77 71 113 102 72 130 126 97 88 84 73 124 115 118 102 99 106 
105 102 95 77 81 84 51 57 69 72 64 61 136 110 83 163 147 122 122 124 121 93 96 105 119 103 69 139 121 97 173 140 125 219 169 158 219 172 146 176 142 97 135 120 91 93 100 106 
61 61 69 139 113 80 168 147 118 54 53 59 117 115 118 122 126 112 98 103 96 117 97 98 75 86 82 163 135 123 223 176 156 233 195 159 168 144 106 126 124 112 115 119 128 73 59 58 
126 122 119 118 114 113 137 116 97 116 100 75 76 86 88 56 60 72 62 59 68 35 54 69 71 62 65 98 102 103 124 121 112 121 116 112 117 126 135 97 102 105 102 98 95 116 120 131 
103 92 106 96 108 106 114 125 111 127 119 117 106 95 103 89 81 78 83 78 74 48 46 60 85 75 76 101 101 99 90 105 102 92 102 103 89 77 81 90 73 81 105 103 106 94 101 93 
