P3
16 16
255
251 251 251 255 255 255 253 253 253 255 255 255 255 255 255 255 255 255 254 254 254 255 255 255 254 254 254 254 254 254 254 254 254 255 255 255 255 255 255 253 253 253 255 255 255 252 252 252 
255 255 255 255 255 255 252 252 252 255 255 255 59 59 59 61 61 61 255 255 255 254 254 254 255 255 255 255 255 255 255 255 255 254 254 254 255 255 255 253 253 253 251 251 251 255 255 255 
255 255 255 255 255 255 255 255 255 250 250 250 159 159 159 155 155 155 56 56 56 255 255 255 64 64 64 53 53 53 255 255 255 249 249 249 255 255 255 255 255 255 254 254 254 253 253 253 
254 254 254 255 255 255 55 55 55 65 65 65 253 253 253 255 255 255 163 163 163 59 59 59 157 157 157 159 159 159 250 250 250 255 255 255 248 248 248 60 60 60 255 255 255 255 255 255 
252 252 252 255 255 255 159 159 159 155 155 155 62 62 62 248 248 248 57 57 57 153 153 153 254 254 254 61 61 61 61 61 61 250 250 250 255 255 255 63 63 63 57 57 57 255 255 255 
255 255 255 252 252 252 251 251 251 254 254 254 66 66 66 255 255 255 62 62 62 255 255 255 255 255 255 60 60 60 158 158 158 254 254 254 59 59 59 153 153 153 161 161 161 60 60 60 
255 255 255 255 255 255 255 255 255 249 249 249 58 58 58 64 64 64 59 59 59 254 254 254 254 254 254 153 153 153 59 59 59 62 62 62 157 157 157 255 255 255 249 249 249 152 152 152 
255 255 255 252 252 252 255 255 255 62 62 62 155 155 155 155 155 155 156 156 156 60 60 60 255 255 255 61 61 61 155 155 155 62 62 62 253 253 253 255 255 255 255 255 255 255 255 255 
255 255 255 253 253 253 61 61 61 159 159 159 253 253 253 61 61 61 255 255 255 155 155 155 62 62 62 153 153 153 255 255 255 59 59 59 255 255 255 255 255 255 255 255 255 255 255 255 
255 255 255 254 254 254 64 64 64 251 251 251 61 61 61 158 158 158 251 251 251 253 253 253 58 58 58 254 254 254 255 255 255 157 157 157 57 57 57 253 253 253 255 255 255 253 253 253 
253 253 253 255 255 255 155 155 155 250 250 250 157 157 157 62 62 62 249 249 249 255 255 255 62 62 62 61 61 61 255 255 255 252 252 252 160 160 160 253 253 253 255 255 255 255 255 255 
255 255 255 254 254 254 255 255 255 255 255 255 252 252 252 61 61 61 64 64 64 55 55 55 153 153 153 153 153 153 58 58 58 65 65 65 255 255 255 254 254 254 250 250 250 255 255 255 
253 253 253 60 60 60 252 252 252 255 255 255 58 58 58 153 153 153 154 154 154 156 156 156 58 58 58 255 255 255 157 157 157 146 146 146 255 255 255 252 252 252 255 255 255 253 253 253 
255 255 255 160 160 160 59 59 59 55 55 55 159 159 159 252 252 252 255 255 255 255 255 255 158 158 158 51 51 51 63 63 63 63 63 63 255 255 255 255 255 255 249 249 249 255 255 255 
255 255 255 251 251 251 156 156 156 159 159 159 61 61 61 255 255 255 248 248 248 254 254 254 58 58 58 157 157 157 156 156 156 157 157 157 55 55 55 255 255 255 255 255 255 255 255 255 
252 252 252 255 255 255 255 255 255 247 247 247 158 158 158 254 254 254 255 255 255 255 255 255 156 156 156 255 255 255 254 254 254 250 250 250 158 158 158 255 255 255 251 251 251 254 254 254 
