P3
16 16
255
250 250 250 255 255 255 253 253 253 255 255 255 255 255 255 255 255 255 251 251 251 255 255 255 254 254 254 255 255 255 255 255 255 255 255 255 255 255 255 255 255 255 249 249 249 255 255 255 
255 255 255 250 250 250 255 255 255 250 250 250 250 250 250 69 69 69 255 255 255 253 253 253 255 255 255 251 251 251 253 253 253 255 255 255 251 251 251 252 252 252 255 255 255 255 255 255 
255 255 255 253 253 253 254 254 254 255 255 255 254 254 254 152 152 152 65 65 65 254 254 254 63 63 63 60 60 60 255 255 255 255 255 255 255 255 255 252 252 252 255 255 255 255 255 255 
255 255 255 255 255 255 251 251 251 254 254 254 255 255 255 253 253 253 157 157 157 59 59 59 151 151 151 160 160 160 245 245 245 254 254 254 250 250 250 255 255 255 255 255 255 251 251 251 
249 249 249 253 253 253 254 254 254 255 255 255 61 61 61 255 255 255 56 56 56 159 159 159 255 255 255 64 64 64 255 255 255 255 255 255 255 255 255 59 59 59 58 58 58 253 253 253 
255 255 255 252 252 252 255 255 255 253 253 253 61 61 61 250 250 250 66 66 66 252 252 252 255 255 255 56 56 56 253 253 253 254 254 254 59 59 59 157 157 157 158 158 158 255 255 255 
246 246 246 255 255 255 254 254 254 254 254 254 62 62 62 66 66 66 58 58 58 255 255 255 255 255 255 158 158 158 58 58 58 69 69 69 150 150 150 253 253 253 253 253 253 255 255 255 
255 255 255 255 255 255 251 251 251 61 61 61 155 155 155 152 152 152 158 158 158 60 60 60 254 254 254 62 62 62 156 156 156 60 60 60 255 255 255 255 255 255 255 255 255 255 255 255 
255 255 255 252 252 252 61 61 61 154 154 154 255 255 255 255 255 255 255 255 255 150 150 150 61 61 61 155 155 155 255 255 255 154 154 154 253 253 253 255 255 255 251 251 251 255 255 255 
250 250 250 255 255 255 59 59 59 255 255 255 58 58 58 254 254 254 255 255 255 255 255 255 62 62 62 255 255 255 253 253 253 255 255 255 253 253 253 255 255 255 255 255 255 248 248 248 
255 255 255 251 251 251 154 154 154 255 255 255 160 160 160 57 57 57 250 250 250 255 255 255 64 64 64 59 59 59 255 255 255 250 250 250 255 255 255 254 254 254 253 253 253 255 255 255 
254 254 254 255 255 255 252 252 252 255 255 255 251 251 251 65 65 65 68 68 68 57 57 57 152 152 152 155 155 155 254 254 254 255 255 255 253 253 253 255 255 255 255 255 255 252 252 252 
254 254 254 255 255 255 255 255 255 255 255 255 60 60 60 154 154 154 152 152 152 153 153 153 63 63 63 255 255 255 252 252 252 255 255 255 255 255 255 249 249 249 255 255 255 255 255 255 
255 255 255 255 255 255 254 254 254 61 61 61 157 157 157 254 254 254 255 255 255 255 255 255 153 153 153 57 57 57 64 64 64 59 59 59 253 253 253 255 255 255 254 254 254 252 252 252 
253 253 253 255 255 255 254 254 254 155 155 155 255 255 255 251 251 251 255 255 255 250 250 250 255 255 255 154 154 154 161 161 161 155 155 155 254 254 254 251 251 251 255 255 255 253 253 253 
255 255 255 250 250 250 255 255 255 253 253 253 252 252 252 255 255 255 250 250 250 255 255 255 255 255 255 255 255 255 249 249 249 255 255 255 255 255 255 253 253 253 254 254 254 255 255 255 
