P3
16 16
255
255 255 255 253 253 253 63 63 63 251 251 251 255 255 255 252 252 252 58 58 58 255 255 255 154 154 154 255 255 255 60 60 60 254 254 254 65 65 65 254 254 254 155 155 155 255 255 255 
247 247 247 255 255 255 158 158 158 61 61 61 54 54 54 69 69 69 153 153 153 254 254 254 255 255 255 255 255 255 60 60 60 255 255 255 59 59 59 252 252 252 255 255 255 253 253 253 
255 255 255 52 52 52 255 255 255 153 153 153 150 150 150 153 153 153 64 64 64 254 254 254 63 63 63 57 57 57 154 154 154 255 255 255 154 154 154 60 60 60 255 255 255 251 251 251 
253 253 253 159 159 159 60 60 60 61 61 61 255 255 255 255 255 255 154 154 154 63 63 63 159 159 159 149 149 149 255 255 255 250 250 250 253 253 253 63 63 63 252 252 252 255 255 255 
64 64 64 58 58 58 154 154 154 154 154 154 63 63 63 255 255 255 57 57 57 152 152 152 254 254 254 58 58 58 60 60 60 255 255 255 255 255 255 58 58 58 64 64 64 255 255 255 
150 150 150 152 152 152 255 255 255 255 255 255 58 58 58 254 254 254 64 64 64 255 255 255 254 254 254 70 70 70 157 157 157 251 251 251 60 60 60 153 153 153 155 155 155 58 58 58 
255 255 255 255 255 255 252 252 252 255 255 255 62 62 62 57 57 57 66 66 66 249 249 249 255 255 255 149 149 149 55 55 55 68 68 68 155 155 155 255 255 255 252 252 252 157 157 157 
59 59 59 58 58 58 255 255 255 61 61 61 154 154 154 158 158 158 155 155 155 62 62 62 255 255 255 63 63 63 156 156 156 58 58 58 255 255 255 255 255 255 254 254 254 255 255 255 
155 155 155 155 155 155 59 59 59 154 154 154 255 255 255 58 58 58 255 255 255 159 159 159 61 61 61 154 154 154 255 255 255 64 64 64 253 253 253 255 255 255 255 255 255 60 60 60 
254 254 254 255 255 255 64 64 64 255 255 255 61 61 61 155 155 155 255 255 255 254 254 254 63 63 63 255 255 255 255 255 255 154 154 154 59 59 59 255 255 255 56 56 56 158 158 158 
60 60 60 255 255 255 155 155 155 252 252 252 155 155 155 62 62 62 255 255 255 253 253 253 58 58 58 65 65 65 254 254 254 255 255 255 156 156 156 59 59 59 159 159 159 255 255 255 
156 156 156 59 59 59 251 251 251 255 255 255 255 255 255 64 64 64 62 62 62 59 59 59 153 153 153 154 154 154 62 62 62 56 56 56 255 255 255 63 63 63 249 249 249 255 255 255 
254 254 254 64 64 64 255 255 255 253 253 253 61 61 61 150 150 150 153 153 153 160 160 160 63 63 63 255 255 255 148 148 148 164 164 164 254 254 254 158 158 158 56 56 56 61 61 61 
255 255 255 153 153 153 62 62 62 58 58 58 158 158 158 255 255 255 250 250 250 255 255 255 154 154 154 59 59 59 62 62 62 58 58 58 251 251 251 251 251 251 162 162 162 154 154 154 
255 255 255 255 255 255 65 65 65 151 151 151 61 61 61 54 54 54 255 255 255 255 255 255 62 62 62 156 156 156 152 152 152 157 157 157 67 67 67 65 65 65 251 251 251 255 255 255 
253 253 253 255 255 255 59 59 59 254 254 254 158 158 158 153 153 153 255 255 255 253 253 253 58 58 58 255 255 255 255 255 255 253 253 253 153 153 153 154 154 154 62 62 62 255 255 255 
