P3
16 16
255
252 252 252 255 255 255 255 255 255 254 254 254 251 251 251 255 255 255 255 255 255 253 253 253 255 255 255 255 255 255 255 255 255 255 255 255 254 254 254 255 255 255 252 252 252 255 255 255 
255 255 255 253 253 253 253 253 253 255 255 255 255 255 255 251 251 251 251 251 251 255 255 255 250 250 250 255 255 255 255 255 255 255 255 255 249 249 249 255 255 255 255 255 255 255 255 255 
253 253 253 255 255 255 250 250 250 255 255 255 253 253 253 255 255 255 255 255 255 255 255 255 255 255 255 252 252 252 254 254 254 255 255 255 255 255 255 251 251 251 254 254 254 255 255 255 
255 255 255 252 252 252 255 255 255 255 255 255 246 246 246 255 255 255 248 248 248 62 62 62 249 249 249 255 255 255 252 252 252 255 255 255 254 254 254 255 255 255 255 255 255 255 255 255 
255 255 255 254 254 254 255 255 255 249 249 249 255 255 255 255 255 255 63 63 63 155 155 155 254 254 254 255 255 255 254 254 254 255 255 255 255 255 255 255 255 255 252 252 252 250 250 250 
254 254 254 255 255 255 255 255 255 255 255 255 255 255 255 255 255 255 60 60 60 255 255 255 255 255 255 65 65 65 253 253 253 255 255 255 57 57 57 254 254 254 255 255 255 255 255 255 
255 255 255 254 254 254 255 255 255 250 250 250 255 255 255 63 63 63 54 54 54 255 255 255 255 255 255 150 150 150 66 66 66 61 61 61 156 156 156 255 255 255 248 248 248 255 255 255 
255 255 255 253 253 253 253 253 253 255 255 255 253 253 253 153 153 153 160 160 160 60 60 60 252 252 252 68 68 68 153 153 153 151 151 151 255 255 255 255 255 255 255 255 255 255 255 255 
253 253 253 255 255 255 255 255 255 255 255 255 255 255 255 252 252 252 254 254 254 155 155 155 58 58 58 156 156 156 253 253 253 255 255 255 255 255 255 255 255 255 255 255 255 253 253 253 
255 255 255 255 255 255 250 250 250 255 255 255 251 251 251 255 255 255 253 253 253 255 255 255 67 67 67 251 251 251 255 255 255 253 253 253 255 255 255 250 250 250 255 255 255 254 254 254 
255 255 255 252 252 252 255 255 255 255 255 255 253 253 253 248 248 248 254 254 254 255 255 255 58 58 58 255 255 255 254 254 254 250 250 250 255 255 255 255 255 255 250 250 250 255 255 255 
252 252 252 255 255 255 252 252 252 254 254 254 255 255 255 255 255 255 64 64 64 64 64 64 154 154 154 250 250 250 255 255 255 255 255 255 253 253 253 255 255 255 254 254 254 255 255 255 
255 255 255 255 255 255 255 255 255 252 252 252 255 255 255 251 251 251 151 151 151 155 155 155 255 255 255 255 255 255 254 254 254 255 255 255 255 255 255 248 248 248 255 255 255 251 251 251 
255 255 255 252 252 252 255 255 255 255 255 255 255 255 255 255 255 255 252 252 252 255 255 255 255 255 255 250 250 250 249 249 249 254 254 254 255 255 255 252 252 252 255 255 255 254 254 254 
255 255 255 255 255 255 255 255 255 253 253 253 250 250 250 255 255 255 255 255 255 254 254 254 253 253 253 255 255 255 255 255 255 255 255 255 255 255 255 255 255 255 250 250 250 255 255 255 
255 255 255 253 253 253 255 255 255 255 255 255 254 254 254 255 255 255 253 253 253 255 255 255 255 255 255 255 255 255 251 251 251 255 255 255 255 255 255 253 253 253 255 255 255 250 250 250 
