P3
16 16
255
255 255 255 254 254 254 255 255 255 254 254 254 255 255 255 249 249 249 255 255 255 255 255 255 255 255 255 252 252 252 255 255 255 253 253 253 255 255 255 254 254 254 253 253 253 255 255 255 
250 250 250 255 255 255 254 254 254 250 250 250 252 252 252 255 255 255 255 255 255 252 252 252 255 255 255 255 255 255 253 253 253 255 255 255 247 247 247 255 255 255 255 255 255 252 252 252 
255 255 255 253 253 253 255 255 255 255 255 255 255 255 255 253 253 253 255 255 255 255 255 255 255 255 255 253 253 253 255 255 255 255 255 255 255 255 255 252 252 252 251 251 251 255 255 255 
254 254 254 255 255 255 255 255 255 255 255 255 249 249 249 253 253 253 252 252 252 255 255 255 255 255 255 252 252 252 255 255 255 255 255 255 250 250 250 255 255 255 253 253 253 255 255 255 
255 255 255 253 253 253 251 251 251 255 255 255 255 255 255 255 255 255 255 255 255 255 255 255 255 255 255 255 255 255 253 253 253 255 255 255 255 255 255 252 252 252 255 255 255 250 250 250 
255 255 255 255 255 255 255 255 255 255 255 255 252 252 252 255 255 255 55 55 55 253 253 253 249 249 249 251 251 251 255 255 255 255 255 255 251 251 251 255 255 255 255 255 255 255 255 255 
255 255 255 250 250 250 255 255 255 252 252 252 252 252 252 255 255 255 64 64 64 255 255 255 255 255 255 255 255 255 255 255 255 255 255 255 255 255 255 254 254 254 250 250 250 255 255 255 
253 253 253 255 255 255 255 255 255 255 255 255 255 255 255 253 253 253 155 155 155 60 60 60 254 254 254 58 58 58 255 255 255 254 254 254 254 254 254 255 255 255 255 255 255 252 252 252 
255 255 255 254 254 254 254 254 254 255 255 255 255 255 255 255 255 255 255 255 255 156 156 156 60 60 60 160 160 160 251 251 251 255 255 255 253 253 253 254 254 254 255 255 255 254 254 254 
255 255 255 255 255 255 255 255 255 255 255 255 255 255 255 248 248 248 255 255 255 249 249 249 53 53 53 255 255 255 255 255 255 254 254 254 255 255 255 255 255 255 255 255 255 255 255 255 
255 255 255 254 254 254 253 253 253 253 253 253 255 255 255 255 255 255 251 251 251 255 255 255 160 160 160 254 254 254 255 255 255 255 255 255 252 252 252 255 255 255 247 247 247 255 255 255 
255 255 255 253 253 253 255 255 255 255 255 255 250 250 250 255 255 255 254 254 254 253 253 253 253 253 253 251 251 251 253 253 253 254 254 254 255 255 255 253 253 253 255 255 255 254 254 254 
255 255 255 252 252 252 254 254 254 255 255 255 250 250 250 255 255 255 255 255 255 255 255 255 255 255 255 255 255 255 254 254 254 255 255 255 252 252 252 254 254 254 255 255 255 254 254 254 
254 254 254 255 255 255 251 251 251 255 255 255 255 255 255 255 255 255 252 252 252 251 251 251 255 255 255 247 247 247 255 255 255 255 255 255 251 251 251 255 255 255 250 250 250 255 255 255 
251 251 251 255 255 255 255 255 255 252 252 252 252 252 252 255 255 255 255 255 255 255 255 255 255 255 255 255 255 255 254 254 254 249 249 249 255 255 255 255 255 255 254 254 254 255 255 255 
255 255 255 253 253 253 254 254 254 255 255 255 255 255 255 255 255 255 253 253 253 253 253 253 255 255 255 251 251 251 255 255 255 255 255 255 249 249 249 255 255 255 255 255 255 254 254 254 
