P3
16 16
255
254 254 254 255 255 255 253 253 253 252 252 252 255 255 255 255 255 255 62 62 62 253 253 253 154 154 154 255 255 255 253 253 253 255 255 255 254 254 254 255 255 255 155 155 155 254 254 254 
255 255 255 252 252 252 255 255 255 63 63 63 55 55 55 62 62 62 159 159 159 255 255 255 253 253 253 255 255 255 59 59 59 250 250 250 62 62 62 254 254 254 255 255 255 255 255 255 
255 255 255 56 56 56 255 255 255 150 150 150 154 154 154 155 155 155 61 61 61 253 253 253 61 61 61 59 59 59 157 157 157 255 255 255 155 155 155 63 63 63 252 252 252 254 254 254 
253 253 253 158 158 158 62 62 62 63 63 63 255 255 255 253 253 253 154 154 154 64 64 64 154 154 154 157 157 157 254 254 254 255 255 255 255 255 255 58 58 58 255 255 255 255 255 255 
255 255 255 55 55 55 155 155 155 155 155 155 58 58 58 255 255 255 56 56 56 158 158 158 255 255 255 57 57 57 65 65 65 254 254 254 255 255 255 63 63 63 55 55 55 254 254 254 
252 252 252 159 159 159 254 254 254 253 253 253 62 62 62 255 255 255 60 60 60 253 253 253 253 253 253 58 58 58 158 158 158 255 255 255 53 53 53 154 154 154 165 165 165 62 62 62 
255 255 255 254 254 254 255 255 255 254 254 254 58 58 58 58 58 58 67 67 67 255 255 255 255 255 255 158 158 158 49 49 49 67 67 67 162 162 162 253 253 253 252 252 252 152 152 152 
254 254 254 255 255 255 252 252 252 63 63 63 158 158 158 156 156 156 155 155 155 59 59 59 254 254 254 61 61 61 157 157 157 58 58 58 255 255 255 252 252 252 255 255 255 255 255 255 
252 252 252 255 255 255 59 59 59 154 154 154 255 255 255 64 64 64 254 254 254 156 156 156 62 62 62 152 152 152 255 255 255 63 63 63 255 255 255 251 251 251 255 255 255 253 253 253 
255 255 255 255 255 255 60 60 60 255 255 255 60 60 60 152 152 152 255 255 255 251 251 251 61 61 61 254 254 254 252 252 252 155 155 155 57 57 57 255 255 255 57 57 57 255 255 255 
58 58 58 254 254 254 151 151 151 255 255 255 153 153 153 60 60 60 254 254 254 255 255 255 61 61 61 65 65 65 254 254 254 255 255 255 156 156 156 61 61 61 157 157 157 255 255 255 
160 160 160 59 59 59 255 255 255 254 254 254 255 255 255 59 59 59 61 61 61 60 60 60 154 154 154 153 153 153 64 64 64 52 52 52 255 255 255 63 63 63 253 253 253 255 255 255 
254 254 254 60 60 60 255 255 255 255 255 255 52 52 52 161 161 161 157 157 157 152 152 152 61 61 61 253 253 253 158 158 158 160 160 160 255 255 255 156 156 156 252 252 252 255 255 255 
255 255 255 159 159 159 58 58 58 67 67 67 156 156 156 252 252 252 253 253 253 255 255 255 154 154 154 63 63 63 63 63 63 57 57 57 252 252 252 255 255 255 255 255 255 255 255 255 
252 252 252 253 253 253 61 61 61 153 153 153 64 64 64 61 61 61 255 255 255 251 251 251 63 63 63 158 158 158 146 146 146 157 157 157 66 66 66 61 61 61 255 255 255 253 253 253 
255 255 255 252 252 252 161 161 161 253 253 253 152 152 152 156 156 156 255 255 255 254 254 254 58 58 58 255 255 255 255 255 255 255 255 255 153 153 153 157 157 157 59 59 59 255 255 255 
