P3
16 16
255
81 232 241 71 236 222 75 240 236 81 234 214 65 227 230 58 222 224 76 234 235 71 240 237 70 241 232 63 220 239 58 225 218 61 225 224 64 228 229 95 231 231 63 244 209 24 192 201 
78 244 224 210 248 233 255 255 255 255 251 255 149 254 240 158 255 246 231 252 247 212 253 239 203 255 228 163 252 246 160 255 243 96 248 227 94 246 225 203 252 255 222 255 255 12 197 191 
82 231 238 251 255 255 91 244 224 95 243 221 112 255 250 207 253 250 146 253 235 164 253 233 106 248 226 77 234 239 60 222 224 54 219 225 85 234 232 116 248 235 221 253 255 19 197 199 
72 232 220 251 255 255 100 246 225 114 251 243 222 254 243 146 255 221 165 255 239 116 249 228 102 242 229 73 232 228 85 239 227 65 246 231 108 254 241 107 255 234 154 250 238 24 193 190 
69 232 229 153 246 227 119 248 254 163 251 237 164 248 232 164 255 231 104 250 249 104 240 236 66 240 238 82 237 233 97 246 217 109 249 236 111 249 236 97 244 236 153 248 252 24 197 195 
58 218 216 159 255 241 158 250 237 158 255 235 165 253 229 110 244 237 100 245 242 80 242 227 69 238 235 102 244 230 174 255 234 158 248 239 106 249 231 77 237 229 63 228 212 22 188 184 
85 239 241 214 253 250 148 255 242 167 252 229 100 254 242 111 255 245 106 250 241 88 245 226 101 242 223 160 255 240 154 255 231 106 242 232 77 237 227 54 221 229 65 219 231 15 182 200 
78 239 224 204 249 242 157 255 243 109 251 227 110 249 246 115 250 235 101 252 217 109 239 227 112 255 244 111 243 230 106 244 229 71 239 240 67 236 229 61 231 230 81 237 234 7 190 185 
68 229 224 157 247 238 104 252 228 119 251 255 103 249 238 91 248 219 112 243 229 107 250 244 100 251 234 115 252 226 95 241 228 80 236 233 68 245 227 69 238 217 111 243 230 21 194 201 
54 222 223 175 250 253 113 254 235 99 250 241 112 249 233 105 250 217 110 254 231 118 249 243 104 244 243 97 244 218 110 241 233 101 238 222 74 233 228 123 250 255 108 246 246 14 193 187 
56 227 235 110 242 231 107 250 230 99 244 229 107 247 220 155 248 229 158 250 245 89 252 233 93 244 225 108 249 233 89 246 225 105 253 231 157 255 236 112 240 239 72 229 212 5 196 188 
52 229 235 80 237 220 87 252 222 111 244 227 170 246 234 159 252 234 100 251 232 89 236 228 85 231 221 103 251 229 73 237 230 156 254 239 148 255 247 110 250 224 83 232 226 14 188 195 
62 219 228 76 245 226 111 243 229 152 251 248 157 255 247 94 244 219 67 242 229 60 223 222 66 224 235 68 244 223 119 246 229 119 243 243 101 250 231 67 236 229 96 246 234 28 191 206 
64 227 232 65 219 209 117 248 243 107 253 243 99 246 228 79 239 227 59 222 227 59 228 231 72 236 235 101 248 219 94 246 231 100 251 232 68 240 226 93 235 213 111 252 236 19 193 194 
55 222 228 74 245 239 57 226 223 62 237 232 89 242 237 57 223 221 73 226 240 70 232 237 106 243 233 98 240 224 79 236 229 83 235 236 89 240 221 114 250 238 160 255 252 10 193 189 
14 197 201 23 191 194 27 183 195 18 193 198 21 194 190 7 189 190 25 176 193 13 193 190 21 195 196 28 194 192 10 187 197 12 187 190 25 193 202 25 191 207 10 182 182 17 186 189 
