P3
16 16
255
153 145 143 116 127 113 124 133 130 143 140 161 131 127 124 118 115 110 113 119 109 135 125 116 112 119 111 113 95 111 111 119 121 110 117 109 131 118 125 150 140 141 139 149 141 138 141 156 
123 121 126 130 134 135 124 112 100 120 129 126 106 106 108 135 141 157 136 144 146 138 146 149 145 152 134 126 124 125 132 127 131 122 122 120 103 102 108 91 108 100 123 112 106 125 129 130 
138 123 146 104 118 101 98 102 103 113 103 114 38 201 206 141 152 144 118 130 120 107 95 105 96 95 111 111 127 126 120 114 100 99 96 91 112 230 218 31 156 148 129 129 139 128 127 122 
141 146 140 133 144 140 166 140 149 117 126 121 143 175 172 124 150 141 102 106 105 129 232 211 42 149 155 148 165 185 154 141 151 122 134 130 151 175 175 142 136 148 127 110 120 115 109 111 
115 109 113 133 126 142 126 123 132 126 126 134 114 119 97 103 103 111 115 99 110 138 139 133 143 177 176 122 123 127 112 114 113 128 127 123 130 142 128 124 123 118 126 126 128 114 136 133 
127 130 123 141 148 130 128 127 122 124 115 120 99 108 105 223 251 255 113 221 198 107 111 94 123 126 119 121 124 117 214 251 244 121 229 205 110 118 121 99 102 107 107 115 118 149 141 139 
116 118 113 100 117 125 142 146 145 217 249 244 114 235 204 22 203 212 37 211 222 24 150 162 140 168 169 130 128 149 19 217 194 38 152 153 116 128 128 139 126 117 126 127 119 134 125 116 
146 145 140 108 97 101 99 106 112 141 144 133 149 171 184 162 164 159 142 177 171 143 172 176 104 105 107 101 104 97 147 130 146 145 176 181 129 127 128 140 140 142 154 164 173 162 160 161 
103 106 97 119 226 220 35 208 212 139 172 179 148 143 149 121 132 118 122 111 125 96 108 106 209 255 250 113 232 204 131 121 129 122 122 120 124 129 123 120 134 134 133 144 138 124 117 109 
122 131 130 149 169 170 144 179 175 118 123 129 107 106 101 135 126 119 116 115 111 123 225 201 40 206 218 36 149 163 22 147 141 140 181 177 149 135 152 153 162 161 173 165 176 129 120 125 
95 109 110 125 127 113 112 110 121 139 129 140 26 209 189 112 112 114 117 106 120 128 149 142 139 172 165 140 175 179 148 144 141 112 101 97 109 102 86 110 112 125 119 116 123 110 117 110 
137 120 128 134 129 123 126 129 118 118 131 121 137 123 138 139 146 152 141 136 143 146 145 143 147 144 153 108 122 99 101 101 103 111 230 211 29 157 158 138 144 144 140 143 136 132 131 127 
130 131 135 113 112 110 142 140 143 92 108 105 103 103 111 124 128 127 143 143 145 114 116 115 117 225 212 207 255 252 127 229 207 31 212 221 38 205 214 30 149 155 158 140 152 106 111 117 
133 144 148 141 148 141 154 172 192 114 227 207 39 147 147 116 105 101 117 116 121 141 121 132 167 162 156 27 161 152 37 204 222 137 164 191 146 172 169 149 153 130 114 130 119 134 129 125 
124 128 127 125 121 122 114 110 107 143 173 163 143 144 138 140 143 134 136 137 131 129 128 133 131 127 124 134 146 144 139 178 160 136 126 134 108 118 110 110 111 116 119 108 112 128 129 131 
125 131 117 129 120 125 124 131 147 129 132 121 127 125 136 125 132 140 107 119 131 147 145 132 124 128 129 138 118 129 125 131 131 126 132 122 119 125 121 135 130 136 152 142 153 137 143 139 
