P3
16 16
255
134 134 134 165 165 165 163 163 163 164 164 164 187 187 187 233 233 233 166 166 166 163 163 163 191 191 191 193 193 193 234 234 234 163 163 163 203 203 203 193 193 193 232 232 232 232 232 232 
167 167 167 123 123 123 136 136 136 197 197 197 168 168 168 160 160 160 136 136 136 190 190 190 232 232 232 190 190 190 200 200 200 233 233 233 235 235 235 204 204 204 191 191 191 140 140 140 
233 233 233 139 139 139 187 187 187 231 231 231 229 229 229 141 141 141 128 128 128 139 139 139 192 192 192 163 163 163 239 239 239 233 233 233 205 205 205 198 198 198 154 154 154 193 193 193 
229 229 229 168 168 168 239 239 239 230 230 230 201 201 201 135 135 135 156 156 156 237 237 237 234 234 234 188 188 188 160 160 160 137 137 137 191 191 191 158 158 158 165 165 165 234 234 234 
193 193 193 230 230 230 138 138 138 161 161 161 203 203 203 195 195 195 138 138 138 233 233 233 188 188 188 234 234 234 192 192 192 166 166 166 163 163 163 234 234 234 233 233 233 161 161 161 
208 208 208 230 230 230 192 192 192 236 236 236 233 233 233 235 235 235 207 207 207 139 139 139 194 194 194 192 192 192 163 163 163 188 188 188 186 186 186 231 231 231 168 168 168 189 189 189 
235 235 235 185 185 185 193 193 193 165 165 165 204 204 204 235 235 235 229 229 229 162 162 162 138 138 138 205 205 205 234 234 234 234 234 234 213 213 213 134 134 134 123 123 123 166 166 166 
161 161 161 211 211 211 190 190 190 138 138 138 163 163 163 191 191 191 166 166 166 190 190 190 207 207 207 233 233 233 230 230 230 238 238 238 228 228 228 166 166 166 138 138 138 162 162 162 
191 191 191 164 164 164 162 162 162 121 121 121 192 192 192 164 164 164 233 233 233 232 232 232 206 206 206 203 203 203 192 192 192 165 165 165 205 205 205 203 203 203 169 169 169 229 229 229 
125 125 125 139 139 139 233 233 233 238 238 238 162 162 162 134 134 134 193 193 193 231 231 231 235 235 235 139 139 139 165 165 165 189 189 189 207 207 207 232 232 232 202 202 202 141 141 141 
161 161 161 208 208 208 205 205 205 184 184 184 141 141 141 126 126 126 138 138 138 194 194 194 198 198 198 196 196 196 184 184 184 236 236 236 237 237 237 134 134 134 195 195 195 123 123 123 
232 232 232 233 233 233 238 238 238 137 137 137 122 122 122 142 142 142 207 207 207 202 202 202 168 168 168 165 165 165 137 137 137 234 234 234 132 132 132 165 165 165 194 194 194 232 232 232 
168 168 168 227 227 227 208 208 208 163 163 163 235 235 235 201 201 201 197 197 197 233 233 233 230 230 230 200 200 200 170 170 170 159 159 159 192 192 192 161 161 161 159 159 159 193 193 193 
159 159 159 137 137 137 167 167 167 192 192 192 205 205 205 192 192 192 138 138 138 160 160 160 236 236 236 204 204 204 230 230 230 209 209 209 192 192 192 235 235 235 193 193 193 162 162 162 
211 211 211 165 165 165 136 136 136 138 138 138 233 233 233 235 235 235 164 164 164 140 140 140 204 204 204 238 238 238 234 234 234 188 188 188 160 160 160 140 140 140 164 164 164 206 206 206 
232 232 232 161 161 161 194 194 194 231 231 231 235 235 235 232 232 232 203 203 203 142 142 142 162 162 162 206 206 206 206 206 206 160 160 160 143 143 143 160 160 160 232 232 232 234 234 234 
