P3
16 16
255
182 133 93 155 109 73 141 104 75 129 88 56 127 88 57 184 127 82 144 110 83 155 109 73 125 84 52 125 86 55 82 57 37 126 91 63 122 81 49 187 133 89 132 86 50 176 130 94 
118 86 61 159 107 67 84 61 43 125 90 62 108 80 58 155 107 69 134 139 143 84 61 43 123 88 60 175 138 109 153 112 80 117 87 63 188 131 86 144 109 81 87 62 42 81 65 52 
177 131 95 113 86 65 135 82 40 75 61 50 195 138 93 120 90 66 122 81 49 118 83 55 191 129 80 119 84 56 112 84 62 117 87 63 83 64 49 101 60 28 186 129 84 135 86 46 
154 111 77 126 108 94 180 131 91 114 91 73 151 105 69 91 57 30 129 80 40 181 140 108 159 110 70 150 113 84 123 84 53 163 106 61 117 85 60 180 134 98 154 111 77 111 84 63 
146 102 67 129 81 43 147 108 77 171 136 108 90 62 40 149 106 72 115 94 77 124 81 47 142 107 79 99 60 29 112 85 64 111 106 102 123 88 60 135 110 90 89 61 39 128 84 49 
121 93 71 86 59 38 163 110 68 160 108 68 126 80 44 155 112 78 84 56 34 89 62 41 83 62 45 119 87 62 118 93 73 78 59 44 126 87 56 124 85 54 129 90 59 185 131 87 
176 130 94 109 91 77 111 83 61 115 88 67 130 134 137 115 88 67 126 80 44 182 133 93 179 133 97 130 86 51 176 133 99 191 133 87 121 89 64 146 102 67 120 79 47 147 110 81 
129 86 52 122 81 49 192 134 88 187 130 85 153 112 80 148 104 69 123 91 66 119 84 56 150 109 77 93 58 30 152 106 70 148 109 78 124 83 51 125 91 64 149 106 72 150 111 80 
149 110 77 116 85 57 125 85 50 145 111 83 122 88 63 146 109 80 110 83 64 94 62 39 127 84 52 154 109 68 144 108 84 112 87 65 133 90 55 128 75 41 99 64 32 118 81 54 
123 88 58 153 110 75 95 61 33 123 82 50 125 84 52 91 57 30 110 67 35 118 84 57 99 87 75 140 85 46 120 87 54 111 80 60 187 134 94 187 142 100 114 78 56 143 118 96 
119 84 56 153 108 75 117 82 54 184 140 105 177 131 95 125 86 55 181 133 95 148 108 73 93 62 34 178 128 95 184 139 98 91 64 45 152 106 72 144 110 75 137 135 140 121 86 56 
151 112 83 116 82 57 129 85 50 148 107 77 150 107 73 187 138 98 124 84 49 152 107 68 107 112 118 154 109 67 150 103 73 122 88 60 106 61 22 152 105 75 119 85 50 90 58 35 
119 83 57 96 66 42 149 106 74 120 83 54 152 113 82 155 109 73 171 134 105 131 88 53 126 81 48 129 84 43 127 90 64 116 81 51 112 86 63 118 95 81 181 139 101 186 133 93 
124 90 65 147 106 76 121 89 64 123 84 53 123 84 53 117 85 60 144 105 72 142 111 83 112 86 63 94 65 49 181 130 85 99 65 40 110 84 67 189 133 82 159 100 60 153 105 65 
139 103 71 132 88 53 90 56 28 179 140 107 122 85 56 89 61 39 129 94 66 88 60 39 186 135 92 185 132 98 120 89 58 145 108 81 119 85 60 118 87 56 159 109 76 150 115 85 
156 111 72 121 82 49 182 137 98 142 105 76 147 113 86 122 85 58 152 126 109 115 87 65 148 109 80 153 108 66 127 82 53 121 90 62 153 109 72 156 104 67 118 87 58 81 59 45 
