P3
16 16
255
255 253 253 248 255 240 255 252 253 255 252 255 245 255 243 255 254 255 250 253 246 255 255 253 255 254 251 244 255 255 255 251 255 255 254 251 247 255 246 255 255 250 251 253 255 249 255 243 
204 159 102 176 144 93 200 155 88 178 138 77 162 138 64 173 137 79 182 145 92 173 133 81 178 140 69 169 134 76 183 142 88 183 147 61 191 157 96 162 123 82 209 177 78 174 138 90 
176 141 60 170 150 79 166 127 84 176 149 82 177 165 83 90 56 44 186 165 58 179 147 90 196 157 88 187 161 84 189 147 75 176 151 85 226 196 123 198 149 91 172 150 74 186 139 83 
189 170 94 124 98 111 176 140 66 163 128 62 187 164 97 93 58 39 184 166 90 83 61 37 182 160 87 156 120 72 182 164 98 197 187 98 115 79 65 195 173 98 183 160 92 129 89 53 
149 107 65 117 83 55 155 102 60 189 137 100 170 138 61 156 110 87 121 81 56 124 89 49 188 155 110 87 58 52 189 157 80 124 104 106 122 92 66 153 110 65 82 62 53 126 76 51 
119 94 54 88 64 52 155 107 84 150 103 59 119 82 63 147 112 74 86 56 48 85 65 32 91 62 22 118 84 47 122 95 52 86 59 29 117 82 60 121 90 44 123 88 68 175 137 101 
190 127 83 121 84 58 119 83 61 111 98 66 142 137 133 112 89 48 130 84 68 186 128 88 181 137 92 121 89 68 180 127 93 185 143 105 119 81 60 158 106 69 121 82 53 153 107 71 
124 84 58 120 89 58 185 129 94 187 131 96 149 107 67 158 112 79 115 79 45 123 88 66 149 111 66 89 60 46 151 106 77 152 106 72 121 85 59 127 82 59 153 110 75 145 111 74 
149 110 77 116 85 57 125 85 50 145 111 83 122 88 63 146 109 80 110 83 64 94 62 39 127 84 52 154 109 68 144 108 84 112 87 65 133 90 55 128 75 41 99 64 32 118 81 54 
123 88 58 153 110 75 95 61 33 123 82 50 125 84 52 91 57 30 110 67 35 118 84 57 99 87 75 140 85 46 120 87 54 111 80 60 187 134 94 187 142 100 114 78 56 143 118 96 
119 84 56 153 108 75 117 82 54 184 140 105 177 131 95 125 86 55 181 133 95 148 108 73 93 62 34 178 128 95 184 139 98 91 64 45 152 106 72 144 110 75 137 135 140 121 86 56 
151 112 83 116 82 57 129 85 50 148 107 77 150 107 73 187 138 98 124 84 49 152 107 68 107 112 118 154 109 67 150 103 73 122 88 60 106 61 22 152 105 75 119 85 50 90 58 35 
119 83 57 96 66 42 149 106 74 120 83 54 152 113 82 155 109 73 171 134 105 131 88 53 126 81 48 129 84 43 127 90 64 116 81 51 112 86 63 118 95 81 181 139 101 186 133 93 
124 90 65 147 106 76 121 89 64 123 84 53 123 84 53 117 85 60 144 105 72 142 111 83 112 86 63 94 65 49 181 130 85 99 65 40 110 84 67 189 133 82 159 100 60 153 105 65 
139 103 71 132 88 53 90 56 28 179 140 107 122 85 56 89 61 39 129 94 66 88 60 39 186 135 92 185 132 98 120 89 58 145 108 81 119 85 60 118 87 56 159 109 76 150 115 85 
156 111 72 121 82 49 182 137 98 142 105 76 147 113 86 122 85 58 152 126 109 115 87 65 148 109 80 153 108 66 127 82 53 121 90 62 153 109 72 156 104 67 118 87 58 81 59 45 
