P3
16 16
255
84 82 83 79 77 78 77 75 76 82 80 81 59 57 58 79 77 78 83 81 82 79 77 78 62 62 62 57 57 57 59 59 59 80 80 80 56 56 56 64 62 63 77 75 76 79 77 78 
76 74 75 90 88 89 108 106 107 106 104 105 117 115 116 105 103 104 133 131 132 121 119 120 101 101 101 102 102 102 116 116 116 125 125 125 105 105 105 102 100 101 94 92 93 85 83 84 
79 77 78 98 96 97 120 118 119 139 137 138 94 92 93 90 88 89 108 106 107 94 92 93 138 138 138 146 146 146 104 104 104 100 100 100 118 118 118 125 123 124 117 115 116 76 74 75 
78 78 78 106 106 106 131 131 131 135 135 135 197 197 197 203 203 203 88 88 88 115 115 115 113 113 113 135 135 135 196 196 196 197 197 197 98 98 98 117 115 116 104 102 103 82 80 81 
80 80 80 109 109 109 135 135 135 201 201 201 173 173 173 176 176 176 201 201 201 122 122 122 122 122 122 200 200 200 177 177 177 177 177 177 196 196 196 124 122 123 90 88 89 61 59 60 
61 61 61 123 123 123 103 103 103 191 191 191 178 178 178 81 81 81 173 173 173 102 102 102 104 104 104 169 169 169 83 83 83 173 173 173 196 196 196 102 100 101 96 94 95 57 55 56 
81 81 81 100 100 100 147 147 147 181 181 181 140 140 140 107 107 107 145 145 145 199 199 199 200 200 200 146 146 146 102 102 102 144 144 144 172 172 172 153 151 152 92 90 91 80 78 79 
59 59 59 121 121 121 197 197 197 165 165 165 163 163 163 191 191 191 181 181 181 142 142 142 143 143 143 177 177 177 195 195 195 160 160 160 169 169 169 196 194 195 118 116 117 61 59 60 
60 60 60 105 105 105 196 196 196 159 159 159 166 166 166 177 177 177 145 145 145 19 19 19 16 18 17 169 169 169 172 172 172 172 172 172 156 156 156 197 197 197 107 107 107 77 75 76 
78 78 78 165 165 165 183 183 183 168 168 168 176 176 176 150 150 150 14 14 14 13 13 13 16 18 17 30 30 30 204 204 204 168 168 168 166 166 166 179 179 179 166 166 166 83 81 82 
83 83 83 155 155 155 153 153 153 171 171 171 175 175 175 155 155 155 37 37 37 15 15 15 30 32 31 31 31 31 195 195 195 181 181 181 172 172 172 155 155 155 155 155 155 60 58 59 
56 56 56 164 164 164 171 171 171 144 144 144 156 156 156 177 177 177 124 124 124 33 33 33 31 33 32 201 201 201 179 179 179 154 154 154 147 147 147 170 170 170 147 147 147 81 79 80 
60 60 60 141 141 141 157 157 157 165 165 165 162 162 162 155 155 155 163 163 163 203 203 203 197 199 198 158 158 158 156 156 156 142 142 142 158 158 158 154 154 154 144 144 144 75 73 74 
77 77 77 135 135 135 138 138 138 158 158 158 145 145 145 147 147 147 157 157 157 167 167 167 143 145 144 138 138 138 150 150 150 151 151 151 157 157 157 140 140 140 130 130 130 86 84 85 
78 78 78 107 107 107 105 105 105 124 124 124 113 113 113 105 105 105 120 120 120 126 126 126 128 130 129 126 126 126 119 119 119 114 114 114 107 107 107 105 105 105 101 101 101 78 76 77 
79 79 79 76 76 76 82 82 82 75 75 75 60 60 60 82 82 82 76 76 76 81 81 81 59 61 60 56 56 56 62 62 62 58 58 58 78 78 78 82 82 82 78 78 78 83 81 82 
