P3
16 16
255
39 48 29 35 47 25 36 48 24 35 47 23 40 52 28 40 50 26 45 55 31 145 153 130 21 32 18 27 38 22 35 46 29 31 43 23 34 48 25 32 46 20 36 51 22 32 48 19 
18 27 10 18 30 10 35 47 27 45 57 35 40 52 30 36 45 24 28 37 16 139 146 128 23 34 17 21 32 15 22 33 16 30 41 24 35 48 30 35 48 28 28 41 21 23 36 16 
38 47 30 47 58 41 35 47 27 37 49 29 32 44 22 44 53 34 47 56 37 140 147 129 30 43 23 34 47 27 34 47 29 38 49 33 22 33 17 18 29 15 21 32 18 36 46 35 
19 28 9 21 33 13 34 46 24 34 46 24 27 39 17 34 43 22 22 31 12 129 136 118 31 44 24 22 35 17 14 27 9 21 32 15 22 33 16 23 34 18 22 30 15 24 32 17 
49 58 37 43 55 31 31 43 19 36 49 23 47 60 34 45 55 31 44 54 30 128 136 115 23 36 19 26 39 21 33 46 28 33 45 25 34 46 24 30 42 20 35 45 21 36 46 22 
46 56 32 43 55 31 50 62 38 32 45 19 34 47 21 41 51 27 32 41 20 124 132 111 35 46 30 34 45 28 35 46 29 27 39 19 32 44 22 34 46 22 43 56 30 44 54 27 
41 50 31 34 46 26 27 39 17 33 45 23 34 46 24 30 39 20 31 40 23 130 137 121 34 43 26 35 44 27 32 41 22 23 35 15 24 36 16 31 43 23 41 53 33 46 58 38 
23 31 16 30 41 24 34 45 28 32 43 26 19 30 13 25 33 18 21 29 16 127 133 121 21 30 9 31 40 21 35 44 25 37 46 29 23 34 18 22 33 19 19 29 18 21 33 21 
35 44 25 44 53 32 43 56 30 38 51 25 40 52 30 24 35 18 18 27 10 130 139 120 23 35 13 39 49 25 43 53 29 35 45 20 34 44 19 40 50 25 41 51 26 37 49 25 
26 34 21 43 52 35 40 52 30 44 56 34 33 44 27 31 42 26 23 31 16 138 147 130 19 29 21 24 34 26 25 32 24 22 30 19 25 33 22 27 35 24 21 31 22 17 27 18 
29 38 17 39 49 24 49 62 34 40 53 25 44 57 31 35 47 23 42 52 27 144 154 127 31 43 21 34 46 22 37 47 23 37 47 22 37 47 22 37 47 22 39 51 27 46 58 34 
23 31 20 27 35 22 27 38 21 34 45 28 33 44 28 44 52 39 42 50 35 142 149 131 31 42 25 31 42 25 35 44 25 41 50 29 47 56 35 41 50 29 25 37 17 17 29 9 
48 57 36 41 54 28 38 51 23 45 58 30 41 53 29 48 58 34 45 55 28 145 154 125 23 35 13 33 45 21 40 52 28 42 52 27 40 50 25 36 49 23 35 47 23 37 49 25 
22 32 21 16 27 13 22 33 17 18 29 15 21 31 20 17 25 14 26 32 20 127 134 118 21 33 19 29 40 24 32 43 26 37 46 29 42 51 34 39 50 33 30 41 24 21 34 17 
39 51 31 44 56 34 38 50 26 37 49 29 19 30 13 24 32 17 20 27 9 126 134 111 23 37 12 31 44 18 33 46 20 31 44 16 33 46 18 38 51 23 42 55 27 45 59 33 
20 31 15 27 38 21 31 42 25 22 33 17 21 31 20 22 29 21 26 32 20 130 134 119 20 31 23 21 32 24 19 29 20 18 28 19 21 31 20 22 32 23 19 31 21 19 31 21 
