P3
16 16
255
127 100 83 162 135 114 168 142 117 147 121 96 123 96 77 134 104 94 127 94 87 119 84 80 103 74 70 102 73 67 127 98 90 144 116 102 127 100 79 152 125 104 145 117 103 128 100 89 
148 122 109 167 142 122 157 133 109 162 138 112 150 125 103 127 100 83 145 117 103 131 102 86 126 98 84 119 90 82 100 70 68 102 72 72 114 85 79 109 81 69 144 117 100 168 141 122 
101 74 65 91 68 54 128 106 83 149 127 103 159 137 113 161 139 116 146 121 99 144 120 96 112 82 80 115 85 83 116 87 83 104 76 65 151 123 109 145 117 103 112 84 73 112 83 77 
132 103 97 148 122 109 149 124 104 157 135 112 119 97 76 148 125 107 142 116 99 148 123 103 152 125 108 123 95 84 102 73 69 123 93 91 145 116 110 148 120 108 149 122 105 127 100 81 
111 81 71 111 81 70 127 100 83 149 122 105 151 123 111 100 71 63 117 88 80 115 85 75 124 96 74 134 105 89 111 82 74 125 96 90 125 97 86 124 97 80 150 125 103 144 119 97 
133 101 90 149 120 106 171 142 126 143 115 101 129 101 90 116 85 82 115 84 81 127 94 89 147 117 106 149 120 106 110 81 65 140 114 91 173 147 120 144 120 96 157 131 114 130 103 94 
149 121 109 160 134 117 161 136 116 115 89 72 115 89 76 124 96 85 128 98 88 150 120 109 146 118 96 120 91 75 131 101 90 135 107 96 142 114 100 144 118 101 152 127 107 111 85 68 
97 74 60 126 105 86 160 139 118 142 121 100 143 120 102 144 118 103 114 87 70 150 122 101 131 101 93 124 94 84 131 102 88 159 132 111 166 140 115 128 103 81 126 99 88 101 73 70 
116 89 80 145 119 102 163 139 115 163 139 115 130 103 86 130 102 90 144 118 105 146 120 103 146 119 112 128 101 92 145 119 104 163 138 116 164 140 114 163 139 115 148 122 107 100 73 66 
140 118 97 165 141 115 165 142 111 157 133 107 147 119 105 113 84 78 103 74 70 104 75 71 103 75 63 117 89 75 128 100 86 126 99 80 147 120 101 131 103 91 96 66 64 106 75 81 
113 88 81 121 98 84 166 144 123 168 143 121 146 121 101 168 141 124 147 120 103 127 98 80 99 70 64 100 71 63 148 120 106 167 141 118 166 141 111 147 122 91 123 97 72 127 100 79 
123 101 80 147 125 102 141 119 95 123 101 77 131 106 86 106 78 66 122 92 84 111 80 75 129 100 94 116 87 81 118 89 81 124 96 85 127 99 85 147 119 105 159 130 122 111 82 78 
166 141 121 144 122 101 162 140 119 158 136 113 144 119 97 153 126 109 131 101 91 129 98 93 150 123 104 111 84 67 147 120 103 148 121 102 145 119 96 167 141 116 157 130 109 145 118 101 
101 72 66 100 73 66 147 123 111 163 140 122 164 142 118 157 133 107 159 133 110 150 121 105 100 70 70 103 73 75 99 69 71 114 84 82 150 122 111 146 119 102 133 106 87 128 101 84 
129 101 80 115 88 71 106 80 65 146 124 103 141 119 95 129 107 84 132 106 93 109 80 76 148 122 99 127 100 81 117 89 77 130 102 91 128 100 88 106 78 66 115 87 76 115 86 78 
133 100 93 126 95 90 150 123 114 161 138 122 144 124 97 160 139 110 162 138 114 131 104 87 129 99 91 117 86 83 113 82 80 113 82 80 118 88 80 128 98 87 150 121 107 147 118 104 
