P3
16 16
255
242 255 255 199 250 245 196 252 223 51 200 178 104 0 49 95 0 40 113 3 48 110 0 47 110 0 47 113 3 48 95 0 40 104 0 49 51 200 178 196 252 223 199 250 245 242 255 255 
199 250 245 159 242 234 157 249 226 85 230 223 114 7 49 170 45 51 157 43 33 162 39 44 162 39 44 157 43 33 170 45 51 114 7 49 85 230 223 157 249 226 159 242 234 199 250 245 
197 252 223 157 249 226 175 247 233 71 236 206 123 11 36 170 40 40 155 40 35 166 40 54 166 40 54 155 40 35 170 40 40 123 11 36 71 236 206 175 247 233 157 249 226 197 252 223 
50 199 177 87 232 225 72 237 207 119 14 44 166 48 48 161 35 36 157 38 42 118 35 29 118 35 29 157 38 42 161 35 36 166 48 48 119 14 44 72 237 207 87 232 225 50 199 177 
107 3 52 114 7 49 123 11 36 160 42 42 160 26 37 121 36 57 88 22 50 84 24 52 84 24 52 88 22 50 121 36 57 160 26 37 160 42 42 123 11 36 114 7 49 107 3 52 
95 0 40 166 41 47 174 44 44 162 36 37 120 35 56 93 24 45 78 27 44 87 18 49 87 18 49 78 27 44 93 24 45 120 35 56 162 36 37 174 44 44 166 41 47 95 0 40 
113 3 50 154 40 30 157 42 37 160 41 47 84 18 46 73 22 39 102 17 36 96 18 42 96 18 42 102 17 36 73 22 39 84 18 46 160 41 47 157 42 37 154 40 30 113 3 50 
110 0 47 165 42 47 165 39 53 112 29 23 88 28 56 87 20 51 95 17 41 82 28 44 82 28 44 95 17 41 87 20 51 88 28 56 112 29 23 165 39 53 165 42 47 110 0 47 
110 0 47 165 42 47 165 39 53 112 29 23 88 28 56 87 20 51 95 17 41 82 28 44 82 28 44 95 17 41 87 20 51 88 28 56 112 29 23 165 39 53 165 42 47 110 0 47 
113 3 50 154 40 30 157 42 37 160 41 47 84 18 46 73 22 39 102 17 36 96 18 42 96 18 42 102 17 36 73 22 39 84 18 46 160 41 47 157 42 37 154 40 30 113 3 50 
95 0 40 166 41 47 174 44 44 162 36 37 120 35 56 93 24 45 78 27 44 87 18 49 87 18 49 78 27 44 93 24 45 120 35 56 162 36 37 174 44 44 166 41 47 95 0 40 
107 3 52 114 7 49 123 11 36 160 42 42 160 26 37 121 36 57 88 22 50 84 24 52 84 24 52 88 22 50 121 36 57 160 26 37 160 42 42 123 11 36 114 7 49 107 3 52 
50 199 177 87 232 225 72 237 207 119 14 44 166 48 48 161 35 36 157 38 42 118 35 29 118 35 29 157 38 42 161 35 36 166 48 48 119 14 44 72 237 207 87 232 225 50 199 177 
197 252 223 157 249 226 175 247 233 71 236 206 123 11 36 170 40 40 155 40 35 166 40 54 166 40 54 155 40 35 170 40 40 123 11 36 71 236 206 175 247 233 157 249 226 197 252 223 
199 250 245 159 242 234 157 249 226 85 230 223 114 7 49 170 45 51 157 43 33 162 39 44 162 39 44 157 43 33 170 45 51 114 7 49 85 230 223 157 249 226 159 242 234 199 250 245 
242 255 255 199 250 245 196 252 223 51 200 178 104 0 49 95 0 40 113 3 48 110 0 47 110 0 47 113 3 48 95 0 40 104 0 49 51 200 178 196 252 223 199 250 245 242 255 255 
