P3
16 16
255
240 223 193 246 235 207 250 223 206 246 224 211 118 101 94 119 100 102 250 254 253 254 255 255 250 250 248 255 255 253 253 250 245 255 251 245 236 231 225 255 255 250 254 253 251 255 255 253 
251 235 210 243 233 208 245 222 206 249 233 220 188 175 169 114 100 100 254 255 255 253 253 255 255 255 255 252 251 249 255 254 251 238 233 229 255 254 250 253 249 246 255 255 253 249 249 249 
255 247 228 230 225 205 121 103 91 138 130 119 131 124 116 114 102 102 254 255 255 255 254 255 254 255 255 255 255 255 254 253 251 254 250 247 255 253 250 255 255 253 255 255 255 251 253 252 
251 241 231 255 253 240 144 131 123 181 178 169 179 176 169 138 128 127 252 254 251 254 250 251 250 251 253 254 255 255 255 255 255 255 255 253 253 252 250 255 255 255 252 254 253 254 255 255 
255 249 243 253 254 246 140 131 126 171 171 163 180 179 174 139 131 129 254 255 253 255 254 255 254 255 255 253 254 255 255 255 255 255 255 255 255 255 255 254 254 254 254 255 255 254 255 255 
255 252 251 254 255 251 141 131 129 179 176 171 172 169 164 141 131 130 251 253 250 255 254 253 255 255 255 255 255 255 251 251 251 255 255 255 252 252 252 255 255 255 253 253 255 255 255 255 
255 255 255 248 253 249 140 128 128 180 172 169 184 176 173 141 129 129 252 255 253 255 255 253 255 255 255 255 255 255 255 255 255 253 253 253 255 255 255 253 253 253 255 255 255 255 255 255 
255 255 255 252 255 253 113 99 99 112 102 100 113 103 101 113 99 98 252 255 253 254 254 252 255 254 255 255 254 255 255 255 255 253 253 253 255 255 255 255 255 255 255 254 255 255 253 254 
255 248 241 255 253 240 254 255 255 250 255 249 254 255 251 254 253 255 253 253 251 255 254 255 255 255 255 255 255 255 255 255 255 255 255 255 255 255 255 255 255 255 255 255 255 255 255 255 
254 243 237 249 245 234 254 253 255 249 253 252 254 255 253 255 254 255 255 255 250 254 255 255 255 255 255 255 255 255 255 255 255 255 255 255 255 255 255 255 255 255 255 255 255 255 255 255 
255 248 237 254 246 233 255 254 255 254 255 255 255 255 255 255 254 255 255 255 248 252 254 253 255 255 255 255 255 255 255 255 255 255 255 255 255 255 255 255 255 255 255 255 255 255 255 255 
255 244 218 248 240 217 255 252 251 253 253 253 253 253 255 255 254 255 255 255 248 254 255 253 255 255 255 255 255 255 255 255 255 255 255 255 255 255 255 255 255 255 255 255 255 255 255 255 
253 239 204 245 239 205 255 254 247 255 255 251 254 254 254 254 253 255 255 255 250 253 254 255 255 255 255 255 255 255 255 255 255 255 255 255 255 255 255 255 255 255 255 255 255 255 255 255 
247 234 200 245 239 207 255 255 248 255 255 250 255 255 253 254 253 255 255 255 251 252 253 255 255 255 255 255 255 255 255 255 255 255 255 255 255 255 255 255 255 255 255 255 255 255 255 255 
242 229 212 242 235 217 251 249 250 251 251 249 255 255 255 255 254 255 255 255 250 254 255 255 255 255 255 255 255 255 255 255 255 255 255 255 255 255 255 255 255 255 255 255 255 255 255 255 
255 250 249 255 253 247 255 253 255 253 254 255 255 255 255 254 253 255 253 254 248 254 255 255 255 255 255 255 255 255 255 255 255 255 255 255 255 255 255 255 255 255 255 255 255 255 255 255 
