P3
16 16
255
251 255 252 255 254 255 255 252 253 255 251 255 7 30 36 26 51 56 17 54 47 43 88 85 45 86 80 17 51 53 27 55 59 0 27 25 255 253 255 254 255 255 255 254 249 255 252 252 
254 255 253 254 255 255 252 254 251 255 251 250 0 28 32 0 22 29 28 56 57 21 52 57 22 56 57 23 52 58 3 26 34 0 30 30 253 248 254 252 255 255 254 255 251 255 254 255 
255 255 253 251 252 255 249 255 253 252 255 253 0 29 31 6 31 38 8 32 36 1 20 34 0 23 32 0 24 34 4 26 37 0 25 27 255 253 255 252 255 253 251 255 254 251 253 252 
249 249 247 254 255 255 251 255 251 252 254 249 0 34 36 0 22 29 0 24 27 6 30 42 3 30 39 2 30 34 0 25 32 0 28 31 255 254 255 254 254 252 253 252 255 255 255 255 
255 255 253 255 254 255 255 255 253 255 249 250 0 26 29 26 54 58 18 55 48 45 87 86 49 80 82 18 53 46 23 57 59 0 25 29 255 253 253 255 254 255 255 247 255 255 254 253 
255 255 251 255 254 255 255 254 255 255 251 255 26 54 57 23 53 51 89 132 113 46 94 78 66 103 86 81 124 97 16 57 49 16 56 58 255 252 249 255 253 255 255 251 255 255 252 247 
255 254 250 255 254 255 252 253 255 255 253 255 21 55 56 54 85 77 168 207 178 91 134 104 55 90 58 117 162 119 41 83 69 19 60 62 252 251 247 255 253 254 255 252 255 254 255 248 
255 255 250 254 255 255 245 253 255 251 255 255 43 83 82 64 96 83 163 194 160 16 46 10 15 47 6 138 181 128 59 102 83 39 80 82 255 255 251 255 255 255 250 252 255 248 255 246 
254 255 250 255 252 255 255 254 251 243 255 244 50 81 86 54 99 79 137 182 125 17 51 0 17 51 0 137 182 125 54 99 79 50 81 86 243 255 244 255 254 251 255 252 255 254 255 250 
252 255 248 255 252 255 255 251 248 248 255 250 22 52 62 45 91 81 112 160 118 53 93 58 53 93 58 112 160 118 45 91 81 22 52 62 248 255 250 255 251 248 255 252 255 252 255 248 
254 255 250 255 251 255 255 254 251 246 253 246 27 51 63 11 51 51 86 131 110 60 101 87 60 101 87 86 131 110 11 51 51 27 51 63 246 253 246 255 254 251 255 251 255 254 255 250 
252 255 253 255 253 255 255 252 249 254 255 251 9 23 32 18 46 49 27 58 50 47 75 76 47 75 76 27 58 50 18 46 49 9 23 32 254 255 251 255 252 249 255 253 255 252 255 253 
249 255 255 254 255 255 254 250 249 255 255 251 252 255 255 245 255 255 247 255 255 248 255 255 248 255 255 247 255 255 245 255 255 252 255 255 255 255 251 254 250 249 254 255 255 249 255 255 
249 255 253 251 252 254 255 254 255 254 253 251 253 253 253 255 255 253 247 248 243 255 254 255 255 254 255 247 248 243 255 255 253 253 253 253 254 253 251 255 254 255 251 252 254 249 255 253 
255 255 253 255 255 253 253 253 255 255 255 255 255 255 253 255 255 251 255 254 253 255 253 253 255 253 253 255 254 253 255 255 251 255 255 253 255 255 255 253 253 255 255 255 253 255 255 253 
255 254 250 255 255 250 255 255 255 251 255 255 252 255 255 252 254 253 254 254 255 255 254 255 255 254 255 254 254 255 252 254 253 252 255 255 251 255 255 255 255 255 255 255 250 255 254 250 
