P3
16 16
255
71 111 111 49 119 91 66 111 117 65 119 103 71 111 110 57 117 105 69 121 99 59 113 99 66 117 108 57 120 93 65 114 111 72 109 102 64 117 107 81 108 117 57 116 94 67 116 112 
68 112 95 160 203 147 33 74 58 42 62 53 30 63 52 148 209 142 188 174 113 40 66 67 50 80 82 198 199 131 144 199 141 40 71 55 36 65 60 19 73 49 150 205 147 74 111 94 
64 115 98 35 69 53 67 113 100 178 198 127 194 176 130 62 111 107 41 83 79 199 192 138 232 231 175 56 114 102 68 118 117 190 170 119 184 194 133 67 111 94 39 94 75 60 119 99 
60 115 120 36 65 61 173 171 133 243 250 183 245 225 164 186 175 121 70 119 123 56 113 107 45 89 88 51 89 92 186 172 123 229 229 155 238 244 184 195 175 140 51 83 82 62 112 119 
70 118 96 34 66 61 173 174 114 227 230 173 62 118 109 28 94 58 54 88 74 36 68 53 43 90 70 38 62 48 33 73 49 40 94 80 233 230 179 179 173 111 38 84 81 71 120 98 
71 114 95 45 60 53 198 201 154 232 239 172 33 65 64 8 23 28 10 12 9 0 21 23 4 22 26 3 13 5 4 21 29 69 112 102 225 239 177 185 200 145 64 95 87 70 104 87 
64 115 96 154 204 151 186 189 132 238 246 187 37 95 71 0 13 4 15 26 12 7 27 15 10 21 13 2 31 9 4 25 20 39 98 68 233 237 186 195 193 134 133 196 141 61 125 99 
61 112 113 44 95 76 192 191 137 252 236 184 47 92 85 0 22 23 0 24 25 10 25 20 12 22 21 1 31 31 9 15 27 71 113 103 245 243 192 195 189 131 51 92 78 62 112 109 
73 114 110 32 74 50 195 187 125 239 242 173 40 68 56 2 25 17 0 21 15 16 24 13 11 20 15 0 27 28 14 21 27 64 109 102 243 247 188 194 187 133 48 87 68 68 117 113 
52 123 109 142 190 148 213 204 161 235 238 191 42 85 75 0 24 19 12 24 20 5 30 27 11 30 28 5 28 18 4 21 15 56 124 99 231 245 186 195 187 138 153 207 158 52 118 104 
71 114 97 59 91 80 189 186 141 236 249 180 29 63 62 1 16 23 13 24 20 0 25 26 1 27 16 7 19 5 8 28 29 68 115 109 229 246 178 190 203 150 52 84 63 75 116 86 
62 114 91 29 69 61 173 179 117 245 228 176 48 87 82 62 123 89 61 82 73 64 122 98 66 109 99 74 114 103 66 122 87 49 92 82 235 223 165 174 175 115 35 92 86 74 114 106 
75 114 121 35 71 61 185 171 136 233 243 172 227 231 157 181 175 115 66 112 112 46 87 83 50 93 86 37 88 89 179 178 124 234 223 167 241 238 185 184 173 145 49 92 83 66 111 116 
58 118 93 31 64 45 64 123 101 190 207 136 177 174 121 59 119 107 49 92 83 225 226 166 192 195 138 51 111 99 65 117 104 189 177 117 185 203 121 67 112 91 39 95 70 59 120 102 
75 112 105 157 199 151 34 90 79 50 80 78 45 90 85 152 200 148 192 190 133 58 85 94 50 81 83 189 183 123 148 199 143 44 85 81 45 86 80 49 96 86 155 204 148 70 111 95 
62 115 105 65 119 93 70 113 119 73 111 98 74 108 107 64 116 104 61 126 94 63 114 95 73 116 107 60 115 92 65 115 104 70 115 108 59 124 100 71 99 110 62 121 93 68 113 110 
