P3
16 16
255
151 108 74 147 106 74 124 89 61 91 57 30 120 86 59 125 88 59 145 104 72 154 111 77 143 108 80 149 110 77 124 87 58 87 56 35 119 87 62 154 108 74 182 131 88 185 136 96 
180 134 98 154 111 77 150 113 84 89 55 28 148 114 87 122 85 56 154 111 77 178 130 92 154 111 77 159 106 64 158 105 63 119 82 55 95 69 52 137 107 83 150 107 73 180 132 94 
155 103 63 180 134 98 142 105 76 95 63 38 116 84 59 146 109 80 150 106 71 157 108 68 180 131 90 181 133 95 144 107 78 121 94 73 88 56 31 152 104 68 192 140 100 154 109 70 
191 139 99 175 131 96 125 90 62 91 63 41 113 85 63 118 84 57 152 108 73 182 133 93 176 135 103 159 111 73 152 108 73 115 83 60 112 84 63 129 88 58 183 130 86 188 130 82 
181 132 92 154 111 77 115 83 58 100 75 55 91 66 46 116 84 59 126 85 53 156 108 70 184 135 95 181 127 81 157 105 66 120 86 59 91 64 45 122 88 61 151 107 72 180 135 96 
157 109 71 145 104 72 100 66 39 114 87 66 92 65 44 118 86 61 146 107 76 152 108 73 154 110 73 180 136 101 126 89 60 88 60 38 118 84 57 128 82 46 184 136 96 178 137 105 
183 135 97 153 109 74 145 108 79 122 88 61 84 52 27 146 111 83 127 86 54 151 107 72 120 104 91 146 112 85 125 82 48 96 60 34 144 113 92 124 85 54 157 105 65 186 130 83 
184 135 95 152 106 70 151 108 74 123 84 53 100 63 34 151 112 81 151 108 74 178 134 99 141 113 91 119 84 56 147 110 81 91 59 34 118 82 56 150 107 73 180 136 101 124 87 58 
183 131 92 193 140 100 146 101 68 95 64 43 117 85 62 149 103 69 159 110 70 150 107 73 181 132 92 123 86 57 115 88 69 87 61 44 119 83 57 153 107 71 189 137 97 184 132 92 
158 108 71 174 128 94 151 114 85 93 62 41 112 80 55 134 93 61 149 103 67 177 133 98 185 133 93 155 112 78 116 82 57 91 60 39 124 88 62 151 108 76 180 131 91 185 132 90 
180 132 94 149 112 83 116 85 64 113 83 59 96 62 35 123 86 57 175 132 98 160 110 73 182 130 90 159 111 73 128 85 51 120 84 58 92 60 37 148 113 85 153 109 74 187 134 92 
158 106 67 142 108 81 109 82 61 121 87 60 148 109 80 121 84 57 178 135 101 183 128 87 189 140 100 179 127 88 151 103 67 123 86 59 91 63 42 115 87 66 143 104 73 183 134 93 
188 135 93 149 112 83 111 80 59 100 63 36 121 80 48 153 114 83 182 136 102 192 135 90 180 132 94 157 109 71 162 116 82 115 79 53 89 62 43 108 83 63 142 107 79 157 111 75 
185 132 90 179 136 102 143 107 81 91 56 28 128 89 58 145 102 70 152 104 68 185 132 90 153 105 67 180 134 98 142 101 71 100 66 41 110 82 61 114 83 62 153 116 87 145 102 67 
152 103 63 186 140 104 151 114 85 117 87 63 89 55 30 153 110 76 188 140 104 151 105 71 187 135 95 177 133 98 150 113 86 91 57 32 122 86 60 146 105 75 181 137 102 155 111 76 
155 109 73 180 132 94 119 80 49 115 90 70 91 64 43 122 81 49 155 109 75 147 108 79 185 131 87 154 110 75 120 84 58 94 60 35 129 86 54 185 135 98 181 132 92 151 106 67 
