P3
16 16
255
89 48 16 82 41 9 63 33 9 59 23 0 60 33 14 62 25 0 85 50 22 85 44 12 78 48 22 84 49 21 64 28 4 53 26 7 61 35 12 83 45 9 108 59 19 113 61 24 
101 55 19 88 51 22 82 41 11 56 30 13 85 48 21 63 35 14 93 48 15 104 61 27 90 45 16 90 42 2 87 45 3 67 40 13 47 24 10 80 45 26 87 46 16 104 65 26 
95 46 6 108 64 29 77 43 16 54 23 2 57 30 11 83 47 21 84 43 11 91 43 5 106 64 24 107 61 27 85 45 20 55 28 11 53 29 5 84 49 11 115 67 27 91 41 8 
107 58 18 109 63 27 63 35 14 55 23 0 54 35 21 70 35 7 80 43 14 110 62 24 102 61 33 91 47 12 85 46 13 62 35 14 58 32 15 70 31 2 104 52 12 114 60 14 
108 60 20 84 47 18 64 28 2 97 79 67 49 21 0 54 31 15 78 37 5 87 44 10 109 59 24 118 65 23 84 40 1 62 34 10 45 22 6 69 34 12 94 53 21 103 63 27 
87 41 5 89 50 19 53 21 0 61 38 22 51 25 8 65 38 17 75 40 12 89 48 16 84 48 12 103 60 26 70 28 4 57 28 10 59 33 8 66 32 0 105 61 26 102 58 31 
107 63 26 107 61 25 64 33 12 76 39 12 52 29 13 85 48 19 65 31 4 87 44 10 133 113 104 75 45 21 62 32 0 48 22 0 82 51 33 72 30 5 94 44 7 113 66 22 
109 61 21 89 46 12 88 45 11 67 35 12 60 21 0 80 46 21 87 46 14 103 62 30 69 44 22 71 37 10 87 50 24 52 21 0 65 37 13 82 47 15 97 58 27 67 31 5 
111 63 23 112 60 20 88 44 9 53 25 4 61 34 15 83 44 13 89 46 11 84 45 12 106 60 24 71 36 8 55 32 14 47 26 9 61 29 4 84 41 7 113 65 27 107 58 18 
86 43 8 108 59 18 80 48 25 56 25 4 59 28 7 69 41 19 87 42 3 104 65 32 108 60 22 83 42 10 62 32 8 56 29 8 69 39 15 88 49 18 107 61 25 112 63 23 
106 67 34 90 44 8 51 33 19 61 27 2 58 24 0 52 33 18 109 60 20 88 45 10 114 65 25 88 42 6 70 31 0 63 31 6 49 21 0 75 43 18 92 49 15 106 54 14 
81 41 6 83 44 13 108 90 76 69 33 7 83 46 19 56 33 15 112 64 26 111 59 19 105 57 19 111 63 25 93 49 14 63 29 2 56 33 15 59 34 14 84 47 18 110 62 24 
109 64 25 88 53 25 56 28 7 55 19 0 66 29 2 85 51 26 104 61 26 114 58 11 109 65 30 88 42 6 84 43 11 66 34 9 44 23 6 101 80 63 72 40 15 92 48 13 
110 61 21 99 60 29 82 47 19 57 23 0 69 35 10 82 45 16 82 42 7 119 66 22 89 43 7 102 59 25 87 50 21 48 20 0 62 37 17 62 35 14 86 52 25 84 43 11 
89 45 8 110 62 22 82 46 20 68 37 16 54 23 2 79 47 22 110 64 28 82 42 7 110 61 21 103 62 30 81 49 24 54 26 4 65 33 8 77 40 11 107 66 34 87 44 10 
86 45 13 117 59 13 63 33 9 58 30 9 56 29 10 56 30 13 95 46 6 79 49 23 113 60 18 92 49 15 61 31 7 51 21 0 67 30 1 112 68 33 102 56 20 89 45 10 
