P3
16 16
255
205 43 54 158 31 42 162 34 49 119 31 27 168 29 48 145 29 52 142 30 46 169 32 42 200 37 64 162 32 56 171 36 53 124 22 17 198 47 56 192 47 52 169 29 40 168 29 48 
172 29 35 166 43 63 114 22 47 130 29 35 204 36 53 118 23 31 132 41 48 153 33 42 133 36 47 122 19 23 163 33 41 118 26 47 161 31 55 194 32 47 169 34 48 223 66 57 
162 35 54 129 21 34 128 31 64 182 41 50 176 34 58 118 26 37 228 62 48 124 24 50 235 63 61 137 30 46 204 50 62 151 35 48 124 25 54 198 43 74 158 40 56 193 41 40 
118 27 42 131 36 44 145 28 36 128 25 28 140 28 44 144 28 37 192 47 52 172 33 52 196 41 49 170 36 37 185 40 47 134 21 39 123 27 31 150 31 27 158 31 50 172 32 59 
172 38 35 121 18 45 141 24 43 226 70 55 165 30 45 137 26 58 209 40 47 194 32 55 174 30 55 157 35 50 124 33 48 196 51 58 235 61 62 132 28 25 201 43 58 159 34 38 
217 65 54 133 24 45 130 30 38 195 43 56 195 44 51 149 40 37 161 31 55 192 56 60 137 25 47 165 36 41 204 36 62 197 35 48 171 29 51 117 32 37 229 71 62 199 43 64 
192 43 47 207 41 63 117 31 44 155 23 36 204 40 65 148 31 39 212 64 60 165 28 48 142 33 39 152 41 30 181 37 62 133 34 39 139 26 32 131 21 48 134 28 40 199 38 54 
168 33 50 195 39 52 113 31 45 128 29 34 164 32 45 146 27 49 194 45 51 203 42 48 168 27 46 168 36 59 138 20 42 110 28 34 146 34 48 200 44 66 141 26 31 120 30 40 
161 35 46 130 33 53 144 28 37 203 41 54 195 45 47 161 32 63 170 34 48 189 42 60 156 32 40 151 32 60 129 17 29 225 60 54 141 38 41 197 37 49 206 40 54 111 33 33 
139 16 36 133 35 48 218 65 59 127 19 42 195 43 56 199 50 54 133 25 48 179 31 45 180 31 53 95 29 33 166 33 52 204 41 58 192 38 46 168 33 47 197 39 62 170 31 50 
160 32 47 152 32 44 197 40 51 193 44 63 145 30 35 160 29 45 135 35 35 144 26 38 163 39 49 116 24 37 125 34 39 162 30 53 204 48 59 135 24 41 173 36 56 158 29 47 
158 42 53 156 34 29 169 33 57 209 43 53 143 34 37 144 19 53 229 65 64 117 25 36 145 19 20 153 29 57 109 31 31 130 34 36 166 23 43 128 34 48 173 38 52 108 33 37 
169 30 59 227 53 52 162 36 40 164 32 55 105 25 26 203 48 66 201 38 55 117 32 37 233 63 76 160 32 47 136 28 43 170 35 42 162 37 55 167 36 52 140 25 38 123 22 26 
119 28 27 207 45 60 156 33 36 203 36 62 134 33 47 200 37 54 167 30 50 154 35 39 195 40 54 200 47 50 161 35 57 196 34 55 151 26 32 191 43 57 117 28 46 204 43 58 
197 40 47 195 48 76 152 26 47 189 49 48 130 23 41 114 29 36 168 41 58 199 37 50 168 38 46 190 37 42 169 33 55 158 23 40 201 46 52 123 23 23 135 26 49 196 38 53 
210 41 64 151 36 41 134 29 36 171 36 51 166 29 57 146 31 34 125 19 41 190 47 49 195 37 51 165 37 52 163 38 46 194 34 60 199 46 51 111 32 35 166 33 52 168 31 49 
