P3
16 16
255
255 252 255 187 63 3 190 75 8 255 252 255 255 251 255 179 78 0 214 142 4 231 174 33 243 191 69 213 146 15 201 108 4 195 97 0 193 93 0 184 65 0 251 255 250 249 254 255 
248 255 246 181 79 0 194 87 5 170 67 0 255 254 238 178 75 8 221 129 20 227 191 71 234 229 135 239 209 87 229 172 31 199 121 13 204 101 6 180 80 4 255 253 253 255 249 252 
255 247 251 179 88 0 213 157 8 209 151 25 187 93 5 193 63 5 193 82 0 216 146 0 219 154 26 232 149 21 201 132 0 203 103 7 172 76 0 181 81 3 247 255 253 255 252 255 
255 254 255 201 107 7 240 189 61 229 155 22 198 91 0 197 123 18 218 151 11 193 119 10 213 154 16 202 124 13 213 121 0 211 118 12 247 232 141 231 180 55 188 80 0 247 255 249 
255 255 250 220 151 24 221 174 36 238 196 75 253 218 137 247 255 250 219 151 18 218 132 9 226 174 28 217 137 24 216 147 20 219 156 25 249 251 212 255 248 255 249 249 255 215 131 7 
206 119 6 228 148 7 233 203 89 248 229 170 226 189 46 210 137 22 206 102 5 196 104 0 229 199 89 251 255 238 255 251 254 255 249 255 255 254 252 234 199 69 251 210 96 194 115 0 
163 69 0 225 161 25 230 181 40 249 255 253 254 255 243 240 214 119 178 92 0 237 184 56 255 255 251 255 245 239 255 253 250 242 255 253 254 255 255 235 180 28 253 245 255 230 178 60 
245 233 175 243 175 40 255 255 248 243 225 149 255 248 246 233 185 59 233 163 41 247 255 255 255 252 255 251 255 255 237 255 250 248 214 151 230 165 21 227 162 16 230 204 67 202 105 0 
254 255 255 255 250 255 255 252 251 253 255 252 248 255 251 252 255 255 255 249 246 248 255 255 255 254 255 249 252 255 252 255 248 255 247 255 255 252 255 253 255 252 255 252 244 248 255 255 
244 255 243 250 255 251 249 255 251 252 249 255 255 254 255 248 255 244 255 250 251 254 251 255 255 255 243 249 255 255 247 253 249 249 255 255 249 255 255 253 254 248 255 248 248 251 254 255 
252 255 255 255 249 250 255 249 255 255 248 255 255 246 255 245 255 246 248 250 255 249 255 255 247 252 255 255 251 255 255 249 255 251 244 238 238 255 255 255 255 246 251 254 245 254 255 253 
255 253 255 255 251 253 248 255 247 247 255 255 244 255 244 255 247 250 248 255 247 255 255 248 252 255 253 255 252 245 255 251 255 252 255 250 245 255 247 255 253 248 255 255 250 252 253 255 
249 252 255 254 255 251 254 250 251 255 255 241 254 255 255 255 252 255 254 255 255 255 255 247 244 255 255 252 255 243 255 250 240 242 255 255 255 250 250 247 255 255 255 255 232 251 255 251 
252 255 251 241 246 252 254 255 255 255 252 251 251 255 255 251 251 251 255 253 248 249 251 250 249 255 255 255 255 241 243 255 255 255 251 255 255 249 255 255 247 252 255 254 248 252 250 251 
255 253 255 255 253 255 179 58 0 251 255 248 255 245 245 255 251 255 186 69 16 195 80 13 213 82 2 176 71 6 247 254 255 255 247 238 251 253 250 252 255 251 254 254 255 255 253 255 
252 255 241 251 251 255 180 67 7 252 253 245 241 255 255 181 62 6 205 110 0 205 149 10 204 162 18 217 128 2 192 100 1 193 82 0 179 76 0 251 255 255 255 253 255 250 255 250 
