P3
16 16
255
249 255 245 249 255 255 255 249 255 255 255 237 254 254 255 255 255 250 249 255 246 255 251 255 248 255 252 255 250 255 224 70 42 250 251 255 255 249 250 249 255 255 249 253 255 255 254 250 
255 249 255 251 255 255 251 255 255 255 253 255 251 248 255 255 254 249 249 255 255 255 249 251 233 61 57 241 255 255 231 61 44 255 252 244 225 62 65 249 255 244 251 255 248 255 251 249 
255 255 239 251 250 248 225 58 66 244 255 255 254 252 255 255 253 246 249 255 255 252 255 250 227 58 55 181 24 41 203 40 59 254 253 255 189 45 54 245 255 242 253 252 247 255 252 255 
244 253 255 252 255 255 228 62 46 241 255 244 227 69 44 248 250 255 225 65 41 255 245 255 244 255 255 226 63 58 194 47 55 194 31 48 177 34 62 252 253 255 255 248 255 254 255 251 
255 253 255 255 255 239 166 26 52 195 38 47 196 45 64 250 255 255 214 41 47 238 255 255 122 30 35 250 255 244 247 251 250 170 47 49 250 255 254 255 251 247 254 255 251 242 253 255 
244 254 246 255 251 250 128 35 45 156 35 50 198 40 54 212 39 59 194 39 53 164 35 39 254 249 255 255 250 255 160 34 45 117 27 26 255 255 250 131 19 44 255 252 255 251 255 255 
254 255 253 252 255 255 255 240 255 115 28 34 137 27 40 161 30 61 254 246 255 252 255 255 117 31 40 118 23 31 126 27 30 255 251 255 119 24 44 127 31 35 247 255 250 255 253 244 
233 63 46 247 252 255 255 255 255 242 255 250 250 249 247 125 28 39 164 32 55 162 36 37 120 24 35 131 23 36 249 255 255 250 255 246 249 255 255 255 250 252 254 255 255 255 254 255 
207 35 47 251 255 253 230 65 61 250 255 250 231 55 55 247 255 255 255 250 255 160 30 56 200 48 63 251 250 245 255 254 250 249 255 255 243 255 245 127 21 43 251 254 255 255 252 241 
162 40 53 249 255 243 222 56 56 169 40 58 194 45 47 248 255 245 247 255 247 118 29 23 156 32 32 133 26 44 252 255 255 150 27 45 255 255 241 205 34 53 255 248 255 189 50 53 
108 25 43 175 29 48 198 47 56 184 31 51 140 24 47 254 255 255 247 255 255 255 253 241 187 46 55 171 35 59 241 248 241 127 31 43 171 40 54 193 41 54 162 37 55 166 36 34 
255 251 255 111 34 28 168 32 52 131 30 38 251 248 241 255 247 251 254 253 255 130 23 51 160 34 48 213 35 59 255 252 250 251 253 240 255 252 247 165 36 41 158 33 49 120 28 41 
248 252 255 254 255 241 133 19 42 120 32 46 169 32 50 117 39 39 170 39 53 162 25 33 198 43 51 159 32 39 164 34 58 255 251 252 123 31 54 114 23 40 130 23 41 250 255 255 
252 255 255 254 255 255 253 255 247 252 255 255 117 22 28 162 28 53 155 34 49 197 46 55 222 73 53 120 30 42 155 34 41 120 20 54 122 28 28 255 245 255 247 255 246 255 251 255 
255 255 250 255 250 255 255 251 247 249 255 255 249 255 251 255 252 255 255 249 255 195 45 56 230 57 51 255 250 248 122 23 44 131 26 43 249 255 246 255 254 250 248 251 255 255 248 244 
255 253 252 251 255 255 250 255 247 252 255 253 254 252 255 255 249 250 251 255 255 229 63 49 194 47 53 253 252 255 255 252 246 246 254 255 252 252 254 252 255 248 255 254 255 251 255 251 
