P3
16 16
255
200 190 121 204 179 122 217 188 128 216 195 140 212 195 126 229 205 143 231 207 143 222 205 151 216 195 138 223 203 140 230 210 151 216 197 128 209 188 133 214 194 133 218 196 149 178 156 107 
209 195 132 186 161 121 182 157 116 189 173 124 178 164 117 184 160 126 175 148 118 186 166 113 186 166 115 190 170 117 177 155 116 185 164 121 182 161 130 180 161 118 182 162 125 182 164 118 
206 191 124 194 171 130 222 209 141 255 249 243 213 209 145 225 210 141 213 195 111 229 210 152 209 192 138 198 184 121 211 197 136 198 186 110 207 193 130 195 182 114 174 161 109 178 165 113 
186 163 131 176 156 105 176 170 112 255 252 255 213 206 214 183 169 120 189 166 116 178 153 123 184 166 118 184 166 116 175 156 116 180 162 114 177 159 123 205 188 142 180 162 122 154 140 95 
207 186 131 177 158 125 255 252 250 188 194 190 255 255 246 219 209 137 233 211 153 226 207 141 217 197 134 222 203 137 229 208 155 213 195 133 174 154 104 214 198 136 184 167 111 201 185 125 
215 196 130 190 172 132 251 246 242 141 152 138 211 212 204 169 151 127 214 186 146 213 194 125 217 192 138 219 197 137 213 191 134 216 196 125 190 169 112 199 181 117 182 162 112 213 193 142 
215 194 141 177 163 116 216 207 236 186 196 188 255 254 255 174 156 108 223 199 139 214 194 133 216 193 126 214 193 126 211 188 138 220 199 146 185 162 121 215 195 142 179 162 110 214 198 138 
160 139 82 183 170 115 255 252 255 146 154 157 209 207 192 181 157 133 217 194 118 211 192 134 218 196 136 213 194 128 218 197 142 210 192 126 188 168 117 215 199 139 187 171 120 163 147 95 
199 177 119 183 173 114 255 254 253 147 147 171 255 254 255 167 159 110 214 197 115 221 191 139 226 190 132 213 194 126 212 191 146 233 207 146 179 167 109 252 255 255 255 252 255 181 157 111 
220 200 147 170 162 115 213 210 205 148 150 147 194 190 191 167 159 122 216 199 143 211 190 125 213 191 134 222 200 143 214 194 121 218 205 137 255 251 253 224 218 218 166 164 105 172 155 125 
226 202 140 173 154 114 176 166 113 160 142 154 170 157 115 187 166 123 217 195 120 231 203 153 207 201 139 223 199 129 231 205 146 255 249 255 218 212 222 171 160 114 183 167 116 182 176 118 
162 143 113 179 169 108 191 186 130 170 164 116 163 145 145 181 170 108 183 165 125 181 170 108 168 161 117 197 172 118 75 45 17 226 214 200 177 176 130 211 195 136 189 167 120 153 140 96 
216 193 125 189 166 114 202 182 119 227 205 148 235 209 152 226 201 135 223 197 146 225 206 140 178 163 104 76 52 28 103 85 23 183 169 106 206 194 134 227 210 138 185 161 113 218 200 128 
202 184 136 182 166 117 179 170 95 185 169 117 182 165 111 180 161 121 183 169 120 179 171 109 193 170 120 98 80 42 177 156 137 181 156 125 178 153 112 185 166 126 185 165 112 207 181 124 
213 188 134 221 199 139 216 195 140 210 188 141 215 193 136 220 198 140 209 191 127 183 166 123 225 204 139 182 165 119 174 161 109 220 201 142 215 194 131 211 197 122 216 201 134 210 186 138 
162 139 87 158 138 87 155 135 108 160 145 88 165 147 97 165 146 106 177 160 114 174 161 116 179 157 120 165 151 90 166 151 110 164 147 101 156 138 90 169 146 114 156 138 90 160 142 94 
