P3
16 16
255
171 157 118 229 208 127 235 206 146 231 205 146 176 158 120 232 203 143 225 207 131 217 210 142 177 159 123 231 200 145 239 203 141 230 205 151 174 156 110 229 208 145 228 202 141 233 205 158 
160 144 110 216 184 143 199 180 112 176 158 118 160 147 103 207 185 136 218 198 145 194 161 120 155 143 83 221 198 144 215 193 135 192 184 109 168 158 107 209 192 120 219 197 124 200 178 118 
161 132 98 201 200 135 221 202 134 212 198 137 74 54 0 73 60 26 220 188 131 186 163 109 161 149 89 196 181 142 208 193 200 169 176 122 202 191 207 214 199 142 196 174 125 216 201 136 
166 149 95 176 161 120 169 152 124 72 53 13 112 64 28 75 53 12 159 151 112 177 159 121 179 160 118 163 147 124 204 199 203 212 221 200 255 254 253 158 141 98 161 138 96 158 141 97 
165 142 101 198 189 112 77 50 20 136 89 37 160 143 100 79 59 70 190 185 119 194 187 117 170 150 99 195 183 123 215 206 207 252 255 255 220 213 221 181 164 110 209 185 137 200 187 117 
168 155 103 218 188 138 140 87 37 75 57 17 171 144 101 102 114 114 198 192 132 219 188 121 169 147 106 211 192 133 185 173 125 255 253 251 161 158 105 181 164 112 207 187 128 206 191 136 
178 158 123 213 202 146 149 88 23 176 170 118 167 139 91 142 154 152 208 175 122 228 209 141 160 146 97 230 209 146 191 164 119 44 26 2 151 139 97 178 162 113 203 185 135 219 209 148 
30 19 1 75 45 47 76 41 9 61 34 25 79 42 24 72 35 26 62 31 29 50 36 23 53 39 28 59 26 17 79 40 23 70 42 30 56 39 19 56 37 33 52 32 23 35 19 6 
179 155 117 223 206 152 143 156 147 186 167 124 162 145 115 154 151 144 185 169 110 215 190 136 183 155 115 204 190 141 187 173 112 37 33 22 160 149 103 177 173 112 216 192 132 219 193 136 
165 148 102 231 207 135 114 98 108 192 166 107 163 166 119 115 104 112 191 185 133 219 195 133 180 162 122 223 206 137 202 182 119 134 108 33 169 139 103 195 169 110 213 191 133 226 208 136 
159 150 83 217 198 132 144 93 40 183 168 113 170 159 113 106 114 99 195 187 114 214 194 135 168 158 109 219 200 141 184 168 117 131 99 24 163 138 107 194 158 124 198 183 118 225 207 141 
165 151 112 217 193 129 110 63 37 86 54 15 176 159 116 109 108 116 177 163 126 217 195 137 162 148 99 197 183 136 155 146 149 41 32 0 222 215 222 186 173 128 196 179 135 217 194 142 
153 133 98 180 156 118 162 143 100 101 65 17 167 129 108 70 68 69 174 154 104 160 137 87 165 143 96 153 145 99 225 215 216 249 255 255 215 210 214 144 149 83 162 141 98 162 136 85 
173 147 110 218 206 146 215 215 127 90 61 29 115 63 23 52 58 10 223 192 145 221 204 134 174 151 109 219 207 155 223 206 152 255 254 246 178 160 124 184 179 113 220 198 140 233 212 147 
163 139 93 215 189 138 173 176 131 217 183 119 74 53 22 76 56 21 178 163 120 220 200 147 179 157 120 219 201 135 208 188 125 185 167 103 172 146 109 229 211 149 189 167 117 211 193 131 
163 140 90 215 190 134 202 187 122 212 192 142 151 139 101 187 168 112 178 164 127 170 156 107 164 145 103 215 194 141 207 195 135 207 184 114 157 144 100 179 151 127 182 170 120 177 158 118 
