P3
16 16
255
80 109 43 107 145 42 118 142 44 80 112 37 92 113 56 108 131 51 111 141 67 93 116 36 112 146 49 98 110 44 103 149 51 104 113 60 109 144 40 106 114 63 86 104 52 75 107 40 
81 101 50 111 148 43 105 109 59 112 128 53 106 128 46 102 111 44 112 125 55 122 143 40 106 127 58 101 152 25 117 131 54 91 103 37 102 150 50 103 127 49 106 133 38 105 128 50 
106 123 43 103 126 46 99 112 59 182 109 217 202 123 214 151 88 131 113 147 37 104 114 61 110 154 43 214 117 250 101 145 34 79 95 32 114 135 60 100 107 55 96 116 53 114 127 58 
108 151 35 110 140 52 114 127 47 206 117 209 96 79 27 173 99 210 98 118 49 102 130 46 114 141 34 184 100 214 113 127 52 97 126 60 102 123 32 112 126 51 113 136 46 79 99 30 
95 115 46 84 110 62 82 107 50 150 81 126 192 99 216 160 89 145 72 108 47 114 138 52 112 126 64 68 107 50 101 136 42 110 147 34 114 143 50 104 113 58 96 125 45 106 115 58 
118 138 43 96 139 49 97 110 57 110 131 54 115 138 32 105 123 41 116 128 56 114 133 43 82 105 35 112 115 48 97 108 48 101 108 56 121 133 59 107 142 42 86 119 50 110 127 56 
110 121 45 74 104 44 106 136 36 108 142 45 119 124 57 108 118 65 89 119 33 89 99 46 101 116 47 75 110 42 95 118 50 101 152 31 183 93 217 206 132 227 158 83 139 117 145 42 
107 142 48 118 148 48 110 139 49 111 131 44 99 151 43 110 122 56 110 152 42 93 114 55 78 107 43 100 112 64 122 124 59 110 123 51 209 121 231 93 72 5 177 105 207 101 111 48 
107 111 50 213 123 246 101 148 44 99 133 49 126 144 44 99 113 52 83 101 39 80 106 45 98 118 49 107 122 65 113 153 41 108 144 38 148 85 130 198 96 223 160 84 133 111 147 47 
109 147 38 187 104 196 104 126 51 125 136 34 117 153 45 100 148 46 88 104 57 105 115 46 76 114 29 112 113 56 98 106 46 109 126 56 112 149 53 96 130 35 73 109 45 107 108 50 
120 126 64 101 108 57 109 156 42 101 137 41 102 122 37 104 152 52 85 122 52 105 131 42 102 114 52 92 124 48 115 119 58 114 153 34 107 118 49 105 115 62 102 130 43 108 151 36 
96 114 40 106 152 43 105 111 47 97 112 55 207 92 213 211 117 241 158 80 130 116 145 39 93 115 51 115 152 46 106 126 55 104 141 45 116 133 37 90 101 41 104 115 57 111 122 44 
81 108 53 97 132 40 118 146 46 95 114 58 208 119 227 85 87 14 191 98 231 104 127 49 110 113 42 118 130 48 103 145 47 100 137 67 203 121 229 107 119 45 108 148 36 124 142 60 
110 129 65 101 106 39 97 123 58 106 127 48 155 91 125 178 95 209 163 74 128 114 154 42 106 120 58 113 125 49 115 126 58 87 114 33 196 102 199 100 121 46 83 105 33 96 132 62 
104 121 50 115 133 57 106 126 63 105 142 47 80 109 27 109 133 57 77 101 39 118 148 48 106 136 46 112 144 47 86 123 46 104 132 47 97 129 44 105 115 63 97 107 57 70 100 38 
79 110 30 82 102 43 97 117 48 116 145 52 106 113 45 116 141 60 91 123 40 106 141 47 96 115 49 113 146 39 112 123 55 113 114 48 77 101 53 88 103 44 71 95 45 106 114 39 
