P3
16 16
255
255 248 255 250 255 254 252 255 255 245 255 255 255 255 244 255 251 255 253 255 240 254 255 250 252 255 250 254 255 250 247 251 250 255 254 255 251 255 253 248 255 253 253 255 254 255 251 255 
251 255 255 247 255 249 255 255 253 255 252 255 254 240 239 255 248 255 252 255 251 248 255 255 246 247 249 255 254 255 255 254 255 255 249 253 255 254 255 253 255 252 252 254 253 254 255 255 
252 255 255 255 255 253 246 250 249 255 254 255 254 255 251 255 252 255 255 253 253 254 248 255 255 252 255 255 253 255 255 248 255 255 253 255 255 251 255 255 250 253 254 255 253 246 255 251 
247 255 255 255 252 255 252 251 255 255 250 254 252 255 251 255 254 252 254 251 244 254 255 253 255 253 255 251 253 252 255 250 250 248 255 255 254 250 251 255 248 254 255 254 255 246 252 248 
251 253 240 255 247 246 254 255 251 252 255 251 239 255 249 255 255 246 253 255 252 249 253 252 253 254 246 247 255 244 255 255 244 233 255 247 243 254 250 255 253 255 255 252 255 255 254 255 
255 251 255 255 248 255 253 249 255 255 255 253 255 255 246 139 71 58 132 71 66 144 71 64 126 60 70 110 60 59 117 48 53 255 255 244 255 253 253 255 251 255 253 251 255 247 251 250 
254 255 241 249 254 248 255 251 251 255 254 247 251 253 250 133 72 67 255 253 255 255 255 251 255 255 247 255 255 243 110 60 59 246 255 243 253 255 254 255 253 255 254 252 255 255 255 251 
254 255 250 248 255 255 255 252 255 254 255 253 251 255 254 146 73 66 255 255 251 252 255 244 248 255 255 253 253 245 123 57 67 255 255 248 255 253 255 255 253 255 254 255 255 249 254 247 
255 254 255 255 255 255 255 255 253 252 254 249 251 255 255 128 80 68 254 253 249 251 255 255 251 254 255 255 254 255 112 68 57 250 252 251 251 255 253 255 251 255 253 255 252 255 254 253 
254 254 254 255 255 255 253 255 252 255 255 253 254 255 255 133 73 62 255 250 246 255 248 245 255 250 247 255 250 244 117 66 49 255 255 253 252 255 253 255 249 252 252 255 255 253 253 253 
255 255 255 254 255 255 252 254 253 250 248 249 255 254 255 143 71 59 115 74 68 123 80 73 112 73 56 119 80 65 124 63 42 255 254 251 251 255 254 255 253 255 247 251 252 254 255 255 
250 250 248 255 255 255 255 255 255 252 252 254 255 254 253 148 72 56 117 68 54 134 75 59 131 79 57 111 60 43 126 68 46 255 252 252 251 255 255 255 253 255 255 255 255 249 253 252 
255 255 253 255 253 254 253 252 255 254 255 255 254 255 253 137 69 48 130 81 64 122 61 40 115 63 41 123 69 59 104 53 36 255 254 255 250 255 255 252 252 252 255 253 253 254 255 253 
254 253 251 255 254 255 255 254 255 253 254 255 249 255 249 146 81 59 118 73 54 134 76 56 121 70 51 114 61 55 105 62 46 254 254 255 252 255 255 254 255 253 255 247 246 251 255 252 
254 255 255 253 253 253 255 254 255 250 252 251 251 255 251 134 72 51 128 82 67 123 64 50 126 75 54 113 58 53 103 61 45 251 250 255 254 255 255 247 249 244 255 252 253 249 255 255 
249 255 253 254 255 255 255 253 254 255 255 253 250 255 249 140 73 54 120 72 62 120 56 47 119 65 41 120 61 53 99 56 37 255 253 255 255 255 251 254 255 250 255 251 252 248 255 255 
