P3
16 16
255
160 196 248 160 194 255 159 193 255 162 193 248 177 205 245 203 227 255 190 214 255 176 201 255 163 202 255 162 196 255 164 194 255 164 189 243 185 209 253 184 212 252 183 211 255 162 191 251 
160 192 251 156 191 247 159 194 248 173 205 254 183 210 255 190 214 255 177 204 249 173 201 248 167 200 254 156 187 242 161 190 246 177 204 255 186 214 255 167 197 247 166 197 252 162 194 255 
164 194 255 165 198 251 166 200 246 180 213 255 179 207 255 175 200 254 171 199 249 173 206 249 170 200 254 166 196 248 171 203 252 180 212 255 174 206 255 158 192 253 159 193 254 157 193 251 
171 200 255 172 205 255 163 197 245 171 203 250 172 200 250 174 201 254 174 206 255 170 206 255 163 193 253 170 202 253 172 206 252 167 203 253 156 190 251 156 190 254 164 196 255 159 192 245 
170 200 250 168 199 254 154 186 245 162 195 249 171 202 249 177 208 254 173 206 255 158 194 255 156 191 255 158 195 250 159 197 244 163 199 249 160 192 249 162 192 252 173 203 255 177 205 252 
163 195 242 163 195 252 158 192 255 171 203 255 172 204 251 169 202 247 157 192 248 148 185 253 152 191 255 155 194 253 160 196 248 168 200 249 178 206 255 176 202 253 181 207 255 181 208 255 
160 191 246 163 195 254 166 200 255 171 206 255 166 197 251 161 192 247 150 184 245 152 190 255 151 190 249 163 198 255 170 200 254 176 200 248 191 216 255 184 208 252 176 204 252 164 195 249 
161 192 255 158 193 251 159 196 249 159 194 248 157 189 248 165 196 255 157 191 254 158 197 255 161 197 249 171 200 255 180 202 255 186 207 254 208 230 255 186 214 251 171 203 252 158 194 254 
161 194 248 169 202 255 173 204 255 164 196 255 158 190 247 169 204 255 159 197 246 155 193 240 163 194 248 160 186 243 187 211 249 209 233 255 187 207 255 180 202 255 171 201 255 160 196 248 
171 203 252 172 204 251 174 206 253 174 206 253 171 203 252 173 204 255 161 191 251 164 194 255 161 190 255 186 219 254 204 230 255 189 211 255 176 198 248 173 199 250 167 198 255 157 192 248 
171 201 251 173 204 251 173 204 248 175 207 248 171 202 248 165 195 247 156 185 245 164 191 255 175 205 255 177 208 254 177 206 250 170 197 244 177 205 252 164 193 251 161 192 255 166 204 253 
181 204 255 185 210 255 180 210 255 173 205 254 167 200 251 162 195 248 161 194 248 171 204 255 180 212 255 165 195 255 164 196 247 176 208 249 175 206 255 155 185 249 160 193 247 174 210 255 
189 210 253 186 210 255 171 200 255 158 192 255 152 190 255 148 188 249 154 195 249 164 204 255 161 192 246 167 198 252 163 197 243 168 201 255 164 195 255 164 197 250 168 201 242 169 200 255 
202 227 255 183 211 250 164 195 250 155 190 255 151 189 255 146 185 254 156 194 255 160 199 254 163 193 247 173 205 252 153 188 244 155 188 255 159 194 248 169 201 252 176 204 254 183 211 251 
185 214 254 168 199 246 154 189 245 151 186 250 153 188 254 153 187 250 171 201 255 169 195 244 179 210 254 176 207 255 160 193 255 162 198 255 160 196 244 163 193 247 189 210 255 205 226 255 
161 192 255 157 191 255 159 195 255 157 193 253 163 196 249 177 205 252 204 226 255 197 213 249 175 203 250 161 192 247 156 191 247 157 193 255 162 193 255 182 211 255 212 235 255 193 208 249 
