P3
16 16
255
162 189 255 165 199 255 155 189 253 162 196 241 176 201 241 221 237 255 188 205 255 182 203 250 181 200 255 147 192 247 159 198 255 164 189 253 181 210 250 185 214 254 178 207 255 166 196 255 
162 193 240 158 197 254 115 170 252 132 172 255 188 216 255 180 200 255 177 199 255 166 210 255 135 171 245 163 189 248 155 196 252 139 180 255 179 208 252 175 204 244 159 198 255 152 187 245 
167 188 251 151 201 254 150 199 255 133 178 255 165 201 253 183 204 249 168 209 255 127 171 242 157 201 248 165 193 255 159 202 247 131 171 241 169 209 255 157 193 251 167 194 247 126 172 255 
175 207 255 173 197 245 149 189 250 157 189 246 138 164 255 137 182 241 166 200 237 136 175 250 163 195 244 159 212 255 179 207 255 141 179 255 122 173 239 161 192 236 132 166 255 152 196 255 
173 200 253 162 202 254 167 190 255 156 195 254 152 195 246 156 190 253 134 176 255 159 199 250 156 194 255 162 191 249 122 163 245 155 193 255 154 183 251 153 200 244 132 174 248 173 207 244 
160 195 253 131 163 248 122 176 246 164 212 255 161 204 249 134 177 255 155 194 255 100 153 249 149 186 254 165 198 252 111 155 250 174 205 255 177 208 255 125 177 237 166 197 255 182 212 248 
158 194 244 144 190 255 134 180 240 122 169 249 128 169 251 160 193 255 147 197 250 112 157 238 159 195 245 102 163 243 173 196 255 162 202 254 109 162 228 172 198 255 163 203 255 169 191 251 
156 196 255 160 192 251 153 184 248 165 197 254 120 155 237 156 197 255 155 190 248 164 193 253 105 160 250 166 198 247 114 154 239 124 169 254 162 212 235 136 175 255 177 205 253 161 192 246 
152 194 254 175 210 242 175 202 249 155 201 255 167 189 246 123 159 237 124 161 252 145 192 255 110 162 245 110 153 255 169 199 251 159 201 243 186 210 254 164 195 255 168 200 255 154 202 248 
175 198 255 127 174 242 173 204 248 169 193 255 167 208 255 149 194 255 159 190 247 118 169 235 159 193 254 157 195 244 118 160 244 187 216 255 172 205 250 133 175 251 134 171 242 160 193 247 
177 203 252 169 200 255 132 177 255 140 173 240 176 209 250 111 156 241 98 157 237 166 197 252 176 203 246 187 210 255 169 200 255 125 163 244 111 170 236 172 194 251 155 193 255 168 198 255 
169 205 253 189 207 253 158 192 253 135 179 254 100 161 254 166 201 243 152 185 255 110 157 237 185 212 255 177 198 255 117 166 245 160 196 255 139 180 255 144 191 245 162 193 248 172 203 250 
189 212 255 182 209 254 134 175 255 157 195 255 122 171 250 148 188 247 150 196 255 167 198 255 136 169 236 122 173 252 163 198 254 132 178 255 152 189 255 142 174 255 162 205 247 178 206 253 
201 227 254 145 177 252 158 197 254 155 189 253 122 174 247 148 185 255 163 192 252 159 193 254 123 176 255 157 199 247 156 194 255 121 171 234 163 192 255 133 170 248 183 199 255 161 203 253 
190 219 255 162 191 235 152 195 246 146 190 255 170 189 248 128 167 246 156 203 255 185 196 252 162 195 246 130 177 255 153 194 248 154 189 255 167 199 248 161 194 255 141 174 255 210 233 255 
161 190 250 160 194 255 166 189 243 152 198 250 156 192 255 155 187 246 219 234 255 177 211 246 173 205 255 170 190 255 132 169 255 158 196 241 144 193 251 183 209 255 169 196 241 186 210 248 
