P3
16 16
255
79 79 79 84 84 84 78 78 78 78 78 78 59 59 59 79 79 79 79 79 79 79 79 79 56 58 57 61 61 61 60 60 60 79 79 79 55 55 55 62 62 62 77 77 77 80 78 79 
79 79 79 100 100 100 109 109 109 117 117 117 123 123 123 100 100 100 120 120 120 106 106 106 119 121 120 121 121 121 102 102 102 120 120 120 105 105 105 117 117 117 89 89 89 80 78 79 
61 61 61 90 90 90 121 121 121 145 145 145 116 116 116 136 136 136 108 108 108 111 111 111 132 134 133 144 144 144 129 129 129 149 149 149 118 118 118 106 106 106 127 127 127 76 74 75 
78 78 78 104 104 104 132 132 132 136 136 136 58 58 58 37 37 37 25 25 25 45 45 45 33 35 34 37 37 37 31 31 31 58 58 58 132 132 132 111 111 111 99 99 99 85 83 84 
81 81 81 120 120 120 132 132 132 58 58 58 17 17 17 13 13 13 19 19 19 10 10 10 16 18 17 16 16 16 22 22 22 15 15 15 64 64 64 126 126 126 89 89 89 59 57 58 
56 56 56 123 123 123 103 103 103 24 24 24 12 12 12 20 20 20 37 37 37 34 34 34 32 34 33 30 30 30 18 18 18 14 14 14 15 15 15 146 146 146 89 89 89 61 59 60 
79 79 79 120 120 120 101 101 101 13 13 13 21 21 21 56 56 56 56 56 56 60 60 60 62 64 63 59 59 59 56 56 56 24 24 24 16 16 16 144 144 144 97 97 97 80 78 79 
58 58 58 123 123 123 142 142 142 170 170 170 171 171 171 177 177 177 177 177 177 176 176 176 175 177 176 172 172 172 178 178 178 168 168 168 164 164 164 149 149 149 115 115 115 60 58 59 
58 58 58 121 121 121 130 130 130 119 119 119 100 100 100 94 94 94 120 120 120 101 101 101 94 94 94 103 103 103 118 118 118 105 105 105 124 124 124 102 102 102 104 104 104 78 78 78 
76 76 76 197 197 197 179 179 179 192 192 192 202 202 202 202 202 202 193 193 193 201 201 201 195 195 195 203 203 203 198 198 198 194 194 194 196 196 196 194 194 194 170 170 170 82 82 82 
85 85 85 164 164 164 166 166 166 170 170 170 172 172 172 164 164 164 132 132 132 132 132 132 138 138 138 124 124 124 170 170 170 178 178 178 164 164 164 176 176 176 163 163 163 57 57 57 
74 74 74 153 153 153 170 170 170 148 148 148 96 96 96 30 30 30 21 21 21 18 18 18 13 13 13 21 21 21 35 35 35 94 94 94 147 147 147 164 164 164 161 161 161 75 75 75 
83 83 83 150 150 150 146 146 146 73 73 73 13 13 13 20 20 20 18 18 18 13 13 13 21 21 21 17 17 17 15 15 15 15 15 15 77 77 77 119 119 119 154 154 154 83 83 83 
78 78 78 112 112 112 150 150 150 14 14 14 19 19 19 15 15 15 26 26 26 40 40 40 30 30 30 36 36 36 20 20 20 17 17 17 20 20 20 160 160 160 147 147 147 76 76 76 
56 56 56 149 149 149 116 116 116 17 17 17 31 31 31 39 39 39 33 33 33 31 31 31 32 32 32 34 34 34 27 27 27 36 36 36 11 11 11 119 119 119 154 154 154 61 61 61 
58 58 58 106 106 106 59 59 59 55 55 55 62 62 62 74 74 74 82 82 82 78 78 78 78 78 78 80 80 80 82 82 82 54 54 54 64 64 64 60 60 60 104 104 104 59 59 59 
