P3
16 16
255
255 253 255 117 143 134 102 134 119 106 130 117 255 252 251 255 252 249 255 254 255 247 255 255 110 125 120 255 255 255 111 116 112 234 255 253 103 137 123 116 121 117 255 253 253 242 255 250 
254 255 255 106 127 120 107 127 118 109 126 116 255 254 251 249 255 253 246 246 246 255 255 255 253 255 254 114 131 125 115 141 132 120 126 122 255 255 253 112 133 124 94 120 109 255 253 253 
96 111 108 103 120 114 255 254 252 164 171 164 123 133 125 109 139 127 249 255 255 255 245 251 254 255 255 107 128 121 113 125 121 111 109 110 248 255 252 112 127 120 168 175 168 112 122 114 
255 254 255 244 255 255 119 136 128 119 139 130 255 255 253 109 122 115 246 255 252 248 255 255 249 255 255 253 253 253 247 255 255 108 125 119 254 255 253 245 254 249 118 134 124 255 255 251 
116 125 122 109 120 116 255 253 254 124 130 126 244 253 248 93 125 114 118 130 126 255 251 252 255 254 252 250 255 251 247 251 250 122 137 132 101 131 121 249 255 253 255 248 247 250 255 250 
254 255 255 246 255 253 254 255 255 249 255 255 250 254 253 115 141 132 123 134 130 112 112 112 119 126 119 255 251 251 252 255 253 110 140 130 116 135 131 253 255 254 252 255 253 254 255 250 
249 253 252 249 255 255 255 253 255 252 255 255 251 255 255 110 140 130 245 255 252 255 253 255 171 168 161 112 132 120 112 127 120 255 251 253 254 255 255 107 123 120 119 131 127 250 255 251 
255 250 255 245 255 252 103 115 111 103 118 113 255 252 254 115 124 121 251 255 255 247 255 254 96 119 101 249 255 250 251 251 249 255 253 254 255 253 255 254 255 255 114 129 126 110 131 124 
250 255 249 111 128 118 255 246 247 255 255 253 255 253 254 255 254 255 110 121 117 98 117 111 103 112 111 245 255 255 251 255 255 255 254 255 255 253 254 255 252 253 255 254 255 103 115 113 
252 255 251 169 165 162 121 130 125 245 255 253 255 251 252 252 255 255 248 255 255 252 255 255 112 127 124 255 255 255 246 255 253 115 135 126 111 120 115 248 255 255 248 255 255 255 248 254 
255 250 247 255 253 253 101 133 120 255 254 253 110 142 129 251 255 255 254 248 250 252 255 255 105 135 125 125 142 136 250 250 248 124 124 122 104 117 110 100 120 111 248 255 255 252 255 255 
255 252 251 254 255 253 113 124 118 119 147 135 253 255 252 117 137 128 131 127 128 247 249 248 244 255 251 124 141 133 116 122 118 163 173 165 95 123 109 117 138 129 254 254 252 255 254 255 
255 255 255 243 255 249 255 255 253 109 133 120 255 254 253 249 255 253 244 253 250 109 115 113 252 255 255 250 250 248 116 131 124 109 131 119 103 113 105 247 253 249 245 254 249 255 254 255 
119 121 120 244 255 254 249 255 253 181 167 167 99 123 110 255 249 252 241 255 252 245 255 255 247 253 251 122 128 126 246 255 250 252 255 253 255 254 253 255 255 253 249 255 255 110 125 120 
252 255 255 255 254 255 253 255 252 100 113 104 255 254 251 254 255 253 100 117 111 113 122 121 114 108 112 249 255 255 252 255 255 247 252 248 108 129 120 124 139 134 255 255 255 115 124 123 
255 252 255 255 254 255 113 122 117 251 255 251 250 255 249 96 112 102 255 254 255 102 114 112 108 129 124 255 255 255 255 252 254 253 253 253 252 255 255 117 136 130 101 124 118 248 255 255 
