P3
16 16
255
27 45 49 60 40 42 51 44 36 45 47 44 58 51 58 57 48 49 59 45 44 52 53 48 57 49 46 50 43 33 56 41 38 53 41 45 43 43 45 55 47 45 52 38 38 36 36 38 
56 41 22 112 55 35 115 69 36 111 72 43 112 65 45 113 66 40 114 63 36 108 69 40 113 65 43 121 71 38 125 71 43 111 62 45 114 67 37 131 68 27 113 62 33 55 46 39 
55 45 33 126 70 53 124 71 39 113 64 32 123 66 39 127 68 38 134 73 42 113 64 34 107 61 45 147 83 48 153 73 40 134 69 47 122 72 37 143 81 32 128 81 53 41 42 47 
57 53 44 116 60 45 134 74 38 137 75 34 186 117 76 191 121 72 164 92 44 162 101 56 128 73 43 160 89 35 208 119 63 195 118 76 136 76 39 135 72 31 112 64 41 51 46 43 
51 51 41 124 67 47 156 88 41 188 116 58 197 117 54 239 162 90 241 162 93 185 120 54 189 113 55 235 169 93 229 160 82 192 117 52 196 118 69 170 88 50 129 73 48 53 44 27 
43 52 47 119 68 49 167 101 53 195 127 62 233 163 91 229 168 88 255 208 134 250 207 138 255 209 130 255 218 139 223 169 97 228 163 99 192 124 61 161 93 44 112 64 42 54 43 39 
53 53 43 130 70 44 194 119 64 229 157 85 235 168 89 255 209 123 246 209 131 255 247 178 255 251 176 240 209 126 255 203 124 234 166 95 228 164 90 198 129 64 126 73 42 63 49 49 
52 49 40 135 73 48 190 115 60 235 167 96 255 204 127 245 214 134 255 247 176 253 255 199 251 254 211 255 247 168 255 218 123 255 205 127 234 165 100 200 110 57 126 71 41 39 54 49 
49 51 48 135 74 55 190 113 57 239 165 90 255 206 125 246 215 132 255 244 174 248 255 201 247 255 208 255 247 169 254 212 126 255 206 123 229 169 96 191 118 67 133 70 39 52 53 48 
48 45 36 117 55 32 196 121 66 233 163 91 228 165 85 255 209 123 248 213 132 255 247 175 255 248 171 248 217 135 255 207 138 234 168 94 229 161 88 187 120 68 118 61 32 53 48 45 
49 49 41 127 70 51 156 92 46 189 127 66 231 166 98 222 165 86 255 215 138 249 203 128 251 210 118 255 209 124 224 163 98 244 161 93 200 123 55 161 94 51 128 74 48 58 48 38 
46 38 27 130 68 47 163 92 46 189 119 60 197 119 57 237 160 90 238 159 90 192 124 59 184 123 58 240 172 97 230 161 96 192 112 49 188 117 65 139 73 47 118 66 45 52 48 36 
48 45 40 128 70 56 146 81 41 158 90 43 199 122 76 191 119 69 166 95 51 121 66 27 167 97 63 170 85 28 198 117 61 198 125 72 145 81 35 139 68 36 135 73 48 57 53 44 
51 43 40 115 59 46 132 74 37 143 84 44 147 79 44 128 64 29 127 67 39 113 71 49 115 64 47 148 79 46 130 66 41 116 66 39 113 74 35 122 68 32 121 66 45 37 40 49 
54 41 25 125 68 49 118 68 33 109 64 31 119 65 39 124 70 42 124 70 44 108 68 43 123 74 44 129 69 35 120 65 45 118 68 43 120 76 37 132 76 39 125 64 35 60 43 33 
28 42 45 56 34 36 55 46 39 43 45 42 51 41 49 58 46 46 62 43 39 50 43 37 57 50 44 61 54 44 49 49 51 58 48 49 56 46 47 64 48 59 55 35 36 26 41 36 
