P3
16 16
255
180 157 139 163 103 95 131 98 79 156 109 93 128 85 66 154 103 84 157 110 90 144 97 77 158 105 89 160 108 94 85 54 34 156 107 93 179 133 118 151 110 92 170 104 92 161 123 100 
157 103 93 142 100 86 106 64 48 174 114 103 162 106 91 209 150 136 133 84 67 157 104 88 155 106 91 133 81 67 126 88 69 142 107 88 162 110 97 134 81 67 125 82 63 146 95 78 
159 105 93 95 67 46 167 100 91 168 106 93 148 101 83 143 98 79 147 100 84 172 116 103 128 85 68 165 101 91 224 196 174 133 90 74 158 102 89 102 64 45 164 108 93 183 138 119 
158 109 94 91 60 39 160 109 92 132 102 78 164 119 100 155 106 91 180 131 117 91 69 46 157 105 91 157 119 100 168 121 105 143 94 79 127 86 68 141 94 78 163 112 95 150 105 86 
118 90 66 147 94 78 165 107 93 121 86 64 135 88 70 120 94 71 102 59 43 103 66 50 145 97 83 191 156 136 169 117 103 156 107 92 140 102 83 145 96 81 153 106 90 130 84 68 
161 105 90 168 106 93 119 83 61 169 122 104 186 113 104 142 99 82 154 111 95 129 85 72 98 63 44 159 105 93 145 99 83 140 95 76 157 106 89 201 160 140 124 83 65 158 109 94 
131 79 65 164 108 93 153 102 85 178 114 102 173 120 104 128 85 68 152 113 96 153 99 87 153 114 97 125 88 70 174 112 101 163 122 102 171 126 107 145 87 73 112 88 64 140 84 71 
156 109 93 126 85 67 160 109 92 156 103 87 184 158 133 162 102 91 137 95 79 87 54 35 123 81 65 101 68 49 174 116 104 173 120 104 123 85 64 153 108 89 149 103 87 141 95 79 
155 110 87 183 132 113 145 98 80 163 104 90 156 109 93 136 80 67 159 116 97 167 124 105 168 120 106 127 78 61 138 90 68 142 97 74 152 109 90 151 108 91 133 86 68 155 104 85 
164 116 96 176 123 107 144 101 82 164 112 98 131 93 74 155 103 89 136 91 72 169 118 101 169 123 108 130 83 65 157 109 89 179 132 112 158 113 94 125 82 65 152 106 90 172 123 106 
173 122 105 169 117 103 183 146 127 142 99 82 96 64 43 156 107 92 131 82 65 163 104 90 138 96 82 195 149 133 155 107 87 159 111 91 128 81 65 104 61 45 130 87 70 159 114 95 
166 119 103 164 115 100 155 118 100 109 63 48 159 124 105 156 107 92 157 110 92 136 80 65 93 56 40 121 78 61 159 111 91 158 107 90 132 83 68 165 119 104 88 45 29 150 107 90 
88 50 31 146 100 84 126 84 68 147 93 81 127 84 68 157 105 91 150 107 90 155 110 91 122 85 69 155 112 95 144 93 74 133 80 64 155 106 91 156 110 95 139 96 80 231 188 171 
150 112 91 139 92 74 165 122 105 172 114 102 134 88 73 163 111 97 140 102 83 98 60 41 129 87 73 141 95 79 174 123 104 169 118 99 145 98 82 154 108 93 155 109 93 155 108 90 
156 108 86 207 154 136 166 121 102 172 119 105 139 101 82 128 79 64 99 61 42 168 125 108 153 107 92 146 97 80 173 122 103 162 114 94 157 110 92 197 151 135 129 82 66 156 105 88 
177 116 97 171 112 94 157 115 93 151 104 86 185 153 132 146 100 84 141 100 82 145 98 82 132 83 69 162 111 94 130 79 58 161 115 92 153 108 89 151 105 89 135 86 69 171 118 100 
