P3
16 16
255
171 171 171 144 144 144 148 148 148 140 140 140 172 172 172 141 141 141 173 173 173 149 149 149 151 151 151 157 157 157 169 169 169 162 162 162 175 175 175 126 126 126 159 159 159 153 153 153 
170 170 170 139 139 139 171 171 171 144 144 144 173 173 173 255 255 255 160 160 160 133 133 133 177 177 177 150 150 150 171 171 171 144 144 144 172 172 172 145 145 145 163 163 163 138 138 138 
151 151 151 253 253 253 179 179 179 131 131 131 175 175 175 251 251 251 154 154 154 250 250 250 168 168 168 158 158 158 153 153 153 172 172 172 253 253 253 119 119 119 152 152 152 255 255 255 
255 255 255 255 255 255 254 254 254 255 255 255 141 141 141 254 254 254 255 255 255 253 253 253 126 126 126 255 255 255 136 136 136 254 254 254 255 255 255 253 253 253 252 252 252 255 255 255 
255 255 255 254 254 254 252 252 252 255 255 255 255 255 255 254 254 254 254 254 254 255 255 255 253 253 253 255 255 255 255 255 255 254 254 254 255 255 255 255 255 255 255 255 255 249 249 249 
251 251 251 255 255 255 255 255 255 254 254 254 251 251 251 255 255 255 255 255 255 255 255 255 254 254 254 255 255 255 250 250 250 255 255 255 250 250 250 255 255 255 253 253 253 255 255 255 
255 255 255 253 253 253 254 254 254 255 255 255 255 255 255 255 255 255 255 255 255 254 254 254 255 255 255 254 254 254 255 255 255 253 253 253 255 255 255 255 255 255 249 249 249 250 250 250 
251 251 251 255 255 255 252 252 252 253 253 253 255 255 255 252 252 252 254 254 254 255 255 255 254 254 254 255 255 255 252 252 252 255 255 255 252 252 252 255 255 255 255 255 255 255 255 255 
255 255 255 255 255 255 255 255 255 255 255 255 255 255 255 255 255 255 255 255 255 255 255 255 255 255 255 255 255 255 255 255 255 255 255 255 255 255 255 255 255 255 255 255 255 255 255 255 
255 255 255 255 255 255 255 255 255 255 255 255 255 255 255 255 255 255 255 255 255 255 255 255 255 255 255 255 255 255 255 255 255 255 255 255 255 255 255 255 255 255 255 255 255 255 255 255 
255 255 255 255 255 255 255 255 255 255 255 255 255 255 255 255 255 255 255 255 255 255 255 255 255 255 255 255 255 255 255 255 255 255 255 255 255 255 255 255 255 255 255 255 255 255 255 255 
255 255 255 255 255 255 255 255 255 255 255 255 255 255 255 255 255 255 255 255 255 255 255 255 255 255 255 255 255 255 255 255 255 255 255 255 255 255 255 255 255 255 255 255 255 255 255 255 
255 255 255 255 255 255 255 255 255 255 255 255 255 255 255 255 255 255 255 255 255 255 255 255 255 255 255 255 255 255 255 255 255 255 255 255 255 255 255 255 255 255 255 255 255 255 255 255 
255 255 255 255 255 255 255 255 255 255 255 255 255 255 255 255 255 255 255 255 255 255 255 255 255 255 255 255 255 255 255 255 255 255 255 255 255 255 255 255 255 255 255 255 255 255 255 255 
255 255 255 255 255 255 255 255 255 255 255 255 255 255 255 255 255 255 255 255 255 255 255 255 255 255 255 255 255 255 255 255 255 255 255 255 255 255 255 255 255 255 255 255 255 255 255 255 
255 255 255 255 255 255 255 255 255 255 255 255 255 255 255 255 255 255 255 255 255 255 255 255 255 255 255 255 255 255 255 255 255 255 255 255 255 255 255 255 255 255 255 255 255 255 255 255 
