P3
16 16
255
237 255 255 243 253 255 230 253 243 230 255 254 245 255 253 240 251 253 245 255 255 255 253 253 254 253 248 255 249 255 245 255 255 245 255 250 255 249 255 252 253 255 249 254 250 244 254 255 
243 247 250 255 252 251 255 252 255 247 250 241 255 253 255 246 253 246 238 248 249 255 255 250 241 255 255 243 254 246 244 255 255 251 245 255 241 255 250 238 255 246 251 255 255 238 255 247 
234 255 255 235 251 250 241 255 244 247 255 255 247 250 243 250 253 255 251 255 251 253 249 248 245 253 255 243 255 247 249 250 254 246 254 255 242 255 248 223 254 246 249 247 255 242 255 253 
209 235 234 220 240 238 243 255 255 245 254 253 255 253 255 252 255 255 239 253 255 236 255 253 254 251 246 255 249 255 240 255 255 236 252 241 208 238 236 243 255 255 218 239 244 215 235 244 
177 218 214 211 240 236 192 207 210 215 234 232 229 255 255 210 240 240 239 248 255 255 251 255 236 253 255 212 243 235 239 250 236 219 246 239 221 239 249 186 211 205 218 231 222 181 216 222 
106 90 91 203 209 207 112 133 114 223 243 241 217 241 225 221 241 242 214 242 228 172 219 203 212 242 242 212 237 241 186 211 208 91 60 55 158 110 100 120 131 125 170 225 206 178 131 113 
186 128 124 93 56 37 123 95 81 129 130 96 213 243 217 124 139 108 119 84 78 186 127 121 118 110 123 119 134 101 180 138 116 156 102 100 116 80 64 139 116 85 126 90 66 155 108 88 
122 86 52 116 90 53 174 135 96 181 130 103 151 110 78 154 109 86 125 78 52 122 93 61 148 102 79 91 65 40 147 109 70 149 113 63 121 90 59 122 79 62 148 114 86 157 99 77 
149 110 77 116 85 57 125 85 50 145 111 83 122 88 63 146 109 80 110 83 64 94 62 39 127 84 52 154 109 68 144 108 84 112 87 65 133 90 55 128 75 41 99 64 32 118 81 54 
123 88 58 153 110 75 95 61 33 123 82 50 125 84 52 91 57 30 110 67 35 118 84 57 99 87 75 140 85 46 120 87 54 111 80 60 187 134 94 187 142 100 114 78 56 143 118 96 
119 84 56 153 108 75 117 82 54 184 140 105 177 131 95 125 86 55 181 133 95 148 108 73 93 62 34 178 128 95 184 139 98 91 64 45 152 106 72 144 110 75 137 135 140 121 86 56 
151 112 83 116 82 57 129 85 50 148 107 77 150 107 73 187 138 98 124 84 49 152 107 68 107 112 118 154 109 67 150 103 73 122 88 60 106 61 22 152 105 75 119 85 50 90 58 35 
119 83 57 96 66 42 149 106 74 120 83 54 152 113 82 155 109 73 171 134 105 131 88 53 126 81 48 129 84 43 127 90 64 116 81 51 112 86 63 118 95 81 181 139 101 186 133 93 
124 90 65 147 106 76 121 89 64 123 84 53 123 84 53 117 85 60 144 105 72 142 111 83 112 86 63 94 65 49 181 130 85 99 65 40 110 84 67 189 133 82 159 100 60 153 105 65 
139 103 71 132 88 53 90 56 28 179 140 107 122 85 56 89 61 39 129 94 66 88 60 39 186 135 92 185 132 98 120 89 58 145 108 81 119 85 60 118 87 56 159 109 76 150 115 85 
156 111 72 121 82 49 182 137 98 142 105 76 147 113 86 122 85 58 152 126 109 115 87 65 148 109 80 153 108 66 127 82 53 121 90 62 153 109 72 156 104 67 118 87 58 81 59 45 
