P3
16 16
255
98 94 93 134 130 129 146 140 140 113 107 107 113 109 108 154 150 149 125 124 122 153 153 151 110 104 104 136 130 130 114 108 108 128 122 122 133 129 128 154 150 149 130 126 125 113 109 108 
153 149 148 133 129 128 132 126 126 114 108 108 129 123 123 133 129 128 139 135 134 109 108 106 135 129 129 107 103 102 99 95 94 132 128 127 132 128 127 133 129 128 137 133 132 153 149 148 
133 129 128 124 120 119 118 112 112 94 88 88 140 131 132 113 107 107 132 126 126 135 129 129 148 147 145 130 129 127 124 123 121 140 136 135 155 151 150 115 111 110 133 129 128 157 153 152 
131 127 126 135 131 130 139 133 133 130 121 122 136 127 128 140 131 132 112 103 104 157 148 149 133 133 131 129 129 127 153 152 150 105 104 102 129 128 126 130 126 125 133 129 128 130 126 125 
109 105 104 132 128 127 132 126 126 169 160 161 159 150 151 110 101 102 117 108 109 133 124 125 126 126 124 128 128 126 111 110 108 94 93 91 133 132 130 153 149 148 135 131 130 133 129 128 
103 99 98 130 126 125 112 106 106 146 140 140 96 87 88 115 109 109 135 129 129 137 131 131 153 152 150 132 131 129 175 174 172 152 148 147 154 150 149 136 132 131 126 122 121 112 108 107 
131 127 126 110 106 105 102 96 96 154 148 148 129 123 123 132 128 127 175 171 170 152 151 149 112 106 106 153 149 148 153 149 148 135 131 130 94 90 89 110 106 105 132 128 127 133 129 128 
155 151 150 156 152 151 133 127 127 127 121 121 158 154 153 130 126 125 154 153 151 127 127 125 132 126 126 133 127 127 114 108 108 114 108 108 129 125 124 135 131 130 154 150 149 131 127 126 
154 150 147 136 132 129 153 149 148 131 127 126 109 105 104 131 127 126 133 127 127 136 130 130 135 131 128 109 105 102 99 95 94 132 128 127 152 148 147 178 174 173 117 111 111 129 123 123 
130 126 123 130 126 123 116 112 111 112 108 107 178 174 173 157 153 152 129 125 124 112 108 107 155 151 148 132 128 125 131 127 126 129 125 124 135 131 130 113 109 108 131 127 126 131 127 126 
109 105 102 137 133 130 132 128 127 154 150 149 155 151 150 133 129 128 110 106 105 100 96 95 129 124 121 160 155 152 129 123 123 113 109 108 135 131 130 131 127 126 150 149 147 98 97 95 
135 131 128 122 118 115 154 150 149 132 128 127 136 135 133 150 149 147 177 176 174 129 128 126 117 109 107 111 106 103 134 128 128 138 132 132 128 124 123 150 149 147 127 126 124 108 107 105 
129 125 122 119 115 112 138 134 133 133 129 128 127 123 122 130 129 127 133 132 130 148 147 145 136 128 126 168 163 160 154 148 148 110 104 104 151 147 146 159 158 156 131 130 128 154 153 151 
131 126 123 134 129 126 108 102 102 90 86 85 137 133 132 152 148 147 127 123 122 134 133 131 135 130 127 150 145 142 127 121 121 129 125 124 134 130 129 106 102 101 153 152 150 125 124 122 
141 133 131 152 144 142 150 141 142 126 120 120 133 127 127 133 129 128 112 108 107 114 110 109 130 126 123 147 143 140 138 134 133 137 133 132 111 107 106 99 95 94 135 131 130 156 152 151 
115 105 104 132 122 121 170 161 162 152 143 144 110 104 104 136 130 130 132 128 127 129 125 124 134 130 127 132 128 125 131 127 126 132 128 127 115 111 110 129 125 124 113 107 107 131 125 125 
