P3
16 16
255
56 41 34 57 42 35 58 43 36 58 43 36 58 43 36 58 43 36 59 44 37 59 44 37 57 42 35 59 44 37 60 45 38 58 43 36 55 40 33 54 39 32 56 41 34 58 43 36 
56 41 34 57 42 35 58 43 36 58 43 36 57 42 35 57 42 35 58 43 36 58 43 36 58 43 36 58 43 36 58 43 36 57 42 35 56 41 34 55 40 33 56 41 34 57 42 35 
57 42 35 57 42 35 58 43 36 57 42 35 56 41 34 56 41 34 56 41 34 57 42 35 57 42 35 57 42 35 57 42 35 57 42 35 57 42 35 57 42 35 57 42 35 56 41 34 
58 43 36 58 43 36 58 43 36 57 42 35 56 41 34 55 40 33 56 41 34 56 41 34 56 41 34 57 42 35 57 42 35 58 43 36 58 43 36 58 43 36 57 42 35 57 42 35 
58 43 36 59 44 37 58 43 36 57 42 35 56 41 34 56 41 34 56 41 34 57 42 35 55 40 33 57 42 35 58 43 36 59 44 37 58 43 36 57 42 35 57 42 35 58 43 36 
59 44 37 59 44 37 58 43 36 57 42 35 56 41 34 56 41 34 57 42 35 57 42 35 55 40 33 57 42 35 59 44 37 59 44 37 58 43 36 57 42 35 57 42 35 58 43 36 
58 43 36 58 43 36 58 43 36 57 42 35 56 41 34 56 41 34 57 42 35 58 43 36 56 41 34 57 42 35 58 43 36 58 43 36 58 43 36 58 43 36 58 43 36 58 43 36 
58 43 36 58 43 36 57 42 35 57 42 35 56 41 34 56 41 34 58 43 36 59 44 37 58 43 36 57 42 35 56 41 34 57 42 35 59 44 37 59 44 37 58 43 36 57 42 35 
59 44 37 59 44 37 57 42 35 55 40 33 55 40 33 56 41 34 57 42 35 57 42 35 57 42 35 58 43 36 60 45 38 60 45 38 59 44 37 58 43 36 59 44 37 59 44 37 
57 42 35 58 43 36 57 42 35 55 40 33 55 40 33 57 42 35 58 43 36 57 42 35 56 41 34 57 42 35 58 43 36 58 43 36 58 43 36 58 43 36 58 43 36 59 44 37 
56 41 34 57 42 35 57 42 35 56 41 34 56 41 34 58 43 36 58 43 36 58 43 36 59 44 37 58 43 36 57 42 35 57 42 35 58 43 36 58 43 36 58 43 36 57 42 35 
55 40 33 57 42 35 57 42 35 56 41 34 57 42 35 58 43 36 58 43 36 57 42 35 61 46 39 60 45 38 58 43 36 57 42 35 57 42 35 58 43 36 57 42 35 57 42 35 
56 41 34 57 42 35 58 43 36 57 42 35 57 42 35 58 43 36 57 42 35 56 41 34 60 45 38 59 44 37 57 42 35 56 41 34 57 42 35 58 43 36 58 43 36 57 42 35 
57 42 35 58 43 36 58 43 36 57 42 35 56 41 34 57 42 35 57 42 35 56 41 34 57 42 35 56 41 34 55 40 33 56 41 34 56 41 34 58 43 36 58 43 36 59 44 37 
57 42 35 58 43 36 57 42 35 56 41 34 56 41 34 57 42 35 57 42 35 56 41 34 56 41 34 56 41 34 56 41 34 56 41 34 56 41 34 57 42 35 58 43 36 58 43 36 
57 42 35 57 42 35 57 42 35 56 41 34 56 41 34 57 42 35 58 43 36 57 42 35 58 43 36 58 43 36 59 44 37 58 43 36 57 42 35 56 41 34 56 41 34 57 42 35 
