P3
16 16
255
70 80 82 53 56 61 60 59 65 153 154 159 152 162 164 47 61 62 92 106 109 95 104 109 57 56 62 78 85 91 95 110 115 103 118 125 69 78 85 76 79 86 50 54 57 52 61 60 
53 61 63 51 55 58 147 146 151 146 147 152 103 111 114 101 112 114 93 104 108 51 58 64 43 48 52 82 93 97 99 117 121 97 115 119 70 79 86 77 80 87 55 58 63 56 61 64 
52 56 57 160 161 163 154 153 158 89 90 94 68 76 79 47 57 59 53 63 65 49 56 62 51 61 62 70 84 85 91 109 111 98 116 120 74 85 91 73 80 86 72 77 83 72 77 81 
151 152 154 152 153 155 84 85 89 80 84 87 74 79 83 54 62 65 57 62 66 76 81 85 74 80 80 67 77 78 69 83 84 92 107 110 95 108 114 74 87 93 65 76 80 70 81 85 
149 150 152 52 56 59 77 82 85 62 70 73 74 79 83 48 53 57 54 57 62 63 67 70 75 75 77 51 52 56 49 54 58 71 81 83 89 104 107 92 110 112 97 115 117 90 108 110 
55 59 62 56 64 67 64 78 81 82 96 99 81 88 94 50 53 58 53 57 60 54 58 59 61 59 64 55 53 58 54 53 58 50 55 59 64 78 79 84 102 104 98 116 118 97 112 115 
51 58 64 92 106 109 87 106 110 95 113 117 105 116 122 153 156 161 157 158 162 72 76 77 59 63 66 59 58 63 54 53 58 51 54 59 71 81 83 66 80 81 60 71 75 85 90 96 
96 105 112 90 107 114 94 118 122 92 113 118 91 102 108 155 158 165 152 153 157 151 155 154 142 152 154 54 57 62 57 56 62 88 89 94 66 74 77 50 58 61 55 58 63 59 56 63 
96 104 107 50 53 58 60 61 66 76 81 85 93 107 108 102 118 118 146 154 156 57 56 61 156 154 155 76 78 77 51 57 57 73 83 84 72 83 85 51 61 62 57 62 65 149 150 154 
58 63 67 51 59 62 44 53 58 49 58 63 71 78 84 95 103 106 150 158 160 140 148 150 155 150 154 156 154 157 56 55 60 55 56 61 51 52 57 57 56 62 152 150 155 156 151 157 
52 55 62 69 80 84 90 108 110 52 63 67 56 59 66 103 103 111 101 109 112 101 120 118 152 156 159 155 158 163 46 47 52 54 55 60 61 60 66 61 60 66 160 159 164 54 53 58 
70 81 85 88 102 105 105 118 124 70 79 86 46 50 59 53 56 63 66 76 78 89 105 105 92 112 113 90 108 110 82 93 95 67 77 79 67 75 78 69 77 79 138 148 149 83 93 94 
88 108 109 96 110 113 96 103 111 95 102 110 73 82 89 43 57 60 45 55 57 75 83 86 91 111 112 96 114 116 73 84 86 67 75 78 68 73 77 82 90 92 151 161 162 66 78 78 
87 107 108 71 82 86 70 75 81 99 106 112 91 106 109 90 105 108 51 59 62 46 45 50 95 103 106 148 153 157 148 151 156 159 158 163 151 150 155 157 156 161 153 154 158 58 61 66 
71 82 84 60 71 73 63 74 78 108 122 125 91 105 108 71 81 83 50 54 57 61 60 65 160 159 164 147 146 151 69 69 71 49 50 52 69 70 72 72 73 77 61 62 67 52 53 58 
74 75 80 72 83 85 90 112 110 84 106 104 71 82 84 54 57 62 55 56 60 154 158 161 148 152 155 60 64 65 52 61 60 66 76 75 69 79 78 57 67 68 47 57 59 71 79 82 
