P3
16 16
255
107 110 115 82 85 90 72 75 80 81 84 89 78 81 86 71 74 79 70 73 78 74 77 82 84 87 92 77 80 85 84 87 92 75 78 83 79 82 87 94 97 102 69 72 77 77 80 85 
73 76 81 76 79 84 76 79 84 85 88 93 64 67 72 68 71 76 70 73 78 82 85 90 80 83 88 77 80 85 90 93 98 71 74 79 74 77 82 76 79 84 69 72 77 79 82 87 
76 79 84 72 75 80 80 83 88 74 77 82 82 85 90 77 80 85 84 87 92 78 81 86 72 75 80 76 79 84 79 82 87 79 82 87 74 77 82 83 86 91 71 74 79 77 80 85 
76 79 84 73 76 81 73 76 81 75 78 83 77 80 85 76 79 84 77 80 85 77 80 85 66 69 74 72 75 80 65 68 73 80 83 88 72 75 80 87 90 95 70 73 78 71 74 79 
74 77 82 74 77 82 82 85 90 73 76 81 81 84 89 73 76 81 83 86 91 84 87 92 75 78 83 84 87 92 89 92 97 87 90 95 76 79 84 74 77 82 80 83 88 86 89 94 
72 75 80 86 89 94 72 75 80 87 90 95 71 74 79 94 97 102 79 82 87 85 88 93 83 86 91 76 79 84 70 73 78 76 79 84 77 80 85 84 87 92 75 78 83 67 70 75 
66 69 74 79 82 87 74 77 82 80 83 88 69 72 77 77 80 85 72 75 80 82 85 90 73 76 81 75 78 83 78 81 86 86 89 94 71 74 79 81 84 89 74 77 82 78 81 86 
79 82 87 80 83 88 75 78 83 84 87 92 82 85 90 80 83 88 77 80 85 92 95 100 83 86 91 72 75 80 81 84 89 74 77 82 76 79 84 79 82 87 81 84 89 80 83 88 
76 79 84 76 79 84 82 85 90 88 91 96 87 90 95 72 75 80 77 80 85 76 79 84 73 76 81 87 90 95 72 75 80 74 77 82 77 80 85 76 79 84 77 80 85 78 81 86 
80 83 88 78 81 86 69 72 77 83 86 91 84 87 92 73 76 81 72 75 80 84 87 92 79 82 87 78 81 86 70 73 78 82 85 90 83 86 91 78 81 86 76 79 84 78 81 86 
79 82 87 76 79 84 67 70 75 79 82 87 69 72 77 80 83 88 78 81 86 74 77 82 71 74 79 87 90 95 76 79 84 70 73 78 77 80 85 85 88 93 84 87 92 94 97 102 
70 73 78 86 89 94 72 75 80 72 75 80 78 81 86 87 90 95 71 74 79 71 74 79 78 81 86 74 77 82 79 82 87 83 86 91 70 73 78 71 74 79 70 73 78 74 77 82 
79 82 87 75 78 83 77 80 85 81 84 89 81 84 89 82 85 90 78 81 86 73 76 81 71 74 79 74 77 82 68 71 76 73 76 81 80 83 88 78 81 86 65 68 73 75 78 83 
74 77 82 81 84 89 78 81 86 66 69 74 85 88 93 80 83 88 74 77 82 82 85 90 84 87 92 81 84 89 79 82 87 79 82 87 69 72 77 77 80 85 79 82 87 70 73 78 
74 77 82 75 78 83 80 83 88 66 69 74 77 80 85 79 82 87 78 81 86 77 80 85 72 75 80 76 79 84 71 74 79 84 87 92 81 84 89 71 74 79 74 77 82 85 88 93 
75 78 83 74 77 82 76 79 84 72 75 80 87 90 95 77 80 85 68 71 76 80 83 88 81 84 89 82 85 90 72 75 80 79 82 87 71 74 79 73 76 81 86 89 94 84 87 92 
