P3
16 16
255
55 58 63 55 58 63 55 58 63 55 58 63 54 57 62 54 57 62 54 57 62 54 57 62 55 58 63 55 58 63 55 58 63 55 58 63 55 58 63 55 58 63 55 58 63 55 58 63 
55 58 63 55 58 63 55 58 63 55 58 63 54 57 62 54 57 62 54 57 62 54 57 62 55 58 63 55 58 63 55 58 63 55 58 63 55 58 63 55 58 63 55 58 63 55 58 63 
55 58 63 55 58 63 55 58 63 55 58 63 54 57 62 54 57 62 54 57 62 54 57 62 55 58 63 55 58 63 55 58 63 55 58 63 55 58 63 55 58 63 55 58 63 55 58 63 
55 58 63 55 58 63 55 58 63 55 58 63 54 57 62 54 57 62 54 57 62 54 57 62 55 58 63 55 58 63 55 58 63 55 58 63 55 58 63 55 58 63 55 58 63 55 58 63 
55 58 63 55 58 63 55 58 63 55 58 63 54 57 62 54 57 62 54 57 62 54 57 62 55 58 63 55 58 63 55 58 63 55 58 63 55 58 63 55 58 63 55 58 63 55 58 63 
55 58 63 55 58 63 55 58 63 55 58 63 54 57 62 54 57 62 54 57 62 54 57 62 55 58 63 55 58 63 55 58 63 55 58 63 55 58 63 55 58 63 55 58 63 55 58 63 
55 58 63 55 58 63 55 58 63 55 58 63 54 57 62 54 57 62 54 57 62 54 57 62 55 58 63 55 58 63 55 58 63 55 58 63 55 58 63 55 58 63 55 58 63 55 58 63 
55 58 63 55 58 63 55 58 63 55 58 63 54 57 62 54 57 62 54 57 62 54 57 62 55 58 63 55 58 63 55 58 63 55 58 63 55 58 63 55 58 63 55 58 63 55 58 63 
55 58 63 55 58 63 55 58 63 55 58 63 55 58 63 55 58 63 55 58 63 55 58 63 55 58 63 55 58 63 55 58 63 55 58 63 55 58 63 55 58 63 55 58 63 55 58 63 
55 58 63 55 58 63 55 58 63 55 58 63 55 58 63 55 58 63 55 58 63 55 58 63 55 58 63 55 58 63 55 58 63 55 58 63 55 58 63 55 58 63 55 58 63 55 58 63 
55 58 63 55 58 63 55 58 63 55 58 63 55 58 63 55 58 63 55 58 63 55 58 63 55 58 63 55 58 63 55 58 63 55 58 63 55 58 63 55 58 63 55 58 63 55 58 63 
55 58 63 55 58 63 55 58 63 55 58 63 55 58 63 55 58 63 55 58 63 55 58 63 55 58 63 55 58 63 55 58 63 55 58 63 55 58 63 55 58 63 55 58 63 55 58 63 
55 58 63 55 58 63 55 58 63 55 58 63 55 58 63 55 58 63 55 58 63 55 58 63 55 58 63 55 58 63 55 58 63 55 58 63 55 58 63 55 58 63 55 58 63 55 58 63 
55 58 63 55 58 63 55 58 63 55 58 63 55 58 63 55 58 63 55 58 63 55 58 63 55 58 63 55 58 63 55 58 63 55 58 63 55 58 63 55 58 63 55 58 63 55 58 63 
55 58 63 55 58 63 55 58 63 55 58 63 55 58 63 55 58 63 55 58 63 55 58 63 55 58 63 55 58 63 55 58 63 55 58 63 55 58 63 55 58 63 55 58 63 55 58 63 
55 58 63 55 58 63 55 58 63 55 58 63 55 58 63 55 58 63 55 58 63 55 58 63 55 58 63 55 58 63 55 58 63 55 58 63 55 58 63 55 58 63 55 58 63 55 58 63 
