P3
16 16
255
142 142 142 141 141 141 140 140 140 143 143 143 137 137 137 143 143 143 142 142 142 139 139 139 141 141 141 143 143 143 140 140 140 140 140 140 142 142 142 138 138 138 146 146 146 137 137 137 
141 141 141 186 186 186 183 183 183 184 184 184 186 186 186 184 184 184 176 176 176 187 187 187 181 181 181 182 182 182 182 182 182 182 182 182 185 185 185 180 180 180 176 176 176 147 147 147 
142 142 142 185 185 185 179 179 179 184 184 184 146 146 146 183 183 183 187 187 187 179 179 179 185 185 185 184 184 184 184 184 184 183 183 183 184 184 184 185 185 185 180 180 180 139 139 139 
142 142 142 177 177 177 185 185 185 145 145 145 180 180 180 185 185 185 180 180 180 186 186 186 183 183 183 182 182 182 185 185 185 182 182 182 179 179 179 184 184 184 185 185 185 143 143 143 
140 140 140 186 186 186 149 149 149 184 184 184 186 186 186 178 178 178 192 192 192 179 179 179 182 182 182 179 179 179 185 185 185 186 186 186 180 180 180 182 182 182 182 182 182 140 140 140 
143 143 143 188 188 188 172 172 172 187 187 187 181 181 181 183 183 183 181 181 181 182 182 182 187 187 187 180 180 180 183 183 183 186 186 186 183 183 183 185 185 185 182 182 182 140 140 140 
134 134 134 186 186 186 189 189 189 181 181 181 187 187 187 185 185 185 183 183 183 182 182 182 185 185 185 181 181 181 181 181 181 181 181 181 181 181 181 184 184 184 182 182 182 142 142 142 
145 145 145 180 180 180 179 179 179 187 187 187 180 180 180 182 182 182 180 180 180 186 186 186 181 181 181 184 184 184 187 187 187 184 184 184 182 182 182 184 184 184 182 182 182 141 141 141 
141 141 141 182 182 182 184 184 184 182 182 182 184 184 184 187 187 187 184 184 184 181 181 181 186 186 186 179 179 179 185 185 185 182 182 182 182 182 182 182 182 182 184 184 184 143 143 143 
142 142 142 182 182 182 184 184 184 181 181 181 181 181 181 181 181 181 181 181 181 185 185 185 181 181 181 180 180 180 186 186 186 182 182 182 184 184 184 186 186 186 178 178 178 141 141 141 
140 140 140 182 182 182 185 185 185 183 183 183 186 186 186 183 183 183 180 180 180 187 187 187 184 184 184 187 187 187 174 174 174 184 184 184 188 188 188 179 179 179 183 183 183 142 142 142 
140 140 140 182 182 182 182 182 182 180 180 180 186 186 186 185 185 185 179 179 179 182 182 182 179 179 179 184 184 184 192 192 192 180 180 180 180 180 180 183 183 183 185 185 185 136 136 136 
143 143 143 185 185 185 184 184 184 179 179 179 182 182 182 185 185 185 182 182 182 183 183 183 187 187 187 177 177 177 184 184 184 183 183 183 182 182 182 146 146 146 186 186 186 144 144 144 
139 139 139 180 180 180 185 185 185 184 184 184 183 183 183 184 184 184 184 184 184 185 185 185 181 181 181 188 188 188 181 181 181 183 183 183 149 149 149 181 181 181 178 178 178 139 139 139 
147 147 147 176 176 176 180 180 180 185 185 185 182 182 182 182 182 182 182 182 182 181 181 181 179 179 179 182 182 182 183 183 183 183 183 183 184 184 184 182 182 182 187 187 187 143 143 143 
137 137 137 146 146 146 138 138 138 142 142 142 140 140 140 140 140 140 143 143 143 141 141 141 143 143 143 142 142 142 136 136 136 145 145 145 139 139 139 143 143 143 140 140 140 137 137 137 
