P3
16 16
255
96 119 37 96 118 43 95 115 52 94 113 58 93 113 50 103 126 46 86 110 24 100 123 43 90 113 35 96 117 50 88 108 47 102 125 45 100 124 38 103 125 50 95 117 44 93 114 47 
108 133 39 103 125 50 86 107 40 97 120 42 97 121 37 101 124 44 100 123 41 109 134 42 104 126 51 100 122 49 112 136 48 97 118 51 94 115 50 111 135 49 94 117 39 104 127 45 
94 116 43 97 119 46 106 128 56 89 111 39 98 120 45 85 108 28 103 125 50 100 121 52 100 121 52 109 134 42 103 126 46 94 116 43 91 112 45 92 113 46 106 132 35 106 131 39 
86 106 47 93 114 45 94 116 41 104 125 56 84 106 34 109 132 54 86 108 36 91 110 54 88 111 33 96 117 48 95 118 40 104 127 47 100 122 47 94 116 43 102 124 49 100 126 29 
96 118 45 84 105 36 101 123 48 102 127 36 106 130 42 100 122 49 93 114 45 100 122 47 87 109 37 93 113 54 87 108 39 103 126 46 97 121 33 98 122 38 99 120 51 93 115 40 
89 110 45 96 117 48 95 117 44 107 130 52 97 119 44 92 113 44 91 112 43 100 122 49 92 111 55 99 121 48 90 110 47 100 122 47 90 114 28 100 124 40 99 123 39 87 105 55 
87 106 51 101 122 53 86 108 36 98 117 61 86 104 52 99 120 55 89 111 38 92 113 44 93 113 50 89 110 45 111 134 52 105 126 57 95 117 45 111 135 47 91 112 43 92 113 48 
92 114 39 92 113 44 102 123 54 86 108 36 92 113 48 91 111 48 95 117 42 115 140 48 91 113 41 92 114 41 96 118 46 99 122 40 91 113 40 89 109 48 103 125 52 102 126 40 
105 130 38 98 119 54 110 132 57 92 115 35 92 112 53 103 126 44 99 118 62 110 135 41 102 127 36 106 126 63 81 103 30 103 127 43 100 122 49 101 125 37 91 111 52 87 108 39 
91 114 36 102 125 43 88 107 52 97 119 44 93 116 36 91 112 45 92 114 39 95 119 33 106 131 40 92 112 51 109 134 42 94 115 48 84 101 56 91 110 54 108 133 39 97 118 53 
104 130 33 111 137 36 76 94 46 117 144 39 81 101 42 94 115 48 94 115 48 91 109 61 111 136 44 98 121 39 112 136 50 92 113 46 101 124 44 122 149 42 91 112 43 96 118 46 
96 120 36 94 116 44 95 118 38 91 109 61 110 137 34 89 110 43 94 115 48 87 107 46 99 121 49 100 123 41 90 110 49 107 132 41 97 120 42 99 120 51 87 108 43 80 101 32 
102 125 47 95 114 58 96 117 48 104 127 45 92 111 55 102 128 29 97 118 51 88 109 44 103 131 21 89 110 41 101 126 32 105 128 48 97 120 40 96 118 43 107 131 43 111 136 44 
97 119 47 106 130 46 91 114 32 81 101 38 91 113 38 91 113 38 93 113 50 94 115 48 111 135 47 100 123 43 101 121 58 101 123 48 98 119 50 86 108 35 105 132 27 93 111 61 
91 111 50 97 117 54 103 128 36 87 106 50 106 129 49 93 112 57 109 136 33 100 122 47 100 123 43 85 107 34 102 127 35 109 138 22 94 114 55 99 123 37 107 133 32 95 116 51 
94 115 48 104 129 37 105 131 34 87 109 37 100 120 61 94 114 55 92 114 42 100 122 47 105 129 41 111 136 42 87 107 46 92 113 48 115 141 44 98 119 52 97 120 42 97 120 38 
