P3
16 16
255
74 81 40 75 82 41 76 83 42 77 84 43 77 84 43 77 84 43 78 85 44 78 85 44 75 82 41 78 85 44 79 86 45 76 83 42 73 80 39 73 80 39 75 82 41 75 82 41 
75 82 41 76 83 42 76 83 42 76 83 42 76 83 42 76 83 42 77 84 43 77 84 43 77 84 43 78 85 44 78 85 44 76 83 42 75 82 41 76 83 42 76 83 42 75 82 41 
76 83 42 77 84 43 77 84 43 76 83 42 75 82 41 75 82 41 75 82 41 76 83 42 77 84 43 77 84 43 77 84 43 76 83 42 77 84 43 77 84 43 76 83 42 74 81 40 
77 84 43 78 85 44 77 84 43 76 83 42 75 82 41 75 82 41 75 82 41 75 82 41 75 82 41 76 83 42 76 83 42 76 83 42 77 84 43 77 84 43 76 83 42 74 81 40 
78 85 44 78 85 44 78 85 44 77 84 43 75 82 41 75 82 41 75 82 41 75 82 41 74 81 40 75 82 41 77 84 43 77 84 43 77 84 43 76 83 42 76 83 42 76 83 42 
78 85 44 78 85 44 78 85 44 77 84 43 75 82 41 75 82 41 76 83 42 76 83 42 76 83 42 76 83 42 77 84 43 78 85 44 77 84 43 76 83 42 76 83 42 78 85 44 
77 84 43 77 84 43 77 84 43 76 83 42 75 82 41 75 82 41 76 83 42 77 84 43 77 84 43 76 83 42 76 83 42 77 84 43 78 85 44 77 84 43 77 84 43 77 84 43 
76 83 42 76 83 42 76 83 42 75 82 41 75 82 41 75 82 41 77 84 43 78 85 44 79 86 45 75 82 41 74 81 40 76 83 42 78 85 44 77 84 43 76 83 42 76 83 42 
79 86 45 79 86 45 78 85 44 75 82 41 74 81 40 75 82 41 76 83 42 75 82 41 76 83 42 76 83 42 77 84 43 78 85 44 79 86 45 79 86 45 78 85 44 78 85 44 
75 82 41 76 83 42 75 82 41 73 80 39 73 80 39 74 81 40 75 82 41 74 81 40 75 82 41 75 82 41 76 83 42 77 84 43 78 85 44 78 85 44 78 85 44 78 85 44 
76 83 42 77 84 43 77 84 43 76 83 42 76 83 42 78 85 44 78 85 44 77 84 43 77 84 43 76 83 42 76 83 42 76 83 42 77 84 43 78 85 44 77 84 43 77 84 43 
73 80 39 75 82 41 75 82 41 75 82 41 75 82 41 76 83 42 76 83 42 74 81 40 80 87 46 78 85 44 76 83 42 76 83 42 77 84 43 77 84 43 77 84 43 76 83 42 
74 81 40 75 82 41 76 83 42 75 82 41 75 82 41 76 83 42 75 82 41 74 81 40 79 86 45 78 85 44 76 83 42 75 82 41 76 83 42 77 84 43 77 84 43 77 84 43 
77 84 43 78 85 44 78 85 44 77 84 43 77 84 43 78 85 44 77 84 43 76 83 42 75 82 41 75 82 41 75 82 41 75 82 41 75 82 41 76 83 42 77 84 43 78 85 44 
75 82 41 76 83 42 76 83 42 75 82 41 75 82 41 75 82 41 75 82 41 74 81 40 74 81 40 75 82 41 76 83 42 76 83 42 75 82 41 75 82 41 76 83 42 78 85 44 
76 83 42 77 84 43 77 84 43 76 83 42 76 83 42 78 85 44 78 85 44 77 84 43 76 83 42 78 85 44 78 85 44 77 84 43 75 82 41 74 81 40 75 82 41 77 84 43 
