P3
16 16
255
74 97 29 78 100 35 74 96 34 80 103 35 81 106 23 91 115 29 77 100 20 79 101 26 90 114 26 89 112 32 77 98 29 74 95 28 87 110 32 86 109 31 74 97 29 75 97 35 
87 113 26 90 116 29 100 128 26 102 131 23 91 118 21 90 114 26 84 107 27 83 103 40 70 90 29 73 93 32 79 101 28 79 101 26 73 93 30 75 96 31 79 103 25 80 104 26 
95 121 30 89 116 23 82 106 28 82 106 28 96 123 26 95 120 28 81 103 31 82 103 36 96 120 32 94 120 19 88 113 21 89 113 25 98 124 25 102 129 36 93 118 34 83 110 13 
84 109 28 78 102 28 91 117 26 94 121 26 79 103 27 79 102 22 87 113 14 93 119 22 72 92 29 80 101 34 96 121 30 95 121 24 79 103 29 84 108 30 96 124 22 93 121 19 
87 111 33 81 107 18 73 97 19 85 109 31 92 119 22 94 118 34 70 90 31 69 88 32 80 105 14 89 114 23 78 99 30 72 95 27 89 116 23 90 116 27 76 98 34 76 98 36 
73 94 38 70 91 34 81 105 27 93 118 34 69 91 27 77 97 36 80 102 27 86 108 35 69 90 25 78 97 41 80 103 35 77 101 25 76 99 31 77 100 28 78 102 24 79 101 36 
107 137 25 99 129 15 93 121 21 91 116 32 82 107 23 84 106 31 77 98 29 81 103 28 100 127 34 98 125 30 86 112 25 87 113 24 103 131 28 104 132 32 87 115 28 81 109 22 
78 101 29 80 105 22 100 127 30 103 131 28 90 117 22 88 113 21 93 119 22 96 122 23 74 97 29 78 102 24 90 117 24 93 120 25 85 111 22 86 112 25 91 121 23 91 122 18 
88 114 25 86 112 25 75 97 32 79 102 34 85 112 15 90 117 20 79 103 27 77 101 25 78 102 24 80 104 28 74 97 27 77 100 30 80 104 28 83 107 33 74 96 31 71 93 31 
80 106 17 79 103 29 85 109 33 87 111 37 78 99 40 71 93 28 78 102 24 88 112 38 75 95 42 92 116 42 108 137 31 105 134 24 81 106 22 88 113 32 103 131 31 109 138 28 
93 118 34 89 115 28 85 112 17 86 114 11 104 132 29 94 121 24 86 112 23 88 113 32 92 120 17 88 115 18 81 104 32 84 107 39 82 108 17 82 108 17 78 102 26 83 107 31 
78 100 35 80 102 40 90 116 25 86 114 14 79 102 34 79 103 29 89 117 17 89 115 24 78 101 31 74 97 29 81 106 22 91 116 33 76 97 41 74 95 36 78 103 20 82 108 21 
75 98 30 80 104 26 70 91 34 75 96 40 92 119 26 95 121 32 76 98 34 70 93 23 78 101 31 94 119 35 84 109 26 84 110 19 102 131 21 104 132 32 83 106 34 81 104 36 
86 112 23 88 115 18 95 123 20 105 134 28 91 119 17 87 113 24 82 106 28 83 107 31 72 93 36 86 110 36 90 119 11 90 120 6 82 108 21 87 112 31 90 117 22 98 126 26 
99 127 27 94 122 20 81 107 20 81 105 29 90 116 29 90 116 29 84 109 26 89 116 21 103 132 22 91 118 21 74 97 27 80 102 38 86 111 28 87 113 26 79 103 29 83 106 38 
68 89 30 81 103 39 92 118 29 83 110 17 79 102 34 77 100 28 90 117 20 97 125 25 83 107 33 80 104 26 88 114 27 94 119 38 75 98 28 80 103 31 90 116 25 91 119 16 
