P3
16 16
255
167 167 167 182 182 182 165 165 165 170 170 170 180 180 180 177 177 177 169 169 169 168 168 168 154 154 154 153 153 153 159 159 159 180 180 180 253 253 253 255 255 255 253 253 253 255 255 255 
168 168 168 124 124 124 130 130 130 141 141 141 143 143 143 148 148 148 122 122 122 127 127 127 114 114 114 118 118 118 121 121 121 182 182 182 255 255 255 255 255 255 254 254 254 255 255 255 
166 166 166 119 119 119 141 141 141 126 126 126 117 117 117 123 123 123 125 125 125 143 143 143 147 147 147 138 138 138 117 117 117 180 180 180 252 252 252 255 255 255 255 255 255 252 252 252 
164 164 164 118 118 118 147 147 147 115 115 115 141 141 141 150 150 150 123 123 123 128 128 128 120 120 120 125 125 125 141 141 141 183 183 183 255 255 255 253 253 253 255 255 255 255 255 255 
170 170 170 144 144 144 125 125 125 114 114 114 127 127 127 111 111 111 118 118 118 127 127 127 139 139 139 118 118 118 143 143 143 154 154 154 255 255 255 253 253 253 255 255 255 249 249 249 
174 174 174 146 146 146 124 124 124 134 134 134 113 113 113 104 104 104 104 104 104 116 116 116 145 145 145 118 118 118 143 143 143 150 150 150 255 255 255 253 253 253 255 255 255 255 255 255 
159 159 159 141 141 141 117 117 117 145 145 145 114 114 114 100 100 100 111 111 111 112 112 112 142 142 142 125 125 125 116 116 116 152 152 152 255 255 255 255 255 255 254 254 254 254 254 254 
165 165 165 128 128 128 116 116 116 140 140 140 131 131 131 115 115 115 116 116 116 128 128 128 127 127 127 145 145 145 117 117 117 178 178 178 254 254 254 255 255 255 254 254 254 255 255 255 
157 157 157 141 141 141 126 126 126 119 119 119 143 143 143 126 126 126 139 139 139 146 146 146 116 116 116 142 142 142 114 114 114 170 170 170 252 252 252 255 255 255 252 252 252 255 255 255 
152 152 152 115 115 115 146 146 146 139 139 139 123 123 123 119 119 119 121 121 121 111 111 111 125 125 125 146 146 146 128 128 128 163 163 163 255 255 255 255 255 255 255 255 255 254 254 254 
159 159 159 131 131 131 111 111 111 121 121 121 120 120 120 119 119 119 149 149 149 125 125 125 145 145 145 124 124 124 117 117 117 179 179 179 255 255 255 251 251 251 250 250 250 255 255 255 
163 163 163 166 166 166 182 182 182 172 172 172 168 168 168 170 170 170 163 163 163 181 181 181 150 150 150 159 159 159 165 165 165 171 171 171 249 249 249 255 255 255 255 255 255 254 254 254 
255 255 255 255 255 255 254 254 254 255 255 255 255 255 255 254 254 254 255 255 255 253 253 253 255 255 255 253 253 253 253 253 253 255 255 255 253 253 253 255 255 255 251 251 251 253 253 253 
255 255 255 255 255 255 254 254 254 255 255 255 253 253 253 255 255 255 255 255 255 255 255 255 252 252 252 255 255 255 255 255 255 250 250 250 255 255 255 254 254 254 253 253 253 255 255 255 
254 254 254 254 254 254 255 255 255 253 253 253 255 255 255 255 255 255 250 250 250 252 252 252 255 255 255 255 255 255 251 251 251 255 255 255 250 250 250 255 255 255 255 255 255 251 251 251 
255 255 255 253 253 253 255 255 255 254 254 254 254 254 254 252 252 252 255 255 255 255 255 255 252 252 252 255 255 255 255 255 255 255 255 255 255 255 255 254 254 254 255 255 255 255 255 255 
