P3
16 16
255
152 152 152 185 185 185 148 148 148 186 186 186 179 179 179 154 154 154 179 179 179 155 155 155 255 255 255 255 255 255 255 255 255 255 255 255 255 255 255 255 255 255 255 255 255 255 255 255 
156 156 156 116 116 116 145 145 145 144 144 144 124 124 124 107 107 107 128 128 128 155 155 155 255 255 255 255 255 255 255 255 255 255 255 255 255 255 255 255 255 255 255 255 255 255 255 255 
152 152 152 106 106 106 124 124 124 142 142 142 126 126 126 115 115 115 145 145 145 164 164 164 255 255 255 255 255 255 255 255 255 255 255 255 255 255 255 255 255 255 255 255 255 255 255 255 
159 159 159 113 113 113 142 142 142 129 129 129 145 145 145 125 125 125 144 144 144 166 166 166 255 255 255 255 255 255 255 255 255 255 255 255 255 255 255 255 255 255 255 255 255 255 255 255 
182 182 182 109 109 109 130 130 130 115 115 115 138 138 138 135 135 135 120 120 120 161 161 161 255 255 255 255 255 255 255 255 255 255 255 255 255 255 255 255 255 255 255 255 255 255 255 255 
164 164 164 105 105 105 146 146 146 122 122 122 144 144 144 112 112 112 143 143 143 176 176 176 255 255 255 255 255 255 255 255 255 255 255 255 255 255 255 255 255 255 255 255 255 255 255 255 
156 156 156 117 117 117 140 140 140 138 138 138 128 128 128 119 119 119 143 143 143 168 168 168 255 255 255 255 255 255 255 255 255 255 255 255 255 255 255 255 255 255 255 255 255 255 255 255 
165 165 165 144 144 144 129 129 129 144 144 144 116 116 116 103 103 103 139 139 139 168 168 168 255 255 255 255 255 255 255 255 255 255 255 255 255 255 255 255 255 255 255 255 255 255 255 255 
167 167 167 146 146 146 113 113 113 143 143 143 117 117 117 129 129 129 141 141 141 168 168 168 255 255 255 255 255 255 255 255 255 255 255 255 255 255 255 255 255 255 255 255 255 255 255 255 
153 153 153 142 142 142 125 125 125 145 145 145 113 113 113 147 147 147 116 116 116 168 168 168 255 255 255 255 255 255 255 255 255 255 255 255 255 255 255 255 255 255 255 255 255 255 255 255 
155 155 155 119 119 119 127 127 127 143 143 143 128 128 128 141 141 141 116 116 116 153 153 153 255 255 255 255 255 255 255 255 255 255 255 255 255 255 255 255 255 255 255 255 255 255 255 255 
152 152 152 171 171 171 173 173 173 158 158 158 152 152 152 152 152 152 183 183 183 155 155 155 255 255 255 255 255 255 255 255 255 255 255 255 255 255 255 255 255 255 255 255 255 255 255 255 
255 255 255 253 253 253 255 255 255 250 250 250 255 255 255 255 255 255 250 250 250 255 255 255 255 255 255 255 255 255 255 255 255 255 255 255 255 255 255 255 255 255 255 255 255 255 255 255 
250 250 250 255 255 255 255 255 255 255 255 255 253 253 253 249 249 249 255 255 255 255 255 255 255 255 255 255 255 255 255 255 255 255 255 255 255 255 255 255 255 255 255 255 255 255 255 255 
255 255 255 251 251 251 255 255 255 255 255 255 253 253 253 255 255 255 255 255 255 247 247 247 255 255 255 255 255 255 255 255 255 255 255 255 255 255 255 255 255 255 255 255 255 255 255 255 
255 255 255 255 255 255 254 254 254 255 255 255 255 255 255 255 255 255 252 252 252 255 255 255 255 255 255 255 255 255 255 255 255 255 255 255 255 255 255 255 255 255 255 255 255 255 255 255 
