P3
16 16
255
184 163 12 154 125 21 170 141 24 164 142 5 154 126 3 137 108 14 168 143 16 153 125 15 152 124 25 147 120 7 173 149 17 170 145 3 165 135 21 154 123 33 151 122 22 164 141 3 
146 113 20 187 164 0 167 145 10 198 171 20 145 119 9 174 145 7 168 144 10 169 141 5 141 113 13 170 144 23 148 119 15 164 141 0 156 129 0 152 123 5 183 162 7 173 150 10 
169 142 3 165 143 0 173 137 14 195 181 0 177 137 26 186 165 12 176 144 1 166 138 3 167 143 7 198 183 0 189 162 31 173 148 4 189 162 29 143 110 17 172 148 14 134 103 12 
142 111 20 176 145 18 147 122 21 196 164 17 134 109 8 207 177 19 150 126 0 195 167 23 150 125 0 167 140 7 144 107 37 170 145 1 198 179 0 172 145 16 140 111 11 152 124 24 
151 122 20 133 109 9 154 117 26 150 130 17 196 168 7 146 122 24 169 138 13 140 106 32 166 138 12 148 116 13 153 121 18 172 145 4 156 125 17 186 161 16 170 144 23 150 125 7 
136 112 2 191 166 24 140 120 5 165 136 8 145 123 22 171 145 0 138 115 9 201 183 13 192 167 22 168 140 15 143 107 19 171 145 0 149 117 18 199 181 0 139 110 10 167 146 1 
174 150 2 167 143 11 170 142 9 183 167 9 208 187 8 144 119 18 187 165 17 145 122 10 171 144 5 150 118 9 206 185 8 188 162 15 176 150 14 151 121 7 167 144 2 151 123 26 
169 137 14 189 162 13 156 125 8 144 108 22 163 137 14 174 147 16 145 120 4 154 126 19 166 140 0 211 188 20 148 117 1 172 142 18 166 138 3 145 111 24 150 120 22 166 145 2 
150 123 16 200 182 0 170 147 19 190 165 13 184 162 24 197 179 0 190 171 33 145 122 10 170 141 23 154 125 5 168 139 19 155 126 6 203 182 13 186 161 19 196 173 5 167 138 12 
171 143 17 147 123 17 166 133 4 143 121 12 164 128 18 140 115 22 139 110 0 186 170 15 170 144 5 197 178 0 192 169 13 168 141 10 152 118 28 190 167 12 168 139 11 172 145 2 
148 119 15 175 145 13 143 116 25 177 145 0 135 113 4 176 143 12 144 121 7 169 142 27 149 120 20 211 193 9 150 117 20 163 138 0 174 149 7 169 148 0 170 143 10 145 112 19 
148 116 17 184 163 8 142 107 13 166 144 0 174 142 23 197 178 14 154 124 4 171 148 6 144 113 20 183 163 2 172 146 10 186 161 19 174 145 27 196 175 4 153 121 18 168 143 16 
166 139 10 201 183 15 190 163 24 143 115 18 168 141 0 154 125 23 164 136 3 142 109 14 165 143 0 143 111 24 156 125 19 153 121 22 186 164 1 145 112 15 188 168 11 149 120 20 
142 109 32 167 141 0 137 114 12 175 143 8 158 141 9 176 143 12 204 186 24 156 123 20 151 123 14 169 145 13 157 122 40 187 161 16 168 144 0 193 168 23 149 120 18 149 124 5 
154 125 8 152 127 26 170 144 0 142 124 12 170 141 3 147 124 22 186 157 19 170 147 0 169 147 10 180 160 3 197 178 0 173 146 7 165 138 9 172 148 16 185 166 10 148 124 18 
186 164 26 163 141 0 151 126 23 151 120 27 134 110 14 171 146 2 150 122 15 171 142 14 140 110 20 170 148 2 155 122 25 171 144 3 156 126 12 145 117 7 144 114 28 184 167 19 
