P3
16 16
255
248 179 62 254 181 70 248 213 93 242 213 87 255 205 113 255 216 133 253 207 95 253 208 105 255 220 139 255 220 132 252 209 104 248 207 89 245 214 108 255 227 144 255 211 128 255 190 90 
242 184 76 251 199 100 255 211 122 255 213 139 251 221 149 252 221 128 248 210 101 255 208 98 237 188 85 246 189 74 255 207 105 251 218 147 255 233 173 249 218 135 251 208 104 241 197 92 
255 176 67 254 207 119 255 211 132 251 219 134 242 225 111 249 204 89 250 190 102 255 191 91 255 208 116 255 220 141 255 227 166 255 226 169 253 218 137 251 209 99 251 192 74 252 178 69 
252 192 80 246 211 85 254 210 101 255 209 128 255 208 109 255 197 84 247 193 93 237 195 85 247 191 70 251 211 100 245 215 101 249 211 86 245 194 76 254 196 99 251 185 89 252 179 66 
250 223 144 250 208 106 245 211 103 251 212 95 255 209 101 255 213 137 255 210 130 253 206 98 253 191 90 251 188 85 254 195 91 246 191 88 253 188 88 250 170 71 253 182 78 245 195 84 
255 209 131 255 204 107 248 222 135 250 221 141 255 208 126 253 208 117 255 195 82 252 180 72 251 185 62 245 178 65 246 176 80 252 179 87 252 180 70 248 180 55 252 196 87 255 214 133 
255 212 110 255 216 134 251 208 129 248 196 97 253 182 74 252 174 65 251 178 65 244 180 74 255 169 77 253 179 80 249 180 76 255 190 82 253 190 87 253 210 115 245 215 127 253 220 139 
244 205 104 253 224 130 252 197 80 247 190 75 249 194 93 251 181 70 251 180 74 249 178 74 246 195 86 248 190 80 248 193 76 240 195 76 251 209 97 255 211 113 255 214 119 253 209 112 
249 216 135 255 217 125 249 196 92 255 188 81 255 182 79 249 177 75 243 178 76 255 194 88 255 196 82 243 196 80 255 185 87 255 206 97 245 211 111 255 218 128 246 210 96 255 207 112 
255 218 136 244 195 102 248 187 80 248 181 68 247 177 66 255 191 86 250 192 84 255 204 94 255 203 96 246 206 111 255 211 117 253 210 108 255 221 117 252 205 97 255 211 109 255 216 128 
255 213 124 246 188 88 248 182 70 250 179 63 250 184 71 255 205 96 251 207 100 255 214 106 253 212 104 250 217 138 250 223 134 255 217 138 255 219 136 246 204 94 254 195 93 250 208 100 
249 193 96 254 191 86 247 177 63 249 182 67 255 200 93 251 209 109 245 212 119 248 222 129 251 230 139 255 225 152 250 225 135 255 218 136 255 216 137 245 210 108 248 180 73 250 194 75 
245 186 82 254 187 80 248 180 69 250 189 82 255 213 116 250 219 136 248 225 149 253 231 158 255 231 169 250 221 151 252 227 135 249 205 96 251 209 101 244 200 95 248 174 65 255 191 94 
255 193 87 244 178 68 255 188 81 249 195 95 248 214 125 254 232 156 252 232 163 255 231 165 254 217 147 245 222 144 250 225 143 251 207 98 248 193 77 255 191 81 250 179 61 255 203 113 
254 188 78 242 174 65 253 189 83 246 196 99 246 216 128 248 229 150 250 224 149 252 218 144 255 216 125 250 230 144 255 219 135 255 210 113 250 188 89 255 190 85 253 192 75 252 211 105 
245 175 64 255 184 76 255 191 85 252 204 106 255 232 141 248 228 142 249 221 137 255 215 129 255 223 136 247 225 142 255 206 104 247 190 87 247 191 96 247 180 76 254 203 98 241 199 91 
