P3
16 16
255
249 212 141 252 212 142 252 210 138 252 213 138 255 223 147 255 221 147 249 213 139 255 224 153 255 210 142 253 206 138 243 194 128 247 198 132 255 212 146 251 211 142 255 225 153 253 223 150 
246 216 143 255 223 152 255 223 151 245 203 131 246 206 134 247 204 135 245 200 133 246 197 131 247 199 133 244 195 129 241 190 125 246 195 130 251 202 136 239 196 128 250 212 141 255 221 147 
254 226 152 252 220 147 255 222 152 249 204 136 251 203 137 241 190 127 245 189 128 248 187 130 240 190 127 242 191 128 248 194 132 249 195 133 248 197 132 243 196 128 250 208 136 255 217 145 
254 224 151 237 200 129 245 200 133 251 200 135 255 202 140 242 186 127 244 183 128 248 185 132 244 192 132 249 197 137 255 202 142 249 193 132 246 192 128 250 199 133 249 202 132 243 199 126 
255 218 147 242 197 130 243 192 129 246 190 131 245 189 132 244 189 132 243 186 131 241 181 127 240 185 128 244 189 132 250 194 135 244 188 129 242 186 125 254 200 136 250 201 132 241 194 122 
255 216 147 251 202 136 248 192 131 245 186 128 237 181 124 242 187 131 242 187 131 240 185 129 239 184 127 240 185 128 242 187 130 245 191 131 243 189 127 252 201 136 255 208 141 253 206 136 
252 212 143 243 195 131 246 190 131 243 184 128 241 184 129 237 182 126 238 183 127 241 186 129 248 194 134 249 194 137 244 189 132 251 197 137 244 192 132 251 201 138 255 209 143 246 201 133 
248 211 141 240 196 131 248 196 136 242 186 129 251 195 138 244 188 131 244 188 131 243 184 128 240 186 126 246 192 132 238 183 126 245 193 133 243 193 132 255 208 144 255 214 147 238 193 125 
252 204 138 241 191 128 245 194 131 242 188 124 255 202 136 255 202 136 241 187 125 243 188 131 237 184 130 242 186 129 246 186 132 240 185 131 248 203 136 252 214 133 254 210 135 243 193 134 
255 205 142 246 194 134 243 188 131 240 185 128 253 197 138 249 193 132 242 187 130 240 185 129 240 185 121 246 186 136 246 186 136 244 195 129 248 209 132 255 221 150 255 215 146 247 202 134 
255 203 139 254 199 142 248 191 138 244 186 136 247 190 137 238 181 126 240 183 128 238 183 129 246 186 123 250 190 136 244 192 135 249 206 137 250 214 136 255 225 154 252 213 146 245 202 133 
243 190 124 242 188 126 244 187 134 242 184 134 247 190 137 243 186 131 247 190 135 246 191 135 245 189 130 248 198 129 246 204 132 250 213 145 252 217 149 255 221 145 249 207 135 241 192 133 
254 206 134 245 196 129 251 199 139 243 188 131 245 191 131 246 192 130 241 187 125 240 186 126 245 197 135 247 205 131 252 216 138 252 218 147 255 221 153 254 212 140 249 200 131 242 188 128 
249 210 135 245 202 133 255 212 145 246 198 132 246 197 128 251 202 133 251 202 135 255 208 142 251 207 136 250 211 144 255 223 151 254 221 142 255 218 146 250 200 141 249 194 137 245 190 123 
255 222 150 254 217 147 255 223 152 252 210 138 247 203 128 250 204 129 253 206 136 253 205 141 253 204 138 253 209 144 255 217 146 253 214 137 251 204 136 245 193 136 246 194 136 248 201 131 
255 228 158 249 219 149 247 213 142 246 208 133 251 212 133 253 212 133 254 209 141 237 191 129 247 190 135 249 201 129 246 205 126 249 204 137 241 191 132 243 192 129 246 198 132 255 214 148 
