P3
16 16
255
63 62 67 65 64 69 63 62 67 66 65 70 59 58 63 65 64 69 64 63 68 63 62 67 52 51 56 50 49 54 55 54 59 62 61 66 63 62 67 63 62 67 63 62 67 62 61 66 
65 64 69 59 58 63 54 53 58 54 53 58 50 49 54 51 50 55 52 51 56 52 51 56 47 46 51 48 47 52 50 49 54 52 51 56 53 52 57 54 53 58 59 58 63 65 64 69 
66 65 70 55 54 59 50 49 54 49 48 53 49 48 53 45 44 49 46 45 50 46 45 50 45 44 49 49 48 53 49 48 53 47 46 51 46 45 50 45 44 49 52 51 56 65 64 69 
61 60 65 51 50 55 51 50 55 49 48 53 51 50 55 45 44 49 47 46 51 44 43 48 42 41 46 48 47 52 47 46 51 45 44 49 48 47 52 46 45 50 49 48 53 63 62 67 
53 52 57 49 48 53 51 50 55 45 44 49 46 45 50 42 41 46 44 43 48 39 38 43 36 35 40 41 40 45 40 39 44 42 41 46 50 49 54 50 49 54 52 51 56 63 62 67 
53 52 57 51 50 55 50 49 54 44 43 48 40 39 44 38 37 42 40 39 44 37 36 41 38 37 42 39 38 43 37 36 41 40 39 44 48 47 52 50 49 54 54 53 58 63 62 67 
54 53 58 51 50 55 48 47 52 46 45 50 39 38 43 39 38 43 39 38 43 39 38 43 42 41 46 40 39 44 39 38 43 41 40 45 43 42 47 47 46 51 54 53 58 62 61 66 
52 51 56 47 46 51 43 42 47 48 47 52 40 39 44 40 39 44 38 37 42 41 40 45 38 37 42 37 36 41 39 38 43 41 40 45 40 39 44 44 43 48 54 53 58 62 61 66 
64 63 68 53 52 57 44 43 48 38 37 42 38 37 42 35 34 39 42 41 46 40 39 44 38 37 42 40 39 44 39 38 43 36 35 40 43 42 47 47 46 51 51 50 55 52 51 56 
60 59 64 54 53 58 45 44 49 50 49 54 40 39 44 44 43 48 36 35 40 38 37 42 40 39 44 43 42 47 38 37 42 41 40 45 40 39 44 48 47 52 47 46 51 50 49 54 
64 63 68 48 47 52 54 53 58 44 43 48 47 46 51 38 37 42 38 37 42 39 38 43 40 39 44 38 37 42 42 41 46 38 37 42 49 48 53 45 44 49 52 51 56 55 54 59 
65 64 69 51 50 55 52 51 56 49 48 53 41 40 45 44 43 48 36 35 40 44 43 48 40 39 44 43 42 47 38 37 42 49 48 53 44 43 48 52 51 56 51 50 55 63 62 67 
63 62 67 51 50 55 54 53 58 52 51 56 45 44 49 47 46 51 37 36 41 44 43 48 49 48 53 46 45 50 51 50 55 45 44 49 53 52 57 44 43 48 54 53 58 62 61 66 
63 62 67 50 49 54 56 55 60 46 45 50 50 49 54 45 44 49 46 45 50 46 45 50 51 50 55 53 52 57 48 47 52 54 53 58 47 46 51 52 51 56 52 51 56 63 62 67 
64 63 68 60 59 64 52 51 56 56 55 60 47 46 51 56 55 60 51 50 55 51 50 55 52 51 56 50 49 54 52 51 56 50 49 54 58 57 62 55 54 59 60 59 64 63 62 67 
64 63 68 63 62 67 63 62 67 63 62 67 66 65 70 62 61 66 62 61 66 52 51 56 53 52 57 53 52 57 50 49 54 54 53 58 60 59 64 63 62 67 61 60 65 63 62 67 
