P3
16 16
255
74 74 74 75 75 75 84 84 84 84 84 84 91 89 90 90 88 89 95 93 94 99 97 98 102 100 101 96 94 95 90 88 89 92 90 91 74 74 74 82 82 82 78 78 78 76 76 76 
77 77 77 69 69 69 73 73 73 73 73 73 70 70 70 74 72 73 75 73 74 78 76 77 76 74 75 71 69 70 77 75 76 75 75 75 73 73 73 73 73 73 70 70 70 72 72 72 
84 84 84 69 69 69 52 52 52 65 65 65 59 59 59 61 59 60 72 70 71 56 54 55 58 56 57 69 67 68 63 61 62 57 57 57 64 64 64 50 50 50 73 73 73 83 83 83 
78 78 78 69 69 69 64 64 64 255 255 255 255 255 255 255 255 255 251 251 251 255 254 255 255 254 255 249 249 249 255 255 255 255 255 255 255 255 255 64 64 64 72 72 72 76 76 76 
89 87 88 77 77 77 59 59 59 252 252 252 254 254 254 254 254 254 255 255 255 250 250 250 251 251 251 255 255 255 252 252 252 254 254 254 250 250 250 62 62 62 78 78 78 89 87 88 
88 86 87 72 70 71 62 60 61 255 255 255 252 252 252 255 255 255 252 252 252 255 255 255 255 255 255 255 255 255 255 255 255 251 251 251 255 255 255 64 62 63 73 71 72 90 88 89 
104 102 103 70 68 69 67 65 66 249 249 249 254 254 254 249 249 249 252 252 252 255 255 255 255 255 255 252 252 252 251 251 251 255 255 255 253 253 253 70 68 69 68 66 67 100 98 99 
99 97 98 75 73 74 62 60 61 255 254 255 255 255 255 255 255 255 255 255 255 253 253 253 254 254 254 255 255 255 255 255 255 254 254 254 255 254 255 61 59 60 76 74 75 100 98 99 
102 100 101 72 70 71 63 61 62 255 254 255 251 251 251 255 255 255 255 255 255 253 253 253 251 251 251 255 255 255 255 255 255 253 253 253 255 254 255 63 61 62 76 74 75 100 98 99 
97 95 96 71 69 70 66 64 65 251 251 251 255 255 255 253 253 253 250 250 250 255 255 255 255 255 255 255 255 255 251 251 251 255 255 255 251 251 251 68 66 67 66 64 65 101 99 100 
90 88 89 81 79 80 59 57 58 255 255 255 254 254 254 255 255 255 251 251 251 255 255 255 250 250 250 251 251 251 255 255 255 254 254 254 255 255 255 66 64 65 71 69 70 91 89 90 
85 83 84 70 70 70 58 58 58 253 253 253 255 255 255 252 252 252 255 255 255 249 249 249 255 255 255 255 255 255 253 253 253 255 255 255 250 250 250 57 57 57 73 73 73 89 87 88 
91 91 91 70 70 70 69 69 69 252 252 252 253 253 253 250 250 250 252 252 252 255 254 255 255 254 255 246 246 246 252 252 252 255 255 255 255 255 255 64 64 64 75 75 75 86 86 86 
79 79 79 66 66 66 56 56 56 64 64 64 65 65 65 66 64 65 67 65 66 57 55 56 59 57 58 71 69 70 65 63 64 60 60 60 67 67 67 48 48 48 70 70 70 83 83 83 
79 79 79 74 74 74 73 73 73 70 70 70 69 69 69 73 71 72 68 66 67 78 76 77 76 74 75 71 69 70 74 72 73 70 70 70 71 71 71 73 73 73 72 72 72 79 79 79 
74 74 74 76 76 76 80 80 80 89 89 89 88 86 87 90 88 89 101 99 100 99 97 98 101 99 100 97 95 96 91 89 90 92 90 91 75 75 75 82 82 82 75 75 75 73 73 73 
