P3
16 16
255
249 255 253 254 255 251 255 253 248 251 255 255 255 252 255 245 255 255 251 250 248 255 255 244 246 255 249 254 255 255 251 249 250 255 254 250 251 255 255 255 249 250 250 254 255 255 255 250 
251 255 255 250 249 254 255 249 248 254 255 251 254 253 255 255 247 246 255 254 251 253 251 255 255 253 255 255 254 251 241 255 250 255 253 243 255 254 255 255 255 251 255 253 255 245 255 246 
244 253 255 255 252 243 247 255 255 255 254 251 255 254 255 226 220 70 223 220 63 254 252 253 247 255 240 255 251 255 222 214 71 203 198 68 247 255 255 248 250 255 245 255 248 255 255 241 
255 255 251 251 253 248 255 253 255 245 250 254 252 255 255 211 200 58 229 235 77 231 223 98 255 254 255 255 246 254 236 215 74 225 182 80 244 255 245 251 255 255 255 244 246 242 255 255 
255 252 255 255 255 243 247 255 252 254 255 243 255 251 249 249 255 255 215 209 53 243 226 74 232 219 81 203 205 59 222 222 66 175 135 37 255 248 255 254 253 255 255 252 255 255 250 255 
255 250 255 243 255 254 255 251 255 250 249 254 255 243 255 249 255 243 255 253 244 171 143 43 237 216 73 192 162 52 202 181 66 255 250 255 252 255 246 231 217 58 200 208 45 255 249 255 
254 255 248 255 255 255 255 253 252 225 221 87 229 224 70 255 250 255 255 250 255 255 249 255 189 134 43 195 200 71 252 255 255 208 182 61 219 220 82 236 236 90 202 185 79 254 255 251 
248 255 247 255 254 255 255 249 255 202 184 48 244 235 72 201 180 73 254 255 241 248 255 255 255 254 245 205 184 79 214 198 53 233 220 66 240 233 82 212 204 59 253 255 254 255 253 247 
255 250 254 230 216 81 229 217 69 251 255 255 220 207 69 218 175 60 250 253 255 200 186 55 253 255 244 172 149 47 194 153 48 222 207 64 254 251 246 255 254 255 254 255 251 255 253 255 
251 255 250 185 145 50 228 234 86 219 218 68 208 202 56 213 202 58 211 183 73 209 176 63 255 249 255 255 249 255 182 136 48 197 175 73 249 255 253 255 251 252 244 253 248 248 255 255 
248 255 255 255 252 249 183 132 53 211 184 69 228 199 61 239 234 82 212 201 57 181 139 41 255 252 255 245 255 236 183 137 51 217 189 56 207 200 70 235 236 83 243 216 73 255 255 244 
255 250 247 252 255 253 255 253 255 241 255 243 181 132 37 224 183 65 201 209 64 255 249 255 254 253 255 251 255 253 183 130 50 205 203 58 236 220 72 226 226 76 185 131 43 242 253 255 
245 255 250 254 255 255 211 172 77 182 137 54 251 255 237 173 135 52 206 174 75 210 178 67 178 131 41 255 255 253 186 141 58 208 179 53 179 135 48 255 252 255 250 253 255 255 254 251 
252 255 246 255 242 250 255 254 255 216 180 58 177 133 46 181 139 53 173 139 42 185 144 36 217 181 69 178 139 48 210 173 56 211 184 67 209 202 60 234 232 59 249 255 255 255 253 253 
255 251 255 231 255 249 255 255 250 249 255 245 255 249 255 250 254 253 252 255 248 181 132 53 201 208 52 208 177 61 201 187 82 255 251 250 254 254 255 255 251 255 255 255 236 249 250 254 
255 248 252 255 254 255 255 252 246 248 255 255 254 254 255 255 253 254 252 255 250 255 250 254 214 204 73 220 203 55 185 132 52 246 255 248 251 255 255 255 255 251 253 253 251 252 255 255 
