P3
16 16
255
211 178 71 185 161 61 235 230 76 244 243 77 195 186 55 213 202 74 214 207 64 234 234 76 236 237 71 205 178 71 222 209 53 202 201 61 243 236 86 244 234 77 211 206 63 233 235 76 
223 197 60 214 202 54 237 238 74 236 230 90 232 214 86 222 204 58 227 216 62 238 238 66 238 233 81 207 182 63 198 175 79 216 209 59 243 229 71 184 165 44 241 240 70 238 234 75 
164 142 41 207 182 66 229 204 59 230 211 72 234 223 82 231 227 76 228 218 84 236 219 87 198 181 73 249 234 71 249 236 82 219 199 66 179 143 55 203 183 71 234 233 63 251 236 93 
225 202 64 173 136 47 177 138 35 213 182 65 195 180 61 215 213 68 222 221 68 213 206 55 232 220 76 246 232 84 236 224 76 188 162 43 179 139 54 212 200 52 206 205 63 217 198 69 
217 176 70 204 178 81 229 223 77 238 227 75 214 185 68 208 175 60 212 193 65 204 203 61 227 218 55 199 182 64 184 169 68 219 198 70 207 178 52 245 240 78 223 226 77 215 200 59 
207 184 72 222 215 75 232 239 65 229 223 77 210 180 68 213 172 64 219 182 78 212 188 66 219 205 74 200 181 53 212 200 62 222 211 67 201 180 55 223 215 72 235 236 82 229 217 69 
207 201 45 235 224 80 231 221 71 213 202 61 230 220 70 246 234 72 210 181 55 191 149 47 218 201 71 212 180 67 214 200 52 233 232 79 240 229 85 216 204 68 226 219 79 232 219 79 
213 182 66 185 156 62 232 219 81 223 219 60 241 235 95 225 216 79 202 184 58 206 185 70 185 161 55 193 154 53 210 187 59 224 224 74 237 234 71 234 218 79 213 205 44 229 216 78 
242 242 70 242 231 77 184 164 51 210 176 68 192 137 47 188 155 48 211 208 69 213 205 45 193 166 53 180 137 45 211 207 58 225 209 61 220 214 76 234 221 67 212 179 64 192 160 49 
231 235 80 240 237 82 233 224 67 168 138 48 205 180 61 241 238 81 232 233 80 215 200 71 179 136 42 188 134 62 208 163 72 211 207 56 213 200 72 212 201 57 178 144 46 211 205 69 
215 204 63 239 233 75 215 192 64 215 185 65 229 219 69 229 232 63 251 238 97 211 178 63 199 177 68 214 211 68 207 188 57 215 201 70 181 145 49 208 181 64 213 171 85 185 134 43 
219 200 71 210 205 62 204 175 81 214 178 58 218 205 64 211 203 68 199 174 58 210 182 59 191 140 57 238 225 69 249 234 83 177 136 46 200 178 59 229 216 60 229 242 75 211 181 67 
217 211 51 215 225 64 242 238 79 206 176 66 214 198 59 219 212 61 241 231 81 237 238 74 209 198 56 243 242 74 239 228 78 190 167 61 228 222 72 252 227 73 227 222 70 207 179 72 
227 214 74 230 233 82 227 220 78 215 183 82 190 157 60 196 177 48 243 233 86 211 205 65 188 166 44 222 215 73 249 231 87 212 206 66 234 218 81 223 217 71 212 203 66 214 203 62 
236 216 81 235 217 81 184 163 48 217 194 54 214 181 74 203 184 56 223 208 67 205 171 64 174 138 41 209 185 75 226 213 57 227 219 72 216 199 67 205 213 65 214 206 69 208 203 51 
212 201 59 189 165 57 213 201 57 211 205 57 229 218 77 208 211 58 204 199 56 188 139 62 217 201 64 184 132 57 219 207 61 209 200 61 232 242 67 243 232 78 217 195 57 211 209 74 
