P3
16 16
255
255 252 255 252 253 255 253 255 247 255 254 251 255 249 255 255 254 255 254 255 245 255 253 255 251 255 247 254 255 253 254 254 255 255 255 253 252 251 255 255 255 255 253 254 246 255 253 255 
246 250 251 254 255 255 252 255 255 251 255 255 251 254 255 249 251 246 254 255 248 247 255 253 253 252 248 255 252 255 255 253 254 253 252 247 255 255 248 253 253 251 255 255 250 252 253 247 
255 255 243 254 255 251 250 254 253 249 255 246 251 255 248 248 254 254 251 255 255 254 255 251 255 250 255 255 253 254 255 252 255 255 255 237 251 251 249 248 246 255 254 254 255 253 255 249 
255 245 255 252 251 255 255 255 246 255 250 247 255 252 255 251 255 255 251 253 252 255 248 255 252 254 240 255 254 255 255 255 255 244 242 255 254 255 255 255 255 255 252 250 255 255 255 251 
255 254 255 255 252 255 253 249 250 255 254 252 253 253 255 252 255 248 253 255 235 255 251 255 253 253 255 252 255 250 251 255 245 252 255 250 254 254 255 251 252 246 255 254 255 255 253 246 
242 255 232 255 255 253 255 250 255 252 255 255 249 255 255 253 255 247 255 255 244 249 249 255 255 254 253 255 251 255 255 255 244 255 255 248 255 252 255 250 250 248 255 254 255 255 254 251 
251 255 255 245 253 240 255 254 251 255 247 253 255 250 244 248 252 251 254 254 255 255 248 247 172 170 51 255 248 255 255 247 241 255 249 255 255 252 255 255 255 246 252 252 254 255 255 255 
255 247 255 247 255 255 253 253 243 177 137 50 193 165 56 251 255 253 249 253 255 208 182 61 217 201 64 179 162 54 255 245 255 169 175 41 255 249 250 255 254 255 253 255 250 252 255 255 
254 255 255 255 255 253 255 251 242 252 255 255 185 165 52 212 178 70 251 252 246 221 198 70 246 230 72 252 255 255 246 255 255 210 176 68 191 152 59 255 253 255 249 255 238 255 252 255 
255 255 243 195 156 63 185 165 53 252 253 255 219 168 63 208 202 56 255 255 251 204 185 64 241 234 68 206 179 74 249 255 251 209 175 49 208 187 70 255 252 249 187 163 57 243 255 253 
214 207 67 221 173 73 246 251 255 197 157 44 213 206 74 239 237 74 214 178 64 251 255 255 207 204 73 207 212 60 250 250 255 225 197 61 212 181 64 255 254 245 212 176 64 187 160 55 
207 171 61 235 241 69 251 255 243 245 255 246 198 178 57 244 236 75 253 251 255 212 174 73 214 204 70 255 246 255 205 185 62 232 230 70 201 183 75 255 251 255 210 201 64 219 178 62 
247 255 253 204 202 65 247 229 83 250 252 251 194 164 52 215 211 60 243 232 62 207 214 76 208 175 59 248 255 255 246 239 60 214 206 81 255 250 246 204 186 60 213 205 60 213 197 62 
186 156 66 255 249 252 215 205 55 207 179 80 255 253 255 220 198 61 207 207 61 206 171 55 254 255 241 206 166 52 203 204 66 206 181 63 255 248 255 199 213 55 236 236 76 216 177 82 
217 184 68 255 251 248 206 178 55 202 163 72 255 252 232 191 162 62 202 182 61 192 163 59 179 128 45 190 167 61 187 139 57 183 166 50 252 255 251 197 151 57 209 200 63 241 255 240 
249 254 255 223 201 66 190 164 54 171 136 46 186 164 52 254 255 255 197 151 55 190 162 53 176 140 52 187 136 55 191 152 51 205 182 44 199 155 66 255 252 254 191 165 55 255 253 251 
