P3
16 16
255
164 195 255 166 196 255 167 197 251 172 200 248 184 211 255 193 220 255 187 214 255 175 202 249 173 202 255 175 202 255 173 201 251 170 198 245 184 213 255 183 211 255 178 209 255 174 204 254 
163 193 255 168 198 255 172 202 255 176 204 252 180 207 254 183 210 255 180 207 254 174 200 249 171 201 253 169 199 251 171 199 249 173 201 249 179 207 255 175 202 255 168 198 252 166 195 251 
166 197 254 170 199 255 173 203 255 176 204 252 175 203 251 175 203 251 174 202 252 171 201 253 173 205 254 171 201 251 173 203 255 181 208 255 178 204 255 171 200 255 166 195 253 166 195 255 
173 202 255 171 201 255 172 199 252 173 201 251 175 203 253 173 203 255 172 202 255 170 201 255 168 199 253 166 197 251 170 199 255 177 206 255 170 196 255 168 197 255 167 196 252 168 197 253 
174 204 255 171 201 255 172 199 252 174 202 252 176 203 255 172 202 255 169 200 255 168 199 254 163 193 253 164 194 254 167 196 255 174 200 255 165 191 248 172 199 254 173 203 253 173 203 253 
168 197 253 170 200 254 173 203 255 176 203 255 175 202 255 169 199 253 166 197 251 166 197 252 165 195 255 168 196 255 170 199 255 174 201 255 173 201 251 179 207 255 181 209 255 180 208 255 
164 195 252 168 199 255 172 201 255 173 203 255 173 200 255 170 200 254 169 199 253 168 199 253 167 195 255 168 197 253 174 202 252 178 205 252 184 211 254 182 209 254 178 204 253 176 202 253 
164 196 255 167 198 255 168 197 253 168 197 253 172 199 254 173 203 255 174 204 255 172 202 254 171 200 255 171 201 253 178 207 251 184 212 252 197 222 255 185 209 255 177 200 252 172 197 254 
163 195 252 168 199 253 171 203 252 170 201 247 171 202 249 178 205 255 176 202 255 167 192 255 173 200 255 170 195 249 189 213 255 200 224 255 185 210 250 176 201 255 174 203 255 164 195 250 
170 201 255 172 202 255 173 203 253 178 209 255 174 205 252 171 201 253 166 195 251 167 196 254 166 192 253 187 214 255 199 225 255 190 214 255 179 202 254 171 199 246 166 198 249 165 196 255 
174 201 255 177 204 255 176 204 254 179 209 255 172 202 252 166 198 249 160 191 246 168 199 255 177 204 255 183 209 255 178 205 250 173 200 243 174 202 250 170 199 255 164 194 254 165 197 255 
180 204 250 184 211 255 178 206 254 177 207 255 168 199 253 169 200 255 164 196 253 170 202 255 182 210 255 174 201 254 175 203 253 178 207 251 170 200 250 167 195 255 170 200 255 173 204 255 
188 212 250 186 211 252 175 203 250 170 200 252 162 193 250 164 194 254 163 193 255 168 198 255 176 203 255 174 203 247 175 206 250 175 204 255 170 198 255 169 199 253 171 201 251 168 197 253 
203 229 255 186 214 254 178 206 254 174 204 255 169 199 255 165 195 255 170 199 255 175 204 255 177 205 255 174 205 252 168 198 248 167 196 252 172 201 255 172 199 254 173 199 248 184 208 254 
189 216 255 169 197 245 167 197 251 164 195 252 165 196 253 163 193 247 177 205 253 175 202 247 179 208 250 176 206 255 173 204 255 171 203 252 170 200 250 173 198 255 188 210 255 207 230 255 
178 205 255 163 192 248 170 200 255 165 195 255 170 201 255 178 206 255 198 223 255 188 212 246 176 206 255 168 199 245 170 202 249 167 198 255 165 194 252 188 212 255 202 225 255 190 209 242 
