P3
16 16
255
195 117 17 186 122 22 193 119 10 176 93 23 185 125 13 185 114 22 199 121 20 154 93 10 163 96 18 194 122 11 202 114 17 184 121 15 159 99 26 164 85 8 195 126 9 163 84 18 
233 142 25 239 140 39 226 143 39 182 122 8 201 115 38 237 140 33 229 150 23 203 110 14 163 97 19 237 147 35 223 144 26 192 125 21 171 98 19 226 146 33 229 144 27 151 97 7 
195 119 23 227 168 68 225 167 68 190 119 15 255 192 98 255 196 102 188 114 29 226 169 80 190 117 22 223 142 35 255 189 113 226 145 30 204 115 35 216 145 19 237 158 63 158 95 15 
156 89 19 216 144 26 227 164 69 199 123 13 255 197 93 254 217 84 255 197 116 223 171 62 203 124 19 255 200 95 255 194 98 255 187 89 217 145 25 199 126 24 229 160 82 200 113 33 
162 88 17 243 145 36 224 139 14 253 190 111 255 220 89 248 228 93 254 222 77 222 147 22 192 118 11 245 189 104 255 227 89 252 231 88 248 199 106 197 115 3 224 144 29 202 118 20 
160 89 9 214 149 29 232 145 32 255 196 108 248 230 94 252 254 144 255 255 158 226 141 34 200 114 39 255 203 102 247 250 137 255 255 168 250 224 65 191 119 17 238 147 30 220 145 26 
158 95 0 221 143 34 233 146 17 255 193 103 255 228 75 255 250 170 254 248 160 203 116 23 168 90 16 249 199 102 255 253 175 251 250 158 246 231 90 224 176 66 219 137 35 226 147 29 
160 91 13 230 135 45 238 146 23 223 162 79 245 255 154 255 250 152 237 141 29 180 128 19 155 106 11 225 167 83 255 222 72 253 255 153 246 253 157 255 219 98 237 164 72 226 147 18 
160 86 13 226 147 26 242 141 35 217 147 26 222 168 82 234 144 22 189 116 13 232 167 77 188 118 23 229 150 21 228 166 67 238 165 71 229 141 31 233 163 65 226 146 35 233 143 29 
162 96 12 228 149 31 220 137 19 255 197 107 232 147 28 252 197 96 204 114 26 225 141 19 255 188 106 190 113 23 196 119 13 251 195 108 230 144 35 251 194 87 226 144 44 221 148 17 
158 88 16 219 147 11 255 193 122 249 194 103 255 191 94 255 185 98 241 255 181 254 199 116 252 199 85 255 252 174 248 196 112 255 198 99 252 226 79 255 200 102 241 134 38 219 148 30 
168 88 15 223 148 23 255 191 100 252 224 78 254 228 92 250 255 166 255 247 156 255 254 151 255 255 170 245 253 154 255 255 164 253 251 151 253 226 75 255 221 78 252 225 86 233 148 19 
161 92 23 189 116 14 235 147 39 252 198 100 254 227 86 228 142 31 255 227 89 255 255 159 178 119 17 255 255 166 251 223 87 253 231 86 187 116 36 253 228 101 207 172 56 198 116 4 
160 82 8 199 124 23 214 145 15 228 163 71 219 143 45 216 153 14 217 169 61 229 144 28 170 88 14 233 136 39 237 136 22 216 171 54 129 59 8 227 147 34 222 135 29 166 100 22 
128 63 5 160 88 3 197 122 20 126 59 30 198 118 45 201 114 1 162 85 13 147 100 22 160 95 5 188 117 13 161 96 14 159 94 4 122 56 6 161 95 11 192 123 22 120 49 17 
128 59 26 156 88 15 163 98 8 119 55 7 168 91 1 203 118 25 151 96 5 165 86 17 118 58 21 165 96 5 163 85 21 117 61 26 131 62 5 154 97 10 174 80 16 121 70 7 
