P3
16 16
255
47 51 52 59 53 57 33 34 38 38 28 39 37 26 42 33 33 45 40 33 41 31 32 34 34 31 38 44 26 50 38 27 43 35 30 37 42 31 47 30 27 34 49 53 52 62 51 65 
57 58 60 23 17 21 10 12 11 20 13 20 59 49 60 28 27 35 56 44 54 56 54 57 30 37 30 51 45 55 17 17 19 13 20 13 18 18 20 11 18 11 11 25 10 51 51 53 
30 29 34 17 8 13 16 18 15 24 18 20 112 102 110 19 16 23 31 13 25 17 6 14 14 14 14 115 101 118 24 17 25 17 17 19 9 2 10 20 20 22 16 21 15 37 27 38 
38 35 46 40 29 37 45 47 46 112 106 108 110 100 108 24 16 29 185 162 180 206 188 204 18 11 18 126 104 125 104 90 105 57 52 58 46 34 48 15 10 16 18 18 18 38 24 41 
29 22 38 47 35 49 14 13 19 22 10 20 27 13 28 20 7 25 210 182 207 217 195 218 14 13 11 28 14 27 23 18 22 12 15 8 57 55 56 11 16 10 7 17 6 41 36 42 
41 34 50 54 40 57 16 10 22 187 169 185 208 186 209 202 184 210 220 189 220 217 194 220 210 197 207 188 164 188 140 126 139 19 15 16 104 97 105 19 19 21 11 16 12 37 26 40 
34 31 42 114 97 113 25 14 28 209 184 206 221 192 220 212 192 219 223 193 221 214 195 215 218 189 217 215 177 216 187 161 188 25 11 26 125 108 127 116 105 119 53 48 55 44 24 49 
31 28 35 122 106 117 21 7 20 148 120 143 192 159 188 219 196 222 216 188 211 214 197 213 218 197 216 219 188 220 210 191 210 17 10 17 18 8 19 14 14 16 29 35 31 37 29 42 
35 30 34 49 47 48 17 17 15 19 14 18 23 9 22 203 184 204 215 193 216 217 198 220 213 196 212 217 191 220 217 180 221 211 175 211 192 169 189 21 10 18 35 28 36 40 32 47 
41 32 51 36 35 43 10 16 14 19 24 20 15 10 14 217 200 218 220 194 223 214 183 217 215 197 213 216 190 217 212 178 213 194 163 194 142 124 140 22 12 20 42 35 43 29 21 36 
42 27 50 36 25 41 20 13 21 210 198 208 215 194 211 220 190 214 212 175 206 222 185 216 212 199 216 211 196 217 215 200 223 23 12 29 16 15 20 10 14 15 31 34 39 38 40 52 
26 34 37 30 33 40 24 18 32 206 191 214 213 190 219 189 169 194 19 9 20 14 14 14 192 158 183 220 190 214 188 163 185 27 9 23 112 99 106 119 108 112 57 45 55 40 26 43 
37 31 35 64 53 61 24 6 22 149 123 148 196 166 194 141 117 139 22 13 18 19 22 15 158 126 150 186 158 180 145 127 143 23 10 19 118 107 113 26 15 21 17 6 14 42 30 42 
40 29 43 107 102 109 15 15 17 12 13 15 15 14 19 18 19 24 14 17 22 5 14 13 22 9 26 19 13 25 16 19 26 8 16 19 49 54 57 12 17 20 15 20 23 27 35 37 
61 44 60 119 107 117 112 106 108 58 54 55 39 32 39 36 26 37 45 35 46 52 44 55 118 100 114 118 108 119 47 44 51 37 34 43 36 28 39 23 13 22 16 11 17 55 55 55 
51 52 54 54 54 56 32 27 33 40 28 42 45 28 47 40 25 44 31 23 34 37 37 39 41 27 40 37 30 38 36 33 40 30 24 36 42 31 45 42 30 42 56 51 55 52 54 51 
