P3
16 16
255
35 38 45 45 38 32 40 41 43 43 40 35 43 38 19 48 34 33 38 44 34 42 37 33 40 41 25 45 35 33 38 46 23 38 40 35 43 39 30 45 34 32 53 39 28 37 33 47 
43 46 27 95 54 22 124 73 56 148 95 63 145 96 66 111 85 58 122 81 59 141 96 63 153 93 69 150 92 72 133 94 61 134 77 57 134 96 75 108 85 53 97 68 34 35 40 18 
30 38 40 122 81 49 148 100 62 72 38 26 145 83 70 72 43 27 150 86 61 70 39 18 149 92 75 62 39 23 154 92 67 80 35 30 126 78 58 61 39 25 116 82 54 36 48 36 
45 36 37 145 98 68 57 35 12 155 93 72 88 55 40 66 38 16 92 57 38 153 87 71 79 53 30 74 37 18 90 55 33 129 84 65 103 56 50 70 38 15 152 88 79 39 36 27 
45 34 32 149 96 64 153 97 64 62 35 28 135 104 73 93 43 16 146 97 57 70 32 23 140 96 69 101 55 40 156 85 53 58 48 23 133 82 53 90 48 32 148 93 63 48 38 28 
51 42 33 113 77 51 87 43 42 70 46 20 94 53 31 152 91 72 91 56 37 62 52 27 90 58 35 145 77 68 95 59 33 62 43 11 76 44 29 115 85 59 142 97 78 39 36 27 
37 43 29 139 98 70 159 92 75 87 52 33 142 93 63 67 32 10 141 91 64 86 51 29 118 78 53 70 37 18 141 98 63 89 54 35 130 86 61 72 37 18 116 79 50 51 40 34 
49 34 31 117 81 57 59 48 20 151 89 66 99 51 29 64 45 31 89 52 36 160 89 67 94 51 35 69 43 26 79 56 24 154 85 78 91 49 35 62 41 20 85 61 37 38 41 34 
39 41 30 98 61 34 127 75 61 70 38 17 135 99 73 96 47 32 117 79 56 70 37 20 149 88 67 95 56 41 121 75 52 65 46 32 124 76 64 89 50 35 159 93 77 35 41 29 
45 42 37 107 76 48 85 58 39 65 44 23 88 50 27 143 91 78 96 58 37 60 44 21 91 55 23 135 95 70 85 54 25 60 40 13 96 50 35 106 83 52 117 88 58 43 39 27 
46 37 28 146 94 70 121 78 59 93 50 31 131 79 55 84 36 16 141 84 64 93 52 32 129 78 51 72 37 18 153 98 67 93 49 38 133 75 51 65 51 25 123 76 48 51 36 33 
31 39 28 127 85 60 69 41 20 117 81 65 84 48 22 62 41 14 93 48 25 119 87 66 87 52 32 68 41 20 84 52 31 128 79 62 79 53 38 60 41 11 95 62 45 36 38 35 
45 34 38 117 78 61 79 66 50 64 34 24 131 83 71 85 51 39 131 85 72 60 34 19 113 83 59 90 49 43 122 81 51 58 39 25 132 82 59 69 37 24 116 79 53 41 45 44 
46 39 31 89 60 30 58 43 20 69 43 26 68 32 10 108 86 63 66 36 12 67 40 19 68 44 16 122 81 63 70 46 20 66 36 12 67 45 24 122 78 53 94 58 34 34 40 26 
44 35 26 96 65 34 92 59 42 92 59 44 94 62 41 80 62 40 89 67 43 100 58 44 94 61 42 86 57 51 93 57 35 99 59 60 82 60 39 82 56 41 110 59 38 44 36 33 
35 38 47 37 40 19 40 43 36 35 35 33 48 37 31 47 42 39 28 36 25 47 42 39 35 42 24 45 35 33 42 44 31 48 33 36 37 42 35 36 47 30 38 40 18 40 38 41 
