P3
16 16
255
98 67 21 106 75 28 124 94 42 120 93 40 93 70 20 84 61 17 84 64 27 78 59 27 80 58 19 85 64 19 102 80 30 99 75 27 106 81 40 90 66 28 90 67 25 94 73 26 
86 73 31 92 77 36 84 69 30 69 54 15 71 56 17 84 70 33 83 69 32 66 53 18 88 73 34 86 71 30 87 72 33 69 53 20 61 45 19 60 46 20 74 63 31 59 51 12 
59 53 19 59 54 14 63 57 9 86 79 24 110 101 44 97 87 34 69 58 12 61 49 9 56 46 19 66 56 21 65 52 8 90 74 25 91 73 25 74 51 7 112 89 45 101 77 33 
106 79 32 104 77 32 95 66 26 95 65 27 109 80 40 115 84 38 115 85 35 123 93 39 91 69 20 87 64 20 90 68 29 79 56 24 82 61 32 79 60 27 80 65 26 93 79 34 
80 51 21 95 69 32 104 80 36 98 76 27 92 72 22 92 71 28 85 65 28 76 56 23 58 58 20 54 55 11 79 77 26 82 78 17 102 94 29 112 98 35 88 72 13 89 69 16 
90 75 20 83 67 16 81 68 23 80 68 28 72 63 24 74 67 23 86 80 32 92 86 34 89 70 27 75 57 19 63 46 16 66 49 23 64 49 20 65 50 17 72 58 23 56 42 7 
103 75 35 101 76 35 103 79 35 100 78 31 92 70 23 88 66 19 88 64 20 85 60 19 83 63 30 79 58 27 93 73 40 90 68 27 93 71 22 120 94 45 122 90 49 113 79 44 
64 53 21 62 51 19 60 49 19 59 48 18 62 49 17 68 52 18 83 65 27 101 82 40 101 83 33 85 68 24 72 57 16 74 59 18 79 65 18 78 65 13 78 61 15 90 71 29 
85 71 32 88 70 24 106 83 29 121 92 34 119 93 36 93 71 24 69 53 20 66 54 30 68 48 15 100 73 30 125 94 40 127 96 41 92 69 19 89 72 26 87 73 24 89 76 21 
64 53 25 70 55 22 74 56 16 87 66 19 108 88 35 116 101 42 94 84 23 82 76 14 56 49 20 70 57 22 82 65 22 77 59 21 78 62 36 65 50 31 58 43 22 63 45 21 
117 103 40 103 87 28 107 87 36 89 66 22 94 71 30 92 69 27 104 81 37 102 80 33 107 83 45 103 79 33 96 73 21 88 71 17 87 75 23 98 91 37 97 89 27 116 107 38 
82 74 27 64 55 12 61 53 14 64 56 20 56 46 11 64 51 16 72 57 18 79 62 19 73 60 18 86 73 29 71 56 13 82 66 30 63 44 12 75 51 23 102 73 41 106 74 36 
75 50 19 74 51 17 85 67 27 84 70 25 114 98 49 105 85 34 101 78 26 102 75 22 90 69 24 87 70 26 89 78 33 77 69 30 62 57 19 57 52 14 65 60 18 66 59 13 
95 81 32 77 65 13 84 78 20 101 96 38 78 73 17 84 76 27 86 73 29 85 67 29 78 64 27 66 57 18 60 52 13 68 59 20 84 69 28 93 72 29 87 65 18 100 80 30 
94 67 38 92 67 37 74 51 20 63 44 12 72 53 23 68 49 19 64 43 16 91 67 43 104 72 23 111 85 36 68 47 0 102 79 35 104 80 36 91 66 25 96 74 35 84 69 30 
90 68 18 103 83 33 99 80 37 88 73 30 65 52 10 80 67 23 76 64 16 79 67 17 92 72 35 82 67 28 85 71 32 87 72 29 83 62 17 81 58 14 80 63 19 75 63 21 
