P3
16 16
255
253 254 249 248 255 250 251 255 250 255 255 251 244 255 248 249 255 255 255 252 255 252 255 255 255 253 255 245 255 250 245 255 255 255 253 249 248 255 253 253 254 248 255 245 255 245 255 248 
255 253 255 255 250 255 255 251 255 255 252 255 255 255 255 70 117 47 42 109 16 255 255 248 55 72 20 255 252 250 255 255 253 255 254 253 254 241 255 251 255 255 255 252 255 247 255 255 
255 251 249 255 255 251 252 255 255 255 247 255 240 255 238 40 120 35 54 118 21 41 73 8 41 53 0 30 99 19 48 75 24 247 255 251 255 252 255 246 255 249 245 255 255 255 250 255 
255 253 255 238 255 248 247 255 250 254 255 255 255 243 248 49 46 1 50 82 9 42 57 24 52 46 12 62 140 28 58 124 36 59 105 41 255 255 245 233 255 239 255 250 255 255 249 253 
255 254 255 252 253 255 255 252 255 250 249 244 44 106 33 58 132 45 43 46 1 54 42 2 55 44 12 45 71 6 40 46 12 52 126 13 255 255 243 255 249 255 250 255 255 255 255 251 
247 255 250 254 253 255 255 252 246 255 255 248 253 255 254 38 81 10 51 128 14 50 67 22 37 75 24 44 52 5 255 252 255 39 70 13 255 253 254 251 255 255 255 250 255 248 255 255 
248 255 252 255 253 255 250 250 248 255 252 250 255 249 255 254 253 248 55 56 16 56 61 3 42 105 34 33 75 9 254 255 241 252 255 255 252 255 255 251 255 248 254 253 255 254 254 254 
255 251 250 253 251 255 244 255 241 47 98 32 36 81 12 43 48 8 54 63 20 53 105 30 67 129 28 49 40 7 54 72 10 245 255 255 255 250 255 255 254 253 255 253 255 255 255 248 
250 255 250 255 251 255 255 250 254 249 253 254 59 125 25 63 127 41 49 74 16 51 128 34 48 73 15 58 124 37 43 109 9 254 254 254 251 255 255 255 253 248 252 255 234 254 254 255 
250 254 255 252 255 255 248 255 247 252 255 255 42 115 26 248 255 241 42 98 25 56 69 0 45 51 3 42 83 15 44 49 26 50 47 2 248 255 255 255 250 255 254 255 253 248 252 255 
252 255 251 253 252 255 251 255 244 255 250 255 255 249 255 255 253 255 251 252 247 53 60 19 55 62 21 36 47 0 45 103 19 65 130 40 245 249 255 252 252 255 255 252 250 255 254 250 
255 251 252 255 254 255 252 255 244 253 251 255 254 255 253 255 255 251 52 72 9 34 106 30 66 58 21 46 79 10 255 251 248 43 75 0 249 255 255 252 250 255 250 251 255 254 252 253 
255 255 248 252 254 255 252 254 249 249 255 251 251 250 255 249 245 255 55 50 10 52 74 9 56 51 9 57 126 35 255 250 255 250 255 233 248 254 252 255 252 255 248 255 253 255 254 255 
251 255 247 255 250 255 255 250 255 248 252 255 254 254 252 50 117 11 58 123 21 40 66 5 44 55 12 36 107 13 33 72 15 244 255 255 253 255 250 255 255 248 250 255 243 255 254 248 
251 255 255 255 254 255 255 249 255 255 251 248 255 255 241 249 255 255 37 104 33 63 61 10 49 51 14 39 80 12 255 248 255 255 244 252 246 255 254 255 253 252 249 255 255 252 255 255 
254 254 255 251 255 251 250 255 254 235 255 255 255 248 255 44 77 22 55 42 10 33 36 9 19 34 3 51 43 4 37 75 16 252 255 243 251 255 255 254 255 250 255 250 254 255 254 252 
