P3
16 16
255
112 79 60 107 84 70 117 67 40 103 66 50 115 80 52 106 87 57 117 83 46 98 67 49 110 78 57 117 87 49 109 82 63 107 77 49 112 69 52 120 81 38 103 75 61 114 83 65 
111 79 40 153 113 62 183 135 87 182 136 103 177 130 100 182 136 103 189 127 90 188 127 108 185 125 91 191 134 91 177 127 90 183 142 114 176 123 89 182 139 96 162 118 73 100 69 40 
111 69 57 190 136 98 178 132 96 185 130 91 178 129 96 145 114 85 149 103 54 171 133 94 159 118 90 147 105 55 172 137 115 154 111 68 168 104 76 170 129 83 189 133 96 108 68 43 
114 67 49 145 110 82 181 129 79 177 132 99 178 122 87 248 255 255 157 119 82 255 255 244 253 249 238 156 118 79 247 255 248 183 129 95 180 134 98 179 126 92 150 114 88 115 68 48 
117 80 54 155 113 65 170 142 103 183 130 86 255 253 255 255 251 250 164 120 91 255 252 255 255 253 255 196 152 115 255 243 240 255 254 251 183 128 97 169 141 104 156 114 76 115 78 49 
119 76 59 157 112 79 188 140 100 255 251 252 244 255 255 249 251 248 203 150 98 252 255 255 252 255 255 182 125 82 251 255 250 247 254 255 254 255 249 186 133 101 158 116 74 120 78 54 
118 81 54 159 110 67 177 125 85 255 253 255 255 255 255 255 248 232 155 119 85 255 248 249 255 253 243 154 115 74 255 255 243 255 247 248 252 255 255 184 129 88 159 113 79 118 76 60 
107 81 54 181 138 96 190 138 99 183 143 118 189 136 94 191 148 103 172 136 102 200 146 120 195 144 113 180 136 111 187 149 110 197 134 103 182 149 118 192 135 92 174 136 91 109 81 60 
109 85 61 155 99 64 183 132 77 159 112 82 147 107 72 161 116 74 163 102 57 168 132 100 150 115 83 164 101 58 180 137 95 148 102 69 193 148 117 181 126 72 157 103 67 105 83 59 
113 81 56 160 116 79 166 121 88 156 114 74 247 254 255 247 255 251 158 109 77 255 255 246 255 254 248 153 108 77 251 251 249 244 255 255 185 135 98 170 132 96 165 117 81 106 79 52 
114 80 55 157 109 71 183 133 96 188 126 79 255 254 248 252 255 255 203 151 104 252 255 255 252 255 255 182 128 84 252 255 255 255 253 247 184 123 76 184 132 95 153 108 69 116 82 57 
115 78 51 168 114 68 179 133 100 172 120 83 150 116 79 255 248 244 169 134 94 253 252 255 246 247 252 178 138 102 255 250 246 148 107 75 178 132 96 177 126 95 163 112 65 118 78 52 
100 65 43 161 117 70 174 131 114 173 140 105 175 129 96 176 124 85 165 117 79 180 128 89 184 130 94 159 115 76 182 123 89 172 131 99 171 132 99 171 134 115 166 118 72 106 71 49 
110 79 58 145 109 77 197 139 99 173 125 85 190 145 112 199 149 112 173 133 98 181 126 85 180 122 84 171 130 98 190 140 105 195 152 118 184 135 95 187 132 91 150 114 82 110 78 57 
114 79 47 145 107 84 166 113 61 178 125 94 145 116 84 67 50 42 79 76 71 74 75 77 107 108 112 81 73 71 61 53 42 145 110 82 174 131 97 169 109 59 153 117 93 121 82 51 
115 80 48 117 81 55 99 75 49 117 82 50 120 76 49 110 80 42 102 69 52 103 81 57 95 68 47 102 70 55 115 81 44 117 82 54 119 82 53 96 76 49 106 66 41 117 81 49 
