P3
16 16
255
255 255 248 53 71 85 71 84 93 64 75 97 57 71 80 255 255 250 251 250 248 252 254 255 255 255 250 255 255 255 254 255 251 252 254 255 250 255 255 252 254 255 251 253 250 255 255 251 
253 253 255 149 83 35 136 62 63 131 62 31 149 81 58 255 242 255 247 255 255 255 254 244 252 251 247 255 255 255 254 255 253 73 75 88 64 69 75 64 66 81 254 255 255 251 251 249 
69 68 102 70 75 94 75 79 106 77 83 109 67 77 86 66 75 84 245 255 255 245 255 246 255 254 255 250 249 254 248 250 249 69 71 86 251 255 255 38 39 57 254 255 255 253 253 253 
131 63 26 184 101 35 233 132 60 228 131 63 198 93 35 135 59 36 255 253 250 255 253 255 255 255 253 250 249 254 254 255 255 66 68 83 247 252 255 39 40 58 254 255 255 253 253 253 
133 86 44 237 134 68 252 194 87 249 192 102 237 135 61 137 84 44 254 255 248 255 253 255 255 255 251 255 255 255 252 254 251 38 40 53 63 68 72 45 47 60 250 252 251 255 255 253 
146 81 43 246 189 108 255 248 215 247 255 140 244 190 102 135 82 50 255 251 248 254 255 255 255 255 250 253 253 253 254 255 251 249 251 255 251 255 255 248 250 255 254 255 253 254 255 250 
126 87 44 245 203 93 251 250 123 254 255 214 246 190 97 145 89 56 241 255 250 255 252 255 255 255 253 252 252 254 251 253 250 67 69 82 249 254 255 38 40 55 254 255 255 255 255 255 
134 62 38 241 127 67 249 193 116 239 200 79 240 133 63 128 63 33 252 255 255 255 253 247 252 250 251 255 254 255 253 254 255 41 42 60 65 69 78 40 41 61 254 255 255 253 253 255 
62 69 87 74 81 99 68 76 95 75 83 106 71 77 99 61 67 83 252 255 255 252 254 249 254 254 252 255 255 253 249 251 250 254 255 255 254 255 255 254 255 255 250 250 248 253 253 251 
56 61 80 65 72 90 66 73 92 67 73 95 62 67 89 65 68 83 246 247 251 255 255 251 255 255 255 247 247 249 254 255 255 250 251 255 253 254 255 254 255 255 253 253 255 255 255 255 
64 71 89 64 71 89 70 77 96 70 76 98 71 76 96 67 69 84 255 254 255 254 253 248 253 253 253 254 255 255 253 253 255 76 79 88 65 68 77 67 67 75 254 255 255 251 251 251 
64 72 93 69 77 98 77 85 106 75 83 104 74 80 102 65 68 83 254 255 255 252 252 250 255 255 253 250 251 253 254 254 255 67 69 81 251 253 255 41 41 49 254 255 255 254 254 252 
66 77 97 73 84 104 67 78 98 67 78 100 68 76 97 73 79 95 247 250 255 254 255 255 247 248 242 254 255 253 254 255 255 252 255 255 252 255 255 254 255 255 251 253 250 255 255 250 
59 66 84 66 75 92 69 78 95 74 82 101 66 74 93 59 65 81 252 255 255 253 254 255 255 255 251 252 252 250 254 255 255 252 253 255 254 255 255 251 253 252 253 253 251 255 255 251 
64 66 78 66 70 81 72 76 87 69 75 87 64 67 82 67 69 81 247 248 252 255 255 253 254 252 253 255 254 255 254 254 254 255 255 255 253 253 253 254 254 254 255 254 255 255 254 255 
255 253 255 254 253 255 252 253 255 253 253 255 253 253 255 255 254 255 255 254 255 255 255 250 255 254 255 255 254 255 255 254 255 248 248 246 255 255 253 255 254 255 255 254 255 254 252 255 
