P3
16 16
255
146 145 140 134 119 138 118 129 123 142 145 150 126 135 118 119 115 106 118 110 123 126 131 135 112 120 123 105 105 93 106 119 128 114 116 113 135 119 129 146 137 154 147 143 142 139 144 147 
121 132 118 136 126 124 99 100 102 104 88 101 86 88 75 102 104 119 116 120 132 151 138 132 142 140 141 131 120 126 127 132 128 106 108 97 91 93 92 88 102 89 122 123 125 113 119 117 
121 126 120 114 123 118 17 91 180 22 86 158 36 98 197 9 70 137 107 100 94 91 89 76 112 91 98 108 109 111 117 119 118 140 150 141 15 54 191 25 64 139 137 123 120 132 125 119 
143 142 150 130 120 129 151 138 155 165 161 150 147 135 137 11 71 181 119 116 125 22 70 152 56 111 204 151 152 154 126 126 126 124 119 126 171 159 143 131 147 146 104 122 124 127 109 133 
120 124 109 123 122 127 125 129 130 130 116 115 111 115 101 95 87 110 91 97 95 111 109 110 143 143 135 134 125 126 85 88 93 99 96 107 146 144 157 110 120 112 129 130 122 118 130 116 
125 123 134 141 147 147 135 124 120 103 104 109 89 94 87 25 83 190 10 70 166 133 130 121 133 130 137 102 108 96 35 90 144 11 48 191 118 115 126 114 100 97 119 115 112 147 139 152 
122 114 125 138 121 137 72 96 80 17 54 194 68 112 235 105 152 242 70 107 222 29 65 143 132 140 143 130 124 138 65 114 209 102 157 237 147 144 137 145 139 149 114 129 134 130 131 123 
110 120 111 15 70 160 74 110 232 169 159 157 156 160 163 168 157 161 137 150 141 93 91 96 108 107 112 106 100 100 122 128 128 162 160 171 118 115 108 140 145 139 150 146 145 121 126 130 
137 143 141 74 109 213 104 147 251 165 163 164 137 148 134 141 118 138 110 104 106 8 75 156 95 94 90 17 85 186 30 70 142 16 66 125 126 128 127 88 98 97 98 87 91 122 113 118 
129 135 125 159 157 162 155 167 165 130 126 114 107 104 113 116 131 124 108 96 106 20 66 178 18 83 203 62 116 225 76 109 240 20 68 144 104 107 96 15 63 165 102 103 105 95 111 101 
103 96 112 134 128 130 109 101 99 105 98 105 11 69 168 117 119 108 109 121 117 99 100 120 24 53 193 61 104 209 104 156 231 138 138 150 129 110 114 67 113 233 23 98 140 130 130 128 
124 131 115 128 128 136 24 67 135 14 58 163 27 47 160 116 128 118 123 129 125 143 146 139 159 159 147 167 166 172 156 138 138 124 128 127 141 146 149 107 144 250 56 118 217 138 119 115 
132 131 129 111 105 115 160 162 148 166 166 168 138 139 131 26 48 167 120 102 102 107 96 104 22 70 155 57 114 201 68 109 217 103 112 95 157 159 158 15 59 182 66 114 216 151 137 154 
139 144 150 138 143 136 135 139 140 106 107 127 72 115 217 114 148 238 10 90 185 123 131 133 66 113 227 99 148 241 11 55 206 169 151 167 132 109 125 164 162 167 153 166 148 128 124 141 
120 123 130 111 123 113 120 109 107 124 121 128 21 83 196 68 116 227 16 69 149 160 161 153 133 120 138 163 167 153 170 160 161 119 135 135 109 110 102 105 124 118 111 118 111 127 130 119 
135 127 125 127 126 134 132 126 112 133 128 134 141 145 146 161 164 157 166 155 163 136 125 123 127 128 123 131 128 123 123 125 124 117 127 128 141 129 131 134 117 125 144 142 143 140 144 145 
