P3
16 16
255
255 255 255 252 252 252 126 126 126 139 139 139 135 135 135 164 164 164 138 138 138 126 126 126 167 165 168 139 137 140 122 122 122 166 168 165 137 139 136 128 130 127 255 255 255 252 252 252 
255 255 255 125 125 125 142 142 142 124 124 124 112 112 112 129 129 129 161 161 161 162 162 162 141 139 142 110 108 111 162 162 162 108 110 107 125 127 124 130 132 129 112 112 112 255 255 255 
253 253 253 112 112 112 120 120 120 252 252 252 126 126 126 121 121 121 123 123 123 255 255 255 157 155 158 170 168 171 140 140 140 125 127 124 107 109 106 114 116 113 122 122 122 252 252 252 
249 249 249 255 255 255 111 111 111 84 84 84 144 144 144 161 161 161 125 125 125 137 137 137 146 144 147 130 128 131 108 108 108 125 127 124 157 159 156 158 160 157 146 146 146 109 109 109 
255 255 255 81 81 81 136 136 136 141 141 141 99 99 99 145 145 145 163 163 163 160 160 160 164 162 165 114 112 115 167 167 167 167 169 166 126 128 125 105 107 104 107 107 107 138 138 138 
126 126 126 142 142 142 105 105 105 111 111 111 255 255 255 121 121 121 125 125 125 144 144 144 136 134 137 161 159 162 112 112 112 72 74 71 128 130 127 141 143 140 107 107 107 255 255 255 
254 254 254 106 106 106 133 133 133 79 79 79 124 124 124 110 110 110 251 251 251 122 122 122 166 164 167 87 85 88 112 112 112 254 255 253 124 126 123 119 121 118 255 255 255 255 255 255 
254 254 254 255 255 255 121 121 121 143 143 143 139 139 139 161 161 161 126 126 126 255 255 255 139 137 140 126 124 127 252 252 252 125 127 124 138 140 137 162 164 161 138 138 138 255 255 255 
253 253 253 255 255 255 254 254 254 110 110 110 123 123 123 108 108 108 167 167 167 125 125 125 141 139 142 140 140 140 128 128 128 160 160 160 164 164 164 124 124 124 255 255 255 251 253 250 
255 255 255 255 255 255 248 248 248 255 255 255 255 255 255 139 139 139 138 138 138 160 160 160 121 119 122 166 166 166 132 132 132 132 132 132 126 126 126 252 252 252 252 252 252 254 255 253 
255 255 255 253 253 253 85 85 85 108 108 108 84 84 84 109 109 109 121 121 121 170 170 170 142 140 143 139 139 139 255 255 255 125 125 125 109 109 109 126 126 126 107 107 107 252 254 251 
252 252 252 141 141 141 143 143 143 137 137 137 142 142 142 162 162 162 110 110 110 121 121 121 160 158 161 144 144 144 137 137 137 161 161 161 166 166 166 140 140 140 136 136 136 140 142 139 
255 255 255 254 254 254 253 253 253 89 89 89 103 103 103 90 90 90 166 166 166 125 125 125 143 141 144 134 134 134 161 161 161 140 140 140 105 105 105 122 122 122 115 115 115 251 253 250 
255 255 255 254 254 254 255 255 255 255 255 255 255 255 255 120 120 120 168 168 168 132 132 132 166 164 167 162 162 162 127 127 127 143 143 143 250 250 250 255 255 255 252 252 252 254 255 253 
252 252 252 255 255 255 254 254 254 251 251 251 255 255 255 255 255 255 134 134 134 168 168 168 136 134 137 127 127 127 122 122 122 254 254 254 255 255 255 254 254 254 254 254 254 253 255 252 
255 255 255 254 254 254 255 255 255 255 255 255 253 253 253 255 255 255 253 253 253 139 139 139 126 124 127 111 111 111 254 254 254 255 255 255 253 253 253 254 254 254 255 255 255 254 255 253 
