P3
16 16
255
255 255 255 255 255 255 254 254 254 254 254 254 254 254 254 255 255 255 251 251 251 255 255 255 255 255 255 253 253 253 255 255 255 255 255 255 251 251 251 255 255 255 255 255 255 255 255 255 
255 255 255 250 250 250 255 255 255 253 253 253 255 255 255 251 251 251 255 255 255 252 252 252 255 255 255 255 255 255 252 252 252 255 255 255 255 255 255 255 255 255 255 255 255 252 252 252 
255 255 255 254 254 254 255 255 255 255 255 255 255 255 255 252 252 252 250 250 250 255 255 255 253 253 253 255 255 255 255 255 255 251 251 251 255 255 255 254 254 254 249 249 249 255 255 255 
251 251 251 255 255 255 254 254 254 252 252 252 255 255 255 255 255 255 253 253 253 252 252 252 255 255 255 252 252 252 255 255 255 252 252 252 255 255 255 255 255 255 255 255 255 255 255 255 
255 255 255 251 251 251 255 255 255 119 119 119 90 90 90 253 253 253 255 255 255 255 255 255 255 255 255 254 254 254 254 254 254 255 255 255 255 255 255 247 247 247 255 255 255 249 249 249 
247 247 247 255 255 255 116 116 116 146 146 146 145 145 145 117 117 117 255 255 255 252 252 252 255 255 255 255 255 255 251 251 251 90 90 90 114 114 114 255 255 255 254 254 254 255 255 255 
255 255 255 250 250 250 255 255 255 94 94 94 113 113 113 151 151 151 92 92 92 255 255 255 254 254 254 253 253 253 121 121 121 147 147 147 146 146 146 109 109 109 255 255 255 251 251 251 
255 255 255 255 255 255 251 251 251 253 253 253 97 97 97 111 111 111 146 146 146 118 118 118 255 255 255 89 89 89 172 172 172 91 91 91 91 91 91 255 255 255 252 252 252 255 255 255 
255 254 255 252 252 252 255 255 255 91 93 90 116 118 115 93 93 93 167 167 167 121 119 122 117 117 117 171 171 171 92 92 92 91 91 91 255 255 255 254 254 254 255 255 255 252 252 252 
255 254 255 255 255 255 114 114 114 146 148 145 167 169 166 117 117 117 122 122 122 142 140 143 122 122 122 170 170 170 113 113 113 94 94 94 255 255 255 255 255 255 250 250 250 255 255 255 
255 254 255 90 90 90 145 145 145 93 95 92 112 114 111 167 167 167 121 121 121 168 166 169 112 112 112 91 91 91 173 173 173 151 151 151 116 116 116 251 251 251 255 255 255 255 255 255 
251 249 252 255 255 255 86 86 86 253 255 252 254 255 253 118 118 118 171 171 171 147 145 148 146 146 146 171 171 171 118 118 118 85 85 85 255 255 255 255 255 255 254 254 254 252 252 252 
255 254 255 255 255 255 255 255 255 254 255 253 114 116 113 92 92 92 113 113 113 171 169 172 120 120 120 87 87 87 116 116 116 120 120 120 253 253 253 255 255 255 254 254 254 255 255 255 
247 245 248 255 255 255 255 255 255 114 116 113 144 146 143 175 175 175 115 115 115 145 143 146 168 168 168 118 118 118 177 177 177 141 141 141 118 118 118 253 253 253 255 255 255 250 250 250 
255 254 255 255 255 255 109 109 109 145 147 144 117 119 116 90 90 90 172 172 172 175 173 176 147 147 147 170 170 170 112 112 112 97 97 97 146 146 146 115 115 115 255 255 255 255 255 255 
255 253 255 253 253 253 117 117 117 93 95 92 112 114 111 118 118 118 252 252 252 147 145 148 148 148 148 112 112 112 121 121 121 110 110 110 117 117 117 117 117 117 252 252 252 255 255 255 
