P3
16 16
255
200 66 15 204 92 18 221 140 49 211 71 9 218 123 43 203 124 32 216 92 20 212 93 35 198 62 12 205 93 19 225 141 51 210 71 6 214 121 41 205 126 31 218 96 21 208 93 30 
199 67 3 204 82 7 227 130 49 200 86 23 207 93 30 214 98 23 205 85 7 203 95 22 197 65 1 204 80 6 224 127 48 200 86 23 211 97 34 210 97 19 198 81 1 205 97 22 
220 104 31 199 75 1 195 71 1 193 78 13 213 63 10 189 52 0 220 118 34 208 102 24 213 96 26 206 82 10 198 74 4 187 72 7 215 65 12 194 57 0 219 117 33 207 101 23 
201 81 18 211 94 24 217 105 29 219 129 43 201 79 2 224 129 45 234 141 61 197 67 5 201 81 20 213 96 27 217 104 28 218 128 42 205 83 8 224 129 45 231 138 60 200 70 10 
199 71 10 198 74 10 203 85 13 225 120 37 211 90 11 214 117 36 210 91 23 189 64 0 201 73 12 194 70 6 201 83 11 228 123 40 210 88 11 213 116 37 210 91 25 189 61 0 
217 104 26 202 80 13 205 77 16 192 69 1 212 83 17 203 69 8 199 66 1 217 132 42 218 105 27 199 77 10 207 79 18 194 71 4 206 77 12 205 71 10 206 72 9 211 125 38 
201 84 7 215 103 37 192 83 18 207 116 37 209 124 43 189 61 0 191 76 9 225 135 47 207 92 12 210 99 30 189 80 13 213 122 43 212 127 46 188 59 1 194 77 10 228 136 49 
209 69 10 196 69 14 202 63 6 218 99 19 227 129 42 214 74 15 184 72 9 208 68 7 209 71 9 196 72 12 199 63 3 216 97 15 228 130 41 216 76 17 185 71 9 209 66 6 
200 79 8 214 89 22 206 98 26 199 70 5 208 95 25 211 86 19 206 90 17 200 87 11 199 73 12 211 90 17 210 96 23 204 65 10 204 95 30 211 89 14 212 90 13 201 87 16 
195 64 8 203 81 16 238 154 68 209 92 13 218 129 39 217 122 40 214 85 20 209 96 30 185 66 10 203 82 13 236 157 65 201 94 16 217 128 44 212 127 36 207 91 16 209 95 33 
211 90 21 207 84 16 190 88 13 212 70 6 205 76 8 182 70 0 209 88 17 208 98 23 207 90 23 214 83 13 194 88 10 211 71 10 209 73 11 183 72 0 206 90 13 212 94 24 
209 98 19 204 90 17 201 95 21 206 95 26 206 72 9 204 87 17 214 132 46 211 94 15 213 95 21 206 90 15 208 91 21 214 90 26 206 72 11 205 87 15 223 128 44 214 90 16 
207 68 13 204 81 14 208 105 26 214 137 45 204 98 14 246 136 57 209 113 36 206 61 6 205 69 11 197 82 15 208 105 28 217 138 45 198 102 15 240 139 59 210 112 37 203 63 4 
216 88 25 199 77 10 199 74 7 203 87 14 210 86 14 197 79 7 204 77 10 200 87 17 212 91 22 201 76 12 198 73 7 200 89 10 213 87 13 196 79 10 200 78 13 204 86 16 
201 104 23 201 101 25 212 78 17 212 88 28 209 85 23 188 66 1 201 78 8 219 144 53 204 108 21 208 97 28 215 74 20 212 87 21 215 83 19 189 63 4 200 78 13 226 141 50 
208 67 13 199 77 14 207 63 2 205 128 40 231 136 54 202 69 4 206 74 12 215 89 28 209 73 11 193 81 18 206 61 6 207 128 36 222 141 50 194 70 8 205 72 16 210 91 23 
