P3
16 16
255
201 62 3 216 67 11 204 64 3 203 65 0 215 91 19 213 100 24 207 75 10 216 80 20 199 71 10 211 65 8 213 67 7 220 111 26 235 163 55 221 149 41 227 129 38 205 84 11 
198 64 1 215 115 40 230 130 54 203 81 8 210 80 5 217 102 21 222 111 30 203 69 0 197 60 5 209 57 7 207 60 8 206 89 20 222 130 45 213 114 29 230 109 36 216 80 18 
207 72 6 208 113 33 234 126 51 213 86 15 217 85 11 220 110 25 233 153 56 225 126 33 211 84 15 207 63 3 207 57 6 209 70 15 214 82 20 198 63 0 216 77 12 204 69 5 
223 110 30 206 80 4 210 72 0 207 68 1 216 83 14 209 89 13 215 119 32 224 148 50 232 161 57 217 122 32 199 81 9 201 71 9 208 72 12 200 67 2 215 102 22 227 140 47 
232 145 52 217 92 12 211 102 19 207 85 12 213 79 18 205 69 11 215 64 7 209 103 25 242 178 70 240 153 58 207 97 20 199 71 8 207 66 12 206 66 7 205 92 14 234 154 59 
217 106 25 214 104 19 232 175 72 217 120 39 205 70 12 194 58 6 219 51 6 200 68 4 214 103 22 219 97 22 217 85 20 211 74 19 204 53 6 212 54 9 211 66 9 221 99 26 
216 72 11 215 102 24 241 182 80 230 125 42 209 69 10 194 69 11 215 70 15 207 78 12 215 94 23 212 85 14 223 96 25 213 92 23 201 73 12 205 66 11 207 71 11 209 86 16 
208 63 10 205 87 15 213 119 29 215 82 7 209 56 0 208 80 17 205 76 11 210 83 12 210 97 21 215 92 14 218 91 10 202 81 0 222 100 25 210 81 13 201 77 5 226 115 34 
202 72 12 203 67 5 204 62 0 210 65 12 206 65 19 202 71 19 198 73 6 215 93 10 208 95 15 221 128 48 210 91 23 215 86 20 201 81 5 222 127 37 226 151 50 220 112 22 
201 62 7 203 76 9 211 96 16 208 91 14 202 74 9 206 71 13 207 80 13 224 107 30 226 123 28 225 119 31 218 92 18 209 74 10 203 70 5 201 74 7 209 88 19 202 66 4 
208 63 10 216 100 27 235 147 50 225 132 36 208 92 9 202 67 1 205 73 9 218 101 32 224 121 28 215 90 10 208 75 6 201 61 0 208 69 10 206 67 10 214 64 13 202 58 8 
212 73 14 208 95 19 219 128 35 219 124 30 219 98 19 211 72 7 206 72 9 198 76 11 199 78 9 206 63 5 200 65 9 200 61 6 197 65 3 209 88 19 205 70 6 197 72 6 
204 77 8 207 86 13 211 95 20 214 91 21 208 74 11 197 57 0 213 80 15 215 88 21 212 77 22 211 65 16 196 62 9 206 65 11 213 84 19 235 125 48 212 88 16 195 71 0 
212 90 17 210 78 13 205 64 8 209 64 11 207 66 12 202 66 6 218 87 19 222 95 24 202 66 4 204 63 7 201 65 7 202 62 3 202 69 4 211 88 20 208 72 10 215 70 13 
201 69 4 203 64 5 207 62 9 206 61 8 202 66 8 208 79 13 210 86 14 222 100 27 205 76 8 204 69 5 205 61 1 201 74 7 203 82 11 205 72 5 202 64 2 209 64 9 
209 68 12 200 59 3 202 63 6 197 63 2 206 77 9 223 101 26 199 81 7 204 88 15 200 77 10 211 72 13 217 66 11 218 107 35 219 118 36 224 92 18 204 77 6 200 75 8 
