P3
16 16
255
66 49 19 62 46 13 60 43 13 63 46 20 63 46 20 60 43 13 62 46 13 66 49 19 103 83 48 97 77 42 105 83 46 105 83 46 101 77 39 105 83 46 103 81 44 103 83 48 
67 50 40 55 42 10 61 49 11 59 45 19 59 45 19 61 49 11 55 42 10 67 50 40 103 81 44 103 81 44 100 76 38 107 83 45 104 80 42 102 78 40 103 81 44 101 79 42 
67 45 31 62 43 10 65 47 9 63 43 16 63 43 16 65 47 9 62 43 10 67 45 31 120 97 56 106 83 42 123 98 58 120 95 54 119 94 53 128 103 63 104 81 40 124 100 62 
100 82 46 68 51 23 65 47 25 67 49 25 67 49 25 65 47 25 68 51 23 100 82 46 123 96 53 112 85 42 124 95 53 129 100 56 128 99 55 121 94 51 105 77 37 126 101 60 
99 85 46 62 47 24 68 52 36 59 47 25 59 47 25 68 52 36 62 47 24 99 85 46 146 115 69 130 99 53 146 115 68 150 118 71 145 114 67 128 97 51 111 82 38 141 112 68 
124 94 58 109 79 41 104 76 37 108 82 45 108 82 45 104 76 37 109 79 41 124 94 58 152 118 70 128 94 46 161 128 77 150 117 66 147 113 65 132 100 51 112 81 34 147 116 70 
133 96 51 150 116 71 152 119 76 143 112 68 143 112 68 152 119 76 150 116 71 133 96 51 164 128 76 154 118 66 175 139 87 168 132 80 169 133 81 142 109 58 149 117 68 162 130 81 
138 121 65 65 45 18 67 48 31 66 51 22 66 51 22 67 48 31 65 45 18 138 121 65 167 130 77 152 115 62 186 149 96 163 126 73 167 130 77 152 116 64 153 120 69 161 129 80 
166 149 80 147 13 14 115 50 8 118 50 1 119 143 29 98 110 8 53 54 23 148 120 57 178 142 82 166 129 76 185 148 93 180 142 79 178 140 77 184 145 90 168 127 73 182 142 80 
159 106 66 213 202 34 178 116 57 183 118 50 112 135 5 108 113 21 60 94 183 183 139 76 177 141 81 169 132 79 194 157 104 182 144 81 176 138 75 180 141 86 165 126 71 182 144 82 
184 136 87 188 16 16 112 49 5 104 52 5 114 141 12 58 87 7 51 96 161 177 147 77 178 142 82 168 131 79 199 162 109 181 146 82 180 142 79 179 139 87 156 116 64 167 129 67 
179 148 65 154 13 29 98 37 9 68 30 9 90 121 17 78 84 22 53 81 128 150 108 66 179 143 83 163 126 74 195 158 105 177 141 79 180 144 82 180 143 90 162 125 73 178 142 82 
149 117 60 194 157 104 195 162 111 187 151 93 197 149 111 188 169 101 172 143 99 147 117 65 170 134 76 157 120 68 191 154 102 177 141 81 175 139 79 169 132 80 156 118 69 178 142 84 
179 136 93 179 147 74 185 140 83 137 115 55 194 138 87 181 133 84 147 118 60 182 143 88 176 140 82 163 125 76 186 149 97 172 138 77 168 134 73 161 125 75 149 113 63 168 133 77 
144 118 61 95 72 31 88 72 49 101 82 39 86 81 25 94 80 35 94 68 41 157 112 55 169 133 75 157 119 70 163 127 77 152 118 57 151 116 58 155 119 69 150 116 68 164 132 75 
165 137 72 102 67 35 69 43 42 60 49 31 63 48 9 68 44 44 102 73 39 155 136 77 163 127 69 167 131 81 179 143 93 173 138 80 166 131 73 166 132 84 160 126 78 166 133 79 
