P3
16 16
255
191 158 107 196 160 108 191 156 102 196 159 106 196 159 106 197 162 108 194 158 106 190 157 106 196 159 107 192 155 103 195 158 106 199 162 110 195 158 106 189 152 100 198 161 109 194 157 105 
177 145 86 174 140 79 180 146 85 180 144 82 165 129 67 170 136 75 168 134 73 165 133 74 175 140 82 181 146 88 176 141 83 165 130 72 167 132 74 183 148 90 174 139 81 180 145 87 
193 157 109 136 100 50 147 111 61 152 114 65 156 118 69 151 115 65 151 115 65 150 114 66 152 116 68 149 113 65 152 116 68 150 114 66 151 115 67 150 114 66 133 97 49 189 153 105 
195 160 104 152 117 61 180 145 87 175 140 82 180 145 87 185 150 92 179 144 88 176 141 85 188 153 97 183 148 92 184 149 93 177 142 86 183 148 92 182 147 91 152 117 61 199 164 108 
172 137 79 153 118 60 179 144 88 170 135 79 165 130 74 173 138 82 161 126 68 167 132 74 163 128 72 170 135 79 166 131 75 167 132 76 163 128 72 181 146 90 150 115 59 174 139 83 
179 141 92 151 115 65 180 144 94 166 130 82 193 157 109 184 148 98 191 155 105 195 157 108 190 152 103 192 154 105 180 142 93 198 160 111 168 130 81 183 145 96 150 112 63 178 140 91 
175 139 77 156 122 61 189 155 94 160 128 69 192 160 101 169 135 74 186 152 91 168 132 70 182 146 84 180 144 82 170 134 72 180 144 82 161 125 63 184 148 86 150 114 52 166 130 68 
179 142 89 150 115 61 162 126 74 167 134 83 182 149 98 164 128 76 176 141 87 166 129 76 181 142 87 178 139 84 186 147 92 178 139 84 169 130 75 178 139 84 156 117 62 179 140 85 
168 127 81 156 118 71 184 146 97 166 129 77 183 146 93 183 144 87 183 143 82 170 129 67 185 147 84 182 144 82 188 150 88 185 146 87 172 133 76 178 139 84 158 118 66 179 139 87 
176 142 81 151 116 58 186 151 93 165 133 74 189 154 96 172 137 79 181 145 85 167 131 71 187 152 98 177 142 88 178 143 89 184 149 95 162 127 71 179 144 88 150 115 59 175 140 84 
169 135 72 144 112 51 178 148 88 162 131 74 176 145 90 169 138 84 185 154 100 172 139 86 183 150 105 181 149 102 162 130 81 183 151 100 166 133 80 164 132 75 151 119 60 165 133 74 
176 140 88 152 116 64 162 129 78 150 118 69 130 98 51 131 99 52 140 108 61 134 102 55 128 96 49 126 94 45 151 119 70 129 97 46 146 113 60 174 141 87 151 116 60 176 141 85 
173 133 84 151 113 64 167 131 81 194 158 108 178 145 94 184 151 98 189 154 100 196 161 107 179 147 90 196 161 105 191 156 100 181 146 90 197 162 108 167 130 77 158 121 68 165 128 75 
167 128 73 154 115 60 164 128 70 184 148 90 180 144 84 182 147 83 179 144 78 179 142 74 180 144 82 181 145 83 179 143 83 179 143 85 190 153 98 162 125 72 147 110 58 169 132 80 
174 138 80 175 139 81 174 139 81 166 131 73 166 132 71 176 140 80 179 143 81 178 140 77 181 142 85 178 139 82 183 147 89 159 122 67 162 127 71 185 150 96 169 134 80 177 141 89 
167 134 81 186 153 100 194 161 110 193 159 111 191 157 109 195 159 111 194 156 109 197 159 110 194 157 105 193 156 104 196 159 107 198 163 109 193 160 106 191 158 104 187 156 101 164 133 78 
