P3
16 16
255
47 158 203 49 161 211 42 153 208 41 156 203 54 172 210 74 190 227 46 161 206 46 160 214 69 184 229 73 188 235 28 140 190 45 155 206 60 170 219 64 174 223 41 153 201 37 149 199 
61 176 220 70 187 230 71 189 227 79 199 236 76 196 233 66 185 225 56 173 216 52 169 213 38 155 208 29 145 194 51 166 211 55 170 217 32 143 198 38 151 207 44 158 210 54 171 215 
70 191 220 73 193 230 54 175 218 52 174 213 74 198 226 76 197 224 61 181 218 51 167 218 64 187 218 74 194 231 70 189 232 65 183 223 74 193 227 74 193 223 78 196 232 65 184 226 
61 179 225 48 168 205 66 187 216 71 192 223 54 173 215 47 163 212 52 169 213 79 195 236 43 160 204 57 176 210 68 188 215 80 199 229 65 183 221 42 159 202 78 196 232 70 190 217 
66 182 223 51 167 214 44 160 211 58 174 221 71 189 229 75 191 232 37 149 199 30 140 201 45 160 207 61 174 230 47 160 220 32 146 200 72 187 232 76 192 233 39 153 203 36 149 207 
37 147 206 33 148 195 48 164 201 75 191 232 43 157 209 27 140 200 37 148 203 54 165 211 45 153 215 30 141 194 57 170 214 49 164 208 34 148 198 43 157 211 38 152 202 52 164 210 
77 192 237 78 193 238 71 189 229 72 190 230 58 176 216 58 175 218 59 176 220 60 175 222 79 192 232 76 192 233 66 184 224 59 177 213 73 194 223 81 200 230 70 189 223 64 180 221 
50 165 210 49 167 203 76 197 224 74 198 226 62 185 219 68 190 231 70 192 229 74 195 226 36 152 199 49 166 209 67 187 224 68 191 225 68 191 225 60 182 219 71 191 228 75 195 232 
61 188 221 72 189 233 35 144 200 46 156 207 78 197 237 58 181 215 46 163 206 53 163 216 47 162 207 51 168 212 48 164 211 32 148 195 57 173 220 58 173 220 36 151 198 39 151 201 
46 164 214 51 170 212 52 172 209 72 190 230 34 148 198 33 144 197 54 170 217 66 185 225 45 160 207 64 182 222 82 200 236 73 191 227 56 174 212 70 186 225 79 196 231 83 198 229 
80 193 233 75 195 232 58 185 218 66 189 223 81 193 233 78 187 228 66 182 221 60 184 218 77 194 227 74 192 232 47 163 210 64 180 227 71 188 231 58 176 216 35 149 199 62 172 231 
39 150 205 41 159 199 64 188 216 61 181 215 53 165 215 57 168 223 75 190 234 66 190 218 39 153 215 41 156 210 47 164 208 65 184 227 27 143 194 27 143 194 54 169 213 66 183 216 
47 166 208 49 162 218 31 140 207 37 150 210 68 187 230 74 196 233 36 152 199 27 137 200 57 178 199 73 192 224 59 178 218 69 188 228 79 199 233 82 201 235 63 178 222 31 145 199 
69 191 230 67 183 224 78 187 230 80 193 235 74 198 234 63 190 223 57 177 212 59 168 209 27 142 196 53 170 214 68 188 225 72 192 229 54 173 215 53 170 213 80 196 233 84 202 230 
74 192 220 77 194 229 67 183 222 49 167 203 76 197 224 62 184 207 62 182 209 74 191 226 78 196 234 80 197 241 45 163 211 40 158 206 65 184 227 66 183 227 47 163 214 38 151 207 
41 145 208 44 160 209 66 189 230 65 186 229 37 151 205 50 159 216 81 195 245 72 194 231 57 175 215 44 164 201 64 184 219 77 197 232 38 158 195 45 163 201 76 194 230 75 192 227 
