P3
16 16
255
34 132 193 57 52 152 56 61 155 59 174 219 79 187 215 76 184 220 88 184 242 70 191 220 56 54 155 46 43 146 82 192 227 57 184 225 248 252 251 31 139 203 66 189 230 41 134 193 
38 137 196 34 125 182 47 62 157 55 63 144 48 174 212 84 185 237 82 183 213 55 179 207 39 44 138 43 51 149 65 169 204 80 184 211 250 250 252 37 129 176 59 177 217 76 190 226 
25 143 193 36 139 206 37 133 183 39 50 142 54 57 154 91 197 223 71 185 212 62 180 226 49 45 139 33 40 128 79 189 222 78 184 224 217 250 255 44 126 184 37 134 215 29 135 187 
26 138 204 53 132 198 25 131 189 38 133 197 45 38 131 78 178 212 51 183 208 43 38 156 33 46 138 70 57 171 67 186 226 54 183 214 225 248 238 246 255 248 240 255 255 255 253 251 
33 132 197 39 135 195 42 139 208 36 139 198 36 47 127 39 177 224 47 41 137 64 58 146 204 241 234 254 249 255 240 255 254 196 243 255 42 132 208 25 129 180 48 133 197 59 172 216 
62 176 213 26 128 192 31 142 198 35 140 197 42 36 132 36 50 155 39 52 148 216 243 250 244 255 248 255 246 255 192 243 246 45 138 208 59 177 213 21 139 200 29 141 191 32 141 208 
85 184 223 52 186 215 34 123 191 31 141 194 39 51 137 63 56 149 217 232 255 245 255 250 238 248 255 205 246 250 50 133 187 31 137 195 69 182 224 60 181 224 37 133 207 41 134 201 
61 189 216 91 188 230 62 178 217 34 122 194 61 58 149 221 251 255 243 255 243 251 254 255 209 243 255 28 127 186 22 141 199 41 140 199 92 190 219 51 172 227 73 184 203 24 138 198 
59 60 152 58 180 221 69 189 213 44 184 207 214 237 253 254 251 255 240 254 254 216 254 243 39 133 185 37 134 203 30 140 199 57 181 215 64 188 216 85 188 223 84 182 219 50 177 210 
36 40 147 39 48 143 67 174 210 56 179 221 246 255 247 255 246 254 220 249 255 32 139 195 30 139 196 34 140 202 67 176 219 87 183 221 85 181 229 69 183 210 80 192 214 82 186 241 
57 45 145 47 44 131 56 61 165 54 174 224 244 242 253 205 255 248 32 126 187 33 138 206 39 134 200 50 191 209 68 186 216 83 181 230 79 187 216 75 190 219 54 180 221 61 173 211 
23 140 207 29 45 130 34 46 130 61 55 161 199 255 242 23 133 194 37 136 191 44 137 204 58 176 224 81 182 226 90 189 228 62 182 207 72 194 218 76 183 229 67 179 225 55 181 203 
249 255 250 255 250 255 217 242 246 204 251 255 51 53 138 44 166 215 81 187 235 45 180 202 205 255 255 248 253 255 240 255 250 252 252 254 208 242 251 75 190 211 55 173 221 65 178 222 
37 137 212 44 121 175 35 136 214 221 245 247 50 41 156 50 45 145 52 174 211 75 189 216 50 171 202 216 242 255 253 250 255 241 255 255 255 252 253 204 238 250 80 201 230 55 178 219 
38 188 203 56 177 204 29 143 206 254 254 246 47 51 142 41 36 128 57 55 165 54 186 209 82 187 235 48 184 208 196 244 254 247 255 253 235 251 251 255 251 255 191 239 241 79 195 220 
37 137 199 66 177 230 28 137 204 242 255 249 34 132 195 39 52 146 35 46 136 51 38 146 65 177 223 50 172 219 63 184 203 197 242 247 253 253 255 252 254 253 255 254 255 207 240 245 
