P3
16 16
255
39 145 203 55 171 218 54 170 217 37 141 202 42 146 207 55 171 222 49 165 216 42 148 210 38 144 202 50 164 214 55 166 219 42 146 209 36 145 202 49 170 215 54 170 219 37 139 205 
53 169 216 31 137 195 33 139 197 45 161 208 42 158 205 34 143 200 34 143 200 41 159 205 42 161 204 33 139 197 36 140 201 44 160 209 40 161 204 33 144 199 34 140 200 36 147 202 
55 171 218 34 140 198 44 150 208 61 180 223 53 174 217 43 154 207 45 156 209 55 178 219 56 180 218 42 153 206 43 152 208 55 176 219 57 179 220 44 155 210 36 142 202 33 144 200 
37 141 202 47 163 210 61 180 223 64 175 228 61 175 225 55 182 217 53 180 215 64 180 227 61 180 223 56 180 216 55 179 217 61 175 225 65 179 229 59 181 222 44 158 208 31 130 198 
38 142 203 41 157 204 53 174 217 61 175 225 60 176 223 54 183 215 51 180 211 60 179 221 59 178 220 55 182 215 56 180 216 61 177 224 62 178 225 52 175 216 41 155 205 36 133 202 
54 170 221 31 140 197 43 154 207 58 185 220 56 185 217 58 177 219 59 178 220 56 183 215 56 185 216 60 177 221 60 176 223 58 185 218 53 180 213 42 156 206 37 141 202 40 146 204 
52 168 219 32 141 198 43 157 209 57 184 219 53 182 213 58 177 219 62 179 222 56 181 213 54 181 213 62 177 222 61 176 223 54 181 214 52 179 212 44 158 208 37 141 202 34 140 198 
41 147 209 40 158 204 53 176 217 62 178 225 58 177 219 53 180 212 53 177 211 59 174 219 58 173 218 56 180 216 54 178 214 59 176 220 65 182 226 55 179 217 40 155 202 36 133 202 
43 147 210 39 157 205 52 175 216 63 179 226 61 180 223 54 183 215 52 179 212 58 175 219 53 174 217 62 184 225 58 180 217 52 176 212 59 182 223 59 180 227 45 156 212 29 133 196 
54 165 218 36 141 199 46 156 209 57 181 217 53 180 213 62 179 222 64 181 224 54 178 212 59 181 222 60 179 219 60 180 217 61 183 220 56 178 217 40 156 203 32 141 198 43 142 207 
57 169 219 35 140 198 45 152 206 59 181 218 56 180 214 57 174 217 61 176 220 56 181 213 60 182 221 59 179 216 59 177 213 62 182 219 58 177 217 43 158 205 36 143 199 41 140 205 
43 145 207 43 158 205 55 174 216 65 177 227 63 178 223 53 180 212 51 178 210 64 181 224 56 180 218 61 183 222 61 181 218 57 177 214 61 180 222 61 177 224 47 156 212 29 131 193 
36 142 202 45 163 209 59 180 223 63 177 229 60 176 225 54 181 216 52 179 214 65 181 228 55 178 220 57 179 220 60 179 221 61 180 222 59 180 223 57 175 223 44 155 210 30 134 195 
52 170 218 34 143 202 44 153 210 57 178 223 52 173 216 44 158 212 45 159 211 53 176 217 55 175 225 41 157 206 43 158 205 59 175 222 57 175 223 40 156 207 34 145 201 40 146 206 
56 170 220 31 135 196 32 136 197 44 158 208 42 156 206 36 140 201 35 139 200 42 156 206 46 157 213 32 141 198 34 141 197 46 156 209 44 155 210 35 146 201 36 142 200 40 144 205 
35 137 199 40 150 201 36 146 199 29 127 192 36 133 201 41 148 204 34 141 197 36 133 201 29 133 196 38 140 204 44 144 206 33 136 195 27 132 190 37 143 201 42 146 207 33 133 195 
