P3
16 16
255
37 139 201 36 138 200 36 138 200 35 137 199 35 137 199 35 137 199 35 137 199 35 137 199 35 137 199 35 137 199 35 137 199 35 137 199 35 137 199 35 137 199 35 137 199 35 137 199 
36 138 200 36 138 200 35 137 199 35 137 199 35 137 199 35 137 199 35 137 199 35 137 199 35 137 199 35 137 199 35 137 199 35 137 199 35 137 199 35 137 199 35 137 199 35 137 199 
35 137 199 35 137 199 35 137 199 35 137 199 35 137 199 35 137 199 35 137 199 35 137 199 35 137 199 35 137 199 35 137 199 35 137 199 35 137 199 35 137 199 35 137 199 35 137 199 
35 137 199 35 137 199 35 137 199 35 137 199 35 137 199 35 137 199 35 137 199 35 137 199 35 137 199 35 137 199 35 137 199 35 137 199 35 137 199 35 137 199 35 137 199 35 137 199 
35 137 199 35 137 199 35 137 199 35 137 199 35 137 199 35 137 199 35 137 199 35 137 199 35 137 199 35 137 199 35 137 199 35 137 199 35 137 199 35 137 199 35 137 199 35 137 199 
35 137 199 35 137 199 35 137 199 35 137 199 35 137 199 35 137 199 35 137 199 35 137 199 35 137 199 35 137 199 35 137 199 35 137 199 35 137 199 35 137 199 35 137 199 35 137 199 
35 137 199 36 138 200 36 138 200 36 138 200 36 138 200 35 137 199 35 137 199 34 136 198 35 137 199 35 137 199 35 137 199 35 137 199 35 137 199 35 137 199 35 137 199 35 137 199 
36 138 200 36 138 200 36 138 200 36 138 200 36 138 200 35 137 199 35 137 199 34 136 198 35 137 199 35 137 199 35 137 199 35 137 199 35 137 199 35 137 199 35 137 199 35 137 199 
35 137 199 36 138 200 36 138 200 36 138 200 35 137 199 35 137 199 34 136 198 34 136 198 36 138 200 36 138 200 36 138 200 35 137 199 35 137 199 34 136 198 34 136 198 34 136 198 
35 137 199 35 137 199 35 137 199 35 137 199 35 137 199 35 137 199 35 137 199 35 137 199 35 137 199 35 137 199 35 137 199 35 137 199 35 137 199 35 137 199 36 138 200 36 138 200 
34 136 198 34 136 198 35 137 199 35 137 199 36 138 200 36 138 200 36 138 200 36 138 200 34 136 198 34 136 198 35 137 199 35 137 199 35 137 199 36 138 200 36 138 200 36 138 200 
34 136 198 35 137 199 35 137 199 35 137 199 36 138 200 35 137 199 35 137 199 35 137 199 35 137 199 35 137 199 35 137 199 35 137 199 35 137 199 35 137 199 35 137 199 35 137 199 
35 137 199 35 137 199 35 137 199 36 138 200 35 137 199 35 137 199 35 137 199 34 136 198 35 137 199 35 137 199 35 137 199 35 137 199 35 137 199 35 137 199 35 137 199 35 137 199 
36 138 200 36 138 200 36 138 200 36 138 200 35 137 199 35 137 199 34 136 198 34 136 198 34 136 198 34 136 198 35 137 199 35 137 199 35 137 199 36 138 200 36 138 200 36 138 200 
35 137 199 35 137 199 35 137 199 35 137 199 35 137 199 35 137 199 35 137 199 35 137 199 35 137 199 35 137 199 35 137 199 35 137 199 35 137 199 35 137 199 36 138 200 36 138 200 
34 136 198 34 136 198 35 137 199 35 137 199 36 138 200 36 138 200 36 138 200 35 137 199 36 138 200 36 138 200 36 138 200 35 137 199 35 137 199 34 136 198 34 136 198 34 136 198 
