P3
16 16
255
113 108 138 113 108 138 113 108 138 113 108 138 114 109 139 115 110 140 115 110 140 114 109 139 113 108 138 114 109 139 115 110 140 113 108 138 110 105 135 109 104 134 111 106 136 113 108 138 
113 108 138 113 108 138 113 108 138 113 108 138 113 108 138 113 108 138 113 108 138 113 108 138 114 109 139 115 110 140 115 110 140 114 109 139 113 108 138 112 107 137 113 108 138 114 109 139 
113 108 138 114 109 139 114 109 139 113 108 138 112 107 137 111 106 136 112 107 137 113 108 138 114 109 139 114 109 139 114 109 139 114 109 139 114 109 139 114 109 139 114 109 139 113 108 138 
114 109 139 115 110 140 115 110 140 114 109 139 111 106 136 110 105 135 111 106 136 112 107 137 112 107 137 113 108 138 113 108 138 114 109 139 114 109 139 114 109 139 113 108 138 113 108 138 
115 110 140 116 111 141 116 111 141 114 109 139 112 107 137 110 105 135 111 106 136 113 108 138 111 106 136 112 107 137 114 109 139 114 109 139 113 108 138 112 107 137 113 108 138 114 109 139 
115 110 140 115 110 140 115 110 140 114 109 139 112 107 137 112 107 137 113 108 138 114 109 139 112 107 137 113 108 138 115 110 140 114 109 139 113 108 138 113 108 138 114 109 139 115 110 140 
115 110 140 115 110 140 114 109 139 113 108 138 113 108 138 113 108 138 114 109 139 114 109 139 113 108 138 114 109 139 114 109 139 114 109 139 114 109 139 114 109 139 115 110 140 115 110 140 
115 110 140 114 109 139 113 108 138 113 108 138 113 108 138 114 109 139 114 109 139 114 109 139 115 110 140 113 108 138 112 107 137 112 107 137 114 109 139 115 110 140 115 110 140 114 109 139 
116 111 141 116 111 141 114 109 139 112 107 137 111 106 136 112 107 137 113 108 138 113 108 138 113 108 138 115 110 140 116 111 141 116 111 141 116 111 141 116 111 141 116 111 141 114 109 139 
114 109 139 114 109 139 114 109 139 112 107 137 112 107 137 113 108 138 114 109 139 113 108 138 111 106 136 113 108 138 114 109 139 113 108 138 114 109 139 115 110 140 114 109 139 113 108 138 
112 107 137 113 108 138 113 108 138 112 107 137 112 107 137 114 109 139 114 109 139 114 109 139 114 109 139 114 109 139 114 109 139 113 108 138 114 109 139 115 110 140 114 109 139 113 108 138 
111 106 136 113 108 138 113 108 138 113 108 138 113 108 138 114 109 139 114 109 139 113 108 138 118 113 143 116 111 141 114 109 139 114 109 139 114 109 139 115 110 140 114 109 139 113 108 138 
112 107 137 113 108 138 114 109 139 113 108 138 113 108 138 114 109 139 114 109 139 112 107 137 116 111 141 114 109 139 112 107 137 112 107 137 113 108 138 113 108 138 113 108 138 113 108 138 
113 108 138 114 109 139 114 109 139 113 108 138 113 108 138 114 109 139 114 109 139 112 107 137 113 108 138 112 107 137 111 106 136 112 107 137 112 107 137 113 108 138 114 109 139 116 111 141 
113 108 138 114 109 139 114 109 139 113 108 138 113 108 138 114 109 139 114 109 139 114 109 139 113 108 138 113 108 138 113 108 138 114 109 139 113 108 138 112 107 137 114 109 139 117 112 142 
113 108 138 114 109 139 114 109 139 113 108 138 113 108 138 115 110 140 115 110 140 115 110 140 114 109 139 114 109 139 114 109 139 114 109 139 112 107 137 110 105 135 112 107 137 115 110 140 
