P3
16 16
255
160 192 239 157 187 225 158 187 221 164 191 234 157 188 234 154 188 225 157 190 225 160 189 231 161 188 233 159 189 227 159 189 227 161 188 233 163 187 231 161 187 222 166 198 236 149 183 231 
160 190 228 190 217 244 192 218 241 191 216 247 184 210 243 192 222 246 191 219 241 192 217 247 191 216 247 191 217 242 190 218 242 191 216 247 192 215 246 188 213 235 187 217 243 163 195 233 
158 187 221 191 217 240 196 217 236 190 210 237 173 194 223 191 213 234 194 217 235 189 206 232 193 213 238 192 215 231 192 215 233 193 213 238 197 214 240 192 213 232 188 213 235 160 186 221 
161 188 231 190 215 246 192 212 239 174 190 224 196 215 248 188 208 233 197 215 239 201 216 247 196 213 243 196 216 240 195 215 239 195 212 242 199 214 245 198 215 241 194 217 248 164 188 232 
157 188 234 183 209 242 174 195 224 198 217 250 186 204 240 198 219 246 192 212 237 198 214 247 195 211 244 195 215 239 193 215 239 191 210 242 194 211 241 192 212 237 190 215 246 159 186 231 
158 192 229 192 222 246 190 212 233 189 209 234 202 223 250 189 215 232 189 212 230 194 216 240 193 213 238 195 218 236 193 219 236 193 215 239 195 215 239 193 216 234 190 218 242 160 190 228 
158 191 226 189 217 239 192 215 233 196 214 238 193 213 238 190 213 231 199 222 240 194 216 240 194 211 239 194 215 234 193 216 234 194 214 238 197 217 241 194 217 233 191 217 240 161 191 229 
158 187 229 193 218 248 192 209 235 200 215 246 196 212 245 192 214 238 193 215 239 193 212 245 199 213 250 196 213 241 192 212 237 194 210 243 197 214 244 193 213 238 189 214 245 160 187 232 
160 187 232 189 214 245 193 213 238 197 214 244 194 210 243 192 212 237 196 213 241 199 213 250 198 215 243 188 207 237 199 220 241 192 210 234 198 213 246 195 213 237 191 218 239 158 187 229 
161 191 229 191 217 240 194 217 233 197 217 241 194 214 238 193 216 234 194 215 234 194 211 239 191 210 240 197 218 249 193 215 238 197 217 242 192 208 244 199 219 244 187 215 237 158 189 235 
160 190 228 190 218 242 193 216 234 195 215 239 193 215 239 193 219 236 195 218 236 193 213 238 195 216 237 195 217 240 189 212 228 187 208 229 195 214 244 191 213 234 188 219 237 157 191 229 
159 186 231 190 215 246 192 212 237 194 211 241 191 210 242 193 215 239 195 215 239 195 211 244 197 213 238 195 215 240 191 212 233 203 223 248 198 217 250 190 212 236 189 217 239 158 189 233 
164 188 232 194 217 248 198 215 241 199 214 245 195 212 242 195 215 239 196 216 240 196 213 243 196 211 244 189 205 241 198 217 247 191 210 243 191 206 249 172 191 224 193 218 248 156 184 234 
160 186 221 188 213 235 192 213 232 197 214 240 193 213 238 192 215 233 192 215 231 193 213 238 200 218 242 198 218 243 189 211 232 194 216 240 174 193 226 189 211 234 193 220 239 159 187 226 
163 195 233 187 217 243 188 213 235 192 215 246 191 216 247 190 218 242 191 217 242 191 216 247 188 215 236 187 215 237 188 219 237 188 216 238 191 216 246 193 220 239 189 221 234 158 191 224 
149 183 231 166 198 236 161 187 222 163 187 231 161 188 233 159 189 227 159 189 227 161 188 233 160 189 231 157 188 234 160 194 232 154 185 229 162 190 240 155 185 223 159 192 225 159 192 245 
