P3
16 16
255
255 252 255 248 255 252 255 248 255 252 255 253 250 249 254 255 253 253 251 255 244 253 255 254 255 249 255 250 255 240 248 254 250 251 255 241 252 253 248 251 255 255 254 255 251 247 253 249 
255 255 251 249 255 255 254 255 255 255 253 246 242 255 241 249 255 255 255 249 247 255 252 255 252 255 246 255 249 255 250 255 252 255 248 255 255 252 255 254 254 255 255 248 248 255 250 255 
251 255 255 255 255 250 210 122 209 228 132 242 255 252 255 255 250 255 247 255 255 255 253 250 242 255 255 255 251 253 247 255 240 186 102 180 216 132 220 252 247 253 253 253 255 254 255 251 
255 247 255 238 255 237 182 114 197 218 135 213 180 100 171 247 255 255 248 255 255 254 255 243 255 253 248 251 255 255 230 147 235 205 125 214 184 114 186 252 250 253 255 255 246 243 252 251 
255 255 253 255 255 248 241 253 241 215 154 223 177 111 173 169 90 169 254 255 250 255 251 255 249 255 255 177 106 172 211 127 215 179 108 178 248 253 249 255 249 255 247 255 255 255 255 244 
255 245 255 254 255 253 255 250 255 251 255 255 167 93 156 188 107 176 253 253 255 245 255 237 254 249 245 160 92 177 181 112 175 251 255 243 254 255 243 255 249 254 255 255 253 247 255 255 
253 255 252 255 250 252 255 250 255 255 246 255 252 254 253 81 158 52 93 164 46 252 252 255 163 97 161 79 138 54 255 255 248 248 240 251 248 255 255 252 255 251 238 255 246 255 245 255 
250 255 254 249 255 246 250 250 240 251 255 255 254 255 255 255 251 240 74 142 39 22 127 0 59 151 27 255 251 255 255 250 248 255 255 255 251 255 253 250 248 251 255 250 255 248 255 247 
250 253 255 255 252 255 254 255 251 252 255 248 249 255 248 255 255 248 92 154 43 82 172 48 252 255 255 250 255 250 163 96 165 185 110 169 225 151 240 211 120 225 255 253 255 255 252 250 
254 255 255 210 132 208 215 146 226 217 125 212 255 243 255 253 255 249 250 254 255 86 166 45 255 254 255 77 141 55 27 117 0 222 144 245 173 109 170 242 255 237 255 253 253 247 255 248 
250 251 246 255 248 255 206 129 199 189 106 188 149 108 168 255 249 255 251 255 255 73 157 43 21 122 0 248 255 237 156 97 163 255 253 255 255 254 255 245 249 252 255 250 255 250 255 245 
255 254 255 255 255 248 248 248 255 168 87 166 6 130 0 158 101 146 252 244 255 210 131 196 73 147 34 254 255 255 241 255 248 255 248 255 210 128 210 209 130 213 255 249 255 247 255 255 
249 253 255 237 255 247 255 251 255 255 254 255 163 99 160 75 146 40 92 168 42 224 148 255 178 107 183 255 250 250 255 247 255 214 131 199 221 153 230 184 109 166 255 246 255 252 255 253 
249 255 255 255 247 255 248 255 252 255 250 255 250 252 249 244 255 255 252 255 255 188 100 161 161 95 166 249 255 251 163 100 171 17 118 16 171 96 153 255 255 243 255 249 255 251 255 255 
252 255 253 243 255 240 255 253 255 253 255 242 205 142 195 255 253 246 247 246 251 247 255 255 150 97 151 255 244 255 20 131 10 154 97 168 244 255 239 255 252 255 244 255 255 250 252 247 
254 254 252 255 254 255 255 248 255 210 128 213 217 142 243 255 250 248 255 253 255 253 255 250 87 175 39 89 154 54 246 254 233 255 251 255 247 255 255 255 251 254 255 255 246 255 254 253 
