P3
16 16
255
255 255 255 255 255 255 255 255 255 251 251 251 255 255 255 252 252 252 252 252 252 255 255 255 254 254 254 255 255 255 254 254 254 253 253 253 255 255 255 253 253 253 255 255 255 255 255 255 
255 255 255 251 251 251 255 255 255 255 255 255 95 95 95 95 95 95 105 105 105 252 252 252 254 254 254 255 255 255 110 110 110 88 88 88 91 91 91 255 255 255 252 252 252 251 251 251 
255 255 255 255 255 255 253 253 253 90 90 90 123 123 123 150 150 150 90 90 90 255 255 255 255 255 255 255 255 255 85 85 85 130 130 130 163 163 163 89 89 89 255 255 255 255 255 255 
255 255 255 254 254 254 255 255 255 90 90 90 152 152 152 166 166 166 123 123 123 102 102 102 255 255 255 101 101 101 130 130 130 148 148 148 152 152 152 94 94 94 251 251 251 253 253 253 
254 254 254 255 255 255 90 90 90 123 123 123 169 169 169 146 146 146 150 150 150 96 96 96 254 254 254 93 93 93 148 148 148 150 150 150 148 148 148 168 168 168 89 89 89 255 255 255 
255 255 255 253 253 253 97 97 97 163 163 163 148 148 148 163 163 163 150 150 150 123 123 123 102 102 102 122 122 122 153 153 153 167 167 167 146 146 146 162 162 162 92 92 92 254 254 254 
255 255 255 250 250 250 88 88 88 165 165 165 149 149 149 155 155 155 162 162 162 153 153 153 111 111 111 148 148 148 165 165 165 147 147 147 147 147 147 153 153 153 94 94 94 255 255 255 
252 252 252 255 255 255 93 93 93 163 163 163 162 162 162 147 147 147 166 166 166 161 161 161 121 121 121 155 155 155 156 156 156 153 153 153 164 164 164 152 152 152 88 88 88 255 255 255 
255 255 255 251 251 251 91 91 91 164 164 164 163 163 163 148 148 148 151 151 151 165 165 165 152 152 152 159 159 159 152 152 152 152 152 152 163 163 163 149 149 149 91 91 91 255 255 255 
250 250 250 255 255 255 87 87 87 166 166 166 152 152 152 149 149 149 166 166 166 145 145 145 148 148 148 167 167 167 148 148 148 147 147 147 151 151 151 169 169 169 91 91 91 253 253 253 
254 254 254 255 255 255 96 96 96 124 124 124 163 163 163 147 147 147 148 148 148 170 170 170 154 154 154 142 142 142 164 164 164 152 152 152 148 148 148 123 123 123 94 94 94 255 255 255 
255 255 255 255 255 255 250 250 250 93 93 93 160 160 160 155 155 155 151 151 151 159 159 159 153 153 153 164 164 164 155 155 155 150 150 150 148 148 148 97 97 97 255 255 255 252 252 252 
252 252 252 254 254 254 255 255 255 91 91 91 132 132 132 160 160 160 150 150 150 153 153 153 125 125 125 164 164 164 145 145 145 161 161 161 131 131 131 85 85 85 255 255 255 255 255 255 
255 255 255 255 255 255 255 255 255 255 255 255 85 85 85 92 92 92 131 131 131 145 145 145 107 107 107 149 149 149 130 130 130 91 91 91 95 95 95 255 255 255 252 252 252 253 253 253 
254 254 254 254 254 254 253 253 253 255 255 255 255 255 255 255 255 255 88 88 88 98 98 98 89 89 89 95 95 95 90 90 90 253 253 253 251 251 251 255 255 255 252 252 252 255 255 255 
255 255 255 254 254 254 255 255 255 253 253 253 255 255 255 251 251 251 255 255 255 253 253 253 255 255 255 255 255 255 255 255 255 255 255 255 255 255 255 252 252 252 255 255 255 250 250 250 
