P3
16 16
255
172 224 98 174 219 114 171 217 93 180 224 111 172 218 110 174 223 105 175 222 106 176 220 107 177 221 108 172 218 109 174 223 106 175 221 112 176 220 107 175 219 108 180 227 123 166 223 82 
175 220 115 198 233 167 207 239 174 202 237 155 198 234 160 199 239 150 204 240 170 199 232 163 203 237 163 198 234 164 200 238 161 200 236 166 201 235 161 198 232 158 196 233 166 176 223 119 
171 217 93 206 238 173 205 236 160 203 234 154 190 225 131 205 239 162 203 235 162 205 235 161 207 238 162 204 236 163 206 241 161 206 238 165 208 239 161 206 237 159 202 236 162 176 220 109 
180 224 111 202 237 155 203 234 154 191 225 128 201 232 164 199 234 154 205 235 173 208 240 157 206 234 160 202 234 161 203 237 160 201 233 160 204 235 157 205 236 158 202 236 160 175 219 106 
172 218 110 198 234 160 190 225 131 200 231 163 199 232 163 206 241 177 196 230 156 206 235 168 206 237 169 204 236 169 204 240 168 202 234 169 204 236 163 205 237 164 201 237 167 174 220 111 
174 223 105 200 240 151 205 239 162 198 233 153 207 242 178 204 244 147 204 238 162 205 236 169 203 235 159 202 236 162 204 241 163 201 237 165 203 237 160 203 238 158 199 237 160 172 221 104 
174 221 105 205 241 171 203 235 162 204 234 172 198 232 158 205 239 163 200 232 159 205 234 168 204 234 160 201 234 165 204 238 164 203 235 168 206 238 165 205 237 164 201 237 167 175 221 112 
177 221 108 200 233 164 205 235 161 207 239 156 208 237 170 205 236 169 204 233 167 210 238 153 210 238 161 204 234 160 204 236 160 203 234 166 208 236 162 205 236 160 201 235 161 176 220 107 
176 220 107 201 235 161 205 236 160 208 236 162 203 234 166 204 236 160 204 234 160 210 238 161 203 234 166 200 231 161 207 240 161 203 234 166 204 235 165 203 236 165 200 236 162 176 221 102 
175 221 112 201 237 167 205 237 164 206 238 165 203 235 168 204 238 164 201 234 165 204 234 160 204 235 165 210 241 171 206 238 162 202 233 166 200 231 163 205 237 170 201 236 168 181 223 113 
172 221 104 199 237 160 203 238 158 203 237 160 201 237 165 204 241 163 202 236 162 203 235 159 202 235 156 204 236 160 203 237 153 197 229 154 210 242 166 198 232 156 200 236 162 174 217 102 
174 220 111 201 237 167 205 237 164 204 236 163 202 234 169 204 240 168 204 236 169 206 237 169 204 235 167 207 238 171 198 230 155 214 245 177 206 238 163 201 235 159 199 235 165 179 221 113 
175 219 106 202 236 160 205 236 158 204 235 157 201 233 160 203 237 160 202 234 161 206 234 160 203 234 164 200 231 163 206 238 162 202 234 159 198 232 146 183 219 131 204 242 159 176 221 102 
176 220 109 202 236 162 206 237 159 208 239 161 206 238 165 206 241 161 204 236 163 207 238 162 204 237 166 205 237 170 201 235 159 204 238 162 189 225 137 197 236 145 203 242 161 171 215 100 
176 223 119 196 233 166 198 232 158 201 235 161 200 236 166 200 238 161 198 234 164 203 237 163 202 238 164 199 234 166 202 238 164 195 231 161 203 241 158 200 239 158 201 241 171 174 218 120 
166 223 82 180 227 123 175 219 108 176 220 107 175 221 112 174 223 106 172 218 109 177 221 108 175 220 101 179 221 111 178 221 106 176 218 110 179 222 104 173 217 102 171 215 117 175 225 100 
