P3
16 16
255
169 173 182 162 166 175 172 177 183 173 176 181 158 161 166 141 142 147 168 169 174 140 141 146 142 141 146 148 148 150 136 137 139 164 165 167 139 143 146 162 165 170 159 162 167 174 179 185 
177 181 190 156 159 166 127 130 135 56 59 64 58 59 63 71 72 76 69 70 74 77 76 82 104 104 106 74 74 76 109 110 112 101 102 104 73 74 76 129 133 136 157 160 165 160 163 170 
161 164 171 123 126 131 125 126 130 103 104 108 110 111 113 130 130 132 117 116 121 129 128 133 113 113 115 117 117 119 102 104 103 126 128 127 101 102 104 126 130 131 127 131 134 158 161 166 
163 164 169 78 79 83 71 72 76 110 110 112 126 126 128 116 116 118 57 57 59 58 58 60 60 60 62 60 60 62 127 127 127 114 116 115 107 109 108 66 67 69 55 56 60 165 166 170 
161 160 165 71 70 75 120 120 122 107 107 107 118 118 118 144 144 146 54 54 56 117 117 119 124 124 126 55 55 57 128 128 128 138 140 139 128 130 129 122 123 125 50 51 53 146 147 151 
130 129 134 80 80 82 138 138 140 133 133 133 143 143 143 60 60 62 126 126 128 126 125 130 121 120 125 126 126 128 55 55 57 131 131 133 121 121 123 141 142 144 73 74 78 144 145 149 
122 123 127 105 106 108 139 140 142 53 54 56 54 55 57 114 115 117 141 142 146 58 59 63 56 55 61 125 124 129 118 117 122 56 56 58 59 59 61 147 147 149 79 78 83 139 138 143 
125 126 130 76 77 81 115 116 118 58 59 61 113 114 116 126 127 129 56 57 61 55 56 60 56 55 61 62 61 67 139 138 143 129 128 133 56 56 58 123 122 127 78 77 82 126 125 131 
127 127 127 106 106 106 128 128 128 74 75 77 125 126 130 141 142 147 74 75 80 58 59 64 71 70 78 80 79 87 140 139 145 140 139 145 80 79 84 115 114 119 78 77 82 142 142 144 
123 123 123 105 105 105 121 121 123 71 72 74 79 80 84 113 114 118 164 165 170 73 74 79 81 80 86 159 158 164 131 130 136 80 79 84 69 68 73 141 140 145 102 102 104 128 128 130 
130 130 130 102 102 102 133 133 135 165 166 168 160 161 165 79 80 84 139 140 145 161 162 167 156 155 160 149 148 153 73 72 77 160 159 164 167 167 169 149 149 151 75 75 77 129 129 131 
127 127 127 100 100 102 103 103 105 143 144 146 122 123 127 158 159 163 76 77 81 145 146 151 140 139 144 110 110 112 160 160 162 119 119 121 130 130 132 138 138 140 102 102 102 141 141 141 
126 126 128 106 106 108 129 129 131 124 125 127 142 143 147 150 151 155 70 71 75 101 102 106 107 107 109 102 102 104 144 144 146 137 137 139 105 105 107 101 101 103 108 108 108 146 146 146 
128 128 130 171 171 173 176 176 178 109 110 112 137 138 142 142 143 147 163 164 168 165 166 170 162 162 164 164 164 166 143 143 145 135 135 137 102 102 104 164 164 166 164 164 166 138 138 140 
146 146 148 143 143 145 143 143 145 101 102 104 104 105 109 122 123 127 106 107 111 100 101 105 104 104 106 101 101 103 105 105 107 122 122 124 105 105 107 165 165 167 146 146 148 127 127 129 
124 124 126 143 143 145 142 142 144 166 167 169 156 157 161 167 168 172 137 138 142 166 167 171 144 144 146 141 141 143 147 146 151 162 161 166 166 165 170 166 165 170 142 141 146 144 143 148 
