P3
16 16
255
204 172 97 196 159 117 203 167 115 202 167 113 204 168 118 186 151 95 200 164 116 203 167 117 194 152 94 187 146 92 187 147 86 186 144 94 190 149 97 205 162 117 206 163 129 204 167 99 
184 146 101 117 73 64 110 67 50 106 63 44 112 66 53 109 64 45 119 73 60 109 63 47 106 62 49 102 60 48 114 73 53 109 67 53 104 66 43 109 71 50 107 70 54 199 168 114 
186 146 95 109 63 50 95 48 32 134 86 72 127 77 70 125 76 62 132 79 71 130 78 65 129 75 65 146 91 86 128 76 65 125 75 68 135 86 72 94 47 29 108 62 46 187 148 93 
188 147 93 121 73 59 140 91 76 129 79 68 134 80 78 134 80 70 133 76 69 134 78 65 149 90 72 141 81 70 133 75 63 130 72 70 132 78 68 142 90 79 115 62 56 191 147 100 
190 149 95 133 84 69 126 77 62 134 82 71 128 73 70 131 77 67 136 79 72 132 76 63 131 80 59 113 64 49 115 66 51 120 71 66 115 69 56 81 37 24 91 48 39 183 147 97 
187 145 95 91 43 31 112 63 48 116 67 53 130 77 71 119 67 53 127 73 63 133 80 66 128 76 65 137 84 78 126 74 63 127 77 70 124 76 62 132 87 68 115 69 53 184 147 92 
189 146 101 133 85 75 127 80 62 131 84 64 124 76 62 126 78 58 133 84 70 129 80 63 135 78 69 131 74 67 136 83 67 133 79 69 136 83 65 129 78 61 112 60 49 195 149 100 
187 151 75 162 120 78 167 127 75 162 123 68 169 129 78 168 129 72 161 121 70 167 127 76 165 129 69 165 128 73 163 127 65 164 127 75 160 123 70 166 130 82 137 99 63 182 149 80 
184 146 83 198 161 106 204 168 108 202 167 109 202 165 121 186 148 99 208 169 110 185 145 94 200 168 111 200 169 104 196 163 109 185 151 103 193 162 98 201 167 103 198 164 103 188 155 86 
189 149 113 107 64 47 115 72 56 102 61 41 113 69 60 108 64 53 110 65 46 117 69 57 114 64 57 111 62 48 119 68 64 115 64 61 111 62 48 109 61 51 126 78 66 181 136 105 
192 145 91 134 81 65 121 66 59 137 85 64 143 87 72 141 83 71 146 87 71 141 82 68 144 87 76 125 72 58 133 79 69 124 72 59 133 82 65 142 91 87 106 58 44 187 146 94 
185 151 90 108 65 56 111 66 71 111 68 52 110 64 48 108 61 53 138 90 80 112 64 54 132 78 66 134 82 69 131 79 68 133 85 65 110 65 46 106 60 62 114 70 57 186 152 88 
185 150 92 111 67 58 90 43 49 125 79 64 132 85 69 130 80 73 128 78 69 125 75 66 131 74 63 135 78 67 133 79 69 127 76 57 136 87 70 91 41 44 112 66 53 183 147 85 
190 140 89 120 64 49 143 84 78 144 86 64 145 84 65 144 82 67 146 85 66 150 88 73 137 79 67 137 80 63 139 81 69 141 85 68 138 86 65 131 76 73 117 65 52 192 146 97 
186 156 86 200 167 114 203 168 114 204 168 106 194 157 104 190 153 98 201 167 104 202 167 111 205 163 113 186 145 89 211 169 119 205 165 116 208 169 112 184 144 95 202 161 115 183 145 82 
125 96 56 127 97 61 132 101 57 128 97 51 133 99 64 128 96 57 130 102 54 127 98 58 122 98 52 126 103 49 127 103 57 125 97 57 126 100 49 128 102 53 127 98 58 129 100 56 
