P3
16 16
255
83 66 36 78 61 33 85 68 42 82 65 39 85 68 40 80 63 35 79 62 36 83 65 43 83 65 41 80 62 38 81 63 41 87 69 47 82 64 40 75 55 30 93 72 43 83 62 31 
77 66 46 55 44 26 53 41 27 46 34 18 49 38 20 51 40 20 50 38 22 53 41 27 53 42 24 54 43 25 50 38 22 49 37 21 49 38 20 60 47 28 91 76 53 83 69 43 
78 61 41 58 41 23 77 60 44 80 63 45 83 66 46 85 69 46 80 63 43 82 65 47 79 61 37 82 64 40 80 64 41 80 64 41 82 64 42 87 67 42 103 83 56 84 63 34 
86 66 42 59 38 17 82 61 42 84 63 42 81 61 36 84 64 37 80 60 35 85 65 41 85 64 37 85 64 37 83 63 38 87 67 42 86 64 40 87 63 35 104 81 50 90 65 34 
80 69 49 43 31 15 57 45 29 55 44 26 50 39 19 54 43 21 51 40 18 54 43 25 51 38 19 52 39 20 51 40 22 52 41 23 50 37 20 55 40 19 83 68 45 78 62 37 
79 64 41 53 38 17 75 60 41 81 66 45 79 65 39 80 66 40 77 62 39 77 62 41 78 63 42 82 67 46 82 67 48 81 66 47 79 64 43 83 67 44 101 84 58 83 66 38 
83 63 36 64 44 19 81 61 37 86 66 42 84 64 39 83 63 36 86 66 41 86 65 44 86 66 41 85 65 40 80 62 38 81 63 39 83 63 39 86 65 38 104 83 54 88 65 34 
76 65 45 50 38 22 51 39 25 51 39 25 51 39 23 51 40 22 53 41 27 49 37 25 50 39 21 49 38 20 51 39 23 55 43 27 50 39 21 50 37 18 81 66 45 81 66 43 
79 63 40 59 43 20 78 62 39 81 63 39 84 66 42 79 61 37 84 66 42 80 62 38 85 65 38 84 64 39 81 61 37 89 68 47 84 64 40 80 60 35 105 85 58 84 65 35 
78 63 40 56 41 18 78 64 38 81 67 41 83 67 42 80 64 39 84 68 43 81 65 40 76 61 30 83 68 37 81 66 37 83 66 40 79 62 34 83 66 36 106 90 56 78 62 26 
83 74 57 43 31 15 52 40 24 51 40 22 49 38 20 47 36 18 48 37 19 51 38 21 55 43 29 51 39 25 47 35 23 54 40 29 49 35 22 52 36 21 85 70 51 81 66 45 
78 57 36 61 40 19 87 66 45 85 65 41 81 61 37 89 67 44 87 65 42 83 61 38 84 64 37 86 66 39 84 64 37 86 65 38 86 65 36 90 67 36 106 83 51 83 59 25 
79 68 40 56 45 17 72 61 33 77 66 38 78 67 37 83 69 40 78 64 35 80 66 37 74 62 40 78 66 44 78 66 44 78 63 42 77 62 39 82 66 41 101 85 59 86 71 42 
76 63 54 53 40 31 50 38 26 53 39 28 54 40 29 51 37 26 48 34 23 55 41 30 57 44 28 53 40 24 51 38 22 52 39 23 51 38 22 52 39 22 77 61 45 77 62 43 
93 66 21 120 93 46 132 105 58 127 99 52 125 97 50 129 101 54 130 102 55 125 97 50 128 96 55 128 99 57 127 98 56 124 95 53 130 101 59 131 102 60 126 97 55 96 67 25 
80 64 39 86 70 45 77 61 36 81 64 38 86 69 43 80 63 37 80 63 37 86 69 43 83 63 38 83 63 38 85 65 40 82 65 39 82 65 39 79 63 37 86 70 45 77 61 36 
