P3
16 16
255
163 46 153 174 57 164 181 61 169 164 44 152 160 38 147 177 57 167 180 60 170 166 46 156 161 44 151 175 55 163 179 59 169 168 46 157 164 42 153 178 58 168 176 60 167 153 40 146 
178 61 168 153 36 143 157 37 145 173 53 161 172 50 161 161 39 150 158 38 148 170 50 160 167 50 157 158 38 148 162 40 151 172 50 161 169 47 158 159 39 149 155 39 146 156 43 147 
179 62 169 157 40 147 166 46 154 186 64 173 185 63 174 171 49 160 168 48 158 182 62 172 187 67 175 167 47 157 168 46 157 186 64 175 185 63 174 167 47 155 156 40 147 158 45 149 
160 43 150 170 50 158 187 67 175 188 66 177 182 60 171 186 64 175 187 67 177 186 66 176 188 68 178 186 64 175 184 62 173 186 64 175 189 67 178 186 66 174 168 53 157 149 36 140 
161 44 151 168 48 158 183 63 173 187 65 176 182 60 171 185 63 174 186 64 175 184 64 174 180 60 170 188 66 177 189 65 177 183 59 171 184 62 173 185 65 173 168 53 157 148 35 139 
175 57 167 162 42 152 170 48 159 185 63 174 189 67 178 187 65 176 184 61 175 188 65 179 187 65 176 185 63 174 186 62 176 189 65 177 185 63 174 170 50 158 158 43 147 158 46 148 
174 54 164 162 42 152 170 48 159 183 61 172 188 64 176 187 64 178 184 61 175 187 64 178 188 66 177 184 60 174 184 60 174 189 65 177 186 64 175 167 47 155 154 39 143 158 46 148 
167 47 157 167 47 157 182 60 171 188 66 177 184 60 174 182 59 173 183 60 174 187 64 178 182 58 172 187 63 177 185 61 175 184 60 174 189 67 178 183 63 171 165 50 154 153 41 143 
164 46 156 164 46 156 179 61 171 186 66 176 180 60 170 188 66 177 189 67 178 181 59 170 184 62 171 188 64 176 188 61 174 187 60 173 189 65 175 185 63 172 168 51 156 154 39 142 
174 56 166 156 38 148 169 49 159 187 67 177 188 66 177 183 61 172 184 62 173 190 66 178 186 66 176 185 63 174 185 63 174 189 65 177 184 62 173 169 49 157 156 41 145 154 41 145 
175 55 165 160 40 150 171 49 160 187 65 176 186 64 175 184 60 172 183 59 171 187 63 175 182 64 174 185 65 175 185 64 177 187 64 178 181 61 171 167 50 157 156 43 149 155 44 147 
163 41 152 171 49 160 186 64 175 186 64 175 181 59 170 189 65 177 190 66 178 184 60 172 183 63 173 189 69 179 189 66 180 183 60 174 184 64 174 182 64 174 169 53 160 155 40 144 
163 43 153 170 50 160 185 65 175 189 67 178 184 62 173 186 64 175 187 65 176 188 66 177 186 64 175 187 65 176 185 61 175 185 61 175 189 67 178 186 64 173 169 49 157 154 37 142 
176 59 166 159 42 149 166 49 156 183 66 173 182 65 172 167 50 157 166 49 156 183 66 173 182 60 169 172 50 161 171 49 160 183 61 172 186 64 175 170 50 158 159 39 145 162 43 147 
174 59 163 155 40 144 155 40 144 168 53 157 168 53 157 156 41 145 152 37 141 167 52 156 165 48 155 159 42 149 158 41 148 167 50 157 170 53 160 158 43 147 154 39 142 161 46 149 
155 42 146 156 43 147 157 44 148 150 37 141 151 38 142 158 45 149 155 42 146 153 40 144 153 40 144 158 45 151 155 42 148 149 36 142 151 40 143 157 46 149 157 45 147 152 40 140 
