P3
16 16
255
180 60 170 179 59 169 174 54 164 177 57 167 186 66 176 199 79 189 175 55 165 180 60 170 192 72 182 197 77 187 175 55 165 173 53 163 189 69 179 191 71 181 171 51 161 174 54 164 
179 59 169 200 80 190 212 92 202 217 97 207 203 83 193 191 71 181 185 65 175 184 64 174 181 61 171 167 47 157 176 56 166 186 66 176 168 48 158 172 52 162 186 66 176 183 63 173 
206 86 196 201 81 191 183 63 173 185 65 175 208 88 198 205 85 195 192 72 182 183 63 173 195 75 185 201 81 191 195 75 185 194 74 184 213 93 203 212 92 202 198 78 188 192 72 182 
181 61 171 180 60 170 204 84 194 202 82 192 181 61 171 180 60 170 185 65 175 201 81 191 178 58 168 186 66 176 206 86 196 198 78 188 187 67 177 193 73 183 209 89 199 201 81 191 
199 79 189 182 62 172 176 56 166 189 69 179 197 77 187 200 80 190 171 51 161 175 55 165 179 59 169 186 66 176 180 60 170 178 58 168 201 81 191 191 71 181 174 54 164 172 52 162 
171 51 161 169 49 159 180 60 170 203 83 193 175 55 165 172 52 162 177 57 167 178 58 168 179 59 169 177 57 167 181 61 171 177 57 167 173 53 163 177 57 167 185 65 175 180 60 170 
217 97 207 211 91 201 201 81 191 201 81 191 185 65 175 184 64 174 189 69 179 189 69 179 198 78 188 213 93 203 194 74 184 188 68 178 214 94 204 217 97 207 192 72 182 189 69 179 
181 61 171 184 64 174 215 95 205 212 92 202 192 72 182 198 78 188 202 82 192 202 82 192 177 57 167 180 60 170 195 75 185 207 87 197 190 70 180 194 74 184 203 83 193 202 82 192 
195 75 185 197 77 187 171 51 161 180 60 170 200 80 190 196 76 186 179 59 169 180 60 170 179 59 169 183 63 173 176 56 166 176 56 166 188 68 178 182 62 172 172 52 162 177 57 167 
179 59 169 184 64 174 182 62 172 197 77 187 172 52 162 169 49 159 177 57 167 193 73 183 181 61 171 197 77 187 218 98 208 212 92 202 185 65 175 197 77 187 218 98 208 214 94 204 
204 84 194 203 83 193 194 74 184 197 77 187 216 96 206 204 84 194 197 77 187 199 79 189 199 79 189 193 73 183 185 65 175 196 76 186 191 71 181 184 64 174 177 57 167 189 69 179 
177 57 167 174 54 164 197 77 187 191 71 181 179 59 169 177 57 167 200 80 190 188 68 178 178 58 168 182 62 172 181 61 171 188 68 178 172 52 162 175 55 165 179 59 169 194 74 184 
176 56 166 186 66 176 164 44 154 173 53 163 204 84 194 214 94 204 175 55 165 169 49 159 187 67 177 195 75 185 187 67 177 199 79 189 210 90 200 219 99 209 189 69 179 170 50 160 
193 73 183 197 77 187 211 91 201 217 97 207 198 78 188 193 73 183 186 66 176 185 65 175 173 53 163 183 63 173 195 75 185 203 83 193 185 65 175 188 68 178 201 81 191 219 99 209 
213 93 203 201 81 191 197 77 187 182 62 172 203 83 193 194 74 184 190 70 180 194 74 184 215 95 205 202 82 192 179 59 169 177 57 167 190 70 180 194 74 184 181 61 171 176 56 166 
175 55 165 176 56 166 199 79 189 190 70 180 175 55 165 182 62 172 204 84 194 212 92 202 188 68 178 176 56 166 197 77 187 203 83 193 175 55 165 176 56 166 202 82 192 201 81 191 
