P3
16 16
255
127 140 32 163 176 24 74 130 43 56 109 21 173 175 29 102 147 42 120 141 38 159 173 24 54 109 16 168 176 41 108 145 40 171 172 18 44 117 28 85 123 12 171 177 17 112 147 31 
97 153 30 110 139 46 165 182 28 81 125 38 83 130 14 159 182 29 111 139 28 163 180 40 82 134 36 157 167 16 113 146 31 85 133 24 66 132 32 170 173 44 104 146 46 164 169 43 
162 172 39 110 155 36 113 141 22 175 171 22 81 128 16 165 167 22 107 151 38 173 174 20 83 129 31 170 174 27 83 130 36 118 144 34 167 166 22 115 148 41 164 165 25 78 131 27 
58 112 26 170 168 21 114 147 34 99 148 43 122 144 35 83 130 28 126 143 31 163 175 31 44 114 25 121 141 26 51 116 34 170 167 28 121 145 35 111 152 48 80 133 17 45 120 29 
83 125 1 54 108 46 160 181 42 107 143 47 109 141 32 112 153 33 153 168 41 117 143 33 76 132 31 47 118 38 164 167 16 100 149 31 81 132 27 71 127 28 57 105 5 90 126 30 
174 176 30 157 173 38 113 148 30 93 131 20 42 118 28 111 146 28 173 175 29 81 130 23 82 131 16 99 146 34 125 150 32 81 126 43 81 132 40 119 143 19 170 171 33 153 178 34 
100 140 41 110 157 27 163 166 17 162 169 37 73 129 30 55 118 13 86 122 35 43 122 13 43 97 37 96 123 30 35 108 26 81 132 29 105 144 15 166 181 30 111 146 44 108 145 32 
79 133 35 87 123 15 113 150 37 128 141 35 165 174 33 103 145 33 51 118 47 166 167 27 109 141 34 48 98 25 83 130 26 114 142 29 114 145 42 78 129 28 78 127 36 93 126 21 
57 113 26 77 125 39 89 129 30 75 129 17 114 147 40 111 144 27 38 100 25 164 172 24 75 124 33 40 98 22 114 151 35 158 172 33 163 177 32 114 148 35 82 124 22 55 108 38 
153 175 28 116 147 28 102 145 37 162 173 43 161 180 13 113 140 45 51 110 26 43 92 37 57 96 31 79 126 32 124 142 32 114 147 30 117 142 24 165 173 25 174 175 35 158 179 22 
121 146 26 165 170 26 179 174 28 104 149 30 55 107 32 58 112 28 121 139 27 103 155 28 75 130 13 50 115 23 181 170 29 109 145 45 74 130 39 90 129 20 101 139 26 109 146 41 
149 174 30 111 149 38 76 124 25 50 113 22 112 155 48 100 146 22 169 166 37 82 129 37 114 150 24 72 130 43 97 149 39 169 166 27 55 114 30 91 127 29 88 137 20 169 172 29 
56 114 27 74 131 34 84 137 29 171 159 13 102 150 32 91 127 31 161 175 26 49 114 20 112 142 44 162 173 35 56 118 35 114 147 30 159 167 32 165 173 25 158 166 31 77 136 18 
84 132 20 158 168 17 162 172 41 114 151 38 89 126 31 169 167 20 102 151 44 52 119 26 86 135 20 162 169 27 73 120 18 85 141 42 83 130 16 97 149 39 116 149 42 173 164 33 
171 162 41 122 144 43 167 169 23 77 131 33 105 155 44 160 176 15 111 145 24 77 128 25 164 168 29 131 151 36 161 170 17 84 133 26 88 122 12 83 128 43 114 152 30 105 142 29 
109 151 43 160 173 23 88 133 14 86 125 16 162 164 28 120 148 37 108 150 40 90 124 29 160 171 32 104 149 32 120 147 40 165 165 31 79 130 35 79 130 25 171 164 22 112 155 39 
