P3
16 16
255
112 145 38 161 176 23 50 123 31 92 130 29 154 173 29 111 147 37 164 169 14 53 122 39 51 124 35 173 167 21 111 145 33 160 175 24 85 132 40 48 124 34 164 171 33 113 147 35 
117 145 32 170 176 24 40 118 32 59 115 28 172 174 15 116 148 37 164 170 22 57 122 30 77 133 36 174 171 18 101 149 49 165 169 22 52 115 26 162 173 32 103 142 36 117 146 28 
108 146 33 173 173 23 73 130 35 58 122 35 170 172 13 105 147 47 158 171 39 112 146 25 86 125 19 159 180 41 116 146 32 169 176 38 63 121 21 173 168 16 118 153 51 111 145 25 
111 146 28 163 171 34 92 133 31 63 122 28 155 174 33 117 150 43 120 144 30 166 175 30 84 125 19 110 150 35 164 167 28 173 176 37 79 132 28 110 145 27 163 166 33 109 149 35 
160 172 36 112 143 24 83 127 30 79 131 30 112 150 31 162 166 29 110 141 37 164 173 22 82 134 33 84 122 19 174 176 33 165 165 19 74 133 39 83 133 34 168 168 20 110 148 39 
172 176 37 86 132 23 82 125 20 87 126 17 79 133 35 176 179 30 108 141 37 169 174 20 78 129 26 89 126 30 159 168 27 126 151 24 82 133 32 81 122 18 164 179 38 111 144 37 
162 169 37 82 129 17 85 127 17 93 129 21 74 123 31 155 173 25 120 148 38 166 171 19 82 125 18 91 133 33 165 174 33 103 142 36 86 130 15 84 125 21 162 174 36 115 149 37 
170 171 33 106 151 34 70 130 32 81 128 32 118 146 43 156 175 23 124 143 25 154 175 38 86 128 26 106 146 34 157 173 38 124 147 39 73 131 18 83 128 27 171 172 34 110 143 26 
113 148 32 166 178 34 77 128 25 47 117 28 175 171 38 105 151 27 103 145 33 177 173 22 77 133 36 166 168 35 107 147 32 174 173 23 47 115 42 73 135 28 177 172 44 111 146 26 
114 147 30 159 168 27 61 118 21 58 127 44 174 170 34 103 144 22 119 151 26 153 170 38 55 115 19 173 174 38 107 144 31 152 176 28 77 117 29 58 121 17 160 162 26 111 148 34 
114 147 34 164 171 31 61 125 31 40 104 26 169 170 30 109 148 33 157 176 35 86 129 24 60 124 28 169 165 39 114 150 24 105 152 40 162 176 39 44 105 28 167 179 19 109 147 44 
105 144 38 170 171 33 71 130 38 46 103 26 167 174 34 86 129 22 170 179 26 55 115 29 38 102 18 173 174 36 105 143 32 73 124 21 170 173 24 48 102 27 166 180 23 81 127 29 
87 135 36 170 169 27 65 116 24 59 111 29 162 174 36 75 125 28 167 171 16 56 117 40 48 108 36 171 176 32 82 124 26 91 131 35 165 176 22 55 101 28 162 170 23 79 129 32 
78 125 29 167 169 23 58 107 25 48 100 15 159 171 35 82 132 33 167 173 21 49 105 30 46 106 34 162 169 27 85 128 21 91 119 34 155 177 17 58 100 34 173 177 31 80 126 27 
89 130 26 163 169 19 54 109 41 50 110 24 167 171 34 86 128 18 158 170 24 55 107 33 47 109 34 162 167 15 97 134 31 113 146 39 155 172 32 48 100 15 167 169 33 112 150 41 
112 144 33 167 177 26 38 101 44 54 122 35 172 169 30 119 150 31 159 173 34 54 104 31 53 118 34 172 172 26 110 144 23 107 148 44 161 173 25 53 110 31 169 173 26 112 142 30 
