P3
16 16
255
138 138 138 255 255 255 138 138 138 79 79 79 138 138 138 255 255 255 154 154 154 152 152 152 255 255 255 138 138 138 255 255 255 152 152 152 255 255 255 255 255 255 138 138 138 154 154 154 
85 85 85 152 152 152 255 255 255 138 138 138 255 255 255 152 152 152 152 152 152 255 255 255 66 66 66 138 138 138 66 66 66 255 255 255 152 152 152 154 154 154 85 85 85 154 154 154 
152 152 152 255 255 255 66 66 66 138 138 138 66 66 66 255 255 255 152 152 152 255 255 255 138 138 138 154 154 154 138 138 138 138 138 138 79 79 79 138 138 138 255 255 255 154 154 154 
255 255 255 255 255 255 138 138 138 154 154 154 138 138 138 255 255 255 255 255 255 154 154 154 85 85 85 154 154 154 85 85 85 154 154 154 138 138 138 255 255 255 152 152 152 255 255 255 
255 255 255 154 154 154 85 85 85 154 154 154 85 85 85 154 154 154 138 138 138 79 79 79 138 138 138 154 154 154 255 255 255 66 66 66 138 138 138 66 66 66 255 255 255 152 152 152 
255 255 255 255 255 255 255 255 255 154 154 154 255 255 255 152 152 152 255 255 255 138 138 138 255 255 255 152 152 152 255 255 255 138 138 138 154 154 154 138 138 138 255 255 255 255 255 255 
255 255 255 66 66 66 255 255 255 255 255 255 152 152 152 255 255 255 66 66 66 138 138 138 66 66 66 255 255 255 154 154 154 85 85 85 154 154 154 85 85 85 154 154 154 255 255 255 
138 138 138 79 79 79 138 138 138 255 255 255 255 255 255 255 255 255 138 138 138 154 154 154 138 138 138 255 255 255 255 255 255 255 255 255 154 154 154 255 255 255 255 255 255 255 255 255 
255 255 255 138 138 138 255 255 255 152 152 152 255 255 255 154 154 154 85 85 85 154 154 154 85 85 85 154 154 154 255 255 255 66 66 66 255 255 255 255 255 255 255 255 255 152 152 152 
66 66 66 138 138 138 66 66 66 255 255 255 152 152 152 255 255 255 255 255 255 154 154 154 255 255 255 255 255 255 138 138 138 79 79 79 138 138 138 255 255 255 152 152 152 255 255 255 
138 138 138 154 154 154 138 138 138 255 255 255 255 255 255 255 255 255 66 66 66 255 255 255 255 255 255 152 152 152 255 255 255 138 138 138 255 255 255 152 152 152 255 255 255 255 255 255 
85 85 85 154 154 154 85 85 85 154 154 154 255 255 255 138 138 138 79 79 79 138 138 138 152 152 152 255 255 255 66 66 66 138 138 138 66 66 66 255 255 255 152 152 152 154 154 154 
255 255 255 154 154 154 255 255 255 255 255 255 152 152 152 255 255 255 138 138 138 255 255 255 152 152 152 255 255 255 138 138 138 154 154 154 138 138 138 255 255 255 255 255 255 66 66 66 
138 138 138 255 255 255 255 255 255 152 152 152 255 255 255 66 66 66 138 138 138 66 66 66 255 255 255 154 154 154 85 85 85 154 154 154 85 85 85 154 154 154 138 138 138 79 79 79 
255 255 255 152 152 152 255 255 255 255 255 255 255 255 255 138 138 138 154 154 154 138 138 138 255 255 255 66 66 66 255 255 255 154 154 154 255 255 255 152 152 152 255 255 255 138 138 138 
66 66 66 255 255 255 152 152 152 66 66 66 154 154 154 85 85 85 154 154 154 85 85 85 138 138 138 79 79 79 138 138 138 255 255 255 152 152 152 255 255 255 66 66 66 138 138 138 
