P3
16 16
255
255 255 255 131 129 131 255 255 255 255 255 255 255 255 255 255 255 255 255 255 255 255 255 255 255 255 255 255 255 255 255 255 255 255 255 255 255 255 255 255 255 255 255 255 255 255 255 255 
255 255 255 255 255 255 131 129 131 255 255 255 131 129 131 255 255 255 255 255 255 255 255 255 255 255 255 255 255 255 172 170 172 255 255 255 255 255 255 255 255 255 255 255 255 255 255 255 
255 255 255 255 255 255 131 129 131 255 255 255 148 145 148 255 255 255 255 255 255 255 255 255 255 255 255 255 255 255 172 170 172 255 255 255 255 255 255 131 129 131 255 255 255 255 255 255 
255 255 255 255 255 255 148 145 148 255 255 255 131 129 131 148 145 148 255 255 255 255 255 255 255 255 255 255 255 255 148 145 148 255 255 255 131 129 131 255 255 255 255 255 255 255 255 255 
255 255 255 255 255 255 255 255 255 172 170 172 255 255 255 148 145 148 255 255 255 255 255 255 255 255 255 148 145 148 131 129 131 255 255 255 148 145 148 255 255 255 255 255 255 255 255 255 
255 255 255 255 255 255 255 255 255 172 170 172 255 255 255 148 145 148 255 255 255 255 255 255 255 255 255 148 145 148 255 255 255 255 255 255 148 145 148 255 255 255 255 255 255 255 255 255 
255 255 255 255 255 255 255 255 255 148 145 148 255 255 255 172 170 172 255 255 255 255 255 255 255 255 255 172 170 172 255 255 255 255 255 255 172 170 172 255 255 255 255 255 255 255 255 255 
255 255 255 255 255 255 255 255 255 148 145 148 255 255 255 172 170 172 255 255 255 115 117 115 255 255 255 172 170 172 255 255 255 255 255 255 172 170 172 255 255 255 255 255 255 255 255 255 
255 255 255 255 255 255 255 255 255 172 170 172 255 255 255 172 170 172 255 255 255 115 117 115 255 255 255 172 170 172 255 255 255 148 145 148 172 170 172 255 255 255 115 117 115 255 255 255 
255 255 255 255 255 255 255 255 255 172 170 172 255 255 255 172 170 172 255 255 255 255 255 255 115 117 115 172 170 172 255 255 255 172 170 172 103 105 103 103 105 103 255 255 255 255 255 255 
255 255 255 255 255 255 255 255 255 172 170 172 255 255 255 172 170 172 148 145 148 255 255 255 148 145 148 172 170 172 255 255 255 172 170 172 148 145 148 255 255 255 255 255 255 255 255 255 
255 255 255 148 145 148 255 255 255 172 170 172 148 145 148 172 170 172 148 145 148 255 255 255 172 170 172 148 145 148 255 255 255 172 170 172 115 117 115 255 255 255 255 255 255 255 255 255 
255 255 255 255 255 255 115 117 115 172 170 172 148 145 148 131 129 131 172 170 172 255 255 255 172 170 172 148 145 148 255 255 255 172 170 172 115 117 115 255 255 255 255 255 255 255 255 255 
255 255 255 255 255 255 255 255 255 172 170 172 148 145 148 255 255 255 172 170 172 255 255 255 172 170 172 148 145 148 255 255 255 148 145 148 255 255 255 255 255 255 255 255 255 255 255 255 
255 255 255 255 255 255 255 255 255 115 117 115 172 170 172 255 255 255 172 170 172 255 255 255 148 145 148 255 255 255 115 117 115 148 145 148 255 255 255 255 255 255 131 129 131 255 255 255 
255 255 255 131 129 131 255 255 255 255 255 255 172 170 172 255 255 255 172 170 172 255 255 255 148 145 148 255 255 255 115 117 115 172 170 172 255 255 255 131 129 131 255 255 255 255 255 255 
